M48
; DRILL file {KiCad 9.0.3} date 2025-10-11T15:22:11-0500
; FORMAT={-:-/ absolute / inch / decimal}
; #@! TF.CreationDate,2025-10-11T15:22:11-05:00
; #@! TF.GenerationSoftware,Kicad,Pcbnew,9.0.3
; #@! TF.FileFunction,Plated,1,2,PTH
FMAT,2
INCH
; #@! TA.AperFunction,Plated,PTH,ComponentDrill
T1C0.0610
; #@! TA.AperFunction,Plated,PTH,ComponentDrill
T2C0.0630
; #@! TA.AperFunction,Plated,PTH,ComponentDrill
T3C0.0709
%
G90
G05
T1
X3.6047Y-2.815
X3.6047Y-2.9528
X3.6047Y-3.0906
X3.6047Y-3.2283
X3.6047Y-3.3661
X3.6047Y-3.5039
X3.6047Y-3.6417
X3.6047Y-3.7795
X3.6047Y-3.9173
X3.6047Y-4.0551
X3.7425Y-2.815
X3.7425Y-2.9528
X3.7425Y-3.0906
X3.7425Y-3.2283
X3.7425Y-3.3661
X3.7425Y-3.5039
X3.7425Y-3.6417
X3.7425Y-3.7795
X3.7425Y-3.9173
X3.7425Y-4.0551
T2
X4.1803Y-3.9055
X4.1803Y-4.0394
X4.1819Y-3.1378
X4.1819Y-3.2717
X4.5709Y-3.9055
X4.5709Y-4.0394
X4.5724Y-3.1378
X4.5724Y-3.2717
X4.8693Y-3.9055
X4.8693Y-4.0394
X4.8709Y-3.1378
X4.8709Y-3.2717
X5.2598Y-3.9055
X5.2598Y-4.0394
X5.2614Y-3.1378
X5.2614Y-3.2717
X5.5583Y-3.9055
X5.5583Y-4.0394
X5.5598Y-3.1378
X5.5598Y-3.2717
X5.9488Y-3.9055
X5.9488Y-4.0394
X5.9504Y-3.1378
X5.9504Y-3.2717
X6.2472Y-3.9055
X6.2472Y-4.0394
X6.2488Y-3.1378
X6.2488Y-3.2717
X6.6378Y-3.9055
X6.6378Y-4.0394
X6.6394Y-3.1378
X6.6394Y-3.2717
X6.9362Y-3.9055
X6.9362Y-4.0394
X6.9378Y-3.1378
X6.9378Y-3.2717
X7.3268Y-3.9055
X7.3268Y-4.0394
X7.3283Y-3.1378
X7.3283Y-3.2717
X7.6252Y-3.9055
X7.6252Y-4.0394
X7.6268Y-3.1378
X7.6268Y-3.2717
X8.0157Y-3.9055
X8.0157Y-4.0394
X8.0173Y-3.1378
X8.0173Y-3.2717
X8.316Y-3.1378
X8.316Y-3.2717
X8.316Y-3.9055
X8.316Y-4.0394
X8.7065Y-3.1378
X8.7065Y-3.2717
X8.7065Y-3.9055
X8.7065Y-4.0394
T3
X4.2787Y-3.6575
X4.2803Y-2.8898
X4.4756Y-3.6575
X4.4772Y-2.8898
X4.9677Y-3.6575
X4.9693Y-2.8898
X5.1646Y-3.6575
X5.1661Y-2.8898
X5.6567Y-3.6575
X5.6583Y-2.8898
X5.8535Y-3.6575
X5.8551Y-2.8898
X6.3457Y-3.6575
X6.3472Y-2.8898
X6.5425Y-3.6575
X6.5441Y-2.8898
X7.0346Y-3.6575
X7.0362Y-2.8898
X7.2315Y-3.6575
X7.2331Y-2.8898
X7.7236Y-3.6575
X7.7252Y-2.8898
X7.9205Y-3.6575
X7.922Y-2.8898
X8.4128Y-2.8898
X8.4128Y-3.6575
X8.6097Y-2.8898
X8.6097Y-3.6575
M30
