%TF.GenerationSoftware,KiCad,Pcbnew,9.0.3*%
%TF.CreationDate,2025-10-11T15:22:11-05:00*%
%TF.ProjectId,PS-LVDistributionPCB,50532d4c-5644-4697-9374-726962757469,rev?*%
%TF.SameCoordinates,Original*%
%TF.FileFunction,Copper,L1,Top*%
%TF.FilePolarity,Positive*%
%FSLAX46Y46*%
G04 Gerber Fmt 4.6, Leading zero omitted, Abs format (unit mm)*
G04 Created by KiCad (PCBNEW 9.0.3) date 2025-10-11 15:22:11*
%MOMM*%
%LPD*%
G01*
G04 APERTURE LIST*
G04 Aperture macros list*
%AMRoundRect*
0 Rectangle with rounded corners*
0 $1 Rounding radius*
0 $2 $3 $4 $5 $6 $7 $8 $9 X,Y pos of 4 corners*
0 Add a 4 corners polygon primitive as box body*
4,1,4,$2,$3,$4,$5,$6,$7,$8,$9,$2,$3,0*
0 Add four circle primitives for the rounded corners*
1,1,$1+$1,$2,$3*
1,1,$1+$1,$4,$5*
1,1,$1+$1,$6,$7*
1,1,$1+$1,$8,$9*
0 Add four rect primitives between the rounded corners*
20,1,$1+$1,$2,$3,$4,$5,0*
20,1,$1+$1,$4,$5,$6,$7,0*
20,1,$1+$1,$6,$7,$8,$9,0*
20,1,$1+$1,$8,$9,$2,$3,0*%
G04 Aperture macros list end*
%TA.AperFunction,ComponentPad*%
%ADD10C,2.057400*%
%TD*%
%TA.AperFunction,ComponentPad*%
%ADD11R,3.000000X3.000000*%
%TD*%
%TA.AperFunction,ComponentPad*%
%ADD12C,3.000000*%
%TD*%
%TA.AperFunction,SMDPad,CuDef*%
%ADD13RoundRect,0.218750X0.218750X0.256250X-0.218750X0.256250X-0.218750X-0.256250X0.218750X-0.256250X0*%
%TD*%
%TA.AperFunction,ComponentPad*%
%ADD14C,2.400000*%
%TD*%
%TA.AperFunction,Conductor*%
%ADD15C,1.000000*%
%TD*%
%TA.AperFunction,Conductor*%
%ADD16C,2.000000*%
%TD*%
%TA.AperFunction,Conductor*%
%ADD17C,1.200000*%
%TD*%
%TA.AperFunction,Conductor*%
%ADD18C,0.800000*%
%TD*%
G04 APERTURE END LIST*
D10*
%TO.P,J17,20*%
%TO.N,P11*%
X91559999Y-103000010D03*
%TO.P,J17,19*%
%TO.N,P12*%
X91559999Y-99500009D03*
%TO.P,J17,18*%
%TO.N,GND*%
X91559999Y-96000008D03*
%TO.P,J17,17*%
X91559999Y-92500005D03*
%TO.P,J17,16*%
X91559999Y-89000005D03*
%TO.P,J17,15*%
X91559999Y-85500004D03*
%TO.P,J17,14,GND_OUT\u002A*%
X91559999Y-82000003D03*
%TO.P,J17,13,CANL_OUT*%
X91559999Y-78500003D03*
%TO.P,J17,12,CANH_OUT*%
%TO.N,P5*%
X91559999Y-75000002D03*
%TO.P,J17,11,GND*%
%TO.N,P4*%
X91559999Y-71500001D03*
%TO.P,J17,10*%
%TO.N,P10*%
X95060001Y-103000010D03*
%TO.P,J17,9*%
%TO.N,P9*%
X95060001Y-99500009D03*
%TO.P,J17,8*%
%TO.N,P8*%
X95060001Y-96000008D03*
%TO.P,J17,7*%
%TO.N,P13*%
X95060001Y-92500005D03*
%TO.P,J17,6*%
%TO.N,P14*%
X95060001Y-89000005D03*
%TO.P,J17,5*%
%TO.N,P7*%
X95060001Y-85500004D03*
%TO.P,J17,4,PWR_OUT\u002A*%
%TO.N,P6*%
X95060001Y-82000003D03*
%TO.P,J17,3,CANL_IN*%
%TO.N,P1*%
X95060001Y-78500003D03*
%TO.P,J17,2,CANH_IN*%
%TO.N,P2*%
X95060001Y-75000002D03*
%TO.P,J17,1,+24V*%
%TO.N,P3*%
X95060001Y-71500001D03*
%TD*%
D11*
%TO.P,J4,1,Pin_1*%
%TO.N,Net-(J4-Pin_1)*%
X161220000Y-73400000D03*
D12*
%TO.P,J4,2,Pin_2*%
%TO.N,GND*%
X166220000Y-73400000D03*
%TD*%
D13*
%TO.P,D8,1,A1*%
%TO.N,GND*%
X105187500Y-96400000D03*
%TO.P,D8,2,A2*%
%TO.N,P8*%
X103612500Y-96400000D03*
%TD*%
D11*
%TO.P,J12,1,Pin_1*%
%TO.N,Net-(J12-Pin_1)*%
X178680000Y-92900000D03*
D12*
%TO.P,J12,2,Pin_2*%
%TO.N,GND*%
X183680000Y-92900000D03*
%TD*%
D13*
%TO.P,D3,1,A1*%
%TO.N,GND*%
X140175000Y-76900000D03*
%TO.P,D3,2,A2*%
%TO.N,P3*%
X138600000Y-76900000D03*
%TD*%
D11*
%TO.P,J7,1,Pin_1*%
%TO.N,Net-(J7-Pin_1)*%
X213685476Y-73400000D03*
D12*
%TO.P,J7,2,Pin_2*%
%TO.N,GND*%
X218685476Y-73400000D03*
%TD*%
D13*
%TO.P,D10,1,A1*%
%TO.N,GND*%
X140187500Y-96400000D03*
%TO.P,D10,2,A2*%
%TO.N,P10*%
X138612500Y-96400000D03*
%TD*%
D14*
%TO.P,F9,1*%
%TO.N,P9*%
X123680000Y-99200000D03*
%TO.P,F9,2*%
%TO.N,Net-(J9-Pin_1)*%
X133600000Y-99200000D03*
%TO.P,F9,3*%
%TO.N,P9*%
X123680000Y-102600000D03*
%TO.P,F9,4*%
%TO.N,Net-(J9-Pin_1)*%
X133600000Y-102600000D03*
%TD*%
D13*
%TO.P,D12,1,A1*%
%TO.N,GND*%
X175187500Y-96400000D03*
%TO.P,D12,2,A2*%
%TO.N,P12*%
X173612500Y-96400000D03*
%TD*%
D14*
%TO.P,F8,1*%
%TO.N,P8*%
X106180000Y-99200000D03*
%TO.P,F8,2*%
%TO.N,Net-(J8-Pin_1)*%
X116100000Y-99200000D03*
%TO.P,F8,3*%
%TO.N,P8*%
X106180000Y-102600000D03*
%TO.P,F8,4*%
%TO.N,Net-(J8-Pin_1)*%
X116100000Y-102600000D03*
%TD*%
%TO.P,F12,1*%
%TO.N,P12*%
X176180000Y-99200000D03*
%TO.P,F12,2*%
%TO.N,Net-(J12-Pin_1)*%
X186100000Y-99200000D03*
%TO.P,F12,3*%
%TO.N,P12*%
X176180000Y-102600000D03*
%TO.P,F12,4*%
%TO.N,Net-(J12-Pin_1)*%
X186100000Y-102600000D03*
%TD*%
D13*
%TO.P,D7,1,A1*%
%TO.N,GND*%
X210200000Y-76900000D03*
%TO.P,D7,2,A2*%
%TO.N,P7*%
X208625000Y-76900000D03*
%TD*%
D11*
%TO.P,J1,1,Pin_1*%
%TO.N,Net-(J1-Pin_1)*%
X108720000Y-73400000D03*
D12*
%TO.P,J1,2,Pin_2*%
%TO.N,GND*%
X113720000Y-73400000D03*
%TD*%
D13*
%TO.P,D5,1,A1*%
%TO.N,GND*%
X175187500Y-76900000D03*
%TO.P,D5,2,A2*%
%TO.N,P5*%
X173612500Y-76900000D03*
%TD*%
%TO.P,D11,1,A1*%
%TO.N,GND*%
X157687500Y-96400000D03*
%TO.P,D11,2,A2*%
%TO.N,P11*%
X156112500Y-96400000D03*
%TD*%
D14*
%TO.P,F13,1*%
%TO.N,P13*%
X193680000Y-99200000D03*
%TO.P,F13,2*%
%TO.N,Net-(J13-Pin_1)*%
X203600000Y-99200000D03*
%TO.P,F13,3*%
%TO.N,P13*%
X193680000Y-102600000D03*
%TO.P,F13,4*%
%TO.N,Net-(J13-Pin_1)*%
X203600000Y-102600000D03*
%TD*%
D11*
%TO.P,J10,1,Pin_1*%
%TO.N,Net-(J10-Pin_1)*%
X143680000Y-92900000D03*
D12*
%TO.P,J10,2,Pin_2*%
%TO.N,GND*%
X148680000Y-92900000D03*
%TD*%
D13*
%TO.P,D2,1,A1*%
%TO.N,GND*%
X122687500Y-76900000D03*
%TO.P,D2,2,A2*%
%TO.N,P2*%
X121112500Y-76900000D03*
%TD*%
D11*
%TO.P,J9,1,Pin_1*%
%TO.N,Net-(J9-Pin_1)*%
X126180000Y-92900000D03*
D12*
%TO.P,J9,2,Pin_2*%
%TO.N,GND*%
X131180000Y-92900000D03*
%TD*%
D11*
%TO.P,J5,1,Pin_1*%
%TO.N,Net-(J5-Pin_1)*%
X178720000Y-73400000D03*
D12*
%TO.P,J5,2,Pin_2*%
%TO.N,GND*%
X183720000Y-73400000D03*
%TD*%
D14*
%TO.P,F4,1*%
%TO.N,P4*%
X158720000Y-79700000D03*
%TO.P,F4,2*%
%TO.N,Net-(J4-Pin_1)*%
X168640000Y-79700000D03*
%TO.P,F4,3*%
%TO.N,P4*%
X158720000Y-83100000D03*
%TO.P,F4,4*%
%TO.N,Net-(J4-Pin_1)*%
X168640000Y-83100000D03*
%TD*%
D13*
%TO.P,D6,1,A1*%
%TO.N,GND*%
X192687500Y-76900000D03*
%TO.P,D6,2,A2*%
%TO.N,P6*%
X191112500Y-76900000D03*
%TD*%
D11*
%TO.P,J14,1,Pin_1*%
%TO.N,Net-(J14-Pin_1)*%
X213685476Y-92900000D03*
D12*
%TO.P,J14,2,Pin_2*%
%TO.N,GND*%
X218685476Y-92900000D03*
%TD*%
D14*
%TO.P,F6,1*%
%TO.N,P6*%
X193720000Y-79700000D03*
%TO.P,F6,2*%
%TO.N,Net-(J6-Pin_1)*%
X203640000Y-79700000D03*
%TO.P,F6,3*%
%TO.N,P6*%
X193720000Y-83100000D03*
%TO.P,F6,4*%
%TO.N,Net-(J6-Pin_1)*%
X203640000Y-83100000D03*
%TD*%
%TO.P,F7,1*%
%TO.N,P7*%
X211225476Y-79700000D03*
%TO.P,F7,2*%
%TO.N,Net-(J7-Pin_1)*%
X221145476Y-79700000D03*
%TO.P,F7,3*%
%TO.N,P7*%
X211225476Y-83100000D03*
%TO.P,F7,4*%
%TO.N,Net-(J7-Pin_1)*%
X221145476Y-83100000D03*
%TD*%
D11*
%TO.P,J11,1,Pin_1*%
%TO.N,Net-(J11-Pin_1)*%
X161180000Y-92900000D03*
D12*
%TO.P,J11,2,Pin_2*%
%TO.N,GND*%
X166180000Y-92900000D03*
%TD*%
D11*
%TO.P,J3,1,Pin_1*%
%TO.N,Net-(J3-Pin_1)*%
X143720000Y-73400000D03*
D12*
%TO.P,J3,2,Pin_2*%
%TO.N,GND*%
X148720000Y-73400000D03*
%TD*%
D14*
%TO.P,F1,1*%
%TO.N,P1*%
X106220000Y-79700000D03*
%TO.P,F1,2*%
%TO.N,Net-(J1-Pin_1)*%
X116140000Y-79700000D03*
%TO.P,F1,3*%
%TO.N,P1*%
X106220000Y-83100000D03*
%TO.P,F1,4*%
%TO.N,Net-(J1-Pin_1)*%
X116140000Y-83100000D03*
%TD*%
D13*
%TO.P,D14,1,A1*%
%TO.N,GND*%
X210200000Y-96400000D03*
%TO.P,D14,2,A2*%
%TO.N,P14*%
X208625000Y-96400000D03*
%TD*%
D14*
%TO.P,F5,1*%
%TO.N,P5*%
X176220000Y-79700000D03*
%TO.P,F5,2*%
%TO.N,Net-(J5-Pin_1)*%
X186140000Y-79700000D03*
%TO.P,F5,3*%
%TO.N,P5*%
X176220000Y-83100000D03*
%TO.P,F5,4*%
%TO.N,Net-(J5-Pin_1)*%
X186140000Y-83100000D03*
%TD*%
%TO.P,F2,1*%
%TO.N,P2*%
X123720000Y-79700000D03*
%TO.P,F2,2*%
%TO.N,Net-(J2-Pin_1)*%
X133640000Y-79700000D03*
%TO.P,F2,3*%
%TO.N,P2*%
X123720000Y-83100000D03*
%TO.P,F2,4*%
%TO.N,Net-(J2-Pin_1)*%
X133640000Y-83100000D03*
%TD*%
D11*
%TO.P,J13,1,Pin_1*%
%TO.N,Net-(J13-Pin_1)*%
X196180000Y-92900000D03*
D12*
%TO.P,J13,2,Pin_2*%
%TO.N,GND*%
X201180000Y-92900000D03*
%TD*%
D13*
%TO.P,D13,1,A1*%
%TO.N,GND*%
X192687500Y-96400000D03*
%TO.P,D13,2,A2*%
%TO.N,P13*%
X191112500Y-96400000D03*
%TD*%
%TO.P,D4,1,A1*%
%TO.N,GND*%
X157687500Y-76900000D03*
%TO.P,D4,2,A2*%
%TO.N,P4*%
X156112500Y-76900000D03*
%TD*%
D11*
%TO.P,J6,1,Pin_1*%
%TO.N,Net-(J6-Pin_1)*%
X196220000Y-73400000D03*
D12*
%TO.P,J6,2,Pin_2*%
%TO.N,GND*%
X201220000Y-73400000D03*
%TD*%
D14*
%TO.P,F14,1*%
%TO.N,P14*%
X211225476Y-99200000D03*
%TO.P,F14,2*%
%TO.N,Net-(J14-Pin_1)*%
X221145476Y-99200000D03*
%TO.P,F14,3*%
%TO.N,P14*%
X211225476Y-102600000D03*
%TO.P,F14,4*%
%TO.N,Net-(J14-Pin_1)*%
X221145476Y-102600000D03*
%TD*%
D11*
%TO.P,J8,1,Pin_1*%
%TO.N,Net-(J8-Pin_1)*%
X108680000Y-92900000D03*
D12*
%TO.P,J8,2,Pin_2*%
%TO.N,GND*%
X113680000Y-92900000D03*
%TD*%
D14*
%TO.P,F10,1*%
%TO.N,P10*%
X141180000Y-99200000D03*
%TO.P,F10,2*%
%TO.N,Net-(J10-Pin_1)*%
X151100000Y-99200000D03*
%TO.P,F10,3*%
%TO.N,P10*%
X141180000Y-102600000D03*
%TO.P,F10,4*%
%TO.N,Net-(J10-Pin_1)*%
X151100000Y-102600000D03*
%TD*%
D11*
%TO.P,J2,1,Pin_1*%
%TO.N,Net-(J2-Pin_1)*%
X126220000Y-73400000D03*
D12*
%TO.P,J2,2,Pin_2*%
%TO.N,GND*%
X131220000Y-73400000D03*
%TD*%
D14*
%TO.P,F11,1*%
%TO.N,P11*%
X158680000Y-99200000D03*
%TO.P,F11,2*%
%TO.N,Net-(J11-Pin_1)*%
X168600000Y-99200000D03*
%TO.P,F11,3*%
%TO.N,P11*%
X158680000Y-102600000D03*
%TO.P,F11,4*%
%TO.N,Net-(J11-Pin_1)*%
X168600000Y-102600000D03*
%TD*%
D13*
%TO.P,D9,1,A1*%
%TO.N,GND*%
X122687500Y-96400000D03*
%TO.P,D9,2,A2*%
%TO.N,P9*%
X121112500Y-96400000D03*
%TD*%
D14*
%TO.P,F3,1*%
%TO.N,P3*%
X141220000Y-79700000D03*
%TO.P,F3,2*%
%TO.N,Net-(J3-Pin_1)*%
X151140000Y-79700000D03*
%TO.P,F3,3*%
%TO.N,P3*%
X141220000Y-83100000D03*
%TO.P,F3,4*%
%TO.N,Net-(J3-Pin_1)*%
X151140000Y-83100000D03*
%TD*%
D13*
%TO.P,D1,1,A1*%
%TO.N,GND*%
X105187500Y-76900000D03*
%TO.P,D1,2,A2*%
%TO.N,P1*%
X103612500Y-76900000D03*
%TD*%
D15*
%TO.N,P1*%
X103612500Y-76900000D02*
X103612500Y-77374999D01*
X103612500Y-77374999D02*
X105937501Y-79700000D01*
D16*
X106220000Y-79700000D02*
X106220000Y-83100000D01*
D15*
X96259998Y-79700000D02*
X106220000Y-79700000D01*
X95060001Y-78500003D02*
X96259998Y-79700000D01*
X105937501Y-79700000D02*
X106220000Y-79700000D01*
%TO.N,P2*%
X123720000Y-79700000D02*
X123700000Y-79700000D01*
X124300000Y-79120000D02*
X123720000Y-79700000D01*
X95060001Y-75000002D02*
X100060003Y-70000000D01*
X114000000Y-70000000D02*
X100060003Y-70000000D01*
D16*
X123720000Y-79700000D02*
X123720000Y-83100000D01*
D15*
X123700000Y-79700000D02*
X114000000Y-70000000D01*
%TO.N,P3*%
X95060001Y-71500001D02*
X97761001Y-68799001D01*
D16*
X141220000Y-79700000D02*
X141220000Y-83100000D01*
D15*
X141220000Y-79700000D02*
X140632685Y-79700000D01*
X140632685Y-79700000D02*
X136766343Y-75833657D01*
X129731686Y-68799001D02*
X97761001Y-68799001D01*
X138600000Y-76900000D02*
X137832686Y-76900000D01*
X137832686Y-76900000D02*
X136766343Y-75833657D01*
X136766343Y-75833657D02*
X129731686Y-68799001D01*
%TO.N,P4*%
X158720000Y-79700000D02*
X158705716Y-79700000D01*
X91559999Y-71500001D02*
X95461998Y-67598002D01*
X146603718Y-67598002D02*
X95461998Y-67598002D01*
D16*
X158720000Y-79700000D02*
X158720000Y-83100000D01*
D15*
X158705716Y-79700000D02*
X146603718Y-67598002D01*
%TO.N,P5*%
X89830299Y-70783535D02*
X89830299Y-73270302D01*
D16*
X176220000Y-79700000D02*
X176220000Y-83100000D01*
D15*
X176200000Y-79700000D02*
X162897002Y-66397002D01*
X162897002Y-66397002D02*
X94702998Y-66397002D01*
X176220000Y-79700000D02*
X176200000Y-79700000D01*
X89830299Y-73270302D02*
X91559999Y-75000002D01*
X176220000Y-79700000D02*
X176326000Y-79594000D01*
X90843533Y-69770301D02*
X89830299Y-70783535D01*
X94702998Y-66397002D02*
X91329699Y-69770301D01*
X91329699Y-69770301D02*
X90843533Y-69770301D01*
%TO.N,P6*%
X191112500Y-76900000D02*
X191112500Y-77374999D01*
X95060001Y-82000003D02*
X98358998Y-85299000D01*
X191112500Y-77374999D02*
X193437501Y-79700000D01*
X191521000Y-85299000D02*
X193720000Y-83100000D01*
X98358998Y-85299000D02*
X191521000Y-85299000D01*
X193437501Y-79700000D02*
X193720000Y-79700000D01*
D16*
X193720000Y-79700000D02*
X193720000Y-83100000D01*
D17*
%TO.N,P7*%
X96159997Y-86600000D02*
X207725476Y-86600000D01*
D15*
X208625000Y-76900000D02*
X208625000Y-77374999D01*
D17*
X207725476Y-86600000D02*
X211225476Y-83100000D01*
D16*
X211225476Y-79700000D02*
X211225476Y-83100000D01*
D15*
X210950001Y-79700000D02*
X211225476Y-79700000D01*
X208625000Y-77374999D02*
X210950001Y-79700000D01*
D17*
X95060001Y-85500004D02*
X96159997Y-86600000D01*
D15*
%TO.N,P8*%
X102980008Y-96000008D02*
X106180000Y-99200000D01*
D16*
X106180000Y-99200000D02*
X106180000Y-102600000D01*
D15*
X95060001Y-96000008D02*
X102980008Y-96000008D01*
D16*
%TO.N,P9*%
X123680000Y-99200000D02*
X123680000Y-102600000D01*
D15*
X121112500Y-96400000D02*
X121112500Y-96632500D01*
X95060001Y-99500009D02*
X100258992Y-104699000D01*
X100258992Y-104699000D02*
X121581000Y-104699000D01*
X121581000Y-104699000D02*
X123680000Y-102600000D01*
X121112500Y-96632500D02*
X123680000Y-99200000D01*
%TO.N,P10*%
X95060001Y-103000010D02*
X97959991Y-105900000D01*
X138612500Y-96632500D02*
X141180000Y-99200000D01*
X97959991Y-105900000D02*
X137880000Y-105900000D01*
X137880000Y-105900000D02*
X141180000Y-102600000D01*
X138612500Y-96400000D02*
X138612500Y-96632500D01*
D16*
X141180000Y-99200000D02*
X141180000Y-102600000D01*
%TO.N,P11*%
X158680000Y-99200000D02*
X158680000Y-102600000D01*
D15*
X156112500Y-96632500D02*
X158680000Y-99200000D01*
X156112500Y-96400000D02*
X156112500Y-96632500D01*
X91559999Y-103000010D02*
X95660988Y-107100999D01*
X154179001Y-107100999D02*
X158680000Y-102600000D01*
X95660988Y-107100999D02*
X154179001Y-107100999D01*
%TO.N,P12*%
X89830299Y-101229709D02*
X89830299Y-103716476D01*
X89830299Y-103716476D02*
X90843533Y-104729710D01*
X95163518Y-108301999D02*
X170478001Y-108301999D01*
X91591229Y-104729710D02*
X95163518Y-108301999D01*
X91559999Y-99500009D02*
X89830299Y-101229709D01*
X170478001Y-108301999D02*
X176180000Y-102600000D01*
D16*
X176180000Y-99200000D02*
X176180000Y-102600000D01*
D15*
X90843533Y-104729710D02*
X91591229Y-104729710D01*
X173612500Y-96632500D02*
X176180000Y-99200000D01*
X173612500Y-96400000D02*
X173612500Y-96632500D01*
D18*
%TO.N,GND*%
X164079000Y-90799000D02*
X166180000Y-92900000D01*
X192687500Y-92190500D02*
X194079000Y-90799000D01*
X175187500Y-92190500D02*
X176579000Y-90799000D01*
X192687500Y-72730500D02*
X194119000Y-71299000D01*
X140187500Y-96400000D02*
X140187500Y-92190500D01*
X192687500Y-76900000D02*
X192687500Y-72730500D01*
X105187500Y-96400000D02*
X105187500Y-92190500D01*
X194079000Y-90799000D02*
X199079000Y-90799000D01*
X105187500Y-76900000D02*
X105187500Y-72730500D01*
X111619000Y-71299000D02*
X113720000Y-73400000D01*
X146579000Y-90799000D02*
X148680000Y-92900000D01*
X210200000Y-72683476D02*
X211584476Y-71299000D01*
X141579000Y-90799000D02*
X146579000Y-90799000D01*
X124119000Y-71299000D02*
X129119000Y-71299000D01*
X216584476Y-71299000D02*
X218685476Y-73400000D01*
X181619000Y-71299000D02*
X183720000Y-73400000D01*
X216584476Y-90799000D02*
X218685476Y-92900000D01*
X140187500Y-92190500D02*
X141579000Y-90799000D01*
X105187500Y-72730500D02*
X106619000Y-71299000D01*
X175187500Y-72730500D02*
X176619000Y-71299000D01*
X176579000Y-90799000D02*
X181579000Y-90799000D01*
X210200000Y-92183476D02*
X211584476Y-90799000D01*
X210200000Y-76900000D02*
X210200000Y-72683476D01*
X199079000Y-90799000D02*
X201180000Y-92900000D01*
X122687500Y-92512500D02*
X124401000Y-90799000D01*
X176619000Y-71299000D02*
X181619000Y-71299000D01*
X157687500Y-76900000D02*
X157687500Y-72730500D01*
X157687500Y-72730500D02*
X159119000Y-71299000D01*
X175187500Y-76900000D02*
X175187500Y-72730500D01*
X211584476Y-71299000D02*
X216584476Y-71299000D01*
X111579000Y-90799000D02*
X113680000Y-92900000D01*
X159079000Y-90799000D02*
X164079000Y-90799000D01*
X124401000Y-90799000D02*
X129079000Y-90799000D01*
X129079000Y-90799000D02*
X131180000Y-92900000D01*
X175187500Y-96400000D02*
X175187500Y-92190500D01*
X141619000Y-71299000D02*
X146619000Y-71299000D01*
X105187500Y-92190500D02*
X106579000Y-90799000D01*
X122687500Y-76900000D02*
X122687500Y-72730500D01*
X181579000Y-90799000D02*
X183680000Y-92900000D01*
X199119000Y-71299000D02*
X201220000Y-73400000D01*
X194119000Y-71299000D02*
X199119000Y-71299000D01*
X140175000Y-72743000D02*
X141619000Y-71299000D01*
X157687500Y-92190500D02*
X159079000Y-90799000D01*
X140175000Y-76900000D02*
X140175000Y-72743000D01*
X159119000Y-71299000D02*
X164119000Y-71299000D01*
X129119000Y-71299000D02*
X131220000Y-73400000D01*
X192687500Y-96400000D02*
X192687500Y-92190500D01*
X210200000Y-96400000D02*
X210200000Y-92183476D01*
X157687500Y-96400000D02*
X157687500Y-92190500D01*
X122687500Y-96400000D02*
X122687500Y-92512500D01*
X122687500Y-72730500D02*
X124119000Y-71299000D01*
X211584476Y-90799000D02*
X216584476Y-90799000D01*
X106579000Y-90799000D02*
X111579000Y-90799000D01*
X164119000Y-71299000D02*
X166220000Y-73400000D01*
X146619000Y-71299000D02*
X148720000Y-73400000D01*
X106619000Y-71299000D02*
X111619000Y-71299000D01*
D15*
%TO.N,P13*%
X183582000Y-89102000D02*
X98458006Y-89102000D01*
X98458006Y-89102000D02*
X95060001Y-92500005D01*
X193680000Y-99200000D02*
X183582000Y-89102000D01*
D16*
X193680000Y-99200000D02*
X193680000Y-102600000D01*
D15*
X193680000Y-99200000D02*
X193979000Y-98901000D01*
%TO.N,P14*%
X211225476Y-99200000D02*
X211200000Y-99200000D01*
X96159006Y-87901000D02*
X95060001Y-89000005D01*
X199901000Y-87901000D02*
X197300000Y-87901000D01*
X211225476Y-99200000D02*
X211338500Y-99086976D01*
X210600000Y-99200000D02*
X211225476Y-99200000D01*
X197300000Y-87901000D02*
X96159006Y-87901000D01*
X211200000Y-99200000D02*
X199901000Y-87901000D01*
D16*
X211225476Y-99200000D02*
X211225476Y-102600000D01*
%TO.N,Net-(J1-Pin_1)*%
X108720000Y-73400000D02*
X109840000Y-73400000D01*
X109840000Y-73400000D02*
X116140000Y-79700000D01*
X116140000Y-79700000D02*
X116140000Y-83100000D01*
%TO.N,Net-(J2-Pin_1)*%
X126220000Y-73400000D02*
X127340000Y-73400000D01*
X133640000Y-79700000D02*
X133640000Y-83100000D01*
X127340000Y-73400000D02*
X133640000Y-79700000D01*
%TO.N,Net-(J3-Pin_1)*%
X143720000Y-73400000D02*
X144840000Y-73400000D01*
X144840000Y-73400000D02*
X151140000Y-79700000D01*
X151140000Y-79700000D02*
X151140000Y-83100000D01*
%TO.N,Net-(J4-Pin_1)*%
X162340000Y-73400000D02*
X168640000Y-79700000D01*
X168640000Y-79700000D02*
X168640000Y-83100000D01*
X161220000Y-73400000D02*
X162340000Y-73400000D01*
%TO.N,Net-(J5-Pin_1)*%
X179840000Y-73400000D02*
X186140000Y-79700000D01*
X186140000Y-79700000D02*
X186140000Y-83100000D01*
X178720000Y-73400000D02*
X179840000Y-73400000D01*
%TO.N,Net-(J6-Pin_1)*%
X197340000Y-73400000D02*
X203640000Y-79700000D01*
X196220000Y-73400000D02*
X197340000Y-73400000D01*
X203640000Y-79700000D02*
X203640000Y-83100000D01*
%TO.N,Net-(J7-Pin_1)*%
X214845476Y-73400000D02*
X221145476Y-79700000D01*
X213685476Y-73400000D02*
X214845476Y-73400000D01*
X221145476Y-79700000D02*
X221145476Y-83100000D01*
%TO.N,Net-(J8-Pin_1)*%
X108680000Y-92900000D02*
X109800000Y-92900000D01*
X109800000Y-92900000D02*
X116100000Y-99200000D01*
X116100000Y-99200000D02*
X116100000Y-102600000D01*
%TO.N,Net-(J9-Pin_1)*%
X133600000Y-99200000D02*
X133600000Y-102600000D01*
X126180000Y-92900000D02*
X127300000Y-92900000D01*
X127300000Y-92900000D02*
X133600000Y-99200000D01*
%TO.N,Net-(J10-Pin_1)*%
X143680000Y-92900000D02*
X144800000Y-92900000D01*
X151100000Y-99200000D02*
X151100000Y-102600000D01*
X144800000Y-92900000D02*
X151100000Y-99200000D01*
%TO.N,Net-(J11-Pin_1)*%
X162300000Y-92900000D02*
X168600000Y-99200000D01*
X161180000Y-92900000D02*
X162300000Y-92900000D01*
X168600000Y-99200000D02*
X168600000Y-102600000D01*
%TO.N,Net-(J13-Pin_1)*%
X196180000Y-92900000D02*
X197300000Y-92900000D01*
X203600000Y-99200000D02*
X203600000Y-102600000D01*
X197300000Y-92900000D02*
X203600000Y-99200000D01*
%TO.N,Net-(J12-Pin_1)*%
X186100000Y-99200000D02*
X186100000Y-102600000D01*
X179800000Y-92900000D02*
X186100000Y-99200000D01*
X178680000Y-92900000D02*
X179800000Y-92900000D01*
%TO.N,Net-(J14-Pin_1)*%
X213685476Y-92900000D02*
X214845476Y-92900000D01*
X214845476Y-92900000D02*
X221145476Y-99200000D01*
X221145476Y-99200000D02*
X221145476Y-102600000D01*
%TD*%
M02*
