%TF.GenerationSoftware,KiCad,Pcbnew,9.0.0*%
%TF.CreationDate,2025-10-25T18:36:03-05:00*%
%TF.ProjectId,PS-LVDistributionPCB,50532d4c-5644-4697-9374-726962757469,rev?*%
%TF.SameCoordinates,Original*%
%TF.FileFunction,Copper,L1,Top*%
%TF.FilePolarity,Positive*%
%FSLAX46Y46*%
G04 Gerber Fmt 4.6, Leading zero omitted, Abs format (unit mm)*
G04 Created by KiCad (PCBNEW 9.0.0) date 2025-10-25 18:36:03*
%MOMM*%
%LPD*%
G01*
G04 APERTURE LIST*
G04 Aperture macros list*
%AMRoundRect*
0 Rectangle with rounded corners*
0 $1 Rounding radius*
0 $2 $3 $4 $5 $6 $7 $8 $9 X,Y pos of 4 corners*
0 Add a 4 corners polygon primitive as box body*
4,1,4,$2,$3,$4,$5,$6,$7,$8,$9,$2,$3,0*
0 Add four circle primitives for the rounded corners*
1,1,$1+$1,$2,$3*
1,1,$1+$1,$4,$5*
1,1,$1+$1,$6,$7*
1,1,$1+$1,$8,$9*
0 Add four rect primitives between the rounded corners*
20,1,$1+$1,$2,$3,$4,$5,0*
20,1,$1+$1,$4,$5,$6,$7,0*
20,1,$1+$1,$6,$7,$8,$9,0*
20,1,$1+$1,$8,$9,$2,$3,0*%
G04 Aperture macros list end*
%TA.AperFunction,ComponentPad*%
%ADD10R,3.000000X3.000000*%
%TD*%
%TA.AperFunction,ComponentPad*%
%ADD11C,3.000000*%
%TD*%
%TA.AperFunction,SMDPad,CuDef*%
%ADD12RoundRect,0.250000X-0.900000X1.000000X-0.900000X-1.000000X0.900000X-1.000000X0.900000X1.000000X0*%
%TD*%
%TA.AperFunction,ComponentPad*%
%ADD13C,2.400000*%
%TD*%
%TA.AperFunction,ComponentPad*%
%ADD14C,2.057400*%
%TD*%
%TA.AperFunction,Conductor*%
%ADD15C,1.200000*%
%TD*%
%TA.AperFunction,Conductor*%
%ADD16C,2.000000*%
%TD*%
G04 APERTURE END LIST*
D10*
%TO.P,J4,1,Pin_1*%
%TO.N,Net-(J4-Pin_1)*%
X161220000Y-73200000D03*
D11*
%TO.P,J4,2,Pin_2*%
%TO.N,GND*%
X166220000Y-73200000D03*
%TD*%
D12*
%TO.P,D8,1,A1*%
%TO.N,GND*%
X102900000Y-91450000D03*
%TO.P,D8,2,A2*%
%TO.N,P8*%
X102900000Y-95750000D03*
%TD*%
D10*
%TO.P,J12,1,Pin_1*%
%TO.N,Net-(J12-Pin_1)*%
X178680000Y-93100000D03*
D11*
%TO.P,J12,2,Pin_2*%
%TO.N,GND*%
X183680000Y-93100000D03*
%TD*%
D10*
%TO.P,J7,1,Pin_1*%
%TO.N,Net-(J7-Pin_1)*%
X213685476Y-73200000D03*
D11*
%TO.P,J7,2,Pin_2*%
%TO.N,GND*%
X218685476Y-73200000D03*
%TD*%
D12*
%TO.P,D10,1,A1*%
%TO.N,GND*%
X137933333Y-91450000D03*
%TO.P,D10,2,A2*%
%TO.N,P10*%
X137933333Y-95750000D03*
%TD*%
D13*
%TO.P,F9,1*%
%TO.N,P9*%
X123680000Y-99400000D03*
%TO.P,F9,2*%
%TO.N,Net-(J9-Pin_1)*%
X133600000Y-99400000D03*
%TO.P,F9,3*%
%TO.N,P9*%
X123680000Y-102800000D03*
%TO.P,F9,4*%
%TO.N,Net-(J9-Pin_1)*%
X133600000Y-102800000D03*
%TD*%
D12*
%TO.P,D12,1,A1*%
%TO.N,GND*%
X172966667Y-91450000D03*
%TO.P,D12,2,A2*%
%TO.N,P12*%
X172966667Y-95750000D03*
%TD*%
D13*
%TO.P,F8,1*%
%TO.N,P8*%
X106180000Y-99400000D03*
%TO.P,F8,2*%
%TO.N,Net-(J8-Pin_1)*%
X116100000Y-99400000D03*
%TO.P,F8,3*%
%TO.N,P8*%
X106180000Y-102800000D03*
%TO.P,F8,4*%
%TO.N,Net-(J8-Pin_1)*%
X116100000Y-102800000D03*
%TD*%
%TO.P,F12,1*%
%TO.N,P12*%
X176180000Y-99400000D03*
%TO.P,F12,2*%
%TO.N,Net-(J12-Pin_1)*%
X186100000Y-99400000D03*
%TO.P,F12,3*%
%TO.N,P12*%
X176180000Y-102800000D03*
%TO.P,F12,4*%
%TO.N,Net-(J12-Pin_1)*%
X186100000Y-102800000D03*
%TD*%
D12*
%TO.P,D7,1,A1*%
%TO.N,GND*%
X208000000Y-71550000D03*
%TO.P,D7,2,A2*%
%TO.N,P7*%
X208000000Y-75850000D03*
%TD*%
%TO.P,D3,1,A1*%
%TO.N,GND*%
X137933333Y-71550000D03*
%TO.P,D3,2,A2*%
%TO.N,P3*%
X137933333Y-75850000D03*
%TD*%
D10*
%TO.P,J1,1,Pin_1*%
%TO.N,Net-(J1-Pin_1)*%
X108720000Y-73200000D03*
D11*
%TO.P,J1,2,Pin_2*%
%TO.N,GND*%
X113720000Y-73200000D03*
%TD*%
D12*
%TO.P,D5,1,A1*%
%TO.N,GND*%
X172966667Y-71550000D03*
%TO.P,D5,2,A2*%
%TO.N,P5*%
X172966667Y-75850000D03*
%TD*%
%TO.P,D11,1,A1*%
%TO.N,GND*%
X155450000Y-91450000D03*
%TO.P,D11,2,A2*%
%TO.N,P11*%
X155450000Y-95750000D03*
%TD*%
D13*
%TO.P,F13,1*%
%TO.N,P13*%
X193680000Y-99400000D03*
%TO.P,F13,2*%
%TO.N,Net-(J13-Pin_1)*%
X203600000Y-99400000D03*
%TO.P,F13,3*%
%TO.N,P13*%
X193680000Y-102800000D03*
%TO.P,F13,4*%
%TO.N,Net-(J13-Pin_1)*%
X203600000Y-102800000D03*
%TD*%
D10*
%TO.P,J10,1,Pin_1*%
%TO.N,Net-(J10-Pin_1)*%
X143680000Y-93100000D03*
D11*
%TO.P,J10,2,Pin_2*%
%TO.N,GND*%
X148680000Y-93100000D03*
%TD*%
D10*
%TO.P,J9,1,Pin_1*%
%TO.N,Net-(J9-Pin_1)*%
X126180000Y-93100000D03*
D11*
%TO.P,J9,2,Pin_2*%
%TO.N,GND*%
X131180000Y-93100000D03*
%TD*%
D10*
%TO.P,J5,1,Pin_1*%
%TO.N,Net-(J5-Pin_1)*%
X178720000Y-73200000D03*
D11*
%TO.P,J5,2,Pin_2*%
%TO.N,GND*%
X183720000Y-73200000D03*
%TD*%
D13*
%TO.P,F4,1*%
%TO.N,P4*%
X158720000Y-79500000D03*
%TO.P,F4,2*%
%TO.N,Net-(J4-Pin_1)*%
X168640000Y-79500000D03*
%TO.P,F4,3*%
%TO.N,P4*%
X158720000Y-82900000D03*
%TO.P,F4,4*%
%TO.N,Net-(J4-Pin_1)*%
X168640000Y-82900000D03*
%TD*%
D12*
%TO.P,D6,1,A1*%
%TO.N,GND*%
X190483333Y-71550000D03*
%TO.P,D6,2,A2*%
%TO.N,P6*%
X190483333Y-75850000D03*
%TD*%
D10*
%TO.P,J14,1,Pin_1*%
%TO.N,Net-(J14-Pin_1)*%
X213685476Y-93100000D03*
D11*
%TO.P,J14,2,Pin_2*%
%TO.N,GND*%
X218685476Y-93100000D03*
%TD*%
D13*
%TO.P,F6,1*%
%TO.N,P6*%
X193720000Y-79500000D03*
%TO.P,F6,2*%
%TO.N,Net-(J6-Pin_1)*%
X203640000Y-79500000D03*
%TO.P,F6,3*%
%TO.N,P6*%
X193720000Y-82900000D03*
%TO.P,F6,4*%
%TO.N,Net-(J6-Pin_1)*%
X203640000Y-82900000D03*
%TD*%
%TO.P,F7,1*%
%TO.N,P7*%
X211225476Y-79500000D03*
%TO.P,F7,2*%
%TO.N,Net-(J7-Pin_1)*%
X221145476Y-79500000D03*
%TO.P,F7,3*%
%TO.N,P7*%
X211225476Y-82900000D03*
%TO.P,F7,4*%
%TO.N,Net-(J7-Pin_1)*%
X221145476Y-82900000D03*
%TD*%
D10*
%TO.P,J11,1,Pin_1*%
%TO.N,Net-(J11-Pin_1)*%
X161180000Y-93100000D03*
D11*
%TO.P,J11,2,Pin_2*%
%TO.N,GND*%
X166180000Y-93100000D03*
%TD*%
D10*
%TO.P,J3,1,Pin_1*%
%TO.N,Net-(J3-Pin_1)*%
X143720000Y-73200000D03*
D11*
%TO.P,J3,2,Pin_2*%
%TO.N,GND*%
X148720000Y-73200000D03*
%TD*%
D13*
%TO.P,F1,1*%
%TO.N,P1*%
X106220000Y-79500000D03*
%TO.P,F1,2*%
%TO.N,Net-(J1-Pin_1)*%
X116140000Y-79500000D03*
%TO.P,F1,3*%
%TO.N,P1*%
X106220000Y-82900000D03*
%TO.P,F1,4*%
%TO.N,Net-(J1-Pin_1)*%
X116140000Y-82900000D03*
%TD*%
D12*
%TO.P,D14,1,A1*%
%TO.N,GND*%
X208000000Y-91450000D03*
%TO.P,D14,2,A2*%
%TO.N,P14*%
X208000000Y-95750000D03*
%TD*%
D13*
%TO.P,F5,1*%
%TO.N,P5*%
X176220000Y-79500000D03*
%TO.P,F5,2*%
%TO.N,Net-(J5-Pin_1)*%
X186140000Y-79500000D03*
%TO.P,F5,3*%
%TO.N,P5*%
X176220000Y-82900000D03*
%TO.P,F5,4*%
%TO.N,Net-(J5-Pin_1)*%
X186140000Y-82900000D03*
%TD*%
%TO.P,F2,1*%
%TO.N,P2*%
X123720000Y-79500000D03*
%TO.P,F2,2*%
%TO.N,Net-(J2-Pin_1)*%
X133640000Y-79500000D03*
%TO.P,F2,3*%
%TO.N,P2*%
X123720000Y-82900000D03*
%TO.P,F2,4*%
%TO.N,Net-(J2-Pin_1)*%
X133640000Y-82900000D03*
%TD*%
D10*
%TO.P,J13,1,Pin_1*%
%TO.N,Net-(J13-Pin_1)*%
X196180000Y-93100000D03*
D11*
%TO.P,J13,2,Pin_2*%
%TO.N,GND*%
X201180000Y-93100000D03*
%TD*%
D12*
%TO.P,D13,1,A1*%
%TO.N,GND*%
X190483333Y-91450000D03*
%TO.P,D13,2,A2*%
%TO.N,P13*%
X190483333Y-95750000D03*
%TD*%
%TO.P,D4,1,A1*%
%TO.N,GND*%
X155450000Y-71550000D03*
%TO.P,D4,2,A2*%
%TO.N,P4*%
X155450000Y-75850000D03*
%TD*%
%TO.P,D2,1,A1*%
%TO.N,GND*%
X120416667Y-71550000D03*
%TO.P,D2,2,A2*%
%TO.N,P2*%
X120416667Y-75850000D03*
%TD*%
D10*
%TO.P,J6,1,Pin_1*%
%TO.N,Net-(J6-Pin_1)*%
X196220000Y-73200000D03*
D11*
%TO.P,J6,2,Pin_2*%
%TO.N,GND*%
X201220000Y-73200000D03*
%TD*%
D13*
%TO.P,F14,1*%
%TO.N,P14*%
X211225476Y-99400000D03*
%TO.P,F14,2*%
%TO.N,Net-(J14-Pin_1)*%
X221145476Y-99400000D03*
%TO.P,F14,3*%
%TO.N,P14*%
X211225476Y-102800000D03*
%TO.P,F14,4*%
%TO.N,Net-(J14-Pin_1)*%
X221145476Y-102800000D03*
%TD*%
D10*
%TO.P,J8,1,Pin_1*%
%TO.N,Net-(J8-Pin_1)*%
X108680000Y-93100000D03*
D11*
%TO.P,J8,2,Pin_2*%
%TO.N,GND*%
X113680000Y-93100000D03*
%TD*%
D13*
%TO.P,F10,1*%
%TO.N,P10*%
X141180000Y-99400000D03*
%TO.P,F10,2*%
%TO.N,Net-(J10-Pin_1)*%
X151100000Y-99400000D03*
%TO.P,F10,3*%
%TO.N,P10*%
X141180000Y-102800000D03*
%TO.P,F10,4*%
%TO.N,Net-(J10-Pin_1)*%
X151100000Y-102800000D03*
%TD*%
D10*
%TO.P,J2,1,Pin_1*%
%TO.N,Net-(J2-Pin_1)*%
X126220000Y-73200000D03*
D11*
%TO.P,J2,2,Pin_2*%
%TO.N,GND*%
X131220000Y-73200000D03*
%TD*%
D13*
%TO.P,F11,1*%
%TO.N,P11*%
X158680000Y-99400000D03*
%TO.P,F11,2*%
%TO.N,Net-(J11-Pin_1)*%
X168600000Y-99400000D03*
%TO.P,F11,3*%
%TO.N,P11*%
X158680000Y-102800000D03*
%TO.P,F11,4*%
%TO.N,Net-(J11-Pin_1)*%
X168600000Y-102800000D03*
%TD*%
D12*
%TO.P,D9,1,A1*%
%TO.N,GND*%
X120416667Y-91450000D03*
%TO.P,D9,2,A2*%
%TO.N,P9*%
X120416667Y-95750000D03*
%TD*%
D13*
%TO.P,F3,1*%
%TO.N,P3*%
X141220000Y-79500000D03*
%TO.P,F3,2*%
%TO.N,Net-(J3-Pin_1)*%
X151140000Y-79500000D03*
%TO.P,F3,3*%
%TO.N,P3*%
X141220000Y-82900000D03*
%TO.P,F3,4*%
%TO.N,Net-(J3-Pin_1)*%
X151140000Y-82900000D03*
%TD*%
D12*
%TO.P,D1,1,A1*%
%TO.N,GND*%
X102900000Y-71550000D03*
%TO.P,D1,2,A2*%
%TO.N,P1*%
X102900000Y-75850000D03*
%TD*%
D14*
%TO.P,J17,1,+24V*%
%TO.N,P3*%
X95060001Y-71500001D03*
%TO.P,J17,2,CANH_IN*%
%TO.N,P2*%
X95060001Y-75000002D03*
%TO.P,J17,3,CANL_IN*%
%TO.N,P1*%
X95060001Y-78500003D03*
%TO.P,J17,4,PWR_OUT\u002A*%
%TO.N,P6*%
X95060001Y-82000003D03*
%TO.P,J17,5*%
%TO.N,P7*%
X95060001Y-85500004D03*
%TO.P,J17,6*%
%TO.N,P14*%
X95060001Y-89000005D03*
%TO.P,J17,7*%
%TO.N,P13*%
X95060001Y-92500005D03*
%TO.P,J17,8*%
%TO.N,P8*%
X95060001Y-96000008D03*
%TO.P,J17,9*%
%TO.N,P9*%
X95060001Y-99500009D03*
%TO.P,J17,10*%
%TO.N,P10*%
X95060001Y-103000010D03*
%TO.P,J17,11,GND*%
%TO.N,P4*%
X91559999Y-71500001D03*
%TO.P,J17,12,CANH_OUT*%
%TO.N,P5*%
X91559999Y-75000002D03*
%TO.P,J17,13,CANL_OUT*%
%TO.N,GND*%
X91559999Y-78500003D03*
%TO.P,J17,14,GND_OUT\u002A*%
X91559999Y-82000003D03*
%TO.P,J17,15*%
X91559999Y-85500004D03*
%TO.P,J17,16*%
X91559999Y-89000005D03*
%TO.P,J17,17*%
X91559999Y-92500005D03*
%TO.P,J17,18*%
X91559999Y-96000008D03*
%TO.P,J17,19*%
%TO.N,P12*%
X91559999Y-99500009D03*
%TO.P,J17,20*%
%TO.N,P11*%
X91559999Y-103000010D03*
%TD*%
D15*
%TO.N,P1*%
X106220000Y-79500000D02*
X106220000Y-79170000D01*
D16*
X106220000Y-79500000D02*
X106220000Y-82900000D01*
D15*
X95060001Y-78500003D02*
X105220003Y-78500003D01*
X105220003Y-78500003D02*
X106220000Y-79500000D01*
X102900000Y-75850000D02*
X102900000Y-76180000D01*
X102900000Y-76180000D02*
X106220000Y-79500000D01*
%TO.N,P2*%
X95060001Y-75000002D02*
X100561003Y-69499000D01*
D16*
X123720000Y-79500000D02*
X123720000Y-82900000D01*
D15*
X113719000Y-69499000D02*
X123720000Y-79500000D01*
X100561003Y-69499000D02*
X113719000Y-69499000D01*
%TO.N,P3*%
X95060001Y-71500001D02*
X98462002Y-68098000D01*
D16*
X141220000Y-79500000D02*
X141220000Y-82900000D01*
D15*
X129818000Y-68098000D02*
X141220000Y-79500000D01*
X98462002Y-68098000D02*
X129818000Y-68098000D01*
D16*
%TO.N,P4*%
X158720000Y-79500000D02*
X158720000Y-79120000D01*
D15*
X96363000Y-66697000D02*
X145917000Y-66697000D01*
X91559999Y-71500001D02*
X96363000Y-66697000D01*
X145917000Y-66697000D02*
X158720000Y-79500000D01*
D16*
X158720000Y-79500000D02*
X158720000Y-82900000D01*
%TO.N,P5*%
X176220000Y-79500000D02*
X176220000Y-82900000D01*
D15*
X162016000Y-65296000D02*
X176220000Y-79500000D01*
X91411083Y-61629700D02*
X94233700Y-61629700D01*
X94233700Y-61629700D02*
X97900000Y-65296000D01*
X89729700Y-63311083D02*
X91411083Y-61629700D01*
X89729700Y-73169703D02*
X89729700Y-63311083D01*
X97900000Y-65296000D02*
X162016000Y-65296000D01*
X91559999Y-75000002D02*
X89729700Y-73169703D01*
%TO.N,P6*%
X193720000Y-79086667D02*
X190483333Y-75850000D01*
D16*
X193720000Y-82900000D02*
X193720000Y-79500000D01*
D15*
X191720000Y-84900000D02*
X193720000Y-82900000D01*
X95060001Y-82000003D02*
X97959998Y-84900000D01*
X97959998Y-84900000D02*
X191720000Y-84900000D01*
X193720000Y-79500000D02*
X193720000Y-79086667D01*
%TO.N,P7*%
X96978684Y-85900000D02*
X97379685Y-86301000D01*
X97379685Y-86301000D02*
X97379684Y-86301000D01*
X207824476Y-86301000D02*
X211225476Y-82900000D01*
D16*
X211225476Y-79500000D02*
X211225476Y-82900000D01*
D15*
X211225476Y-79075476D02*
X208000000Y-75850000D01*
X95060001Y-85500004D02*
X95459997Y-85900000D01*
X97379685Y-86301000D02*
X207824476Y-86301000D01*
X211225476Y-79500000D02*
X211225476Y-79075476D01*
X95459997Y-85900000D02*
X96978684Y-85900000D01*
%TO.N,P8*%
X106180000Y-99400000D02*
X106180000Y-99030000D01*
X95060001Y-96000008D02*
X102649992Y-96000008D01*
D16*
X106180000Y-99400000D02*
X106180000Y-102800000D01*
D15*
X106180000Y-99030000D02*
X102900000Y-95750000D01*
X102649992Y-96000008D02*
X102900000Y-95750000D01*
D16*
%TO.N,P9*%
X123680000Y-99400000D02*
X123680000Y-102800000D01*
D15*
X95060001Y-99500009D02*
X100360992Y-104801000D01*
X121679000Y-104801000D02*
X123680000Y-102800000D01*
X123680000Y-99013333D02*
X120416667Y-95750000D01*
X100360992Y-104801000D02*
X121679000Y-104801000D01*
X123680000Y-99400000D02*
X123680000Y-99013333D01*
%TO.N,P10*%
X141180000Y-99400000D02*
X141180000Y-98996667D01*
X141180000Y-98996667D02*
X137933333Y-95750000D01*
X98261991Y-106202000D02*
X137778000Y-106202000D01*
X95060001Y-103000010D02*
X98261991Y-106202000D01*
D16*
X141180000Y-99400000D02*
X141180000Y-102800000D01*
D15*
X137778000Y-106202000D02*
X141180000Y-102800000D01*
%TO.N,P11*%
X158680000Y-99400000D02*
X158680000Y-98980000D01*
X153877000Y-107603000D02*
X158680000Y-102800000D01*
D16*
X158680000Y-99400000D02*
X158680000Y-102800000D01*
D15*
X96162989Y-107603000D02*
X153877000Y-107603000D01*
X91559999Y-103000010D02*
X96162989Y-107603000D01*
X158680000Y-98980000D02*
X155450000Y-95750000D01*
%TO.N,P12*%
X91411083Y-112870311D02*
X93788917Y-112870311D01*
X176180000Y-99400000D02*
X176180000Y-98963333D01*
X176180000Y-98963333D02*
X172966667Y-95750000D01*
X93788917Y-112870311D02*
X97655228Y-109004000D01*
X169976000Y-109004000D02*
X176180000Y-102800000D01*
X97655228Y-109004000D02*
X169976000Y-109004000D01*
X91559999Y-99500009D02*
X89729700Y-101330308D01*
X89729700Y-111188928D02*
X91411083Y-112870311D01*
X89729700Y-101330308D02*
X89729700Y-111188928D01*
D16*
X176180000Y-99400000D02*
X176180000Y-102800000D01*
D15*
%TO.N,GND*%
X191133333Y-90800000D02*
X198880000Y-90800000D01*
X181420000Y-70900000D02*
X183720000Y-73200000D01*
X121067667Y-90799000D02*
X128879000Y-90799000D01*
X103550000Y-70900000D02*
X111420000Y-70900000D01*
X163600657Y-70580657D02*
X166220000Y-73200000D01*
X216384476Y-70899000D02*
X218685476Y-73200000D01*
X208000000Y-91450000D02*
X208651000Y-90799000D01*
X156419343Y-70580657D02*
X163600657Y-70580657D01*
X121067667Y-70899000D02*
X128919000Y-70899000D01*
X111420000Y-70900000D02*
X113720000Y-73200000D01*
X128879000Y-90799000D02*
X131180000Y-93100000D01*
X173617667Y-90799000D02*
X181379000Y-90799000D01*
X103551000Y-90799000D02*
X111379000Y-90799000D01*
X146420000Y-70900000D02*
X148720000Y-73200000D01*
X208000000Y-71550000D02*
X208651000Y-70899000D01*
X172966667Y-71550000D02*
X173616667Y-70900000D01*
X190483333Y-71550000D02*
X191134333Y-70899000D01*
X198880000Y-90800000D02*
X201180000Y-93100000D01*
X208651000Y-90799000D02*
X216384476Y-90799000D01*
X128919000Y-70899000D02*
X131220000Y-73200000D01*
X208651000Y-70899000D02*
X216384476Y-70899000D01*
X111379000Y-90799000D02*
X113680000Y-93100000D01*
X138584333Y-90799000D02*
X146379000Y-90799000D01*
X137933333Y-91450000D02*
X138584333Y-90799000D01*
X181379000Y-90799000D02*
X183680000Y-93100000D01*
X146379000Y-90799000D02*
X148680000Y-93100000D01*
X155450000Y-91450000D02*
X156101000Y-90799000D01*
X102900000Y-91450000D02*
X103551000Y-90799000D01*
X138583333Y-70900000D02*
X146420000Y-70900000D01*
X155450000Y-71550000D02*
X156419343Y-70580657D01*
X198919000Y-70899000D02*
X201220000Y-73200000D01*
X102900000Y-71550000D02*
X103550000Y-70900000D01*
X163879000Y-90799000D02*
X166180000Y-93100000D01*
X120416667Y-91450000D02*
X121067667Y-90799000D01*
X191134333Y-70899000D02*
X198919000Y-70899000D01*
X173616667Y-70900000D02*
X181420000Y-70900000D01*
X172966667Y-91450000D02*
X173617667Y-90799000D01*
X216384476Y-90799000D02*
X218685476Y-93100000D01*
X137933333Y-71550000D02*
X138583333Y-70900000D01*
X190483333Y-91450000D02*
X191133333Y-90800000D01*
X156101000Y-90799000D02*
X163879000Y-90799000D01*
X120416667Y-71550000D02*
X121067667Y-70899000D01*
%TO.N,P13*%
X95060001Y-92500005D02*
X98161006Y-89399000D01*
X183679000Y-89399000D02*
X193680000Y-99400000D01*
X98161006Y-89399000D02*
X183679000Y-89399000D01*
D16*
X193680000Y-99400000D02*
X193680000Y-102800000D01*
D15*
%TO.N,P14*%
X95060001Y-89000005D02*
X96062006Y-87998000D01*
X96062006Y-87998000D02*
X199823476Y-87998000D01*
X199823476Y-87998000D02*
X211225476Y-99400000D01*
D16*
X211225476Y-99400000D02*
X211225476Y-102800000D01*
%TO.N,Net-(J1-Pin_1)*%
X108720000Y-73200000D02*
X109840000Y-73200000D01*
X109840000Y-73200000D02*
X116140000Y-79500000D01*
X116140000Y-79500000D02*
X116140000Y-82900000D01*
%TO.N,Net-(J2-Pin_1)*%
X126220000Y-73200000D02*
X127340000Y-73200000D01*
X133640000Y-79500000D02*
X133640000Y-82900000D01*
X127340000Y-73200000D02*
X133640000Y-79500000D01*
%TO.N,Net-(J3-Pin_1)*%
X143720000Y-73200000D02*
X144840000Y-73200000D01*
X144840000Y-73200000D02*
X151140000Y-79500000D01*
X151140000Y-79500000D02*
X151140000Y-82900000D01*
%TO.N,Net-(J4-Pin_1)*%
X162340000Y-73200000D02*
X168640000Y-79500000D01*
X168640000Y-79500000D02*
X168640000Y-82900000D01*
X161220000Y-73200000D02*
X162340000Y-73200000D01*
%TO.N,Net-(J5-Pin_1)*%
X179840000Y-73200000D02*
X186140000Y-79500000D01*
X186140000Y-79500000D02*
X186140000Y-82900000D01*
X178720000Y-73200000D02*
X179840000Y-73200000D01*
%TO.N,Net-(J6-Pin_1)*%
X197340000Y-73200000D02*
X203640000Y-79500000D01*
X196220000Y-73200000D02*
X197340000Y-73200000D01*
X203640000Y-79500000D02*
X203640000Y-82900000D01*
%TO.N,Net-(J7-Pin_1)*%
X214845476Y-73200000D02*
X221145476Y-79500000D01*
X213685476Y-73200000D02*
X214845476Y-73200000D01*
X221145476Y-79500000D02*
X221145476Y-82900000D01*
%TO.N,Net-(J8-Pin_1)*%
X108680000Y-93100000D02*
X109800000Y-93100000D01*
X109800000Y-93100000D02*
X116100000Y-99400000D01*
X116100000Y-99400000D02*
X116100000Y-102800000D01*
%TO.N,Net-(J9-Pin_1)*%
X133600000Y-99400000D02*
X133600000Y-102800000D01*
X126180000Y-93100000D02*
X127300000Y-93100000D01*
X127300000Y-93100000D02*
X133600000Y-99400000D01*
%TO.N,Net-(J10-Pin_1)*%
X143680000Y-93100000D02*
X144800000Y-93100000D01*
X151100000Y-99400000D02*
X151100000Y-102800000D01*
X144800000Y-93100000D02*
X151100000Y-99400000D01*
%TO.N,Net-(J11-Pin_1)*%
X162300000Y-93100000D02*
X168600000Y-99400000D01*
X161180000Y-93100000D02*
X162300000Y-93100000D01*
X168600000Y-99400000D02*
X168600000Y-102800000D01*
%TO.N,Net-(J13-Pin_1)*%
X196180000Y-93100000D02*
X197300000Y-93100000D01*
X203600000Y-99400000D02*
X203600000Y-102800000D01*
X197300000Y-93100000D02*
X203600000Y-99400000D01*
%TO.N,Net-(J12-Pin_1)*%
X186100000Y-99400000D02*
X186100000Y-102800000D01*
X179800000Y-93100000D02*
X186100000Y-99400000D01*
X178680000Y-93100000D02*
X179800000Y-93100000D01*
%TO.N,Net-(J14-Pin_1)*%
X213685476Y-93100000D02*
X214845476Y-93100000D01*
X214845476Y-93100000D02*
X221145476Y-99400000D01*
X221145476Y-99400000D02*
X221145476Y-102800000D01*
%TD*%
M02*
