%TF.GenerationSoftware,KiCad,Pcbnew,9.0.0*%
%TF.CreationDate,2025-10-24T23:00:02-05:00*%
%TF.ProjectId,PS-LVDistributionPCB,50532d4c-5644-4697-9374-726962757469,rev?*%
%TF.SameCoordinates,Original*%
%TF.FileFunction,Legend,Bot*%
%TF.FilePolarity,Positive*%
%FSLAX46Y46*%
G04 Gerber Fmt 4.6, Leading zero omitted, Abs format (unit mm)*
G04 Created by KiCad (PCBNEW 9.0.0) date 2025-10-24 23:00:02*
%MOMM*%
%LPD*%
G01*
G04 APERTURE LIST*
%ADD10C,0.150000*%
%ADD11C,0.025400*%
%ADD12C,0.152400*%
%ADD13C,0.508000*%
%ADD14C,3.200000*%
%ADD15R,3.000000X3.000000*%
%ADD16C,3.000000*%
%ADD17C,2.400000*%
%ADD18C,4.038600*%
%ADD19C,2.057400*%
G04 APERTURE END LIST*
D10*
X93855181Y-88059528D02*
X93140896Y-88059528D01*
X93140896Y-88059528D02*
X92998039Y-88107147D01*
X92998039Y-88107147D02*
X92902801Y-88202385D01*
X92902801Y-88202385D02*
X92855181Y-88345242D01*
X92855181Y-88345242D02*
X92855181Y-88440480D01*
X92855181Y-87059528D02*
X92855181Y-87630956D01*
X92855181Y-87345242D02*
X93855181Y-87345242D01*
X93855181Y-87345242D02*
X93712324Y-87440480D01*
X93712324Y-87440480D02*
X93617086Y-87535718D01*
X93617086Y-87535718D02*
X93569467Y-87630956D01*
X93855181Y-86726194D02*
X93855181Y-86059528D01*
X93855181Y-86059528D02*
X92855181Y-86488099D01*
D11*
%TO.C,J17*%
X85907196Y-119660405D02*
X85907196Y-54839605D01*
D12*
X86214746Y-54712605D02*
X95737001Y-54712605D01*
X95737001Y-54712605D02*
X95737001Y-70318819D01*
X95737001Y-72681184D02*
X95737001Y-73818820D01*
X95737001Y-76181185D02*
X95737001Y-77318820D01*
X95737001Y-79681185D02*
X95737001Y-80818821D01*
X95737001Y-83181186D02*
X95737001Y-84318821D01*
X95737001Y-86681186D02*
X95737001Y-87818822D01*
X95737001Y-90181187D02*
X95737001Y-91318823D01*
X95737001Y-93681188D02*
X95737001Y-94818826D01*
X95737001Y-97181191D02*
X95737001Y-98318826D01*
X95737001Y-100681191D02*
X95737001Y-101818827D01*
X95737001Y-104181192D02*
X95737001Y-119787405D01*
X95737001Y-119787405D02*
X86214746Y-119787405D01*
D13*
X97436001Y-64600010D02*
G75*
G02*
X96674001Y-64600010I-381000J0D01*
G01*
X96674001Y-64600010D02*
G75*
G02*
X97436001Y-64600010I381000J0D01*
G01*
%TD*%
%LPC*%
D14*
%TO.C,H5*%
X231400000Y-87300000D03*
%TD*%
D15*
%TO.C,J4*%
X161220000Y-73400000D03*
D16*
X166220000Y-73400000D03*
%TD*%
D15*
%TO.C,J12*%
X178680000Y-92900000D03*
D16*
X183680000Y-92900000D03*
%TD*%
D15*
%TO.C,J7*%
X213685476Y-73400000D03*
D16*
X218685476Y-73400000D03*
%TD*%
D14*
%TO.C,H2*%
X231400000Y-61500000D03*
%TD*%
D17*
%TO.C,F9*%
X123680000Y-99200000D03*
X133600000Y-99200000D03*
X123680000Y-102600000D03*
X133600000Y-102600000D03*
%TD*%
%TO.C,F8*%
X106180000Y-99200000D03*
X116100000Y-99200000D03*
X106180000Y-102600000D03*
X116100000Y-102600000D03*
%TD*%
%TO.C,F12*%
X176180000Y-99200000D03*
X186100000Y-99200000D03*
X176180000Y-102600000D03*
X186100000Y-102600000D03*
%TD*%
D15*
%TO.C,J1*%
X108720000Y-73400000D03*
D16*
X113720000Y-73400000D03*
%TD*%
D14*
%TO.C,H1*%
X104800000Y-61500000D03*
%TD*%
D17*
%TO.C,F13*%
X193680000Y-99200000D03*
X203600000Y-99200000D03*
X193680000Y-102600000D03*
X203600000Y-102600000D03*
%TD*%
D15*
%TO.C,J10*%
X143680000Y-92900000D03*
D16*
X148680000Y-92900000D03*
%TD*%
D15*
%TO.C,J9*%
X126180000Y-92900000D03*
D16*
X131180000Y-92900000D03*
%TD*%
D15*
%TO.C,J5*%
X178720000Y-73400000D03*
D16*
X183720000Y-73400000D03*
%TD*%
D17*
%TO.C,F4*%
X158720000Y-79700000D03*
X168640000Y-79700000D03*
X158720000Y-83100000D03*
X168640000Y-83100000D03*
%TD*%
D14*
%TO.C,H3*%
X104800000Y-113000000D03*
%TD*%
D15*
%TO.C,J14*%
X213685476Y-92900000D03*
D16*
X218685476Y-92900000D03*
%TD*%
D17*
%TO.C,F6*%
X193720000Y-79700000D03*
X203640000Y-79700000D03*
X193720000Y-83100000D03*
X203640000Y-83100000D03*
%TD*%
%TO.C,F7*%
X211225476Y-79700000D03*
X221145476Y-79700000D03*
X211225476Y-83100000D03*
X221145476Y-83100000D03*
%TD*%
D15*
%TO.C,J11*%
X161180000Y-92900000D03*
D16*
X166180000Y-92900000D03*
%TD*%
D15*
%TO.C,J3*%
X143720000Y-73400000D03*
D16*
X148720000Y-73400000D03*
%TD*%
D17*
%TO.C,F1*%
X106220000Y-79700000D03*
X116140000Y-79700000D03*
X106220000Y-83100000D03*
X116140000Y-83100000D03*
%TD*%
D14*
%TO.C,H4*%
X231400000Y-113000000D03*
%TD*%
D17*
%TO.C,F5*%
X176220000Y-79700000D03*
X186140000Y-79700000D03*
X176220000Y-83100000D03*
X186140000Y-83100000D03*
%TD*%
%TO.C,F2*%
X123720000Y-79700000D03*
X133640000Y-79700000D03*
X123720000Y-83100000D03*
X133640000Y-83100000D03*
%TD*%
D15*
%TO.C,J13*%
X196180000Y-92900000D03*
D16*
X201180000Y-92900000D03*
%TD*%
D15*
%TO.C,J6*%
X196220000Y-73400000D03*
D16*
X201220000Y-73400000D03*
%TD*%
D17*
%TO.C,F14*%
X211225476Y-99200000D03*
X221145476Y-99200000D03*
X211225476Y-102600000D03*
X221145476Y-102600000D03*
%TD*%
D15*
%TO.C,J8*%
X108680000Y-92900000D03*
D16*
X113680000Y-92900000D03*
%TD*%
D17*
%TO.C,F10*%
X141180000Y-99200000D03*
X151100000Y-99200000D03*
X141180000Y-102600000D03*
X151100000Y-102600000D03*
%TD*%
D15*
%TO.C,J2*%
X126220000Y-73400000D03*
D16*
X131220000Y-73400000D03*
%TD*%
D17*
%TO.C,F11*%
X158680000Y-99200000D03*
X168600000Y-99200000D03*
X158680000Y-102600000D03*
X168600000Y-102600000D03*
%TD*%
%TO.C,F3*%
X141220000Y-79700000D03*
X151140000Y-79700000D03*
X141220000Y-83100000D03*
X151140000Y-83100000D03*
%TD*%
D18*
%TO.C,J17*%
X92600000Y-110000011D03*
X92600000Y-64500000D03*
D19*
X95060001Y-71500001D03*
X95060001Y-75000002D03*
X95060001Y-78500003D03*
X95060001Y-82000003D03*
X95060001Y-85500004D03*
X95060001Y-89000005D03*
X95060001Y-92500005D03*
X95060001Y-96000008D03*
X95060001Y-99500009D03*
X95060001Y-103000010D03*
X91559999Y-71500001D03*
X91559999Y-75000002D03*
X91559999Y-78500003D03*
X91559999Y-82000003D03*
X91559999Y-85500004D03*
X91559999Y-89000005D03*
X91559999Y-92500005D03*
X91559999Y-96000008D03*
X91559999Y-99500009D03*
X91559999Y-103000010D03*
%TD*%
%LPD*%
M02*
