%TF.GenerationSoftware,KiCad,Pcbnew,9.0.0*%
%TF.CreationDate,2025-10-11T16:09:56-05:00*%
%TF.ProjectId,PS-LVDistributionPCB,50532d4c-5644-4697-9374-726962757469,rev?*%
%TF.SameCoordinates,Original*%
%TF.FileFunction,Copper,L2,Bot*%
%TF.FilePolarity,Positive*%
%FSLAX46Y46*%
G04 Gerber Fmt 4.6, Leading zero omitted, Abs format (unit mm)*
G04 Created by KiCad (PCBNEW 9.0.0) date 2025-10-11 16:09:56*
%MOMM*%
%LPD*%
G01*
G04 APERTURE LIST*
%TA.AperFunction,ComponentPad*%
%ADD10C,2.057400*%
%TD*%
%TA.AperFunction,ComponentPad*%
%ADD11C,3.000000*%
%TD*%
%TA.AperFunction,ComponentPad*%
%ADD12R,3.000000X3.000000*%
%TD*%
%TA.AperFunction,ComponentPad*%
%ADD13C,2.400000*%
%TD*%
G04 APERTURE END LIST*
D10*
%TO.P,J17,1,+24V*%
%TO.N,P3*%
X95060001Y-71500001D03*
%TO.P,J17,2,CANH_IN*%
%TO.N,P2*%
X95060001Y-75000002D03*
%TO.P,J17,3,CANL_IN*%
%TO.N,P1*%
X95060001Y-78500003D03*
%TO.P,J17,4,PWR_OUT\u002A*%
%TO.N,P6*%
X95060001Y-82000003D03*
%TO.P,J17,5*%
%TO.N,P7*%
X95060001Y-85500004D03*
%TO.P,J17,6*%
%TO.N,P14*%
X95060001Y-89000005D03*
%TO.P,J17,7*%
%TO.N,P13*%
X95060001Y-92500005D03*
%TO.P,J17,8*%
%TO.N,P8*%
X95060001Y-96000008D03*
%TO.P,J17,9*%
%TO.N,P9*%
X95060001Y-99500009D03*
%TO.P,J17,10*%
%TO.N,P10*%
X95060001Y-103000010D03*
%TO.P,J17,11,GND*%
%TO.N,P4*%
X91559999Y-71500001D03*
%TO.P,J17,12,CANH_OUT*%
%TO.N,P5*%
X91559999Y-75000002D03*
%TO.P,J17,13,CANL_OUT*%
%TO.N,GND*%
X91559999Y-78500003D03*
%TO.P,J17,14,GND_OUT\u002A*%
X91559999Y-82000003D03*
%TO.P,J17,15*%
X91559999Y-85500004D03*
%TO.P,J17,16*%
X91559999Y-89000005D03*
%TO.P,J17,17*%
X91559999Y-92500005D03*
%TO.P,J17,18*%
X91559999Y-96000008D03*
%TO.P,J17,19*%
%TO.N,P12*%
X91559999Y-99500009D03*
%TO.P,J17,20*%
%TO.N,P11*%
X91559999Y-103000010D03*
%TD*%
D11*
%TO.P,J2,2,Pin_2*%
%TO.N,GND*%
X131220000Y-73400000D03*
D12*
%TO.P,J2,1,Pin_1*%
%TO.N,Net-(J2-Pin_1)*%
X126220000Y-73400000D03*
%TD*%
D13*
%TO.P,F2,4*%
%TO.N,Net-(J2-Pin_1)*%
X133640000Y-83100000D03*
%TO.P,F2,3*%
%TO.N,P2*%
X123720000Y-83100000D03*
%TO.P,F2,2*%
%TO.N,Net-(J2-Pin_1)*%
X133640000Y-79700000D03*
%TO.P,F2,1*%
%TO.N,P2*%
X123720000Y-79700000D03*
%TD*%
%TO.P,F1,4*%
%TO.N,Net-(J1-Pin_1)*%
X116140000Y-83100000D03*
%TO.P,F1,3*%
%TO.N,P1*%
X106220000Y-83100000D03*
%TO.P,F1,2*%
%TO.N,Net-(J1-Pin_1)*%
X116140000Y-79700000D03*
%TO.P,F1,1*%
%TO.N,P1*%
X106220000Y-79700000D03*
%TD*%
D12*
%TO.P,J4,1,Pin_1*%
%TO.N,Net-(J4-Pin_1)*%
X161220000Y-73400000D03*
D11*
%TO.P,J4,2,Pin_2*%
%TO.N,GND*%
X166220000Y-73400000D03*
%TD*%
D12*
%TO.P,J12,1,Pin_1*%
%TO.N,Net-(J12-Pin_1)*%
X178680000Y-92900000D03*
D11*
%TO.P,J12,2,Pin_2*%
%TO.N,GND*%
X183680000Y-92900000D03*
%TD*%
D12*
%TO.P,J7,1,Pin_1*%
%TO.N,Net-(J7-Pin_1)*%
X213685476Y-73400000D03*
D11*
%TO.P,J7,2,Pin_2*%
%TO.N,GND*%
X218685476Y-73400000D03*
%TD*%
D13*
%TO.P,F9,1*%
%TO.N,P9*%
X123680000Y-99200000D03*
%TO.P,F9,2*%
%TO.N,Net-(J9-Pin_1)*%
X133600000Y-99200000D03*
%TO.P,F9,3*%
%TO.N,P9*%
X123680000Y-102600000D03*
%TO.P,F9,4*%
%TO.N,Net-(J9-Pin_1)*%
X133600000Y-102600000D03*
%TD*%
%TO.P,F8,1*%
%TO.N,P8*%
X106180000Y-99200000D03*
%TO.P,F8,2*%
%TO.N,Net-(J8-Pin_1)*%
X116100000Y-99200000D03*
%TO.P,F8,3*%
%TO.N,P8*%
X106180000Y-102600000D03*
%TO.P,F8,4*%
%TO.N,Net-(J8-Pin_1)*%
X116100000Y-102600000D03*
%TD*%
%TO.P,F12,1*%
%TO.N,P12*%
X176180000Y-99200000D03*
%TO.P,F12,2*%
%TO.N,Net-(J12-Pin_1)*%
X186100000Y-99200000D03*
%TO.P,F12,3*%
%TO.N,P12*%
X176180000Y-102600000D03*
%TO.P,F12,4*%
%TO.N,Net-(J12-Pin_1)*%
X186100000Y-102600000D03*
%TD*%
D12*
%TO.P,J1,1,Pin_1*%
%TO.N,Net-(J1-Pin_1)*%
X108720000Y-73400000D03*
D11*
%TO.P,J1,2,Pin_2*%
%TO.N,GND*%
X113720000Y-73400000D03*
%TD*%
D13*
%TO.P,F13,1*%
%TO.N,P13*%
X193680000Y-99200000D03*
%TO.P,F13,2*%
%TO.N,Net-(J13-Pin_1)*%
X203600000Y-99200000D03*
%TO.P,F13,3*%
%TO.N,P13*%
X193680000Y-102600000D03*
%TO.P,F13,4*%
%TO.N,Net-(J13-Pin_1)*%
X203600000Y-102600000D03*
%TD*%
D12*
%TO.P,J10,1,Pin_1*%
%TO.N,Net-(J10-Pin_1)*%
X143680000Y-92900000D03*
D11*
%TO.P,J10,2,Pin_2*%
%TO.N,GND*%
X148680000Y-92900000D03*
%TD*%
D12*
%TO.P,J9,1,Pin_1*%
%TO.N,Net-(J9-Pin_1)*%
X126180000Y-92900000D03*
D11*
%TO.P,J9,2,Pin_2*%
%TO.N,GND*%
X131180000Y-92900000D03*
%TD*%
D12*
%TO.P,J5,1,Pin_1*%
%TO.N,Net-(J5-Pin_1)*%
X178720000Y-73400000D03*
D11*
%TO.P,J5,2,Pin_2*%
%TO.N,GND*%
X183720000Y-73400000D03*
%TD*%
D13*
%TO.P,F4,1*%
%TO.N,P4*%
X158720000Y-79700000D03*
%TO.P,F4,2*%
%TO.N,Net-(J4-Pin_1)*%
X168640000Y-79700000D03*
%TO.P,F4,3*%
%TO.N,P4*%
X158720000Y-83100000D03*
%TO.P,F4,4*%
%TO.N,Net-(J4-Pin_1)*%
X168640000Y-83100000D03*
%TD*%
D12*
%TO.P,J14,1,Pin_1*%
%TO.N,Net-(J14-Pin_1)*%
X213685476Y-92900000D03*
D11*
%TO.P,J14,2,Pin_2*%
%TO.N,GND*%
X218685476Y-92900000D03*
%TD*%
D13*
%TO.P,F6,1*%
%TO.N,P6*%
X193720000Y-79700000D03*
%TO.P,F6,2*%
%TO.N,Net-(J6-Pin_1)*%
X203640000Y-79700000D03*
%TO.P,F6,3*%
%TO.N,P6*%
X193720000Y-83100000D03*
%TO.P,F6,4*%
%TO.N,Net-(J6-Pin_1)*%
X203640000Y-83100000D03*
%TD*%
%TO.P,F7,1*%
%TO.N,P7*%
X211225476Y-79700000D03*
%TO.P,F7,2*%
%TO.N,Net-(J7-Pin_1)*%
X221145476Y-79700000D03*
%TO.P,F7,3*%
%TO.N,P7*%
X211225476Y-83100000D03*
%TO.P,F7,4*%
%TO.N,Net-(J7-Pin_1)*%
X221145476Y-83100000D03*
%TD*%
D12*
%TO.P,J11,1,Pin_1*%
%TO.N,Net-(J11-Pin_1)*%
X161180000Y-92900000D03*
D11*
%TO.P,J11,2,Pin_2*%
%TO.N,GND*%
X166180000Y-92900000D03*
%TD*%
D12*
%TO.P,J3,1,Pin_1*%
%TO.N,Net-(J3-Pin_1)*%
X143720000Y-73400000D03*
D11*
%TO.P,J3,2,Pin_2*%
%TO.N,GND*%
X148720000Y-73400000D03*
%TD*%
D13*
%TO.P,F5,1*%
%TO.N,P5*%
X176220000Y-79700000D03*
%TO.P,F5,2*%
%TO.N,Net-(J5-Pin_1)*%
X186140000Y-79700000D03*
%TO.P,F5,3*%
%TO.N,P5*%
X176220000Y-83100000D03*
%TO.P,F5,4*%
%TO.N,Net-(J5-Pin_1)*%
X186140000Y-83100000D03*
%TD*%
D12*
%TO.P,J13,1,Pin_1*%
%TO.N,Net-(J13-Pin_1)*%
X196180000Y-92900000D03*
D11*
%TO.P,J13,2,Pin_2*%
%TO.N,GND*%
X201180000Y-92900000D03*
%TD*%
D12*
%TO.P,J6,1,Pin_1*%
%TO.N,Net-(J6-Pin_1)*%
X196220000Y-73400000D03*
D11*
%TO.P,J6,2,Pin_2*%
%TO.N,GND*%
X201220000Y-73400000D03*
%TD*%
D13*
%TO.P,F14,1*%
%TO.N,P14*%
X211225476Y-99200000D03*
%TO.P,F14,2*%
%TO.N,Net-(J14-Pin_1)*%
X221145476Y-99200000D03*
%TO.P,F14,3*%
%TO.N,P14*%
X211225476Y-102600000D03*
%TO.P,F14,4*%
%TO.N,Net-(J14-Pin_1)*%
X221145476Y-102600000D03*
%TD*%
D12*
%TO.P,J8,1,Pin_1*%
%TO.N,Net-(J8-Pin_1)*%
X108680000Y-92900000D03*
D11*
%TO.P,J8,2,Pin_2*%
%TO.N,GND*%
X113680000Y-92900000D03*
%TD*%
D13*
%TO.P,F10,1*%
%TO.N,P10*%
X141180000Y-99200000D03*
%TO.P,F10,2*%
%TO.N,Net-(J10-Pin_1)*%
X151100000Y-99200000D03*
%TO.P,F10,3*%
%TO.N,P10*%
X141180000Y-102600000D03*
%TO.P,F10,4*%
%TO.N,Net-(J10-Pin_1)*%
X151100000Y-102600000D03*
%TD*%
%TO.P,F11,1*%
%TO.N,P11*%
X158680000Y-99200000D03*
%TO.P,F11,2*%
%TO.N,Net-(J11-Pin_1)*%
X168600000Y-99200000D03*
%TO.P,F11,3*%
%TO.N,P11*%
X158680000Y-102600000D03*
%TO.P,F11,4*%
%TO.N,Net-(J11-Pin_1)*%
X168600000Y-102600000D03*
%TD*%
%TO.P,F3,1*%
%TO.N,P3*%
X141220000Y-79700000D03*
%TO.P,F3,2*%
%TO.N,Net-(J3-Pin_1)*%
X151140000Y-79700000D03*
%TO.P,F3,3*%
%TO.N,P3*%
X141220000Y-83100000D03*
%TO.P,F3,4*%
%TO.N,Net-(J3-Pin_1)*%
X151140000Y-83100000D03*
%TD*%
M02*
