%TF.GenerationSoftware,KiCad,Pcbnew,9.0.0*%
%TF.CreationDate,2025-10-25T18:36:03-05:00*%
%TF.ProjectId,PS-LVDistributionPCB,50532d4c-5644-4697-9374-726962757469,rev?*%
%TF.SameCoordinates,Original*%
%TF.FileFunction,Copper,L2,Bot*%
%TF.FilePolarity,Positive*%
%FSLAX46Y46*%
G04 Gerber Fmt 4.6, Leading zero omitted, Abs format (unit mm)*
G04 Created by KiCad (PCBNEW 9.0.0) date 2025-10-25 18:36:03*
%MOMM*%
%LPD*%
G01*
G04 APERTURE LIST*
%TA.AperFunction,ComponentPad*%
%ADD10R,3.000000X3.000000*%
%TD*%
%TA.AperFunction,ComponentPad*%
%ADD11C,3.000000*%
%TD*%
%TA.AperFunction,ComponentPad*%
%ADD12C,2.400000*%
%TD*%
%TA.AperFunction,ComponentPad*%
%ADD13C,2.057400*%
%TD*%
G04 APERTURE END LIST*
D10*
%TO.P,J4,1,Pin_1*%
%TO.N,Net-(J4-Pin_1)*%
X161220000Y-73200000D03*
D11*
%TO.P,J4,2,Pin_2*%
%TO.N,GND*%
X166220000Y-73200000D03*
%TD*%
D10*
%TO.P,J12,1,Pin_1*%
%TO.N,Net-(J12-Pin_1)*%
X178680000Y-93100000D03*
D11*
%TO.P,J12,2,Pin_2*%
%TO.N,GND*%
X183680000Y-93100000D03*
%TD*%
D10*
%TO.P,J7,1,Pin_1*%
%TO.N,Net-(J7-Pin_1)*%
X213685476Y-73200000D03*
D11*
%TO.P,J7,2,Pin_2*%
%TO.N,GND*%
X218685476Y-73200000D03*
%TD*%
D12*
%TO.P,F9,1*%
%TO.N,P9*%
X123680000Y-99400000D03*
%TO.P,F9,2*%
%TO.N,Net-(J9-Pin_1)*%
X133600000Y-99400000D03*
%TO.P,F9,3*%
%TO.N,P9*%
X123680000Y-102800000D03*
%TO.P,F9,4*%
%TO.N,Net-(J9-Pin_1)*%
X133600000Y-102800000D03*
%TD*%
%TO.P,F8,1*%
%TO.N,P8*%
X106180000Y-99400000D03*
%TO.P,F8,2*%
%TO.N,Net-(J8-Pin_1)*%
X116100000Y-99400000D03*
%TO.P,F8,3*%
%TO.N,P8*%
X106180000Y-102800000D03*
%TO.P,F8,4*%
%TO.N,Net-(J8-Pin_1)*%
X116100000Y-102800000D03*
%TD*%
%TO.P,F12,1*%
%TO.N,P12*%
X176180000Y-99400000D03*
%TO.P,F12,2*%
%TO.N,Net-(J12-Pin_1)*%
X186100000Y-99400000D03*
%TO.P,F12,3*%
%TO.N,P12*%
X176180000Y-102800000D03*
%TO.P,F12,4*%
%TO.N,Net-(J12-Pin_1)*%
X186100000Y-102800000D03*
%TD*%
D10*
%TO.P,J1,1,Pin_1*%
%TO.N,Net-(J1-Pin_1)*%
X108720000Y-73200000D03*
D11*
%TO.P,J1,2,Pin_2*%
%TO.N,GND*%
X113720000Y-73200000D03*
%TD*%
D12*
%TO.P,F13,1*%
%TO.N,P13*%
X193680000Y-99400000D03*
%TO.P,F13,2*%
%TO.N,Net-(J13-Pin_1)*%
X203600000Y-99400000D03*
%TO.P,F13,3*%
%TO.N,P13*%
X193680000Y-102800000D03*
%TO.P,F13,4*%
%TO.N,Net-(J13-Pin_1)*%
X203600000Y-102800000D03*
%TD*%
D10*
%TO.P,J10,1,Pin_1*%
%TO.N,Net-(J10-Pin_1)*%
X143680000Y-93100000D03*
D11*
%TO.P,J10,2,Pin_2*%
%TO.N,GND*%
X148680000Y-93100000D03*
%TD*%
D10*
%TO.P,J9,1,Pin_1*%
%TO.N,Net-(J9-Pin_1)*%
X126180000Y-93100000D03*
D11*
%TO.P,J9,2,Pin_2*%
%TO.N,GND*%
X131180000Y-93100000D03*
%TD*%
D10*
%TO.P,J5,1,Pin_1*%
%TO.N,Net-(J5-Pin_1)*%
X178720000Y-73200000D03*
D11*
%TO.P,J5,2,Pin_2*%
%TO.N,GND*%
X183720000Y-73200000D03*
%TD*%
D12*
%TO.P,F4,1*%
%TO.N,P4*%
X158720000Y-79500000D03*
%TO.P,F4,2*%
%TO.N,Net-(J4-Pin_1)*%
X168640000Y-79500000D03*
%TO.P,F4,3*%
%TO.N,P4*%
X158720000Y-82900000D03*
%TO.P,F4,4*%
%TO.N,Net-(J4-Pin_1)*%
X168640000Y-82900000D03*
%TD*%
D10*
%TO.P,J14,1,Pin_1*%
%TO.N,Net-(J14-Pin_1)*%
X213685476Y-93100000D03*
D11*
%TO.P,J14,2,Pin_2*%
%TO.N,GND*%
X218685476Y-93100000D03*
%TD*%
D12*
%TO.P,F6,1*%
%TO.N,P6*%
X193720000Y-79500000D03*
%TO.P,F6,2*%
%TO.N,Net-(J6-Pin_1)*%
X203640000Y-79500000D03*
%TO.P,F6,3*%
%TO.N,P6*%
X193720000Y-82900000D03*
%TO.P,F6,4*%
%TO.N,Net-(J6-Pin_1)*%
X203640000Y-82900000D03*
%TD*%
%TO.P,F7,1*%
%TO.N,P7*%
X211225476Y-79500000D03*
%TO.P,F7,2*%
%TO.N,Net-(J7-Pin_1)*%
X221145476Y-79500000D03*
%TO.P,F7,3*%
%TO.N,P7*%
X211225476Y-82900000D03*
%TO.P,F7,4*%
%TO.N,Net-(J7-Pin_1)*%
X221145476Y-82900000D03*
%TD*%
D10*
%TO.P,J11,1,Pin_1*%
%TO.N,Net-(J11-Pin_1)*%
X161180000Y-93100000D03*
D11*
%TO.P,J11,2,Pin_2*%
%TO.N,GND*%
X166180000Y-93100000D03*
%TD*%
D10*
%TO.P,J3,1,Pin_1*%
%TO.N,Net-(J3-Pin_1)*%
X143720000Y-73200000D03*
D11*
%TO.P,J3,2,Pin_2*%
%TO.N,GND*%
X148720000Y-73200000D03*
%TD*%
D12*
%TO.P,F1,1*%
%TO.N,P1*%
X106220000Y-79500000D03*
%TO.P,F1,2*%
%TO.N,Net-(J1-Pin_1)*%
X116140000Y-79500000D03*
%TO.P,F1,3*%
%TO.N,P1*%
X106220000Y-82900000D03*
%TO.P,F1,4*%
%TO.N,Net-(J1-Pin_1)*%
X116140000Y-82900000D03*
%TD*%
%TO.P,F5,1*%
%TO.N,P5*%
X176220000Y-79500000D03*
%TO.P,F5,2*%
%TO.N,Net-(J5-Pin_1)*%
X186140000Y-79500000D03*
%TO.P,F5,3*%
%TO.N,P5*%
X176220000Y-82900000D03*
%TO.P,F5,4*%
%TO.N,Net-(J5-Pin_1)*%
X186140000Y-82900000D03*
%TD*%
%TO.P,F2,1*%
%TO.N,P2*%
X123720000Y-79500000D03*
%TO.P,F2,2*%
%TO.N,Net-(J2-Pin_1)*%
X133640000Y-79500000D03*
%TO.P,F2,3*%
%TO.N,P2*%
X123720000Y-82900000D03*
%TO.P,F2,4*%
%TO.N,Net-(J2-Pin_1)*%
X133640000Y-82900000D03*
%TD*%
D10*
%TO.P,J13,1,Pin_1*%
%TO.N,Net-(J13-Pin_1)*%
X196180000Y-93100000D03*
D11*
%TO.P,J13,2,Pin_2*%
%TO.N,GND*%
X201180000Y-93100000D03*
%TD*%
D10*
%TO.P,J6,1,Pin_1*%
%TO.N,Net-(J6-Pin_1)*%
X196220000Y-73200000D03*
D11*
%TO.P,J6,2,Pin_2*%
%TO.N,GND*%
X201220000Y-73200000D03*
%TD*%
D12*
%TO.P,F14,1*%
%TO.N,P14*%
X211225476Y-99400000D03*
%TO.P,F14,2*%
%TO.N,Net-(J14-Pin_1)*%
X221145476Y-99400000D03*
%TO.P,F14,3*%
%TO.N,P14*%
X211225476Y-102800000D03*
%TO.P,F14,4*%
%TO.N,Net-(J14-Pin_1)*%
X221145476Y-102800000D03*
%TD*%
D10*
%TO.P,J8,1,Pin_1*%
%TO.N,Net-(J8-Pin_1)*%
X108680000Y-93100000D03*
D11*
%TO.P,J8,2,Pin_2*%
%TO.N,GND*%
X113680000Y-93100000D03*
%TD*%
D12*
%TO.P,F10,1*%
%TO.N,P10*%
X141180000Y-99400000D03*
%TO.P,F10,2*%
%TO.N,Net-(J10-Pin_1)*%
X151100000Y-99400000D03*
%TO.P,F10,3*%
%TO.N,P10*%
X141180000Y-102800000D03*
%TO.P,F10,4*%
%TO.N,Net-(J10-Pin_1)*%
X151100000Y-102800000D03*
%TD*%
D10*
%TO.P,J2,1,Pin_1*%
%TO.N,Net-(J2-Pin_1)*%
X126220000Y-73200000D03*
D11*
%TO.P,J2,2,Pin_2*%
%TO.N,GND*%
X131220000Y-73200000D03*
%TD*%
D12*
%TO.P,F11,1*%
%TO.N,P11*%
X158680000Y-99400000D03*
%TO.P,F11,2*%
%TO.N,Net-(J11-Pin_1)*%
X168600000Y-99400000D03*
%TO.P,F11,3*%
%TO.N,P11*%
X158680000Y-102800000D03*
%TO.P,F11,4*%
%TO.N,Net-(J11-Pin_1)*%
X168600000Y-102800000D03*
%TD*%
%TO.P,F3,1*%
%TO.N,P3*%
X141220000Y-79500000D03*
%TO.P,F3,2*%
%TO.N,Net-(J3-Pin_1)*%
X151140000Y-79500000D03*
%TO.P,F3,3*%
%TO.N,P3*%
X141220000Y-82900000D03*
%TO.P,F3,4*%
%TO.N,Net-(J3-Pin_1)*%
X151140000Y-82900000D03*
%TD*%
D13*
%TO.P,J17,1,+24V*%
%TO.N,P3*%
X95060001Y-71500001D03*
%TO.P,J17,2,CANH_IN*%
%TO.N,P2*%
X95060001Y-75000002D03*
%TO.P,J17,3,CANL_IN*%
%TO.N,P1*%
X95060001Y-78500003D03*
%TO.P,J17,4,PWR_OUT\u002A*%
%TO.N,P6*%
X95060001Y-82000003D03*
%TO.P,J17,5*%
%TO.N,P7*%
X95060001Y-85500004D03*
%TO.P,J17,6*%
%TO.N,P14*%
X95060001Y-89000005D03*
%TO.P,J17,7*%
%TO.N,P13*%
X95060001Y-92500005D03*
%TO.P,J17,8*%
%TO.N,P8*%
X95060001Y-96000008D03*
%TO.P,J17,9*%
%TO.N,P9*%
X95060001Y-99500009D03*
%TO.P,J17,10*%
%TO.N,P10*%
X95060001Y-103000010D03*
%TO.P,J17,11,GND*%
%TO.N,P4*%
X91559999Y-71500001D03*
%TO.P,J17,12,CANH_OUT*%
%TO.N,P5*%
X91559999Y-75000002D03*
%TO.P,J17,13,CANL_OUT*%
%TO.N,GND*%
X91559999Y-78500003D03*
%TO.P,J17,14,GND_OUT\u002A*%
X91559999Y-82000003D03*
%TO.P,J17,15*%
X91559999Y-85500004D03*
%TO.P,J17,16*%
X91559999Y-89000005D03*
%TO.P,J17,17*%
X91559999Y-92500005D03*
%TO.P,J17,18*%
X91559999Y-96000008D03*
%TO.P,J17,19*%
%TO.N,P12*%
X91559999Y-99500009D03*
%TO.P,J17,20*%
%TO.N,P11*%
X91559999Y-103000010D03*
%TD*%
%TA.AperFunction,Conductor*%
%TO.N,GND*%
G36*
X231903736Y-57600726D02*
G01*
X232193796Y-57618271D01*
X232208659Y-57620076D01*
X232490798Y-57671780D01*
X232505335Y-57675363D01*
X232779172Y-57760695D01*
X232793163Y-57766000D01*
X233054743Y-57883727D01*
X233067989Y-57890680D01*
X233313465Y-58039075D01*
X233325776Y-58047573D01*
X233551573Y-58224473D01*
X233562781Y-58234403D01*
X233765596Y-58437218D01*
X233775526Y-58448426D01*
X233895481Y-58601538D01*
X233952422Y-58674217D01*
X233960926Y-58686537D01*
X234018128Y-58781161D01*
X234109316Y-58932004D01*
X234116275Y-58945263D01*
X234233997Y-59206831D01*
X234239306Y-59220832D01*
X234324635Y-59494663D01*
X234328219Y-59509201D01*
X234379923Y-59791340D01*
X234381728Y-59806205D01*
X234399274Y-60096263D01*
X234399500Y-60103750D01*
X234399500Y-114396249D01*
X234399274Y-114403736D01*
X234381728Y-114693794D01*
X234379923Y-114708659D01*
X234328219Y-114990798D01*
X234324635Y-115005336D01*
X234239306Y-115279167D01*
X234233997Y-115293168D01*
X234116275Y-115554736D01*
X234109316Y-115567995D01*
X233960928Y-115813459D01*
X233952422Y-115825782D01*
X233775526Y-116051573D01*
X233765596Y-116062781D01*
X233562781Y-116265596D01*
X233551573Y-116275526D01*
X233325782Y-116452422D01*
X233313459Y-116460928D01*
X233067995Y-116609316D01*
X233054736Y-116616275D01*
X232793168Y-116733997D01*
X232779167Y-116739306D01*
X232505336Y-116824635D01*
X232490798Y-116828219D01*
X232208659Y-116879923D01*
X232193794Y-116881728D01*
X231903736Y-116899274D01*
X231896249Y-116899500D01*
X88903751Y-116899500D01*
X88896264Y-116899274D01*
X88606205Y-116881728D01*
X88591340Y-116879923D01*
X88309201Y-116828219D01*
X88294663Y-116824635D01*
X88020832Y-116739306D01*
X88006831Y-116733997D01*
X87745263Y-116616275D01*
X87732004Y-116609316D01*
X87486540Y-116460928D01*
X87474217Y-116452422D01*
X87248426Y-116275526D01*
X87237218Y-116265596D01*
X87034403Y-116062781D01*
X87024473Y-116051573D01*
X86847573Y-115825776D01*
X86839075Y-115813465D01*
X86690680Y-115567989D01*
X86683727Y-115554743D01*
X86566000Y-115293163D01*
X86560693Y-115279167D01*
X86511949Y-115122743D01*
X86475363Y-115005335D01*
X86471780Y-114990798D01*
X86420076Y-114708659D01*
X86418271Y-114693794D01*
X86400726Y-114403736D01*
X86400500Y-114396249D01*
X86400500Y-113778711D01*
X102949500Y-113778711D01*
X102949500Y-114021288D01*
X102981161Y-114261785D01*
X103043947Y-114496104D01*
X103136773Y-114720205D01*
X103136776Y-114720212D01*
X103258064Y-114930289D01*
X103258066Y-114930292D01*
X103258067Y-114930293D01*
X103405733Y-115122736D01*
X103405739Y-115122743D01*
X103577256Y-115294260D01*
X103577262Y-115294265D01*
X103769711Y-115441936D01*
X103979788Y-115563224D01*
X104203900Y-115656054D01*
X104438211Y-115718838D01*
X104618586Y-115742584D01*
X104678711Y-115750500D01*
X104678712Y-115750500D01*
X104921289Y-115750500D01*
X104969388Y-115744167D01*
X105161789Y-115718838D01*
X105396100Y-115656054D01*
X105620212Y-115563224D01*
X105830289Y-115441936D01*
X106022738Y-115294265D01*
X106194265Y-115122738D01*
X106341936Y-114930289D01*
X106463224Y-114720212D01*
X106556054Y-114496100D01*
X106618838Y-114261789D01*
X106650500Y-114021288D01*
X106650500Y-113778712D01*
X106650500Y-113778711D01*
X229549500Y-113778711D01*
X229549500Y-114021288D01*
X229581161Y-114261785D01*
X229643947Y-114496104D01*
X229736773Y-114720205D01*
X229736776Y-114720212D01*
X229858064Y-114930289D01*
X229858066Y-114930292D01*
X229858067Y-114930293D01*
X230005733Y-115122736D01*
X230005739Y-115122743D01*
X230177256Y-115294260D01*
X230177262Y-115294265D01*
X230369711Y-115441936D01*
X230579788Y-115563224D01*
X230803900Y-115656054D01*
X231038211Y-115718838D01*
X231218586Y-115742584D01*
X231278711Y-115750500D01*
X231278712Y-115750500D01*
X231521289Y-115750500D01*
X231569388Y-115744167D01*
X231761789Y-115718838D01*
X231996100Y-115656054D01*
X232220212Y-115563224D01*
X232430289Y-115441936D01*
X232622738Y-115294265D01*
X232794265Y-115122738D01*
X232941936Y-114930289D01*
X233063224Y-114720212D01*
X233156054Y-114496100D01*
X233218838Y-114261789D01*
X233250500Y-114021288D01*
X233250500Y-113778712D01*
X233218838Y-113538211D01*
X233156054Y-113303900D01*
X233063224Y-113079788D01*
X232941936Y-112869711D01*
X232794265Y-112677262D01*
X232794260Y-112677256D01*
X232622743Y-112505739D01*
X232622736Y-112505733D01*
X232430293Y-112358067D01*
X232430292Y-112358066D01*
X232430289Y-112358064D01*
X232220212Y-112236776D01*
X232206200Y-112230972D01*
X231996104Y-112143947D01*
X231761785Y-112081161D01*
X231521289Y-112049500D01*
X231521288Y-112049500D01*
X231278712Y-112049500D01*
X231278711Y-112049500D01*
X231038214Y-112081161D01*
X230803895Y-112143947D01*
X230579794Y-112236773D01*
X230579785Y-112236777D01*
X230369706Y-112358067D01*
X230177263Y-112505733D01*
X230177256Y-112505739D01*
X230005739Y-112677256D01*
X230005733Y-112677263D01*
X229858067Y-112869706D01*
X229736777Y-113079785D01*
X229736773Y-113079794D01*
X229643947Y-113303895D01*
X229581161Y-113538214D01*
X229549500Y-113778711D01*
X106650500Y-113778711D01*
X106618838Y-113538211D01*
X106556054Y-113303900D01*
X106463224Y-113079788D01*
X106341936Y-112869711D01*
X106194265Y-112677262D01*
X106194260Y-112677256D01*
X106022743Y-112505739D01*
X106022736Y-112505733D01*
X105830293Y-112358067D01*
X105830292Y-112358066D01*
X105830289Y-112358064D01*
X105620212Y-112236776D01*
X105606200Y-112230972D01*
X105396104Y-112143947D01*
X105161785Y-112081161D01*
X104921289Y-112049500D01*
X104921288Y-112049500D01*
X104678712Y-112049500D01*
X104678711Y-112049500D01*
X104438214Y-112081161D01*
X104203895Y-112143947D01*
X103979794Y-112236773D01*
X103979785Y-112236777D01*
X103769706Y-112358067D01*
X103577263Y-112505733D01*
X103577256Y-112505739D01*
X103405739Y-112677256D01*
X103405733Y-112677263D01*
X103258067Y-112869706D01*
X103136777Y-113079785D01*
X103136773Y-113079794D01*
X103043947Y-113303895D01*
X102981161Y-113538214D01*
X102949500Y-113778711D01*
X86400500Y-113778711D01*
X86400500Y-109851246D01*
X90330200Y-109851246D01*
X90330200Y-110148775D01*
X90330201Y-110148791D01*
X90369035Y-110443766D01*
X90369036Y-110443771D01*
X90369037Y-110443777D01*
X90369038Y-110443779D01*
X90446046Y-110731179D01*
X90446049Y-110731189D01*
X90559908Y-111006068D01*
X90559913Y-111006079D01*
X90708676Y-111263742D01*
X90708687Y-111263758D01*
X90889811Y-111499803D01*
X90889817Y-111499810D01*
X91100200Y-111710193D01*
X91100206Y-111710198D01*
X91336261Y-111891330D01*
X91336268Y-111891334D01*
X91593931Y-112040097D01*
X91593936Y-112040099D01*
X91593939Y-112040101D01*
X91868831Y-112153965D01*
X92156234Y-112230974D01*
X92451229Y-112269811D01*
X92451236Y-112269811D01*
X92748764Y-112269811D01*
X92748771Y-112269811D01*
X93043766Y-112230974D01*
X93331169Y-112153965D01*
X93606061Y-112040101D01*
X93863739Y-111891330D01*
X94099794Y-111710198D01*
X94310187Y-111499805D01*
X94491319Y-111263750D01*
X94640090Y-111006072D01*
X94753954Y-110731180D01*
X94830963Y-110443777D01*
X94869800Y-110148782D01*
X94869800Y-109851240D01*
X94830963Y-109556245D01*
X94753954Y-109268842D01*
X94640090Y-108993950D01*
X94640088Y-108993947D01*
X94640086Y-108993942D01*
X94491323Y-108736279D01*
X94491319Y-108736272D01*
X94310187Y-108500217D01*
X94310182Y-108500211D01*
X94099799Y-108289828D01*
X94099792Y-108289822D01*
X93863747Y-108108698D01*
X93863745Y-108108696D01*
X93863739Y-108108692D01*
X93863734Y-108108689D01*
X93863731Y-108108687D01*
X93606068Y-107959924D01*
X93606057Y-107959919D01*
X93331178Y-107846060D01*
X93331171Y-107846058D01*
X93331169Y-107846057D01*
X93043766Y-107769048D01*
X93043760Y-107769047D01*
X93043755Y-107769046D01*
X92748780Y-107730212D01*
X92748777Y-107730211D01*
X92748771Y-107730211D01*
X92451229Y-107730211D01*
X92451223Y-107730211D01*
X92451219Y-107730212D01*
X92156244Y-107769046D01*
X92156237Y-107769047D01*
X92156234Y-107769048D01*
X91868831Y-107846057D01*
X91868821Y-107846060D01*
X91593942Y-107959919D01*
X91593931Y-107959924D01*
X91336268Y-108108687D01*
X91336252Y-108108698D01*
X91100207Y-108289822D01*
X91100200Y-108289828D01*
X90889817Y-108500211D01*
X90889811Y-108500218D01*
X90708687Y-108736263D01*
X90708676Y-108736279D01*
X90559913Y-108993942D01*
X90559908Y-108993953D01*
X90446049Y-109268832D01*
X90446046Y-109268842D01*
X90369038Y-109556242D01*
X90369035Y-109556255D01*
X90330201Y-109851230D01*
X90330200Y-109851246D01*
X86400500Y-109851246D01*
X86400500Y-102879659D01*
X90030799Y-102879659D01*
X90030799Y-103120360D01*
X90068453Y-103358100D01*
X90142831Y-103587016D01*
X90142832Y-103587019D01*
X90252112Y-103801489D01*
X90393584Y-103996210D01*
X90393588Y-103996215D01*
X90563793Y-104166420D01*
X90563798Y-104166424D01*
X90633339Y-104216948D01*
X90758523Y-104307899D01*
X90898721Y-104379334D01*
X90972989Y-104417176D01*
X90972992Y-104417177D01*
X91087450Y-104454366D01*
X91201910Y-104491556D01*
X91439648Y-104529210D01*
X91439649Y-104529210D01*
X91680349Y-104529210D01*
X91680350Y-104529210D01*
X91918088Y-104491556D01*
X92147008Y-104417176D01*
X92361475Y-104307899D01*
X92556206Y-104166419D01*
X92726408Y-103996217D01*
X92867888Y-103801486D01*
X92977165Y-103587019D01*
X93051545Y-103358099D01*
X93089199Y-103120361D01*
X93089199Y-102879659D01*
X93530801Y-102879659D01*
X93530801Y-103120360D01*
X93568455Y-103358100D01*
X93642833Y-103587016D01*
X93642834Y-103587019D01*
X93752114Y-103801489D01*
X93893586Y-103996210D01*
X93893590Y-103996215D01*
X94063795Y-104166420D01*
X94063800Y-104166424D01*
X94133341Y-104216948D01*
X94258525Y-104307899D01*
X94398723Y-104379334D01*
X94472991Y-104417176D01*
X94472994Y-104417177D01*
X94587452Y-104454366D01*
X94701912Y-104491556D01*
X94939650Y-104529210D01*
X94939651Y-104529210D01*
X95180351Y-104529210D01*
X95180352Y-104529210D01*
X95418090Y-104491556D01*
X95647010Y-104417176D01*
X95861477Y-104307899D01*
X96056208Y-104166419D01*
X96226410Y-103996217D01*
X96367890Y-103801486D01*
X96477167Y-103587019D01*
X96551547Y-103358099D01*
X96589201Y-103120361D01*
X96589201Y-102879659D01*
X96551547Y-102641921D01*
X96477167Y-102413001D01*
X96477167Y-102413000D01*
X96439325Y-102338732D01*
X96367890Y-102198534D01*
X96349815Y-102173656D01*
X96226415Y-102003809D01*
X96226411Y-102003804D01*
X96056206Y-101833599D01*
X96056201Y-101833595D01*
X95861480Y-101692123D01*
X95861479Y-101692122D01*
X95861477Y-101692121D01*
X95792767Y-101657111D01*
X95647010Y-101582843D01*
X95647007Y-101582842D01*
X95418091Y-101508464D01*
X95299221Y-101489637D01*
X95180352Y-101470810D01*
X94939650Y-101470810D01*
X94860404Y-101483361D01*
X94701910Y-101508464D01*
X94472994Y-101582842D01*
X94472991Y-101582843D01*
X94258521Y-101692123D01*
X94063800Y-101833595D01*
X94063795Y-101833599D01*
X93893590Y-102003804D01*
X93893586Y-102003809D01*
X93752114Y-102198530D01*
X93642834Y-102413000D01*
X93642833Y-102413003D01*
X93568455Y-102641919D01*
X93530801Y-102879659D01*
X93089199Y-102879659D01*
X93051545Y-102641921D01*
X92977165Y-102413001D01*
X92977165Y-102413000D01*
X92939323Y-102338732D01*
X92867888Y-102198534D01*
X92849813Y-102173656D01*
X92726413Y-102003809D01*
X92726409Y-102003804D01*
X92556204Y-101833599D01*
X92556199Y-101833595D01*
X92361478Y-101692123D01*
X92361477Y-101692122D01*
X92361475Y-101692121D01*
X92292765Y-101657111D01*
X92147008Y-101582843D01*
X92147005Y-101582842D01*
X91918089Y-101508464D01*
X91799219Y-101489637D01*
X91680350Y-101470810D01*
X91439648Y-101470810D01*
X91360402Y-101483361D01*
X91201908Y-101508464D01*
X90972992Y-101582842D01*
X90972989Y-101582843D01*
X90758519Y-101692123D01*
X90563798Y-101833595D01*
X90563793Y-101833599D01*
X90393588Y-102003804D01*
X90393584Y-102003809D01*
X90252112Y-102198530D01*
X90142832Y-102413000D01*
X90142831Y-102413003D01*
X90068453Y-102641919D01*
X90030799Y-102879659D01*
X86400500Y-102879659D01*
X86400500Y-99379658D01*
X90030799Y-99379658D01*
X90030799Y-99620359D01*
X90068453Y-99858099D01*
X90142831Y-100087015D01*
X90142832Y-100087018D01*
X90252112Y-100301488D01*
X90393584Y-100496209D01*
X90393588Y-100496214D01*
X90563793Y-100666419D01*
X90563798Y-100666423D01*
X90733645Y-100789823D01*
X90758523Y-100807898D01*
X90898721Y-100879333D01*
X90972989Y-100917175D01*
X90972992Y-100917176D01*
X91087450Y-100954365D01*
X91201910Y-100991555D01*
X91439648Y-101029209D01*
X91439649Y-101029209D01*
X91680349Y-101029209D01*
X91680350Y-101029209D01*
X91918088Y-100991555D01*
X92147008Y-100917175D01*
X92361475Y-100807898D01*
X92556206Y-100666418D01*
X92726408Y-100496216D01*
X92867888Y-100301485D01*
X92977165Y-100087018D01*
X93051545Y-99858098D01*
X93089199Y-99620360D01*
X93089199Y-99379658D01*
X93530801Y-99379658D01*
X93530801Y-99620359D01*
X93568455Y-99858099D01*
X93642833Y-100087015D01*
X93642834Y-100087018D01*
X93752114Y-100301488D01*
X93893586Y-100496209D01*
X93893590Y-100496214D01*
X94063795Y-100666419D01*
X94063800Y-100666423D01*
X94233647Y-100789823D01*
X94258525Y-100807898D01*
X94398723Y-100879333D01*
X94472991Y-100917175D01*
X94472994Y-100917176D01*
X94587452Y-100954365D01*
X94701912Y-100991555D01*
X94939650Y-101029209D01*
X94939651Y-101029209D01*
X95180351Y-101029209D01*
X95180352Y-101029209D01*
X95418090Y-100991555D01*
X95647010Y-100917175D01*
X95861477Y-100807898D01*
X96056208Y-100666418D01*
X96226410Y-100496216D01*
X96367890Y-100301485D01*
X96477167Y-100087018D01*
X96551547Y-99858098D01*
X96589201Y-99620360D01*
X96589201Y-99379658D01*
X96574771Y-99288549D01*
X104479500Y-99288549D01*
X104479500Y-99511450D01*
X104479501Y-99511466D01*
X104508594Y-99732452D01*
X104508595Y-99732457D01*
X104508596Y-99732463D01*
X104508597Y-99732465D01*
X104566290Y-99947780D01*
X104566293Y-99947790D01*
X104651593Y-100153722D01*
X104651595Y-100153726D01*
X104763052Y-100346774D01*
X104763057Y-100346780D01*
X104763058Y-100346782D01*
X104898751Y-100523622D01*
X104898757Y-100523629D01*
X105056370Y-100681242D01*
X105056376Y-100681247D01*
X105233226Y-100816948D01*
X105426274Y-100928405D01*
X105463199Y-100943699D01*
X105563965Y-100985439D01*
X105618368Y-101029280D01*
X105640433Y-101095574D01*
X105623154Y-101163274D01*
X105572016Y-101210884D01*
X105563965Y-101214561D01*
X105426277Y-101271593D01*
X105426273Y-101271595D01*
X105233226Y-101383052D01*
X105233217Y-101383058D01*
X105056377Y-101518751D01*
X105056370Y-101518757D01*
X104898757Y-101676370D01*
X104898751Y-101676377D01*
X104763058Y-101853217D01*
X104763052Y-101853226D01*
X104651595Y-102046273D01*
X104651593Y-102046277D01*
X104566293Y-102252209D01*
X104566290Y-102252219D01*
X104508597Y-102467534D01*
X104508594Y-102467547D01*
X104479501Y-102688533D01*
X104479500Y-102688549D01*
X104479500Y-102911450D01*
X104479501Y-102911466D01*
X104508594Y-103132452D01*
X104508595Y-103132457D01*
X104508596Y-103132463D01*
X104508597Y-103132465D01*
X104566290Y-103347780D01*
X104566293Y-103347790D01*
X104570564Y-103358100D01*
X104651595Y-103553726D01*
X104763052Y-103746774D01*
X104763057Y-103746780D01*
X104763058Y-103746782D01*
X104898751Y-103923622D01*
X104898757Y-103923629D01*
X105056370Y-104081242D01*
X105056376Y-104081247D01*
X105233226Y-104216948D01*
X105426274Y-104328405D01*
X105632219Y-104413710D01*
X105847537Y-104471404D01*
X106068543Y-104500500D01*
X106068550Y-104500500D01*
X106291450Y-104500500D01*
X106291457Y-104500500D01*
X106512463Y-104471404D01*
X106727781Y-104413710D01*
X106933726Y-104328405D01*
X107126774Y-104216948D01*
X107303624Y-104081247D01*
X107461247Y-103923624D01*
X107596948Y-103746774D01*
X107708405Y-103553726D01*
X107793710Y-103347781D01*
X107851404Y-103132463D01*
X107880500Y-102911457D01*
X107880500Y-102688543D01*
X107851404Y-102467537D01*
X107793710Y-102252219D01*
X107708405Y-102046274D01*
X107596948Y-101853226D01*
X107473330Y-101692123D01*
X107461248Y-101676377D01*
X107461242Y-101676370D01*
X107303629Y-101518757D01*
X107303622Y-101518751D01*
X107126782Y-101383058D01*
X107126780Y-101383057D01*
X107126774Y-101383052D01*
X106933726Y-101271595D01*
X106933722Y-101271593D01*
X106796034Y-101214561D01*
X106741631Y-101170720D01*
X106719566Y-101104426D01*
X106736845Y-101036727D01*
X106787982Y-100989116D01*
X106796034Y-100985439D01*
X106833768Y-100969808D01*
X106933726Y-100928405D01*
X107126774Y-100816948D01*
X107303624Y-100681247D01*
X107461247Y-100523624D01*
X107596948Y-100346774D01*
X107708405Y-100153726D01*
X107793710Y-99947781D01*
X107851404Y-99732463D01*
X107880500Y-99511457D01*
X107880500Y-99288549D01*
X114399500Y-99288549D01*
X114399500Y-99511450D01*
X114399501Y-99511466D01*
X114428594Y-99732452D01*
X114428595Y-99732457D01*
X114428596Y-99732463D01*
X114428597Y-99732465D01*
X114486290Y-99947780D01*
X114486293Y-99947790D01*
X114571593Y-100153722D01*
X114571595Y-100153726D01*
X114683052Y-100346774D01*
X114683057Y-100346780D01*
X114683058Y-100346782D01*
X114818751Y-100523622D01*
X114818757Y-100523629D01*
X114976370Y-100681242D01*
X114976376Y-100681247D01*
X115153226Y-100816948D01*
X115346274Y-100928405D01*
X115383199Y-100943699D01*
X115483965Y-100985439D01*
X115538368Y-101029280D01*
X115560433Y-101095574D01*
X115543154Y-101163274D01*
X115492016Y-101210884D01*
X115483965Y-101214561D01*
X115346277Y-101271593D01*
X115346273Y-101271595D01*
X115153226Y-101383052D01*
X115153217Y-101383058D01*
X114976377Y-101518751D01*
X114976370Y-101518757D01*
X114818757Y-101676370D01*
X114818751Y-101676377D01*
X114683058Y-101853217D01*
X114683052Y-101853226D01*
X114571595Y-102046273D01*
X114571593Y-102046277D01*
X114486293Y-102252209D01*
X114486290Y-102252219D01*
X114428597Y-102467534D01*
X114428594Y-102467547D01*
X114399501Y-102688533D01*
X114399500Y-102688549D01*
X114399500Y-102911450D01*
X114399501Y-102911466D01*
X114428594Y-103132452D01*
X114428595Y-103132457D01*
X114428596Y-103132463D01*
X114428597Y-103132465D01*
X114486290Y-103347780D01*
X114486293Y-103347790D01*
X114490564Y-103358100D01*
X114571595Y-103553726D01*
X114683052Y-103746774D01*
X114683057Y-103746780D01*
X114683058Y-103746782D01*
X114818751Y-103923622D01*
X114818757Y-103923629D01*
X114976370Y-104081242D01*
X114976376Y-104081247D01*
X115153226Y-104216948D01*
X115346274Y-104328405D01*
X115552219Y-104413710D01*
X115767537Y-104471404D01*
X115988543Y-104500500D01*
X115988550Y-104500500D01*
X116211450Y-104500500D01*
X116211457Y-104500500D01*
X116432463Y-104471404D01*
X116647781Y-104413710D01*
X116853726Y-104328405D01*
X117046774Y-104216948D01*
X117223624Y-104081247D01*
X117381247Y-103923624D01*
X117516948Y-103746774D01*
X117628405Y-103553726D01*
X117713710Y-103347781D01*
X117771404Y-103132463D01*
X117800500Y-102911457D01*
X117800500Y-102688543D01*
X117771404Y-102467537D01*
X117713710Y-102252219D01*
X117628405Y-102046274D01*
X117516948Y-101853226D01*
X117393330Y-101692123D01*
X117381248Y-101676377D01*
X117381242Y-101676370D01*
X117223629Y-101518757D01*
X117223622Y-101518751D01*
X117046782Y-101383058D01*
X117046780Y-101383057D01*
X117046774Y-101383052D01*
X116853726Y-101271595D01*
X116853722Y-101271593D01*
X116716034Y-101214561D01*
X116661631Y-101170720D01*
X116639566Y-101104426D01*
X116656845Y-101036727D01*
X116707982Y-100989116D01*
X116716034Y-100985439D01*
X116753768Y-100969808D01*
X116853726Y-100928405D01*
X117046774Y-100816948D01*
X117223624Y-100681247D01*
X117381247Y-100523624D01*
X117516948Y-100346774D01*
X117628405Y-100153726D01*
X117713710Y-99947781D01*
X117771404Y-99732463D01*
X117800500Y-99511457D01*
X117800500Y-99288549D01*
X121979500Y-99288549D01*
X121979500Y-99511450D01*
X121979501Y-99511466D01*
X122008594Y-99732452D01*
X122008595Y-99732457D01*
X122008596Y-99732463D01*
X122008597Y-99732465D01*
X122066290Y-99947780D01*
X122066293Y-99947790D01*
X122151593Y-100153722D01*
X122151595Y-100153726D01*
X122263052Y-100346774D01*
X122263057Y-100346780D01*
X122263058Y-100346782D01*
X122398751Y-100523622D01*
X122398757Y-100523629D01*
X122556370Y-100681242D01*
X122556376Y-100681247D01*
X122733226Y-100816948D01*
X122926274Y-100928405D01*
X122963199Y-100943699D01*
X123063965Y-100985439D01*
X123118368Y-101029280D01*
X123140433Y-101095574D01*
X123123154Y-101163274D01*
X123072016Y-101210884D01*
X123063965Y-101214561D01*
X122926277Y-101271593D01*
X122926273Y-101271595D01*
X122733226Y-101383052D01*
X122733217Y-101383058D01*
X122556377Y-101518751D01*
X122556370Y-101518757D01*
X122398757Y-101676370D01*
X122398751Y-101676377D01*
X122263058Y-101853217D01*
X122263052Y-101853226D01*
X122151595Y-102046273D01*
X122151593Y-102046277D01*
X122066293Y-102252209D01*
X122066290Y-102252219D01*
X122008597Y-102467534D01*
X122008594Y-102467547D01*
X121979501Y-102688533D01*
X121979500Y-102688549D01*
X121979500Y-102911450D01*
X121979501Y-102911466D01*
X122008594Y-103132452D01*
X122008595Y-103132457D01*
X122008596Y-103132463D01*
X122008597Y-103132465D01*
X122066290Y-103347780D01*
X122066293Y-103347790D01*
X122070564Y-103358100D01*
X122151595Y-103553726D01*
X122263052Y-103746774D01*
X122263057Y-103746780D01*
X122263058Y-103746782D01*
X122398751Y-103923622D01*
X122398757Y-103923629D01*
X122556370Y-104081242D01*
X122556376Y-104081247D01*
X122733226Y-104216948D01*
X122926274Y-104328405D01*
X123132219Y-104413710D01*
X123347537Y-104471404D01*
X123568543Y-104500500D01*
X123568550Y-104500500D01*
X123791450Y-104500500D01*
X123791457Y-104500500D01*
X124012463Y-104471404D01*
X124227781Y-104413710D01*
X124433726Y-104328405D01*
X124626774Y-104216948D01*
X124803624Y-104081247D01*
X124961247Y-103923624D01*
X125096948Y-103746774D01*
X125208405Y-103553726D01*
X125293710Y-103347781D01*
X125351404Y-103132463D01*
X125380500Y-102911457D01*
X125380500Y-102688543D01*
X125351404Y-102467537D01*
X125293710Y-102252219D01*
X125208405Y-102046274D01*
X125096948Y-101853226D01*
X124973330Y-101692123D01*
X124961248Y-101676377D01*
X124961242Y-101676370D01*
X124803629Y-101518757D01*
X124803622Y-101518751D01*
X124626782Y-101383058D01*
X124626780Y-101383057D01*
X124626774Y-101383052D01*
X124433726Y-101271595D01*
X124433722Y-101271593D01*
X124296034Y-101214561D01*
X124241631Y-101170720D01*
X124219566Y-101104426D01*
X124236845Y-101036727D01*
X124287982Y-100989116D01*
X124296034Y-100985439D01*
X124333768Y-100969808D01*
X124433726Y-100928405D01*
X124626774Y-100816948D01*
X124803624Y-100681247D01*
X124961247Y-100523624D01*
X125096948Y-100346774D01*
X125208405Y-100153726D01*
X125293710Y-99947781D01*
X125351404Y-99732463D01*
X125380500Y-99511457D01*
X125380500Y-99288549D01*
X131899500Y-99288549D01*
X131899500Y-99511450D01*
X131899501Y-99511466D01*
X131928594Y-99732452D01*
X131928595Y-99732457D01*
X131928596Y-99732463D01*
X131928597Y-99732465D01*
X131986290Y-99947780D01*
X131986293Y-99947790D01*
X132071593Y-100153722D01*
X132071595Y-100153726D01*
X132183052Y-100346774D01*
X132183057Y-100346780D01*
X132183058Y-100346782D01*
X132318751Y-100523622D01*
X132318757Y-100523629D01*
X132476370Y-100681242D01*
X132476376Y-100681247D01*
X132653226Y-100816948D01*
X132846274Y-100928405D01*
X132883199Y-100943699D01*
X132983965Y-100985439D01*
X133038368Y-101029280D01*
X133060433Y-101095574D01*
X133043154Y-101163274D01*
X132992016Y-101210884D01*
X132983965Y-101214561D01*
X132846277Y-101271593D01*
X132846273Y-101271595D01*
X132653226Y-101383052D01*
X132653217Y-101383058D01*
X132476377Y-101518751D01*
X132476370Y-101518757D01*
X132318757Y-101676370D01*
X132318751Y-101676377D01*
X132183058Y-101853217D01*
X132183052Y-101853226D01*
X132071595Y-102046273D01*
X132071593Y-102046277D01*
X131986293Y-102252209D01*
X131986290Y-102252219D01*
X131928597Y-102467534D01*
X131928594Y-102467547D01*
X131899501Y-102688533D01*
X131899500Y-102688549D01*
X131899500Y-102911450D01*
X131899501Y-102911466D01*
X131928594Y-103132452D01*
X131928595Y-103132457D01*
X131928596Y-103132463D01*
X131928597Y-103132465D01*
X131986290Y-103347780D01*
X131986293Y-103347790D01*
X131990564Y-103358100D01*
X132071595Y-103553726D01*
X132183052Y-103746774D01*
X132183057Y-103746780D01*
X132183058Y-103746782D01*
X132318751Y-103923622D01*
X132318757Y-103923629D01*
X132476370Y-104081242D01*
X132476376Y-104081247D01*
X132653226Y-104216948D01*
X132846274Y-104328405D01*
X133052219Y-104413710D01*
X133267537Y-104471404D01*
X133488543Y-104500500D01*
X133488550Y-104500500D01*
X133711450Y-104500500D01*
X133711457Y-104500500D01*
X133932463Y-104471404D01*
X134147781Y-104413710D01*
X134353726Y-104328405D01*
X134546774Y-104216948D01*
X134723624Y-104081247D01*
X134881247Y-103923624D01*
X135016948Y-103746774D01*
X135128405Y-103553726D01*
X135213710Y-103347781D01*
X135271404Y-103132463D01*
X135300500Y-102911457D01*
X135300500Y-102688543D01*
X135271404Y-102467537D01*
X135213710Y-102252219D01*
X135128405Y-102046274D01*
X135016948Y-101853226D01*
X134893330Y-101692123D01*
X134881248Y-101676377D01*
X134881242Y-101676370D01*
X134723629Y-101518757D01*
X134723622Y-101518751D01*
X134546782Y-101383058D01*
X134546780Y-101383057D01*
X134546774Y-101383052D01*
X134353726Y-101271595D01*
X134353722Y-101271593D01*
X134216034Y-101214561D01*
X134161631Y-101170720D01*
X134139566Y-101104426D01*
X134156845Y-101036727D01*
X134207982Y-100989116D01*
X134216034Y-100985439D01*
X134253768Y-100969808D01*
X134353726Y-100928405D01*
X134546774Y-100816948D01*
X134723624Y-100681247D01*
X134881247Y-100523624D01*
X135016948Y-100346774D01*
X135128405Y-100153726D01*
X135213710Y-99947781D01*
X135271404Y-99732463D01*
X135300500Y-99511457D01*
X135300500Y-99288549D01*
X139479500Y-99288549D01*
X139479500Y-99511450D01*
X139479501Y-99511466D01*
X139508594Y-99732452D01*
X139508595Y-99732457D01*
X139508596Y-99732463D01*
X139508597Y-99732465D01*
X139566290Y-99947780D01*
X139566293Y-99947790D01*
X139651593Y-100153722D01*
X139651595Y-100153726D01*
X139763052Y-100346774D01*
X139763057Y-100346780D01*
X139763058Y-100346782D01*
X139898751Y-100523622D01*
X139898757Y-100523629D01*
X140056370Y-100681242D01*
X140056376Y-100681247D01*
X140233226Y-100816948D01*
X140426274Y-100928405D01*
X140463199Y-100943699D01*
X140563965Y-100985439D01*
X140618368Y-101029280D01*
X140640433Y-101095574D01*
X140623154Y-101163274D01*
X140572016Y-101210884D01*
X140563965Y-101214561D01*
X140426277Y-101271593D01*
X140426273Y-101271595D01*
X140233226Y-101383052D01*
X140233217Y-101383058D01*
X140056377Y-101518751D01*
X140056370Y-101518757D01*
X139898757Y-101676370D01*
X139898751Y-101676377D01*
X139763058Y-101853217D01*
X139763052Y-101853226D01*
X139651595Y-102046273D01*
X139651593Y-102046277D01*
X139566293Y-102252209D01*
X139566290Y-102252219D01*
X139508597Y-102467534D01*
X139508594Y-102467547D01*
X139479501Y-102688533D01*
X139479500Y-102688549D01*
X139479500Y-102911450D01*
X139479501Y-102911466D01*
X139508594Y-103132452D01*
X139508595Y-103132457D01*
X139508596Y-103132463D01*
X139508597Y-103132465D01*
X139566290Y-103347780D01*
X139566293Y-103347790D01*
X139570564Y-103358100D01*
X139651595Y-103553726D01*
X139763052Y-103746774D01*
X139763057Y-103746780D01*
X139763058Y-103746782D01*
X139898751Y-103923622D01*
X139898757Y-103923629D01*
X140056370Y-104081242D01*
X140056376Y-104081247D01*
X140233226Y-104216948D01*
X140426274Y-104328405D01*
X140632219Y-104413710D01*
X140847537Y-104471404D01*
X141068543Y-104500500D01*
X141068550Y-104500500D01*
X141291450Y-104500500D01*
X141291457Y-104500500D01*
X141512463Y-104471404D01*
X141727781Y-104413710D01*
X141933726Y-104328405D01*
X142126774Y-104216948D01*
X142303624Y-104081247D01*
X142461247Y-103923624D01*
X142596948Y-103746774D01*
X142708405Y-103553726D01*
X142793710Y-103347781D01*
X142851404Y-103132463D01*
X142880500Y-102911457D01*
X142880500Y-102688543D01*
X142851404Y-102467537D01*
X142793710Y-102252219D01*
X142708405Y-102046274D01*
X142596948Y-101853226D01*
X142473330Y-101692123D01*
X142461248Y-101676377D01*
X142461242Y-101676370D01*
X142303629Y-101518757D01*
X142303622Y-101518751D01*
X142126782Y-101383058D01*
X142126780Y-101383057D01*
X142126774Y-101383052D01*
X141933726Y-101271595D01*
X141933722Y-101271593D01*
X141796034Y-101214561D01*
X141741631Y-101170720D01*
X141719566Y-101104426D01*
X141736845Y-101036727D01*
X141787982Y-100989116D01*
X141796034Y-100985439D01*
X141833768Y-100969808D01*
X141933726Y-100928405D01*
X142126774Y-100816948D01*
X142303624Y-100681247D01*
X142461247Y-100523624D01*
X142596948Y-100346774D01*
X142708405Y-100153726D01*
X142793710Y-99947781D01*
X142851404Y-99732463D01*
X142880500Y-99511457D01*
X142880500Y-99288549D01*
X149399500Y-99288549D01*
X149399500Y-99511450D01*
X149399501Y-99511466D01*
X149428594Y-99732452D01*
X149428595Y-99732457D01*
X149428596Y-99732463D01*
X149428597Y-99732465D01*
X149486290Y-99947780D01*
X149486293Y-99947790D01*
X149571593Y-100153722D01*
X149571595Y-100153726D01*
X149683052Y-100346774D01*
X149683057Y-100346780D01*
X149683058Y-100346782D01*
X149818751Y-100523622D01*
X149818757Y-100523629D01*
X149976370Y-100681242D01*
X149976376Y-100681247D01*
X150153226Y-100816948D01*
X150346274Y-100928405D01*
X150383199Y-100943699D01*
X150483965Y-100985439D01*
X150538368Y-101029280D01*
X150560433Y-101095574D01*
X150543154Y-101163274D01*
X150492016Y-101210884D01*
X150483965Y-101214561D01*
X150346277Y-101271593D01*
X150346273Y-101271595D01*
X150153226Y-101383052D01*
X150153217Y-101383058D01*
X149976377Y-101518751D01*
X149976370Y-101518757D01*
X149818757Y-101676370D01*
X149818751Y-101676377D01*
X149683058Y-101853217D01*
X149683052Y-101853226D01*
X149571595Y-102046273D01*
X149571593Y-102046277D01*
X149486293Y-102252209D01*
X149486290Y-102252219D01*
X149428597Y-102467534D01*
X149428594Y-102467547D01*
X149399501Y-102688533D01*
X149399500Y-102688549D01*
X149399500Y-102911450D01*
X149399501Y-102911466D01*
X149428594Y-103132452D01*
X149428595Y-103132457D01*
X149428596Y-103132463D01*
X149428597Y-103132465D01*
X149486290Y-103347780D01*
X149486293Y-103347790D01*
X149490564Y-103358100D01*
X149571595Y-103553726D01*
X149683052Y-103746774D01*
X149683057Y-103746780D01*
X149683058Y-103746782D01*
X149818751Y-103923622D01*
X149818757Y-103923629D01*
X149976370Y-104081242D01*
X149976376Y-104081247D01*
X150153226Y-104216948D01*
X150346274Y-104328405D01*
X150552219Y-104413710D01*
X150767537Y-104471404D01*
X150988543Y-104500500D01*
X150988550Y-104500500D01*
X151211450Y-104500500D01*
X151211457Y-104500500D01*
X151432463Y-104471404D01*
X151647781Y-104413710D01*
X151853726Y-104328405D01*
X152046774Y-104216948D01*
X152223624Y-104081247D01*
X152381247Y-103923624D01*
X152516948Y-103746774D01*
X152628405Y-103553726D01*
X152713710Y-103347781D01*
X152771404Y-103132463D01*
X152800500Y-102911457D01*
X152800500Y-102688543D01*
X152771404Y-102467537D01*
X152713710Y-102252219D01*
X152628405Y-102046274D01*
X152516948Y-101853226D01*
X152393330Y-101692123D01*
X152381248Y-101676377D01*
X152381242Y-101676370D01*
X152223629Y-101518757D01*
X152223622Y-101518751D01*
X152046782Y-101383058D01*
X152046780Y-101383057D01*
X152046774Y-101383052D01*
X151853726Y-101271595D01*
X151853722Y-101271593D01*
X151716034Y-101214561D01*
X151661631Y-101170720D01*
X151639566Y-101104426D01*
X151656845Y-101036727D01*
X151707982Y-100989116D01*
X151716034Y-100985439D01*
X151753768Y-100969808D01*
X151853726Y-100928405D01*
X152046774Y-100816948D01*
X152223624Y-100681247D01*
X152381247Y-100523624D01*
X152516948Y-100346774D01*
X152628405Y-100153726D01*
X152713710Y-99947781D01*
X152771404Y-99732463D01*
X152800500Y-99511457D01*
X152800500Y-99288549D01*
X156979500Y-99288549D01*
X156979500Y-99511450D01*
X156979501Y-99511466D01*
X157008594Y-99732452D01*
X157008595Y-99732457D01*
X157008596Y-99732463D01*
X157008597Y-99732465D01*
X157066290Y-99947780D01*
X157066293Y-99947790D01*
X157151593Y-100153722D01*
X157151595Y-100153726D01*
X157263052Y-100346774D01*
X157263057Y-100346780D01*
X157263058Y-100346782D01*
X157398751Y-100523622D01*
X157398757Y-100523629D01*
X157556370Y-100681242D01*
X157556376Y-100681247D01*
X157733226Y-100816948D01*
X157926274Y-100928405D01*
X157963199Y-100943699D01*
X158063965Y-100985439D01*
X158118368Y-101029280D01*
X158140433Y-101095574D01*
X158123154Y-101163274D01*
X158072016Y-101210884D01*
X158063965Y-101214561D01*
X157926277Y-101271593D01*
X157926273Y-101271595D01*
X157733226Y-101383052D01*
X157733217Y-101383058D01*
X157556377Y-101518751D01*
X157556370Y-101518757D01*
X157398757Y-101676370D01*
X157398751Y-101676377D01*
X157263058Y-101853217D01*
X157263052Y-101853226D01*
X157151595Y-102046273D01*
X157151593Y-102046277D01*
X157066293Y-102252209D01*
X157066290Y-102252219D01*
X157008597Y-102467534D01*
X157008594Y-102467547D01*
X156979501Y-102688533D01*
X156979500Y-102688549D01*
X156979500Y-102911450D01*
X156979501Y-102911466D01*
X157008594Y-103132452D01*
X157008595Y-103132457D01*
X157008596Y-103132463D01*
X157008597Y-103132465D01*
X157066290Y-103347780D01*
X157066293Y-103347790D01*
X157070564Y-103358100D01*
X157151595Y-103553726D01*
X157263052Y-103746774D01*
X157263057Y-103746780D01*
X157263058Y-103746782D01*
X157398751Y-103923622D01*
X157398757Y-103923629D01*
X157556370Y-104081242D01*
X157556376Y-104081247D01*
X157733226Y-104216948D01*
X157926274Y-104328405D01*
X158132219Y-104413710D01*
X158347537Y-104471404D01*
X158568543Y-104500500D01*
X158568550Y-104500500D01*
X158791450Y-104500500D01*
X158791457Y-104500500D01*
X159012463Y-104471404D01*
X159227781Y-104413710D01*
X159433726Y-104328405D01*
X159626774Y-104216948D01*
X159803624Y-104081247D01*
X159961247Y-103923624D01*
X160096948Y-103746774D01*
X160208405Y-103553726D01*
X160293710Y-103347781D01*
X160351404Y-103132463D01*
X160380500Y-102911457D01*
X160380500Y-102688543D01*
X160351404Y-102467537D01*
X160293710Y-102252219D01*
X160208405Y-102046274D01*
X160096948Y-101853226D01*
X159973330Y-101692123D01*
X159961248Y-101676377D01*
X159961242Y-101676370D01*
X159803629Y-101518757D01*
X159803622Y-101518751D01*
X159626782Y-101383058D01*
X159626780Y-101383057D01*
X159626774Y-101383052D01*
X159433726Y-101271595D01*
X159433722Y-101271593D01*
X159296034Y-101214561D01*
X159241631Y-101170720D01*
X159219566Y-101104426D01*
X159236845Y-101036727D01*
X159287982Y-100989116D01*
X159296034Y-100985439D01*
X159333768Y-100969808D01*
X159433726Y-100928405D01*
X159626774Y-100816948D01*
X159803624Y-100681247D01*
X159961247Y-100523624D01*
X160096948Y-100346774D01*
X160208405Y-100153726D01*
X160293710Y-99947781D01*
X160351404Y-99732463D01*
X160380500Y-99511457D01*
X160380500Y-99288549D01*
X166899500Y-99288549D01*
X166899500Y-99511450D01*
X166899501Y-99511466D01*
X166928594Y-99732452D01*
X166928595Y-99732457D01*
X166928596Y-99732463D01*
X166928597Y-99732465D01*
X166986290Y-99947780D01*
X166986293Y-99947790D01*
X167071593Y-100153722D01*
X167071595Y-100153726D01*
X167183052Y-100346774D01*
X167183057Y-100346780D01*
X167183058Y-100346782D01*
X167318751Y-100523622D01*
X167318757Y-100523629D01*
X167476370Y-100681242D01*
X167476376Y-100681247D01*
X167653226Y-100816948D01*
X167846274Y-100928405D01*
X167883199Y-100943699D01*
X167983965Y-100985439D01*
X168038368Y-101029280D01*
X168060433Y-101095574D01*
X168043154Y-101163274D01*
X167992016Y-101210884D01*
X167983965Y-101214561D01*
X167846277Y-101271593D01*
X167846273Y-101271595D01*
X167653226Y-101383052D01*
X167653217Y-101383058D01*
X167476377Y-101518751D01*
X167476370Y-101518757D01*
X167318757Y-101676370D01*
X167318751Y-101676377D01*
X167183058Y-101853217D01*
X167183052Y-101853226D01*
X167071595Y-102046273D01*
X167071593Y-102046277D01*
X166986293Y-102252209D01*
X166986290Y-102252219D01*
X166928597Y-102467534D01*
X166928594Y-102467547D01*
X166899501Y-102688533D01*
X166899500Y-102688549D01*
X166899500Y-102911450D01*
X166899501Y-102911466D01*
X166928594Y-103132452D01*
X166928595Y-103132457D01*
X166928596Y-103132463D01*
X166928597Y-103132465D01*
X166986290Y-103347780D01*
X166986293Y-103347790D01*
X166990564Y-103358100D01*
X167071595Y-103553726D01*
X167183052Y-103746774D01*
X167183057Y-103746780D01*
X167183058Y-103746782D01*
X167318751Y-103923622D01*
X167318757Y-103923629D01*
X167476370Y-104081242D01*
X167476376Y-104081247D01*
X167653226Y-104216948D01*
X167846274Y-104328405D01*
X168052219Y-104413710D01*
X168267537Y-104471404D01*
X168488543Y-104500500D01*
X168488550Y-104500500D01*
X168711450Y-104500500D01*
X168711457Y-104500500D01*
X168932463Y-104471404D01*
X169147781Y-104413710D01*
X169353726Y-104328405D01*
X169546774Y-104216948D01*
X169723624Y-104081247D01*
X169881247Y-103923624D01*
X170016948Y-103746774D01*
X170128405Y-103553726D01*
X170213710Y-103347781D01*
X170271404Y-103132463D01*
X170300500Y-102911457D01*
X170300500Y-102688543D01*
X170271404Y-102467537D01*
X170213710Y-102252219D01*
X170128405Y-102046274D01*
X170016948Y-101853226D01*
X169893330Y-101692123D01*
X169881248Y-101676377D01*
X169881242Y-101676370D01*
X169723629Y-101518757D01*
X169723622Y-101518751D01*
X169546782Y-101383058D01*
X169546780Y-101383057D01*
X169546774Y-101383052D01*
X169353726Y-101271595D01*
X169353722Y-101271593D01*
X169216034Y-101214561D01*
X169161631Y-101170720D01*
X169139566Y-101104426D01*
X169156845Y-101036727D01*
X169207982Y-100989116D01*
X169216034Y-100985439D01*
X169253768Y-100969808D01*
X169353726Y-100928405D01*
X169546774Y-100816948D01*
X169723624Y-100681247D01*
X169881247Y-100523624D01*
X170016948Y-100346774D01*
X170128405Y-100153726D01*
X170213710Y-99947781D01*
X170271404Y-99732463D01*
X170300500Y-99511457D01*
X170300500Y-99288549D01*
X174479500Y-99288549D01*
X174479500Y-99511450D01*
X174479501Y-99511466D01*
X174508594Y-99732452D01*
X174508595Y-99732457D01*
X174508596Y-99732463D01*
X174508597Y-99732465D01*
X174566290Y-99947780D01*
X174566293Y-99947790D01*
X174651593Y-100153722D01*
X174651595Y-100153726D01*
X174763052Y-100346774D01*
X174763057Y-100346780D01*
X174763058Y-100346782D01*
X174898751Y-100523622D01*
X174898757Y-100523629D01*
X175056370Y-100681242D01*
X175056376Y-100681247D01*
X175233226Y-100816948D01*
X175426274Y-100928405D01*
X175463199Y-100943699D01*
X175563965Y-100985439D01*
X175618368Y-101029280D01*
X175640433Y-101095574D01*
X175623154Y-101163274D01*
X175572016Y-101210884D01*
X175563965Y-101214561D01*
X175426277Y-101271593D01*
X175426273Y-101271595D01*
X175233226Y-101383052D01*
X175233217Y-101383058D01*
X175056377Y-101518751D01*
X175056370Y-101518757D01*
X174898757Y-101676370D01*
X174898751Y-101676377D01*
X174763058Y-101853217D01*
X174763052Y-101853226D01*
X174651595Y-102046273D01*
X174651593Y-102046277D01*
X174566293Y-102252209D01*
X174566290Y-102252219D01*
X174508597Y-102467534D01*
X174508594Y-102467547D01*
X174479501Y-102688533D01*
X174479500Y-102688549D01*
X174479500Y-102911450D01*
X174479501Y-102911466D01*
X174508594Y-103132452D01*
X174508595Y-103132457D01*
X174508596Y-103132463D01*
X174508597Y-103132465D01*
X174566290Y-103347780D01*
X174566293Y-103347790D01*
X174570564Y-103358100D01*
X174651595Y-103553726D01*
X174763052Y-103746774D01*
X174763057Y-103746780D01*
X174763058Y-103746782D01*
X174898751Y-103923622D01*
X174898757Y-103923629D01*
X175056370Y-104081242D01*
X175056376Y-104081247D01*
X175233226Y-104216948D01*
X175426274Y-104328405D01*
X175632219Y-104413710D01*
X175847537Y-104471404D01*
X176068543Y-104500500D01*
X176068550Y-104500500D01*
X176291450Y-104500500D01*
X176291457Y-104500500D01*
X176512463Y-104471404D01*
X176727781Y-104413710D01*
X176933726Y-104328405D01*
X177126774Y-104216948D01*
X177303624Y-104081247D01*
X177461247Y-103923624D01*
X177596948Y-103746774D01*
X177708405Y-103553726D01*
X177793710Y-103347781D01*
X177851404Y-103132463D01*
X177880500Y-102911457D01*
X177880500Y-102688543D01*
X177851404Y-102467537D01*
X177793710Y-102252219D01*
X177708405Y-102046274D01*
X177596948Y-101853226D01*
X177473330Y-101692123D01*
X177461248Y-101676377D01*
X177461242Y-101676370D01*
X177303629Y-101518757D01*
X177303622Y-101518751D01*
X177126782Y-101383058D01*
X177126780Y-101383057D01*
X177126774Y-101383052D01*
X176933726Y-101271595D01*
X176933722Y-101271593D01*
X176796034Y-101214561D01*
X176741631Y-101170720D01*
X176719566Y-101104426D01*
X176736845Y-101036727D01*
X176787982Y-100989116D01*
X176796034Y-100985439D01*
X176833768Y-100969808D01*
X176933726Y-100928405D01*
X177126774Y-100816948D01*
X177303624Y-100681247D01*
X177461247Y-100523624D01*
X177596948Y-100346774D01*
X177708405Y-100153726D01*
X177793710Y-99947781D01*
X177851404Y-99732463D01*
X177880500Y-99511457D01*
X177880500Y-99288549D01*
X184399500Y-99288549D01*
X184399500Y-99511450D01*
X184399501Y-99511466D01*
X184428594Y-99732452D01*
X184428595Y-99732457D01*
X184428596Y-99732463D01*
X184428597Y-99732465D01*
X184486290Y-99947780D01*
X184486293Y-99947790D01*
X184571593Y-100153722D01*
X184571595Y-100153726D01*
X184683052Y-100346774D01*
X184683057Y-100346780D01*
X184683058Y-100346782D01*
X184818751Y-100523622D01*
X184818757Y-100523629D01*
X184976370Y-100681242D01*
X184976376Y-100681247D01*
X185153226Y-100816948D01*
X185346274Y-100928405D01*
X185383199Y-100943699D01*
X185483965Y-100985439D01*
X185538368Y-101029280D01*
X185560433Y-101095574D01*
X185543154Y-101163274D01*
X185492016Y-101210884D01*
X185483965Y-101214561D01*
X185346277Y-101271593D01*
X185346273Y-101271595D01*
X185153226Y-101383052D01*
X185153217Y-101383058D01*
X184976377Y-101518751D01*
X184976370Y-101518757D01*
X184818757Y-101676370D01*
X184818751Y-101676377D01*
X184683058Y-101853217D01*
X184683052Y-101853226D01*
X184571595Y-102046273D01*
X184571593Y-102046277D01*
X184486293Y-102252209D01*
X184486290Y-102252219D01*
X184428597Y-102467534D01*
X184428594Y-102467547D01*
X184399501Y-102688533D01*
X184399500Y-102688549D01*
X184399500Y-102911450D01*
X184399501Y-102911466D01*
X184428594Y-103132452D01*
X184428595Y-103132457D01*
X184428596Y-103132463D01*
X184428597Y-103132465D01*
X184486290Y-103347780D01*
X184486293Y-103347790D01*
X184490564Y-103358100D01*
X184571595Y-103553726D01*
X184683052Y-103746774D01*
X184683057Y-103746780D01*
X184683058Y-103746782D01*
X184818751Y-103923622D01*
X184818757Y-103923629D01*
X184976370Y-104081242D01*
X184976376Y-104081247D01*
X185153226Y-104216948D01*
X185346274Y-104328405D01*
X185552219Y-104413710D01*
X185767537Y-104471404D01*
X185988543Y-104500500D01*
X185988550Y-104500500D01*
X186211450Y-104500500D01*
X186211457Y-104500500D01*
X186432463Y-104471404D01*
X186647781Y-104413710D01*
X186853726Y-104328405D01*
X187046774Y-104216948D01*
X187223624Y-104081247D01*
X187381247Y-103923624D01*
X187516948Y-103746774D01*
X187628405Y-103553726D01*
X187713710Y-103347781D01*
X187771404Y-103132463D01*
X187800500Y-102911457D01*
X187800500Y-102688543D01*
X187771404Y-102467537D01*
X187713710Y-102252219D01*
X187628405Y-102046274D01*
X187516948Y-101853226D01*
X187393330Y-101692123D01*
X187381248Y-101676377D01*
X187381242Y-101676370D01*
X187223629Y-101518757D01*
X187223622Y-101518751D01*
X187046782Y-101383058D01*
X187046780Y-101383057D01*
X187046774Y-101383052D01*
X186853726Y-101271595D01*
X186853722Y-101271593D01*
X186716034Y-101214561D01*
X186661631Y-101170720D01*
X186639566Y-101104426D01*
X186656845Y-101036727D01*
X186707982Y-100989116D01*
X186716034Y-100985439D01*
X186753768Y-100969808D01*
X186853726Y-100928405D01*
X187046774Y-100816948D01*
X187223624Y-100681247D01*
X187381247Y-100523624D01*
X187516948Y-100346774D01*
X187628405Y-100153726D01*
X187713710Y-99947781D01*
X187771404Y-99732463D01*
X187800500Y-99511457D01*
X187800500Y-99288549D01*
X191979500Y-99288549D01*
X191979500Y-99511450D01*
X191979501Y-99511466D01*
X192008594Y-99732452D01*
X192008595Y-99732457D01*
X192008596Y-99732463D01*
X192008597Y-99732465D01*
X192066290Y-99947780D01*
X192066293Y-99947790D01*
X192151593Y-100153722D01*
X192151595Y-100153726D01*
X192263052Y-100346774D01*
X192263057Y-100346780D01*
X192263058Y-100346782D01*
X192398751Y-100523622D01*
X192398757Y-100523629D01*
X192556370Y-100681242D01*
X192556376Y-100681247D01*
X192733226Y-100816948D01*
X192926274Y-100928405D01*
X192963199Y-100943699D01*
X193063965Y-100985439D01*
X193118368Y-101029280D01*
X193140433Y-101095574D01*
X193123154Y-101163274D01*
X193072016Y-101210884D01*
X193063965Y-101214561D01*
X192926277Y-101271593D01*
X192926273Y-101271595D01*
X192733226Y-101383052D01*
X192733217Y-101383058D01*
X192556377Y-101518751D01*
X192556370Y-101518757D01*
X192398757Y-101676370D01*
X192398751Y-101676377D01*
X192263058Y-101853217D01*
X192263052Y-101853226D01*
X192151595Y-102046273D01*
X192151593Y-102046277D01*
X192066293Y-102252209D01*
X192066290Y-102252219D01*
X192008597Y-102467534D01*
X192008594Y-102467547D01*
X191979501Y-102688533D01*
X191979500Y-102688549D01*
X191979500Y-102911450D01*
X191979501Y-102911466D01*
X192008594Y-103132452D01*
X192008595Y-103132457D01*
X192008596Y-103132463D01*
X192008597Y-103132465D01*
X192066290Y-103347780D01*
X192066293Y-103347790D01*
X192070564Y-103358100D01*
X192151595Y-103553726D01*
X192263052Y-103746774D01*
X192263057Y-103746780D01*
X192263058Y-103746782D01*
X192398751Y-103923622D01*
X192398757Y-103923629D01*
X192556370Y-104081242D01*
X192556376Y-104081247D01*
X192733226Y-104216948D01*
X192926274Y-104328405D01*
X193132219Y-104413710D01*
X193347537Y-104471404D01*
X193568543Y-104500500D01*
X193568550Y-104500500D01*
X193791450Y-104500500D01*
X193791457Y-104500500D01*
X194012463Y-104471404D01*
X194227781Y-104413710D01*
X194433726Y-104328405D01*
X194626774Y-104216948D01*
X194803624Y-104081247D01*
X194961247Y-103923624D01*
X195096948Y-103746774D01*
X195208405Y-103553726D01*
X195293710Y-103347781D01*
X195351404Y-103132463D01*
X195380500Y-102911457D01*
X195380500Y-102688543D01*
X195351404Y-102467537D01*
X195293710Y-102252219D01*
X195208405Y-102046274D01*
X195096948Y-101853226D01*
X194973330Y-101692123D01*
X194961248Y-101676377D01*
X194961242Y-101676370D01*
X194803629Y-101518757D01*
X194803622Y-101518751D01*
X194626782Y-101383058D01*
X194626780Y-101383057D01*
X194626774Y-101383052D01*
X194433726Y-101271595D01*
X194433722Y-101271593D01*
X194296034Y-101214561D01*
X194241631Y-101170720D01*
X194219566Y-101104426D01*
X194236845Y-101036727D01*
X194287982Y-100989116D01*
X194296034Y-100985439D01*
X194333768Y-100969808D01*
X194433726Y-100928405D01*
X194626774Y-100816948D01*
X194803624Y-100681247D01*
X194961247Y-100523624D01*
X195096948Y-100346774D01*
X195208405Y-100153726D01*
X195293710Y-99947781D01*
X195351404Y-99732463D01*
X195380500Y-99511457D01*
X195380500Y-99288549D01*
X201899500Y-99288549D01*
X201899500Y-99511450D01*
X201899501Y-99511466D01*
X201928594Y-99732452D01*
X201928595Y-99732457D01*
X201928596Y-99732463D01*
X201928597Y-99732465D01*
X201986290Y-99947780D01*
X201986293Y-99947790D01*
X202071593Y-100153722D01*
X202071595Y-100153726D01*
X202183052Y-100346774D01*
X202183057Y-100346780D01*
X202183058Y-100346782D01*
X202318751Y-100523622D01*
X202318757Y-100523629D01*
X202476370Y-100681242D01*
X202476376Y-100681247D01*
X202653226Y-100816948D01*
X202846274Y-100928405D01*
X202883199Y-100943699D01*
X202983965Y-100985439D01*
X203038368Y-101029280D01*
X203060433Y-101095574D01*
X203043154Y-101163274D01*
X202992016Y-101210884D01*
X202983965Y-101214561D01*
X202846277Y-101271593D01*
X202846273Y-101271595D01*
X202653226Y-101383052D01*
X202653217Y-101383058D01*
X202476377Y-101518751D01*
X202476370Y-101518757D01*
X202318757Y-101676370D01*
X202318751Y-101676377D01*
X202183058Y-101853217D01*
X202183052Y-101853226D01*
X202071595Y-102046273D01*
X202071593Y-102046277D01*
X201986293Y-102252209D01*
X201986290Y-102252219D01*
X201928597Y-102467534D01*
X201928594Y-102467547D01*
X201899501Y-102688533D01*
X201899500Y-102688549D01*
X201899500Y-102911450D01*
X201899501Y-102911466D01*
X201928594Y-103132452D01*
X201928595Y-103132457D01*
X201928596Y-103132463D01*
X201928597Y-103132465D01*
X201986290Y-103347780D01*
X201986293Y-103347790D01*
X201990564Y-103358100D01*
X202071595Y-103553726D01*
X202183052Y-103746774D01*
X202183057Y-103746780D01*
X202183058Y-103746782D01*
X202318751Y-103923622D01*
X202318757Y-103923629D01*
X202476370Y-104081242D01*
X202476376Y-104081247D01*
X202653226Y-104216948D01*
X202846274Y-104328405D01*
X203052219Y-104413710D01*
X203267537Y-104471404D01*
X203488543Y-104500500D01*
X203488550Y-104500500D01*
X203711450Y-104500500D01*
X203711457Y-104500500D01*
X203932463Y-104471404D01*
X204147781Y-104413710D01*
X204353726Y-104328405D01*
X204546774Y-104216948D01*
X204723624Y-104081247D01*
X204881247Y-103923624D01*
X205016948Y-103746774D01*
X205128405Y-103553726D01*
X205213710Y-103347781D01*
X205271404Y-103132463D01*
X205300500Y-102911457D01*
X205300500Y-102688543D01*
X205271404Y-102467537D01*
X205213710Y-102252219D01*
X205128405Y-102046274D01*
X205016948Y-101853226D01*
X204893330Y-101692123D01*
X204881248Y-101676377D01*
X204881242Y-101676370D01*
X204723629Y-101518757D01*
X204723622Y-101518751D01*
X204546782Y-101383058D01*
X204546780Y-101383057D01*
X204546774Y-101383052D01*
X204353726Y-101271595D01*
X204353722Y-101271593D01*
X204216034Y-101214561D01*
X204161631Y-101170720D01*
X204139566Y-101104426D01*
X204156845Y-101036727D01*
X204207982Y-100989116D01*
X204216034Y-100985439D01*
X204253768Y-100969808D01*
X204353726Y-100928405D01*
X204546774Y-100816948D01*
X204723624Y-100681247D01*
X204881247Y-100523624D01*
X205016948Y-100346774D01*
X205128405Y-100153726D01*
X205213710Y-99947781D01*
X205271404Y-99732463D01*
X205300500Y-99511457D01*
X205300500Y-99288549D01*
X209524976Y-99288549D01*
X209524976Y-99511450D01*
X209524977Y-99511466D01*
X209554070Y-99732452D01*
X209554071Y-99732457D01*
X209554072Y-99732463D01*
X209554073Y-99732465D01*
X209611766Y-99947780D01*
X209611769Y-99947790D01*
X209697069Y-100153722D01*
X209697071Y-100153726D01*
X209808528Y-100346774D01*
X209808533Y-100346780D01*
X209808534Y-100346782D01*
X209944227Y-100523622D01*
X209944233Y-100523629D01*
X210101846Y-100681242D01*
X210101852Y-100681247D01*
X210278702Y-100816948D01*
X210471750Y-100928405D01*
X210508675Y-100943699D01*
X210609441Y-100985439D01*
X210663844Y-101029280D01*
X210685909Y-101095574D01*
X210668630Y-101163274D01*
X210617492Y-101210884D01*
X210609441Y-101214561D01*
X210471753Y-101271593D01*
X210471749Y-101271595D01*
X210278702Y-101383052D01*
X210278693Y-101383058D01*
X210101853Y-101518751D01*
X210101846Y-101518757D01*
X209944233Y-101676370D01*
X209944227Y-101676377D01*
X209808534Y-101853217D01*
X209808528Y-101853226D01*
X209697071Y-102046273D01*
X209697069Y-102046277D01*
X209611769Y-102252209D01*
X209611766Y-102252219D01*
X209554073Y-102467534D01*
X209554070Y-102467547D01*
X209524977Y-102688533D01*
X209524976Y-102688549D01*
X209524976Y-102911450D01*
X209524977Y-102911466D01*
X209554070Y-103132452D01*
X209554071Y-103132457D01*
X209554072Y-103132463D01*
X209554073Y-103132465D01*
X209611766Y-103347780D01*
X209611769Y-103347790D01*
X209616040Y-103358100D01*
X209697071Y-103553726D01*
X209808528Y-103746774D01*
X209808533Y-103746780D01*
X209808534Y-103746782D01*
X209944227Y-103923622D01*
X209944233Y-103923629D01*
X210101846Y-104081242D01*
X210101852Y-104081247D01*
X210278702Y-104216948D01*
X210471750Y-104328405D01*
X210677695Y-104413710D01*
X210893013Y-104471404D01*
X211114019Y-104500500D01*
X211114026Y-104500500D01*
X211336926Y-104500500D01*
X211336933Y-104500500D01*
X211557939Y-104471404D01*
X211773257Y-104413710D01*
X211979202Y-104328405D01*
X212172250Y-104216948D01*
X212349100Y-104081247D01*
X212506723Y-103923624D01*
X212642424Y-103746774D01*
X212753881Y-103553726D01*
X212839186Y-103347781D01*
X212896880Y-103132463D01*
X212925976Y-102911457D01*
X212925976Y-102688543D01*
X212896880Y-102467537D01*
X212839186Y-102252219D01*
X212753881Y-102046274D01*
X212642424Y-101853226D01*
X212518806Y-101692123D01*
X212506724Y-101676377D01*
X212506718Y-101676370D01*
X212349105Y-101518757D01*
X212349098Y-101518751D01*
X212172258Y-101383058D01*
X212172256Y-101383057D01*
X212172250Y-101383052D01*
X211979202Y-101271595D01*
X211979198Y-101271593D01*
X211841510Y-101214561D01*
X211787107Y-101170720D01*
X211765042Y-101104426D01*
X211782321Y-101036727D01*
X211833458Y-100989116D01*
X211841510Y-100985439D01*
X211879244Y-100969808D01*
X211979202Y-100928405D01*
X212172250Y-100816948D01*
X212349100Y-100681247D01*
X212506723Y-100523624D01*
X212642424Y-100346774D01*
X212753881Y-100153726D01*
X212839186Y-99947781D01*
X212896880Y-99732463D01*
X212925976Y-99511457D01*
X212925976Y-99288549D01*
X219444976Y-99288549D01*
X219444976Y-99511450D01*
X219444977Y-99511466D01*
X219474070Y-99732452D01*
X219474071Y-99732457D01*
X219474072Y-99732463D01*
X219474073Y-99732465D01*
X219531766Y-99947780D01*
X219531769Y-99947790D01*
X219617069Y-100153722D01*
X219617071Y-100153726D01*
X219728528Y-100346774D01*
X219728533Y-100346780D01*
X219728534Y-100346782D01*
X219864227Y-100523622D01*
X219864233Y-100523629D01*
X220021846Y-100681242D01*
X220021852Y-100681247D01*
X220198702Y-100816948D01*
X220391750Y-100928405D01*
X220428675Y-100943699D01*
X220529441Y-100985439D01*
X220583844Y-101029280D01*
X220605909Y-101095574D01*
X220588630Y-101163274D01*
X220537492Y-101210884D01*
X220529441Y-101214561D01*
X220391753Y-101271593D01*
X220391749Y-101271595D01*
X220198702Y-101383052D01*
X220198693Y-101383058D01*
X220021853Y-101518751D01*
X220021846Y-101518757D01*
X219864233Y-101676370D01*
X219864227Y-101676377D01*
X219728534Y-101853217D01*
X219728528Y-101853226D01*
X219617071Y-102046273D01*
X219617069Y-102046277D01*
X219531769Y-102252209D01*
X219531766Y-102252219D01*
X219474073Y-102467534D01*
X219474070Y-102467547D01*
X219444977Y-102688533D01*
X219444976Y-102688549D01*
X219444976Y-102911450D01*
X219444977Y-102911466D01*
X219474070Y-103132452D01*
X219474071Y-103132457D01*
X219474072Y-103132463D01*
X219474073Y-103132465D01*
X219531766Y-103347780D01*
X219531769Y-103347790D01*
X219536040Y-103358100D01*
X219617071Y-103553726D01*
X219728528Y-103746774D01*
X219728533Y-103746780D01*
X219728534Y-103746782D01*
X219864227Y-103923622D01*
X219864233Y-103923629D01*
X220021846Y-104081242D01*
X220021852Y-104081247D01*
X220198702Y-104216948D01*
X220391750Y-104328405D01*
X220597695Y-104413710D01*
X220813013Y-104471404D01*
X221034019Y-104500500D01*
X221034026Y-104500500D01*
X221256926Y-104500500D01*
X221256933Y-104500500D01*
X221477939Y-104471404D01*
X221693257Y-104413710D01*
X221899202Y-104328405D01*
X222092250Y-104216948D01*
X222269100Y-104081247D01*
X222426723Y-103923624D01*
X222562424Y-103746774D01*
X222673881Y-103553726D01*
X222759186Y-103347781D01*
X222816880Y-103132463D01*
X222845976Y-102911457D01*
X222845976Y-102688543D01*
X222816880Y-102467537D01*
X222759186Y-102252219D01*
X222673881Y-102046274D01*
X222562424Y-101853226D01*
X222438806Y-101692123D01*
X222426724Y-101676377D01*
X222426718Y-101676370D01*
X222269105Y-101518757D01*
X222269098Y-101518751D01*
X222092258Y-101383058D01*
X222092256Y-101383057D01*
X222092250Y-101383052D01*
X221899202Y-101271595D01*
X221899198Y-101271593D01*
X221761510Y-101214561D01*
X221707107Y-101170720D01*
X221685042Y-101104426D01*
X221702321Y-101036727D01*
X221753458Y-100989116D01*
X221761510Y-100985439D01*
X221799244Y-100969808D01*
X221899202Y-100928405D01*
X222092250Y-100816948D01*
X222269100Y-100681247D01*
X222426723Y-100523624D01*
X222562424Y-100346774D01*
X222673881Y-100153726D01*
X222759186Y-99947781D01*
X222816880Y-99732463D01*
X222845976Y-99511457D01*
X222845976Y-99288543D01*
X222816880Y-99067537D01*
X222759186Y-98852219D01*
X222673881Y-98646274D01*
X222562424Y-98453226D01*
X222426723Y-98276376D01*
X222426718Y-98276370D01*
X222269105Y-98118757D01*
X222269098Y-98118751D01*
X222092258Y-97983058D01*
X222092256Y-97983057D01*
X222092250Y-97983052D01*
X221899202Y-97871595D01*
X221899198Y-97871593D01*
X221693266Y-97786293D01*
X221693259Y-97786291D01*
X221693257Y-97786290D01*
X221477939Y-97728596D01*
X221477933Y-97728595D01*
X221477928Y-97728594D01*
X221256942Y-97699501D01*
X221256939Y-97699500D01*
X221256933Y-97699500D01*
X221034019Y-97699500D01*
X221034013Y-97699500D01*
X221034009Y-97699501D01*
X220813023Y-97728594D01*
X220813016Y-97728595D01*
X220813013Y-97728596D01*
X220597695Y-97786290D01*
X220597685Y-97786293D01*
X220391753Y-97871593D01*
X220391749Y-97871595D01*
X220198702Y-97983052D01*
X220198693Y-97983058D01*
X220021853Y-98118751D01*
X220021846Y-98118757D01*
X219864233Y-98276370D01*
X219864227Y-98276377D01*
X219728534Y-98453217D01*
X219728528Y-98453226D01*
X219617071Y-98646273D01*
X219617069Y-98646277D01*
X219531769Y-98852209D01*
X219531766Y-98852219D01*
X219474073Y-99067534D01*
X219474070Y-99067547D01*
X219444977Y-99288533D01*
X219444976Y-99288549D01*
X212925976Y-99288549D01*
X212925976Y-99288543D01*
X212896880Y-99067537D01*
X212839186Y-98852219D01*
X212753881Y-98646274D01*
X212642424Y-98453226D01*
X212506723Y-98276376D01*
X212506718Y-98276370D01*
X212349105Y-98118757D01*
X212349098Y-98118751D01*
X212172258Y-97983058D01*
X212172256Y-97983057D01*
X212172250Y-97983052D01*
X211979202Y-97871595D01*
X211979198Y-97871593D01*
X211773266Y-97786293D01*
X211773259Y-97786291D01*
X211773257Y-97786290D01*
X211557939Y-97728596D01*
X211557933Y-97728595D01*
X211557928Y-97728594D01*
X211336942Y-97699501D01*
X211336939Y-97699500D01*
X211336933Y-97699500D01*
X211114019Y-97699500D01*
X211114013Y-97699500D01*
X211114009Y-97699501D01*
X210893023Y-97728594D01*
X210893016Y-97728595D01*
X210893013Y-97728596D01*
X210677695Y-97786290D01*
X210677685Y-97786293D01*
X210471753Y-97871593D01*
X210471749Y-97871595D01*
X210278702Y-97983052D01*
X210278693Y-97983058D01*
X210101853Y-98118751D01*
X210101846Y-98118757D01*
X209944233Y-98276370D01*
X209944227Y-98276377D01*
X209808534Y-98453217D01*
X209808528Y-98453226D01*
X209697071Y-98646273D01*
X209697069Y-98646277D01*
X209611769Y-98852209D01*
X209611766Y-98852219D01*
X209554073Y-99067534D01*
X209554070Y-99067547D01*
X209524977Y-99288533D01*
X209524976Y-99288549D01*
X205300500Y-99288549D01*
X205300500Y-99288543D01*
X205271404Y-99067537D01*
X205213710Y-98852219D01*
X205128405Y-98646274D01*
X205016948Y-98453226D01*
X204881247Y-98276376D01*
X204881242Y-98276370D01*
X204723629Y-98118757D01*
X204723622Y-98118751D01*
X204546782Y-97983058D01*
X204546780Y-97983057D01*
X204546774Y-97983052D01*
X204353726Y-97871595D01*
X204353722Y-97871593D01*
X204147790Y-97786293D01*
X204147783Y-97786291D01*
X204147781Y-97786290D01*
X203932463Y-97728596D01*
X203932457Y-97728595D01*
X203932452Y-97728594D01*
X203711466Y-97699501D01*
X203711463Y-97699500D01*
X203711457Y-97699500D01*
X203488543Y-97699500D01*
X203488537Y-97699500D01*
X203488533Y-97699501D01*
X203267547Y-97728594D01*
X203267540Y-97728595D01*
X203267537Y-97728596D01*
X203052219Y-97786290D01*
X203052209Y-97786293D01*
X202846277Y-97871593D01*
X202846273Y-97871595D01*
X202653226Y-97983052D01*
X202653217Y-97983058D01*
X202476377Y-98118751D01*
X202476370Y-98118757D01*
X202318757Y-98276370D01*
X202318751Y-98276377D01*
X202183058Y-98453217D01*
X202183052Y-98453226D01*
X202071595Y-98646273D01*
X202071593Y-98646277D01*
X201986293Y-98852209D01*
X201986290Y-98852219D01*
X201928597Y-99067534D01*
X201928594Y-99067547D01*
X201899501Y-99288533D01*
X201899500Y-99288549D01*
X195380500Y-99288549D01*
X195380500Y-99288543D01*
X195351404Y-99067537D01*
X195293710Y-98852219D01*
X195208405Y-98646274D01*
X195096948Y-98453226D01*
X194961247Y-98276376D01*
X194961242Y-98276370D01*
X194803629Y-98118757D01*
X194803622Y-98118751D01*
X194626782Y-97983058D01*
X194626780Y-97983057D01*
X194626774Y-97983052D01*
X194433726Y-97871595D01*
X194433722Y-97871593D01*
X194227790Y-97786293D01*
X194227783Y-97786291D01*
X194227781Y-97786290D01*
X194012463Y-97728596D01*
X194012457Y-97728595D01*
X194012452Y-97728594D01*
X193791466Y-97699501D01*
X193791463Y-97699500D01*
X193791457Y-97699500D01*
X193568543Y-97699500D01*
X193568537Y-97699500D01*
X193568533Y-97699501D01*
X193347547Y-97728594D01*
X193347540Y-97728595D01*
X193347537Y-97728596D01*
X193132219Y-97786290D01*
X193132209Y-97786293D01*
X192926277Y-97871593D01*
X192926273Y-97871595D01*
X192733226Y-97983052D01*
X192733217Y-97983058D01*
X192556377Y-98118751D01*
X192556370Y-98118757D01*
X192398757Y-98276370D01*
X192398751Y-98276377D01*
X192263058Y-98453217D01*
X192263052Y-98453226D01*
X192151595Y-98646273D01*
X192151593Y-98646277D01*
X192066293Y-98852209D01*
X192066290Y-98852219D01*
X192008597Y-99067534D01*
X192008594Y-99067547D01*
X191979501Y-99288533D01*
X191979500Y-99288549D01*
X187800500Y-99288549D01*
X187800500Y-99288543D01*
X187771404Y-99067537D01*
X187713710Y-98852219D01*
X187628405Y-98646274D01*
X187516948Y-98453226D01*
X187381247Y-98276376D01*
X187381242Y-98276370D01*
X187223629Y-98118757D01*
X187223622Y-98118751D01*
X187046782Y-97983058D01*
X187046780Y-97983057D01*
X187046774Y-97983052D01*
X186853726Y-97871595D01*
X186853722Y-97871593D01*
X186647790Y-97786293D01*
X186647783Y-97786291D01*
X186647781Y-97786290D01*
X186432463Y-97728596D01*
X186432457Y-97728595D01*
X186432452Y-97728594D01*
X186211466Y-97699501D01*
X186211463Y-97699500D01*
X186211457Y-97699500D01*
X185988543Y-97699500D01*
X185988537Y-97699500D01*
X185988533Y-97699501D01*
X185767547Y-97728594D01*
X185767540Y-97728595D01*
X185767537Y-97728596D01*
X185552219Y-97786290D01*
X185552209Y-97786293D01*
X185346277Y-97871593D01*
X185346273Y-97871595D01*
X185153226Y-97983052D01*
X185153217Y-97983058D01*
X184976377Y-98118751D01*
X184976370Y-98118757D01*
X184818757Y-98276370D01*
X184818751Y-98276377D01*
X184683058Y-98453217D01*
X184683052Y-98453226D01*
X184571595Y-98646273D01*
X184571593Y-98646277D01*
X184486293Y-98852209D01*
X184486290Y-98852219D01*
X184428597Y-99067534D01*
X184428594Y-99067547D01*
X184399501Y-99288533D01*
X184399500Y-99288549D01*
X177880500Y-99288549D01*
X177880500Y-99288543D01*
X177851404Y-99067537D01*
X177793710Y-98852219D01*
X177708405Y-98646274D01*
X177596948Y-98453226D01*
X177461247Y-98276376D01*
X177461242Y-98276370D01*
X177303629Y-98118757D01*
X177303622Y-98118751D01*
X177126782Y-97983058D01*
X177126780Y-97983057D01*
X177126774Y-97983052D01*
X176933726Y-97871595D01*
X176933722Y-97871593D01*
X176727790Y-97786293D01*
X176727783Y-97786291D01*
X176727781Y-97786290D01*
X176512463Y-97728596D01*
X176512457Y-97728595D01*
X176512452Y-97728594D01*
X176291466Y-97699501D01*
X176291463Y-97699500D01*
X176291457Y-97699500D01*
X176068543Y-97699500D01*
X176068537Y-97699500D01*
X176068533Y-97699501D01*
X175847547Y-97728594D01*
X175847540Y-97728595D01*
X175847537Y-97728596D01*
X175632219Y-97786290D01*
X175632209Y-97786293D01*
X175426277Y-97871593D01*
X175426273Y-97871595D01*
X175233226Y-97983052D01*
X175233217Y-97983058D01*
X175056377Y-98118751D01*
X175056370Y-98118757D01*
X174898757Y-98276370D01*
X174898751Y-98276377D01*
X174763058Y-98453217D01*
X174763052Y-98453226D01*
X174651595Y-98646273D01*
X174651593Y-98646277D01*
X174566293Y-98852209D01*
X174566290Y-98852219D01*
X174508597Y-99067534D01*
X174508594Y-99067547D01*
X174479501Y-99288533D01*
X174479500Y-99288549D01*
X170300500Y-99288549D01*
X170300500Y-99288543D01*
X170271404Y-99067537D01*
X170213710Y-98852219D01*
X170128405Y-98646274D01*
X170016948Y-98453226D01*
X169881247Y-98276376D01*
X169881242Y-98276370D01*
X169723629Y-98118757D01*
X169723622Y-98118751D01*
X169546782Y-97983058D01*
X169546780Y-97983057D01*
X169546774Y-97983052D01*
X169353726Y-97871595D01*
X169353722Y-97871593D01*
X169147790Y-97786293D01*
X169147783Y-97786291D01*
X169147781Y-97786290D01*
X168932463Y-97728596D01*
X168932457Y-97728595D01*
X168932452Y-97728594D01*
X168711466Y-97699501D01*
X168711463Y-97699500D01*
X168711457Y-97699500D01*
X168488543Y-97699500D01*
X168488537Y-97699500D01*
X168488533Y-97699501D01*
X168267547Y-97728594D01*
X168267540Y-97728595D01*
X168267537Y-97728596D01*
X168052219Y-97786290D01*
X168052209Y-97786293D01*
X167846277Y-97871593D01*
X167846273Y-97871595D01*
X167653226Y-97983052D01*
X167653217Y-97983058D01*
X167476377Y-98118751D01*
X167476370Y-98118757D01*
X167318757Y-98276370D01*
X167318751Y-98276377D01*
X167183058Y-98453217D01*
X167183052Y-98453226D01*
X167071595Y-98646273D01*
X167071593Y-98646277D01*
X166986293Y-98852209D01*
X166986290Y-98852219D01*
X166928597Y-99067534D01*
X166928594Y-99067547D01*
X166899501Y-99288533D01*
X166899500Y-99288549D01*
X160380500Y-99288549D01*
X160380500Y-99288543D01*
X160351404Y-99067537D01*
X160293710Y-98852219D01*
X160208405Y-98646274D01*
X160096948Y-98453226D01*
X159961247Y-98276376D01*
X159961242Y-98276370D01*
X159803629Y-98118757D01*
X159803622Y-98118751D01*
X159626782Y-97983058D01*
X159626780Y-97983057D01*
X159626774Y-97983052D01*
X159433726Y-97871595D01*
X159433722Y-97871593D01*
X159227790Y-97786293D01*
X159227783Y-97786291D01*
X159227781Y-97786290D01*
X159012463Y-97728596D01*
X159012457Y-97728595D01*
X159012452Y-97728594D01*
X158791466Y-97699501D01*
X158791463Y-97699500D01*
X158791457Y-97699500D01*
X158568543Y-97699500D01*
X158568537Y-97699500D01*
X158568533Y-97699501D01*
X158347547Y-97728594D01*
X158347540Y-97728595D01*
X158347537Y-97728596D01*
X158132219Y-97786290D01*
X158132209Y-97786293D01*
X157926277Y-97871593D01*
X157926273Y-97871595D01*
X157733226Y-97983052D01*
X157733217Y-97983058D01*
X157556377Y-98118751D01*
X157556370Y-98118757D01*
X157398757Y-98276370D01*
X157398751Y-98276377D01*
X157263058Y-98453217D01*
X157263052Y-98453226D01*
X157151595Y-98646273D01*
X157151593Y-98646277D01*
X157066293Y-98852209D01*
X157066290Y-98852219D01*
X157008597Y-99067534D01*
X157008594Y-99067547D01*
X156979501Y-99288533D01*
X156979500Y-99288549D01*
X152800500Y-99288549D01*
X152800500Y-99288543D01*
X152771404Y-99067537D01*
X152713710Y-98852219D01*
X152628405Y-98646274D01*
X152516948Y-98453226D01*
X152381247Y-98276376D01*
X152381242Y-98276370D01*
X152223629Y-98118757D01*
X152223622Y-98118751D01*
X152046782Y-97983058D01*
X152046780Y-97983057D01*
X152046774Y-97983052D01*
X151853726Y-97871595D01*
X151853722Y-97871593D01*
X151647790Y-97786293D01*
X151647783Y-97786291D01*
X151647781Y-97786290D01*
X151432463Y-97728596D01*
X151432457Y-97728595D01*
X151432452Y-97728594D01*
X151211466Y-97699501D01*
X151211463Y-97699500D01*
X151211457Y-97699500D01*
X150988543Y-97699500D01*
X150988537Y-97699500D01*
X150988533Y-97699501D01*
X150767547Y-97728594D01*
X150767540Y-97728595D01*
X150767537Y-97728596D01*
X150552219Y-97786290D01*
X150552209Y-97786293D01*
X150346277Y-97871593D01*
X150346273Y-97871595D01*
X150153226Y-97983052D01*
X150153217Y-97983058D01*
X149976377Y-98118751D01*
X149976370Y-98118757D01*
X149818757Y-98276370D01*
X149818751Y-98276377D01*
X149683058Y-98453217D01*
X149683052Y-98453226D01*
X149571595Y-98646273D01*
X149571593Y-98646277D01*
X149486293Y-98852209D01*
X149486290Y-98852219D01*
X149428597Y-99067534D01*
X149428594Y-99067547D01*
X149399501Y-99288533D01*
X149399500Y-99288549D01*
X142880500Y-99288549D01*
X142880500Y-99288543D01*
X142851404Y-99067537D01*
X142793710Y-98852219D01*
X142708405Y-98646274D01*
X142596948Y-98453226D01*
X142461247Y-98276376D01*
X142461242Y-98276370D01*
X142303629Y-98118757D01*
X142303622Y-98118751D01*
X142126782Y-97983058D01*
X142126780Y-97983057D01*
X142126774Y-97983052D01*
X141933726Y-97871595D01*
X141933722Y-97871593D01*
X141727790Y-97786293D01*
X141727783Y-97786291D01*
X141727781Y-97786290D01*
X141512463Y-97728596D01*
X141512457Y-97728595D01*
X141512452Y-97728594D01*
X141291466Y-97699501D01*
X141291463Y-97699500D01*
X141291457Y-97699500D01*
X141068543Y-97699500D01*
X141068537Y-97699500D01*
X141068533Y-97699501D01*
X140847547Y-97728594D01*
X140847540Y-97728595D01*
X140847537Y-97728596D01*
X140632219Y-97786290D01*
X140632209Y-97786293D01*
X140426277Y-97871593D01*
X140426273Y-97871595D01*
X140233226Y-97983052D01*
X140233217Y-97983058D01*
X140056377Y-98118751D01*
X140056370Y-98118757D01*
X139898757Y-98276370D01*
X139898751Y-98276377D01*
X139763058Y-98453217D01*
X139763052Y-98453226D01*
X139651595Y-98646273D01*
X139651593Y-98646277D01*
X139566293Y-98852209D01*
X139566290Y-98852219D01*
X139508597Y-99067534D01*
X139508594Y-99067547D01*
X139479501Y-99288533D01*
X139479500Y-99288549D01*
X135300500Y-99288549D01*
X135300500Y-99288543D01*
X135271404Y-99067537D01*
X135213710Y-98852219D01*
X135128405Y-98646274D01*
X135016948Y-98453226D01*
X134881247Y-98276376D01*
X134881242Y-98276370D01*
X134723629Y-98118757D01*
X134723622Y-98118751D01*
X134546782Y-97983058D01*
X134546780Y-97983057D01*
X134546774Y-97983052D01*
X134353726Y-97871595D01*
X134353722Y-97871593D01*
X134147790Y-97786293D01*
X134147783Y-97786291D01*
X134147781Y-97786290D01*
X133932463Y-97728596D01*
X133932457Y-97728595D01*
X133932452Y-97728594D01*
X133711466Y-97699501D01*
X133711463Y-97699500D01*
X133711457Y-97699500D01*
X133488543Y-97699500D01*
X133488537Y-97699500D01*
X133488533Y-97699501D01*
X133267547Y-97728594D01*
X133267540Y-97728595D01*
X133267537Y-97728596D01*
X133052219Y-97786290D01*
X133052209Y-97786293D01*
X132846277Y-97871593D01*
X132846273Y-97871595D01*
X132653226Y-97983052D01*
X132653217Y-97983058D01*
X132476377Y-98118751D01*
X132476370Y-98118757D01*
X132318757Y-98276370D01*
X132318751Y-98276377D01*
X132183058Y-98453217D01*
X132183052Y-98453226D01*
X132071595Y-98646273D01*
X132071593Y-98646277D01*
X131986293Y-98852209D01*
X131986290Y-98852219D01*
X131928597Y-99067534D01*
X131928594Y-99067547D01*
X131899501Y-99288533D01*
X131899500Y-99288549D01*
X125380500Y-99288549D01*
X125380500Y-99288543D01*
X125351404Y-99067537D01*
X125293710Y-98852219D01*
X125208405Y-98646274D01*
X125096948Y-98453226D01*
X124961247Y-98276376D01*
X124961242Y-98276370D01*
X124803629Y-98118757D01*
X124803622Y-98118751D01*
X124626782Y-97983058D01*
X124626780Y-97983057D01*
X124626774Y-97983052D01*
X124433726Y-97871595D01*
X124433722Y-97871593D01*
X124227790Y-97786293D01*
X124227783Y-97786291D01*
X124227781Y-97786290D01*
X124012463Y-97728596D01*
X124012457Y-97728595D01*
X124012452Y-97728594D01*
X123791466Y-97699501D01*
X123791463Y-97699500D01*
X123791457Y-97699500D01*
X123568543Y-97699500D01*
X123568537Y-97699500D01*
X123568533Y-97699501D01*
X123347547Y-97728594D01*
X123347540Y-97728595D01*
X123347537Y-97728596D01*
X123132219Y-97786290D01*
X123132209Y-97786293D01*
X122926277Y-97871593D01*
X122926273Y-97871595D01*
X122733226Y-97983052D01*
X122733217Y-97983058D01*
X122556377Y-98118751D01*
X122556370Y-98118757D01*
X122398757Y-98276370D01*
X122398751Y-98276377D01*
X122263058Y-98453217D01*
X122263052Y-98453226D01*
X122151595Y-98646273D01*
X122151593Y-98646277D01*
X122066293Y-98852209D01*
X122066290Y-98852219D01*
X122008597Y-99067534D01*
X122008594Y-99067547D01*
X121979501Y-99288533D01*
X121979500Y-99288549D01*
X117800500Y-99288549D01*
X117800500Y-99288543D01*
X117771404Y-99067537D01*
X117713710Y-98852219D01*
X117628405Y-98646274D01*
X117516948Y-98453226D01*
X117381247Y-98276376D01*
X117381242Y-98276370D01*
X117223629Y-98118757D01*
X117223622Y-98118751D01*
X117046782Y-97983058D01*
X117046780Y-97983057D01*
X117046774Y-97983052D01*
X116853726Y-97871595D01*
X116853722Y-97871593D01*
X116647790Y-97786293D01*
X116647783Y-97786291D01*
X116647781Y-97786290D01*
X116432463Y-97728596D01*
X116432457Y-97728595D01*
X116432452Y-97728594D01*
X116211466Y-97699501D01*
X116211463Y-97699500D01*
X116211457Y-97699500D01*
X115988543Y-97699500D01*
X115988537Y-97699500D01*
X115988533Y-97699501D01*
X115767547Y-97728594D01*
X115767540Y-97728595D01*
X115767537Y-97728596D01*
X115552219Y-97786290D01*
X115552209Y-97786293D01*
X115346277Y-97871593D01*
X115346273Y-97871595D01*
X115153226Y-97983052D01*
X115153217Y-97983058D01*
X114976377Y-98118751D01*
X114976370Y-98118757D01*
X114818757Y-98276370D01*
X114818751Y-98276377D01*
X114683058Y-98453217D01*
X114683052Y-98453226D01*
X114571595Y-98646273D01*
X114571593Y-98646277D01*
X114486293Y-98852209D01*
X114486290Y-98852219D01*
X114428597Y-99067534D01*
X114428594Y-99067547D01*
X114399501Y-99288533D01*
X114399500Y-99288549D01*
X107880500Y-99288549D01*
X107880500Y-99288543D01*
X107851404Y-99067537D01*
X107793710Y-98852219D01*
X107708405Y-98646274D01*
X107596948Y-98453226D01*
X107461247Y-98276376D01*
X107461242Y-98276370D01*
X107303629Y-98118757D01*
X107303622Y-98118751D01*
X107126782Y-97983058D01*
X107126780Y-97983057D01*
X107126774Y-97983052D01*
X106933726Y-97871595D01*
X106933722Y-97871593D01*
X106727790Y-97786293D01*
X106727783Y-97786291D01*
X106727781Y-97786290D01*
X106512463Y-97728596D01*
X106512457Y-97728595D01*
X106512452Y-97728594D01*
X106291466Y-97699501D01*
X106291463Y-97699500D01*
X106291457Y-97699500D01*
X106068543Y-97699500D01*
X106068537Y-97699500D01*
X106068533Y-97699501D01*
X105847547Y-97728594D01*
X105847540Y-97728595D01*
X105847537Y-97728596D01*
X105632219Y-97786290D01*
X105632209Y-97786293D01*
X105426277Y-97871593D01*
X105426273Y-97871595D01*
X105233226Y-97983052D01*
X105233217Y-97983058D01*
X105056377Y-98118751D01*
X105056370Y-98118757D01*
X104898757Y-98276370D01*
X104898751Y-98276377D01*
X104763058Y-98453217D01*
X104763052Y-98453226D01*
X104651595Y-98646273D01*
X104651593Y-98646277D01*
X104566293Y-98852209D01*
X104566290Y-98852219D01*
X104508597Y-99067534D01*
X104508594Y-99067547D01*
X104479501Y-99288533D01*
X104479500Y-99288549D01*
X96574771Y-99288549D01*
X96551547Y-99141920D01*
X96477167Y-98913000D01*
X96477167Y-98912999D01*
X96439325Y-98838731D01*
X96367890Y-98698533D01*
X96329921Y-98646273D01*
X96226415Y-98503808D01*
X96226411Y-98503803D01*
X96056206Y-98333598D01*
X96056201Y-98333594D01*
X95861480Y-98192122D01*
X95861479Y-98192121D01*
X95861477Y-98192120D01*
X95792767Y-98157110D01*
X95647010Y-98082842D01*
X95647007Y-98082841D01*
X95418091Y-98008463D01*
X95257651Y-97983052D01*
X95180352Y-97970809D01*
X94939650Y-97970809D01*
X94862351Y-97983052D01*
X94701910Y-98008463D01*
X94472994Y-98082841D01*
X94472991Y-98082842D01*
X94258521Y-98192122D01*
X94063800Y-98333594D01*
X94063795Y-98333598D01*
X93893590Y-98503803D01*
X93893586Y-98503808D01*
X93752114Y-98698529D01*
X93642834Y-98912999D01*
X93642833Y-98913002D01*
X93568455Y-99141918D01*
X93530801Y-99379658D01*
X93089199Y-99379658D01*
X93051545Y-99141920D01*
X92977165Y-98913000D01*
X92977165Y-98912999D01*
X92939323Y-98838731D01*
X92867888Y-98698533D01*
X92829919Y-98646273D01*
X92726413Y-98503808D01*
X92726409Y-98503803D01*
X92556204Y-98333598D01*
X92556199Y-98333594D01*
X92361478Y-98192122D01*
X92361477Y-98192121D01*
X92361475Y-98192120D01*
X92292765Y-98157110D01*
X92147008Y-98082842D01*
X92147005Y-98082841D01*
X91918089Y-98008463D01*
X91757649Y-97983052D01*
X91680350Y-97970809D01*
X91439648Y-97970809D01*
X91362349Y-97983052D01*
X91201908Y-98008463D01*
X90972992Y-98082841D01*
X90972989Y-98082842D01*
X90758519Y-98192122D01*
X90563798Y-98333594D01*
X90563793Y-98333598D01*
X90393588Y-98503803D01*
X90393584Y-98503808D01*
X90252112Y-98698529D01*
X90142832Y-98912999D01*
X90142831Y-98913002D01*
X90068453Y-99141918D01*
X90030799Y-99379658D01*
X86400500Y-99379658D01*
X86400500Y-95879657D01*
X93530801Y-95879657D01*
X93530801Y-96120358D01*
X93568455Y-96358098D01*
X93642833Y-96587014D01*
X93642834Y-96587017D01*
X93752114Y-96801487D01*
X93893586Y-96996208D01*
X93893590Y-96996213D01*
X94063795Y-97166418D01*
X94063800Y-97166422D01*
X94233647Y-97289822D01*
X94258525Y-97307897D01*
X94398723Y-97379332D01*
X94472991Y-97417174D01*
X94472994Y-97417175D01*
X94587452Y-97454364D01*
X94701912Y-97491554D01*
X94939650Y-97529208D01*
X94939651Y-97529208D01*
X95180351Y-97529208D01*
X95180352Y-97529208D01*
X95418090Y-97491554D01*
X95647010Y-97417174D01*
X95861477Y-97307897D01*
X96056208Y-97166417D01*
X96226410Y-96996215D01*
X96367890Y-96801484D01*
X96477167Y-96587017D01*
X96551547Y-96358097D01*
X96589201Y-96120359D01*
X96589201Y-95879657D01*
X96551547Y-95641919D01*
X96477167Y-95412999D01*
X96477167Y-95412998D01*
X96439325Y-95338730D01*
X96367890Y-95198532D01*
X96296665Y-95100499D01*
X96226415Y-95003807D01*
X96226411Y-95003802D01*
X96056206Y-94833597D01*
X96056201Y-94833593D01*
X95861480Y-94692121D01*
X95861479Y-94692120D01*
X95861477Y-94692119D01*
X95792767Y-94657109D01*
X95647010Y-94582841D01*
X95647007Y-94582840D01*
X95418091Y-94508462D01*
X95299221Y-94489635D01*
X95180352Y-94470808D01*
X94939650Y-94470808D01*
X94860404Y-94483359D01*
X94701910Y-94508462D01*
X94472994Y-94582840D01*
X94472991Y-94582841D01*
X94258521Y-94692121D01*
X94063800Y-94833593D01*
X94063795Y-94833597D01*
X93893590Y-95003802D01*
X93893586Y-95003807D01*
X93752114Y-95198528D01*
X93642834Y-95412998D01*
X93642833Y-95413001D01*
X93568455Y-95641917D01*
X93530801Y-95879657D01*
X86400500Y-95879657D01*
X86400500Y-92379654D01*
X93530801Y-92379654D01*
X93530801Y-92620355D01*
X93568455Y-92858095D01*
X93642833Y-93087011D01*
X93642834Y-93087014D01*
X93752114Y-93301484D01*
X93893586Y-93496205D01*
X93893590Y-93496210D01*
X94063795Y-93666415D01*
X94063800Y-93666419D01*
X94233647Y-93789819D01*
X94258525Y-93807894D01*
X94398723Y-93879329D01*
X94472991Y-93917171D01*
X94472994Y-93917172D01*
X94587452Y-93954361D01*
X94701912Y-93991551D01*
X94939650Y-94029205D01*
X94939651Y-94029205D01*
X95180351Y-94029205D01*
X95180352Y-94029205D01*
X95418090Y-93991551D01*
X95647010Y-93917171D01*
X95861477Y-93807894D01*
X96056208Y-93666414D01*
X96226410Y-93496212D01*
X96367890Y-93301481D01*
X96477167Y-93087014D01*
X96551547Y-92858094D01*
X96589201Y-92620356D01*
X96589201Y-92379654D01*
X96551547Y-92141916D01*
X96477167Y-91912996D01*
X96477167Y-91912995D01*
X96439325Y-91838727D01*
X96367890Y-91698529D01*
X96362797Y-91691520D01*
X96312065Y-91621691D01*
X96261530Y-91552135D01*
X106679500Y-91552135D01*
X106679500Y-94647870D01*
X106679501Y-94647876D01*
X106685908Y-94707483D01*
X106736202Y-94842328D01*
X106736206Y-94842335D01*
X106822452Y-94957544D01*
X106822455Y-94957547D01*
X106937664Y-95043793D01*
X106937671Y-95043797D01*
X107072517Y-95094091D01*
X107072516Y-95094091D01*
X107079444Y-95094835D01*
X107132127Y-95100500D01*
X110227872Y-95100499D01*
X110287483Y-95094091D01*
X110422331Y-95043796D01*
X110537546Y-94957546D01*
X110623796Y-94842331D01*
X110674091Y-94707483D01*
X110680500Y-94647873D01*
X110680499Y-91552135D01*
X124179500Y-91552135D01*
X124179500Y-94647870D01*
X124179501Y-94647876D01*
X124185908Y-94707483D01*
X124236202Y-94842328D01*
X124236206Y-94842335D01*
X124322452Y-94957544D01*
X124322455Y-94957547D01*
X124437664Y-95043793D01*
X124437671Y-95043797D01*
X124572517Y-95094091D01*
X124572516Y-95094091D01*
X124579444Y-95094835D01*
X124632127Y-95100500D01*
X127727872Y-95100499D01*
X127787483Y-95094091D01*
X127922331Y-95043796D01*
X128037546Y-94957546D01*
X128123796Y-94842331D01*
X128174091Y-94707483D01*
X128180500Y-94647873D01*
X128180499Y-91552135D01*
X141679500Y-91552135D01*
X141679500Y-94647870D01*
X141679501Y-94647876D01*
X141685908Y-94707483D01*
X141736202Y-94842328D01*
X141736206Y-94842335D01*
X141822452Y-94957544D01*
X141822455Y-94957547D01*
X141937664Y-95043793D01*
X141937671Y-95043797D01*
X142072517Y-95094091D01*
X142072516Y-95094091D01*
X142079444Y-95094835D01*
X142132127Y-95100500D01*
X145227872Y-95100499D01*
X145287483Y-95094091D01*
X145422331Y-95043796D01*
X145537546Y-94957546D01*
X145623796Y-94842331D01*
X145674091Y-94707483D01*
X145680500Y-94647873D01*
X145680499Y-91552135D01*
X159179500Y-91552135D01*
X159179500Y-94647870D01*
X159179501Y-94647876D01*
X159185908Y-94707483D01*
X159236202Y-94842328D01*
X159236206Y-94842335D01*
X159322452Y-94957544D01*
X159322455Y-94957547D01*
X159437664Y-95043793D01*
X159437671Y-95043797D01*
X159572517Y-95094091D01*
X159572516Y-95094091D01*
X159579444Y-95094835D01*
X159632127Y-95100500D01*
X162727872Y-95100499D01*
X162787483Y-95094091D01*
X162922331Y-95043796D01*
X163037546Y-94957546D01*
X163123796Y-94842331D01*
X163174091Y-94707483D01*
X163180500Y-94647873D01*
X163180499Y-91552135D01*
X176679500Y-91552135D01*
X176679500Y-94647870D01*
X176679501Y-94647876D01*
X176685908Y-94707483D01*
X176736202Y-94842328D01*
X176736206Y-94842335D01*
X176822452Y-94957544D01*
X176822455Y-94957547D01*
X176937664Y-95043793D01*
X176937671Y-95043797D01*
X177072517Y-95094091D01*
X177072516Y-95094091D01*
X177079444Y-95094835D01*
X177132127Y-95100500D01*
X180227872Y-95100499D01*
X180287483Y-95094091D01*
X180422331Y-95043796D01*
X180537546Y-94957546D01*
X180623796Y-94842331D01*
X180674091Y-94707483D01*
X180680500Y-94647873D01*
X180680499Y-91552135D01*
X194179500Y-91552135D01*
X194179500Y-94647870D01*
X194179501Y-94647876D01*
X194185908Y-94707483D01*
X194236202Y-94842328D01*
X194236206Y-94842335D01*
X194322452Y-94957544D01*
X194322455Y-94957547D01*
X194437664Y-95043793D01*
X194437671Y-95043797D01*
X194572517Y-95094091D01*
X194572516Y-95094091D01*
X194579444Y-95094835D01*
X194632127Y-95100500D01*
X197727872Y-95100499D01*
X197787483Y-95094091D01*
X197922331Y-95043796D01*
X198037546Y-94957546D01*
X198123796Y-94842331D01*
X198174091Y-94707483D01*
X198180500Y-94647873D01*
X198180499Y-91552135D01*
X211684976Y-91552135D01*
X211684976Y-94647870D01*
X211684977Y-94647876D01*
X211691384Y-94707483D01*
X211741678Y-94842328D01*
X211741682Y-94842335D01*
X211827928Y-94957544D01*
X211827931Y-94957547D01*
X211943140Y-95043793D01*
X211943147Y-95043797D01*
X212077993Y-95094091D01*
X212077992Y-95094091D01*
X212084920Y-95094835D01*
X212137603Y-95100500D01*
X215233348Y-95100499D01*
X215292959Y-95094091D01*
X215427807Y-95043796D01*
X215543022Y-94957546D01*
X215629272Y-94842331D01*
X215679567Y-94707483D01*
X215685976Y-94647873D01*
X215685975Y-91552128D01*
X215679567Y-91492517D01*
X215629272Y-91357669D01*
X215629271Y-91357668D01*
X215629269Y-91357664D01*
X215543023Y-91242455D01*
X215543020Y-91242452D01*
X215427811Y-91156206D01*
X215427804Y-91156202D01*
X215292958Y-91105908D01*
X215292959Y-91105908D01*
X215233359Y-91099501D01*
X215233357Y-91099500D01*
X215233349Y-91099500D01*
X215233340Y-91099500D01*
X212137605Y-91099500D01*
X212137599Y-91099501D01*
X212077992Y-91105908D01*
X211943147Y-91156202D01*
X211943140Y-91156206D01*
X211827931Y-91242452D01*
X211827928Y-91242455D01*
X211741682Y-91357664D01*
X211741678Y-91357671D01*
X211691384Y-91492517D01*
X211690171Y-91503804D01*
X211684977Y-91552123D01*
X211684976Y-91552135D01*
X198180499Y-91552135D01*
X198180499Y-91552128D01*
X198174091Y-91492517D01*
X198123796Y-91357669D01*
X198123795Y-91357668D01*
X198123793Y-91357664D01*
X198037547Y-91242455D01*
X198037544Y-91242452D01*
X197922335Y-91156206D01*
X197922328Y-91156202D01*
X197787482Y-91105908D01*
X197787483Y-91105908D01*
X197727883Y-91099501D01*
X197727881Y-91099500D01*
X197727873Y-91099500D01*
X197727864Y-91099500D01*
X194632129Y-91099500D01*
X194632123Y-91099501D01*
X194572516Y-91105908D01*
X194437671Y-91156202D01*
X194437664Y-91156206D01*
X194322455Y-91242452D01*
X194322452Y-91242455D01*
X194236206Y-91357664D01*
X194236202Y-91357671D01*
X194185908Y-91492517D01*
X194184695Y-91503804D01*
X194179501Y-91552123D01*
X194179500Y-91552135D01*
X180680499Y-91552135D01*
X180680499Y-91552128D01*
X180674091Y-91492517D01*
X180623796Y-91357669D01*
X180623795Y-91357668D01*
X180623793Y-91357664D01*
X180537547Y-91242455D01*
X180537544Y-91242452D01*
X180422335Y-91156206D01*
X180422328Y-91156202D01*
X180287482Y-91105908D01*
X180287483Y-91105908D01*
X180227883Y-91099501D01*
X180227881Y-91099500D01*
X180227873Y-91099500D01*
X180227864Y-91099500D01*
X177132129Y-91099500D01*
X177132123Y-91099501D01*
X177072516Y-91105908D01*
X176937671Y-91156202D01*
X176937664Y-91156206D01*
X176822455Y-91242452D01*
X176822452Y-91242455D01*
X176736206Y-91357664D01*
X176736202Y-91357671D01*
X176685908Y-91492517D01*
X176684695Y-91503804D01*
X176679501Y-91552123D01*
X176679500Y-91552135D01*
X163180499Y-91552135D01*
X163180499Y-91552128D01*
X163174091Y-91492517D01*
X163123796Y-91357669D01*
X163123795Y-91357668D01*
X163123793Y-91357664D01*
X163037547Y-91242455D01*
X163037544Y-91242452D01*
X162922335Y-91156206D01*
X162922328Y-91156202D01*
X162787482Y-91105908D01*
X162787483Y-91105908D01*
X162727883Y-91099501D01*
X162727881Y-91099500D01*
X162727873Y-91099500D01*
X162727864Y-91099500D01*
X159632129Y-91099500D01*
X159632123Y-91099501D01*
X159572516Y-91105908D01*
X159437671Y-91156202D01*
X159437664Y-91156206D01*
X159322455Y-91242452D01*
X159322452Y-91242455D01*
X159236206Y-91357664D01*
X159236202Y-91357671D01*
X159185908Y-91492517D01*
X159184695Y-91503804D01*
X159179501Y-91552123D01*
X159179500Y-91552135D01*
X145680499Y-91552135D01*
X145680499Y-91552128D01*
X145674091Y-91492517D01*
X145623796Y-91357669D01*
X145623795Y-91357668D01*
X145623793Y-91357664D01*
X145537547Y-91242455D01*
X145537544Y-91242452D01*
X145422335Y-91156206D01*
X145422328Y-91156202D01*
X145287482Y-91105908D01*
X145287483Y-91105908D01*
X145227883Y-91099501D01*
X145227881Y-91099500D01*
X145227873Y-91099500D01*
X145227864Y-91099500D01*
X142132129Y-91099500D01*
X142132123Y-91099501D01*
X142072516Y-91105908D01*
X141937671Y-91156202D01*
X141937664Y-91156206D01*
X141822455Y-91242452D01*
X141822452Y-91242455D01*
X141736206Y-91357664D01*
X141736202Y-91357671D01*
X141685908Y-91492517D01*
X141684695Y-91503804D01*
X141679501Y-91552123D01*
X141679500Y-91552135D01*
X128180499Y-91552135D01*
X128180499Y-91552128D01*
X128174091Y-91492517D01*
X128123796Y-91357669D01*
X128123795Y-91357668D01*
X128123793Y-91357664D01*
X128037547Y-91242455D01*
X128037544Y-91242452D01*
X127922335Y-91156206D01*
X127922328Y-91156202D01*
X127787482Y-91105908D01*
X127787483Y-91105908D01*
X127727883Y-91099501D01*
X127727881Y-91099500D01*
X127727873Y-91099500D01*
X127727864Y-91099500D01*
X124632129Y-91099500D01*
X124632123Y-91099501D01*
X124572516Y-91105908D01*
X124437671Y-91156202D01*
X124437664Y-91156206D01*
X124322455Y-91242452D01*
X124322452Y-91242455D01*
X124236206Y-91357664D01*
X124236202Y-91357671D01*
X124185908Y-91492517D01*
X124184695Y-91503804D01*
X124179501Y-91552123D01*
X124179500Y-91552135D01*
X110680499Y-91552135D01*
X110680499Y-91552128D01*
X110674091Y-91492517D01*
X110623796Y-91357669D01*
X110623795Y-91357668D01*
X110623793Y-91357664D01*
X110537547Y-91242455D01*
X110537544Y-91242452D01*
X110422335Y-91156206D01*
X110422328Y-91156202D01*
X110287482Y-91105908D01*
X110287483Y-91105908D01*
X110227883Y-91099501D01*
X110227881Y-91099500D01*
X110227873Y-91099500D01*
X110227864Y-91099500D01*
X107132129Y-91099500D01*
X107132123Y-91099501D01*
X107072516Y-91105908D01*
X106937671Y-91156202D01*
X106937664Y-91156206D01*
X106822455Y-91242452D01*
X106822452Y-91242455D01*
X106736206Y-91357664D01*
X106736202Y-91357671D01*
X106685908Y-91492517D01*
X106684695Y-91503804D01*
X106679501Y-91552123D01*
X106679500Y-91552135D01*
X96261530Y-91552135D01*
X96226415Y-91503804D01*
X96226411Y-91503799D01*
X96056206Y-91333594D01*
X96056201Y-91333590D01*
X95861480Y-91192118D01*
X95861479Y-91192117D01*
X95861477Y-91192116D01*
X95790992Y-91156202D01*
X95647010Y-91082838D01*
X95647007Y-91082837D01*
X95418091Y-91008459D01*
X95299221Y-90989632D01*
X95180352Y-90970805D01*
X94939650Y-90970805D01*
X94860404Y-90983356D01*
X94701910Y-91008459D01*
X94472994Y-91082837D01*
X94472991Y-91082838D01*
X94258521Y-91192118D01*
X94063800Y-91333590D01*
X94063795Y-91333594D01*
X93893590Y-91503799D01*
X93893586Y-91503804D01*
X93752114Y-91698525D01*
X93642834Y-91912995D01*
X93642833Y-91912998D01*
X93568455Y-92141914D01*
X93530801Y-92379654D01*
X86400500Y-92379654D01*
X86400500Y-88879654D01*
X93530801Y-88879654D01*
X93530801Y-89120355D01*
X93568455Y-89358095D01*
X93642833Y-89587011D01*
X93642834Y-89587014D01*
X93752114Y-89801484D01*
X93893586Y-89996205D01*
X93893590Y-89996210D01*
X94063795Y-90166415D01*
X94063800Y-90166419D01*
X94233647Y-90289819D01*
X94258525Y-90307894D01*
X94398723Y-90379329D01*
X94472991Y-90417171D01*
X94472994Y-90417172D01*
X94587452Y-90454361D01*
X94701912Y-90491551D01*
X94939650Y-90529205D01*
X94939651Y-90529205D01*
X95180351Y-90529205D01*
X95180352Y-90529205D01*
X95418090Y-90491551D01*
X95647010Y-90417171D01*
X95861477Y-90307894D01*
X96056208Y-90166414D01*
X96226410Y-89996212D01*
X96367890Y-89801481D01*
X96477167Y-89587014D01*
X96551547Y-89358094D01*
X96589201Y-89120356D01*
X96589201Y-88879654D01*
X96551547Y-88641916D01*
X96477167Y-88412996D01*
X96477167Y-88412995D01*
X96435025Y-88330289D01*
X96367890Y-88198529D01*
X96310990Y-88120212D01*
X96226415Y-88003804D01*
X96226411Y-88003799D01*
X96056206Y-87833594D01*
X96056201Y-87833590D01*
X95861480Y-87692118D01*
X95861479Y-87692117D01*
X95861477Y-87692116D01*
X95792767Y-87657106D01*
X95647010Y-87582838D01*
X95647007Y-87582837D01*
X95418091Y-87508459D01*
X95299221Y-87489632D01*
X95180352Y-87470805D01*
X94939650Y-87470805D01*
X94860404Y-87483356D01*
X94701910Y-87508459D01*
X94472994Y-87582837D01*
X94472991Y-87582838D01*
X94258521Y-87692118D01*
X94063800Y-87833590D01*
X94063795Y-87833594D01*
X93893590Y-88003799D01*
X93893586Y-88003804D01*
X93752114Y-88198525D01*
X93642834Y-88412995D01*
X93642833Y-88412998D01*
X93568455Y-88641914D01*
X93530801Y-88879654D01*
X86400500Y-88879654D01*
X86400500Y-87178711D01*
X229549500Y-87178711D01*
X229549500Y-87421288D01*
X229581161Y-87661785D01*
X229643947Y-87896104D01*
X229688556Y-88003799D01*
X229736776Y-88120212D01*
X229858064Y-88330289D01*
X229858066Y-88330292D01*
X229858067Y-88330293D01*
X230005733Y-88522736D01*
X230005739Y-88522743D01*
X230177256Y-88694260D01*
X230177262Y-88694265D01*
X230369711Y-88841936D01*
X230579788Y-88963224D01*
X230803900Y-89056054D01*
X231038211Y-89118838D01*
X231218586Y-89142584D01*
X231278711Y-89150500D01*
X231278712Y-89150500D01*
X231521289Y-89150500D01*
X231569388Y-89144167D01*
X231761789Y-89118838D01*
X231996100Y-89056054D01*
X232220212Y-88963224D01*
X232430289Y-88841936D01*
X232622738Y-88694265D01*
X232794265Y-88522738D01*
X232941936Y-88330289D01*
X233063224Y-88120212D01*
X233156054Y-87896100D01*
X233218838Y-87661789D01*
X233250500Y-87421288D01*
X233250500Y-87178712D01*
X233218838Y-86938211D01*
X233156054Y-86703900D01*
X233063224Y-86479788D01*
X232941936Y-86269711D01*
X232794265Y-86077262D01*
X232794260Y-86077256D01*
X232622743Y-85905739D01*
X232622736Y-85905733D01*
X232430293Y-85758067D01*
X232430292Y-85758066D01*
X232430289Y-85758064D01*
X232220212Y-85636776D01*
X232220205Y-85636773D01*
X231996104Y-85543947D01*
X231761785Y-85481161D01*
X231521289Y-85449500D01*
X231521288Y-85449500D01*
X231278712Y-85449500D01*
X231278711Y-85449500D01*
X231038214Y-85481161D01*
X230803895Y-85543947D01*
X230579794Y-85636773D01*
X230579785Y-85636777D01*
X230369706Y-85758067D01*
X230177263Y-85905733D01*
X230177256Y-85905739D01*
X230005739Y-86077256D01*
X230005733Y-86077263D01*
X229858067Y-86269706D01*
X229736777Y-86479785D01*
X229736773Y-86479794D01*
X229643947Y-86703895D01*
X229581161Y-86938214D01*
X229549500Y-87178711D01*
X86400500Y-87178711D01*
X86400500Y-85379653D01*
X93530801Y-85379653D01*
X93530801Y-85620354D01*
X93568455Y-85858094D01*
X93642833Y-86087010D01*
X93642834Y-86087013D01*
X93717102Y-86232770D01*
X93735922Y-86269706D01*
X93752114Y-86301483D01*
X93893586Y-86496204D01*
X93893590Y-86496209D01*
X94063795Y-86666414D01*
X94063800Y-86666418D01*
X94233647Y-86789818D01*
X94258525Y-86807893D01*
X94398723Y-86879328D01*
X94472991Y-86917170D01*
X94472994Y-86917171D01*
X94537750Y-86938211D01*
X94701912Y-86991550D01*
X94939650Y-87029204D01*
X94939651Y-87029204D01*
X95180351Y-87029204D01*
X95180352Y-87029204D01*
X95418090Y-86991550D01*
X95647010Y-86917170D01*
X95861477Y-86807893D01*
X96056208Y-86666413D01*
X96226410Y-86496211D01*
X96367890Y-86301480D01*
X96477167Y-86087013D01*
X96551547Y-85858093D01*
X96589201Y-85620355D01*
X96589201Y-85379653D01*
X96551547Y-85141915D01*
X96477167Y-84912995D01*
X96477167Y-84912994D01*
X96439325Y-84838726D01*
X96367890Y-84698528D01*
X96275530Y-84571405D01*
X96226415Y-84503803D01*
X96226411Y-84503798D01*
X96056206Y-84333593D01*
X96056201Y-84333589D01*
X95861480Y-84192117D01*
X95861479Y-84192116D01*
X95861477Y-84192115D01*
X95792767Y-84157105D01*
X95647010Y-84082837D01*
X95647007Y-84082836D01*
X95418091Y-84008458D01*
X95299221Y-83989631D01*
X95180352Y-83970804D01*
X94939650Y-83970804D01*
X94860404Y-83983355D01*
X94701910Y-84008458D01*
X94472994Y-84082836D01*
X94472991Y-84082837D01*
X94258521Y-84192117D01*
X94063800Y-84333589D01*
X94063795Y-84333593D01*
X93893590Y-84503798D01*
X93893586Y-84503803D01*
X93752114Y-84698524D01*
X93642834Y-84912994D01*
X93642833Y-84912997D01*
X93568455Y-85141913D01*
X93530801Y-85379653D01*
X86400500Y-85379653D01*
X86400500Y-81879652D01*
X93530801Y-81879652D01*
X93530801Y-82120353D01*
X93568455Y-82358093D01*
X93642833Y-82587009D01*
X93642834Y-82587012D01*
X93752114Y-82801482D01*
X93893586Y-82996203D01*
X93893590Y-82996208D01*
X94063795Y-83166413D01*
X94063800Y-83166417D01*
X94154708Y-83232465D01*
X94258525Y-83307892D01*
X94398723Y-83379327D01*
X94472991Y-83417169D01*
X94472994Y-83417170D01*
X94587452Y-83454359D01*
X94701912Y-83491549D01*
X94939650Y-83529203D01*
X94939651Y-83529203D01*
X95180351Y-83529203D01*
X95180352Y-83529203D01*
X95418090Y-83491549D01*
X95647010Y-83417169D01*
X95861477Y-83307892D01*
X96056208Y-83166412D01*
X96226410Y-82996210D01*
X96367890Y-82801479D01*
X96477167Y-82587012D01*
X96551547Y-82358092D01*
X96589201Y-82120354D01*
X96589201Y-81879652D01*
X96551547Y-81641914D01*
X96477167Y-81412994D01*
X96477167Y-81412993D01*
X96439325Y-81338725D01*
X96367890Y-81198527D01*
X96306267Y-81113710D01*
X96226415Y-81003802D01*
X96226411Y-81003797D01*
X96056206Y-80833592D01*
X96056201Y-80833588D01*
X95861480Y-80692116D01*
X95861479Y-80692115D01*
X95861477Y-80692114D01*
X95792767Y-80657104D01*
X95647010Y-80582836D01*
X95647007Y-80582835D01*
X95418091Y-80508457D01*
X95299221Y-80489630D01*
X95180352Y-80470803D01*
X94939650Y-80470803D01*
X94860404Y-80483354D01*
X94701910Y-80508457D01*
X94472994Y-80582835D01*
X94472991Y-80582836D01*
X94258521Y-80692116D01*
X94063800Y-80833588D01*
X94063795Y-80833592D01*
X93893590Y-81003797D01*
X93893586Y-81003802D01*
X93752114Y-81198523D01*
X93642834Y-81412993D01*
X93642833Y-81412996D01*
X93568455Y-81641912D01*
X93530801Y-81879652D01*
X86400500Y-81879652D01*
X86400500Y-78379652D01*
X93530801Y-78379652D01*
X93530801Y-78620353D01*
X93568455Y-78858093D01*
X93642833Y-79087009D01*
X93642834Y-79087012D01*
X93752114Y-79301482D01*
X93893586Y-79496203D01*
X93893590Y-79496208D01*
X94063795Y-79666413D01*
X94063800Y-79666417D01*
X94233647Y-79789817D01*
X94258525Y-79807892D01*
X94398723Y-79879327D01*
X94472991Y-79917169D01*
X94472994Y-79917170D01*
X94587452Y-79954359D01*
X94701912Y-79991549D01*
X94939650Y-80029203D01*
X94939651Y-80029203D01*
X95180351Y-80029203D01*
X95180352Y-80029203D01*
X95418090Y-79991549D01*
X95647010Y-79917169D01*
X95861477Y-79807892D01*
X96056208Y-79666412D01*
X96226410Y-79496210D01*
X96304630Y-79388549D01*
X104519500Y-79388549D01*
X104519500Y-79611450D01*
X104519501Y-79611466D01*
X104548594Y-79832452D01*
X104548595Y-79832457D01*
X104548596Y-79832463D01*
X104591223Y-79991549D01*
X104606290Y-80047780D01*
X104606293Y-80047790D01*
X104691593Y-80253722D01*
X104691595Y-80253726D01*
X104803052Y-80446774D01*
X104803057Y-80446780D01*
X104803058Y-80446782D01*
X104938751Y-80623622D01*
X104938757Y-80623629D01*
X105096370Y-80781242D01*
X105096377Y-80781248D01*
X105164594Y-80833592D01*
X105273226Y-80916948D01*
X105466274Y-81028405D01*
X105503199Y-81043699D01*
X105603965Y-81085439D01*
X105658368Y-81129280D01*
X105680433Y-81195574D01*
X105663154Y-81263274D01*
X105612016Y-81310884D01*
X105603965Y-81314561D01*
X105466277Y-81371593D01*
X105466273Y-81371595D01*
X105273226Y-81483052D01*
X105273217Y-81483058D01*
X105096377Y-81618751D01*
X105096370Y-81618757D01*
X104938757Y-81776370D01*
X104938751Y-81776377D01*
X104803058Y-81953217D01*
X104803052Y-81953226D01*
X104691595Y-82146273D01*
X104691593Y-82146277D01*
X104606293Y-82352209D01*
X104606290Y-82352219D01*
X104548597Y-82567534D01*
X104548594Y-82567547D01*
X104519501Y-82788533D01*
X104519500Y-82788549D01*
X104519500Y-83011450D01*
X104519501Y-83011466D01*
X104548594Y-83232452D01*
X104548595Y-83232457D01*
X104548596Y-83232463D01*
X104568807Y-83307892D01*
X104606290Y-83447780D01*
X104606293Y-83447790D01*
X104691593Y-83653722D01*
X104691595Y-83653726D01*
X104803052Y-83846774D01*
X104803057Y-83846780D01*
X104803058Y-83846782D01*
X104938751Y-84023622D01*
X104938757Y-84023629D01*
X105096370Y-84181242D01*
X105096377Y-84181248D01*
X105110542Y-84192117D01*
X105273226Y-84316948D01*
X105466274Y-84428405D01*
X105672219Y-84513710D01*
X105887537Y-84571404D01*
X106108543Y-84600500D01*
X106108550Y-84600500D01*
X106331450Y-84600500D01*
X106331457Y-84600500D01*
X106552463Y-84571404D01*
X106767781Y-84513710D01*
X106973726Y-84428405D01*
X107166774Y-84316948D01*
X107343624Y-84181247D01*
X107501247Y-84023624D01*
X107636948Y-83846774D01*
X107748405Y-83653726D01*
X107833710Y-83447781D01*
X107891404Y-83232463D01*
X107920500Y-83011457D01*
X107920500Y-82788543D01*
X107891404Y-82567537D01*
X107833710Y-82352219D01*
X107748405Y-82146274D01*
X107636948Y-81953226D01*
X107501247Y-81776376D01*
X107501242Y-81776370D01*
X107343629Y-81618757D01*
X107343622Y-81618751D01*
X107166782Y-81483058D01*
X107166780Y-81483057D01*
X107166774Y-81483052D01*
X106973726Y-81371595D01*
X106973722Y-81371593D01*
X106836034Y-81314561D01*
X106781631Y-81270720D01*
X106759566Y-81204426D01*
X106776845Y-81136727D01*
X106827982Y-81089116D01*
X106836034Y-81085439D01*
X106873768Y-81069808D01*
X106973726Y-81028405D01*
X107166774Y-80916948D01*
X107343624Y-80781247D01*
X107501247Y-80623624D01*
X107636948Y-80446774D01*
X107748405Y-80253726D01*
X107833710Y-80047781D01*
X107891404Y-79832463D01*
X107920500Y-79611457D01*
X107920500Y-79388549D01*
X114439500Y-79388549D01*
X114439500Y-79611450D01*
X114439501Y-79611466D01*
X114468594Y-79832452D01*
X114468595Y-79832457D01*
X114468596Y-79832463D01*
X114511223Y-79991549D01*
X114526290Y-80047780D01*
X114526293Y-80047790D01*
X114611593Y-80253722D01*
X114611595Y-80253726D01*
X114723052Y-80446774D01*
X114723057Y-80446780D01*
X114723058Y-80446782D01*
X114858751Y-80623622D01*
X114858757Y-80623629D01*
X115016370Y-80781242D01*
X115016377Y-80781248D01*
X115084594Y-80833592D01*
X115193226Y-80916948D01*
X115386274Y-81028405D01*
X115423199Y-81043699D01*
X115523965Y-81085439D01*
X115578368Y-81129280D01*
X115600433Y-81195574D01*
X115583154Y-81263274D01*
X115532016Y-81310884D01*
X115523965Y-81314561D01*
X115386277Y-81371593D01*
X115386273Y-81371595D01*
X115193226Y-81483052D01*
X115193217Y-81483058D01*
X115016377Y-81618751D01*
X115016370Y-81618757D01*
X114858757Y-81776370D01*
X114858751Y-81776377D01*
X114723058Y-81953217D01*
X114723052Y-81953226D01*
X114611595Y-82146273D01*
X114611593Y-82146277D01*
X114526293Y-82352209D01*
X114526290Y-82352219D01*
X114468597Y-82567534D01*
X114468594Y-82567547D01*
X114439501Y-82788533D01*
X114439500Y-82788549D01*
X114439500Y-83011450D01*
X114439501Y-83011466D01*
X114468594Y-83232452D01*
X114468595Y-83232457D01*
X114468596Y-83232463D01*
X114488807Y-83307892D01*
X114526290Y-83447780D01*
X114526293Y-83447790D01*
X114611593Y-83653722D01*
X114611595Y-83653726D01*
X114723052Y-83846774D01*
X114723057Y-83846780D01*
X114723058Y-83846782D01*
X114858751Y-84023622D01*
X114858757Y-84023629D01*
X115016370Y-84181242D01*
X115016377Y-84181248D01*
X115030542Y-84192117D01*
X115193226Y-84316948D01*
X115386274Y-84428405D01*
X115592219Y-84513710D01*
X115807537Y-84571404D01*
X116028543Y-84600500D01*
X116028550Y-84600500D01*
X116251450Y-84600500D01*
X116251457Y-84600500D01*
X116472463Y-84571404D01*
X116687781Y-84513710D01*
X116893726Y-84428405D01*
X117086774Y-84316948D01*
X117263624Y-84181247D01*
X117421247Y-84023624D01*
X117556948Y-83846774D01*
X117668405Y-83653726D01*
X117753710Y-83447781D01*
X117811404Y-83232463D01*
X117840500Y-83011457D01*
X117840500Y-82788543D01*
X117811404Y-82567537D01*
X117753710Y-82352219D01*
X117668405Y-82146274D01*
X117556948Y-81953226D01*
X117421247Y-81776376D01*
X117421242Y-81776370D01*
X117263629Y-81618757D01*
X117263622Y-81618751D01*
X117086782Y-81483058D01*
X117086780Y-81483057D01*
X117086774Y-81483052D01*
X116893726Y-81371595D01*
X116893722Y-81371593D01*
X116756034Y-81314561D01*
X116701631Y-81270720D01*
X116679566Y-81204426D01*
X116696845Y-81136727D01*
X116747982Y-81089116D01*
X116756034Y-81085439D01*
X116793768Y-81069808D01*
X116893726Y-81028405D01*
X117086774Y-80916948D01*
X117263624Y-80781247D01*
X117421247Y-80623624D01*
X117556948Y-80446774D01*
X117668405Y-80253726D01*
X117753710Y-80047781D01*
X117811404Y-79832463D01*
X117840500Y-79611457D01*
X117840500Y-79388549D01*
X122019500Y-79388549D01*
X122019500Y-79611450D01*
X122019501Y-79611466D01*
X122048594Y-79832452D01*
X122048595Y-79832457D01*
X122048596Y-79832463D01*
X122091223Y-79991549D01*
X122106290Y-80047780D01*
X122106293Y-80047790D01*
X122191593Y-80253722D01*
X122191595Y-80253726D01*
X122303052Y-80446774D01*
X122303057Y-80446780D01*
X122303058Y-80446782D01*
X122438751Y-80623622D01*
X122438757Y-80623629D01*
X122596370Y-80781242D01*
X122596377Y-80781248D01*
X122664594Y-80833592D01*
X122773226Y-80916948D01*
X122966274Y-81028405D01*
X123003199Y-81043699D01*
X123103965Y-81085439D01*
X123158368Y-81129280D01*
X123180433Y-81195574D01*
X123163154Y-81263274D01*
X123112016Y-81310884D01*
X123103965Y-81314561D01*
X122966277Y-81371593D01*
X122966273Y-81371595D01*
X122773226Y-81483052D01*
X122773217Y-81483058D01*
X122596377Y-81618751D01*
X122596370Y-81618757D01*
X122438757Y-81776370D01*
X122438751Y-81776377D01*
X122303058Y-81953217D01*
X122303052Y-81953226D01*
X122191595Y-82146273D01*
X122191593Y-82146277D01*
X122106293Y-82352209D01*
X122106290Y-82352219D01*
X122048597Y-82567534D01*
X122048594Y-82567547D01*
X122019501Y-82788533D01*
X122019500Y-82788549D01*
X122019500Y-83011450D01*
X122019501Y-83011466D01*
X122048594Y-83232452D01*
X122048595Y-83232457D01*
X122048596Y-83232463D01*
X122068807Y-83307892D01*
X122106290Y-83447780D01*
X122106293Y-83447790D01*
X122191593Y-83653722D01*
X122191595Y-83653726D01*
X122303052Y-83846774D01*
X122303057Y-83846780D01*
X122303058Y-83846782D01*
X122438751Y-84023622D01*
X122438757Y-84023629D01*
X122596370Y-84181242D01*
X122596377Y-84181248D01*
X122610542Y-84192117D01*
X122773226Y-84316948D01*
X122966274Y-84428405D01*
X123172219Y-84513710D01*
X123387537Y-84571404D01*
X123608543Y-84600500D01*
X123608550Y-84600500D01*
X123831450Y-84600500D01*
X123831457Y-84600500D01*
X124052463Y-84571404D01*
X124267781Y-84513710D01*
X124473726Y-84428405D01*
X124666774Y-84316948D01*
X124843624Y-84181247D01*
X125001247Y-84023624D01*
X125136948Y-83846774D01*
X125248405Y-83653726D01*
X125333710Y-83447781D01*
X125391404Y-83232463D01*
X125420500Y-83011457D01*
X125420500Y-82788543D01*
X125391404Y-82567537D01*
X125333710Y-82352219D01*
X125248405Y-82146274D01*
X125136948Y-81953226D01*
X125001247Y-81776376D01*
X125001242Y-81776370D01*
X124843629Y-81618757D01*
X124843622Y-81618751D01*
X124666782Y-81483058D01*
X124666780Y-81483057D01*
X124666774Y-81483052D01*
X124473726Y-81371595D01*
X124473722Y-81371593D01*
X124336034Y-81314561D01*
X124281631Y-81270720D01*
X124259566Y-81204426D01*
X124276845Y-81136727D01*
X124327982Y-81089116D01*
X124336034Y-81085439D01*
X124373768Y-81069808D01*
X124473726Y-81028405D01*
X124666774Y-80916948D01*
X124843624Y-80781247D01*
X125001247Y-80623624D01*
X125136948Y-80446774D01*
X125248405Y-80253726D01*
X125333710Y-80047781D01*
X125391404Y-79832463D01*
X125420500Y-79611457D01*
X125420500Y-79388549D01*
X131939500Y-79388549D01*
X131939500Y-79611450D01*
X131939501Y-79611466D01*
X131968594Y-79832452D01*
X131968595Y-79832457D01*
X131968596Y-79832463D01*
X132011223Y-79991549D01*
X132026290Y-80047780D01*
X132026293Y-80047790D01*
X132111593Y-80253722D01*
X132111595Y-80253726D01*
X132223052Y-80446774D01*
X132223057Y-80446780D01*
X132223058Y-80446782D01*
X132358751Y-80623622D01*
X132358757Y-80623629D01*
X132516370Y-80781242D01*
X132516377Y-80781248D01*
X132584594Y-80833592D01*
X132693226Y-80916948D01*
X132886274Y-81028405D01*
X132923199Y-81043699D01*
X133023965Y-81085439D01*
X133078368Y-81129280D01*
X133100433Y-81195574D01*
X133083154Y-81263274D01*
X133032016Y-81310884D01*
X133023965Y-81314561D01*
X132886277Y-81371593D01*
X132886273Y-81371595D01*
X132693226Y-81483052D01*
X132693217Y-81483058D01*
X132516377Y-81618751D01*
X132516370Y-81618757D01*
X132358757Y-81776370D01*
X132358751Y-81776377D01*
X132223058Y-81953217D01*
X132223052Y-81953226D01*
X132111595Y-82146273D01*
X132111593Y-82146277D01*
X132026293Y-82352209D01*
X132026290Y-82352219D01*
X131968597Y-82567534D01*
X131968594Y-82567547D01*
X131939501Y-82788533D01*
X131939500Y-82788549D01*
X131939500Y-83011450D01*
X131939501Y-83011466D01*
X131968594Y-83232452D01*
X131968595Y-83232457D01*
X131968596Y-83232463D01*
X131988807Y-83307892D01*
X132026290Y-83447780D01*
X132026293Y-83447790D01*
X132111593Y-83653722D01*
X132111595Y-83653726D01*
X132223052Y-83846774D01*
X132223057Y-83846780D01*
X132223058Y-83846782D01*
X132358751Y-84023622D01*
X132358757Y-84023629D01*
X132516370Y-84181242D01*
X132516377Y-84181248D01*
X132530542Y-84192117D01*
X132693226Y-84316948D01*
X132886274Y-84428405D01*
X133092219Y-84513710D01*
X133307537Y-84571404D01*
X133528543Y-84600500D01*
X133528550Y-84600500D01*
X133751450Y-84600500D01*
X133751457Y-84600500D01*
X133972463Y-84571404D01*
X134187781Y-84513710D01*
X134393726Y-84428405D01*
X134586774Y-84316948D01*
X134763624Y-84181247D01*
X134921247Y-84023624D01*
X135056948Y-83846774D01*
X135168405Y-83653726D01*
X135253710Y-83447781D01*
X135311404Y-83232463D01*
X135340500Y-83011457D01*
X135340500Y-82788543D01*
X135311404Y-82567537D01*
X135253710Y-82352219D01*
X135168405Y-82146274D01*
X135056948Y-81953226D01*
X134921247Y-81776376D01*
X134921242Y-81776370D01*
X134763629Y-81618757D01*
X134763622Y-81618751D01*
X134586782Y-81483058D01*
X134586780Y-81483057D01*
X134586774Y-81483052D01*
X134393726Y-81371595D01*
X134393722Y-81371593D01*
X134256034Y-81314561D01*
X134201631Y-81270720D01*
X134179566Y-81204426D01*
X134196845Y-81136727D01*
X134247982Y-81089116D01*
X134256034Y-81085439D01*
X134293768Y-81069808D01*
X134393726Y-81028405D01*
X134586774Y-80916948D01*
X134763624Y-80781247D01*
X134921247Y-80623624D01*
X135056948Y-80446774D01*
X135168405Y-80253726D01*
X135253710Y-80047781D01*
X135311404Y-79832463D01*
X135340500Y-79611457D01*
X135340500Y-79388549D01*
X139519500Y-79388549D01*
X139519500Y-79611450D01*
X139519501Y-79611466D01*
X139548594Y-79832452D01*
X139548595Y-79832457D01*
X139548596Y-79832463D01*
X139591223Y-79991549D01*
X139606290Y-80047780D01*
X139606293Y-80047790D01*
X139691593Y-80253722D01*
X139691595Y-80253726D01*
X139803052Y-80446774D01*
X139803057Y-80446780D01*
X139803058Y-80446782D01*
X139938751Y-80623622D01*
X139938757Y-80623629D01*
X140096370Y-80781242D01*
X140096377Y-80781248D01*
X140164594Y-80833592D01*
X140273226Y-80916948D01*
X140466274Y-81028405D01*
X140503199Y-81043699D01*
X140603965Y-81085439D01*
X140658368Y-81129280D01*
X140680433Y-81195574D01*
X140663154Y-81263274D01*
X140612016Y-81310884D01*
X140603965Y-81314561D01*
X140466277Y-81371593D01*
X140466273Y-81371595D01*
X140273226Y-81483052D01*
X140273217Y-81483058D01*
X140096377Y-81618751D01*
X140096370Y-81618757D01*
X139938757Y-81776370D01*
X139938751Y-81776377D01*
X139803058Y-81953217D01*
X139803052Y-81953226D01*
X139691595Y-82146273D01*
X139691593Y-82146277D01*
X139606293Y-82352209D01*
X139606290Y-82352219D01*
X139548597Y-82567534D01*
X139548594Y-82567547D01*
X139519501Y-82788533D01*
X139519500Y-82788549D01*
X139519500Y-83011450D01*
X139519501Y-83011466D01*
X139548594Y-83232452D01*
X139548595Y-83232457D01*
X139548596Y-83232463D01*
X139568807Y-83307892D01*
X139606290Y-83447780D01*
X139606293Y-83447790D01*
X139691593Y-83653722D01*
X139691595Y-83653726D01*
X139803052Y-83846774D01*
X139803057Y-83846780D01*
X139803058Y-83846782D01*
X139938751Y-84023622D01*
X139938757Y-84023629D01*
X140096370Y-84181242D01*
X140096377Y-84181248D01*
X140110542Y-84192117D01*
X140273226Y-84316948D01*
X140466274Y-84428405D01*
X140672219Y-84513710D01*
X140887537Y-84571404D01*
X141108543Y-84600500D01*
X141108550Y-84600500D01*
X141331450Y-84600500D01*
X141331457Y-84600500D01*
X141552463Y-84571404D01*
X141767781Y-84513710D01*
X141973726Y-84428405D01*
X142166774Y-84316948D01*
X142343624Y-84181247D01*
X142501247Y-84023624D01*
X142636948Y-83846774D01*
X142748405Y-83653726D01*
X142833710Y-83447781D01*
X142891404Y-83232463D01*
X142920500Y-83011457D01*
X142920500Y-82788543D01*
X142891404Y-82567537D01*
X142833710Y-82352219D01*
X142748405Y-82146274D01*
X142636948Y-81953226D01*
X142501247Y-81776376D01*
X142501242Y-81776370D01*
X142343629Y-81618757D01*
X142343622Y-81618751D01*
X142166782Y-81483058D01*
X142166780Y-81483057D01*
X142166774Y-81483052D01*
X141973726Y-81371595D01*
X141973722Y-81371593D01*
X141836034Y-81314561D01*
X141781631Y-81270720D01*
X141759566Y-81204426D01*
X141776845Y-81136727D01*
X141827982Y-81089116D01*
X141836034Y-81085439D01*
X141873768Y-81069808D01*
X141973726Y-81028405D01*
X142166774Y-80916948D01*
X142343624Y-80781247D01*
X142501247Y-80623624D01*
X142636948Y-80446774D01*
X142748405Y-80253726D01*
X142833710Y-80047781D01*
X142891404Y-79832463D01*
X142920500Y-79611457D01*
X142920500Y-79388549D01*
X149439500Y-79388549D01*
X149439500Y-79611450D01*
X149439501Y-79611466D01*
X149468594Y-79832452D01*
X149468595Y-79832457D01*
X149468596Y-79832463D01*
X149511223Y-79991549D01*
X149526290Y-80047780D01*
X149526293Y-80047790D01*
X149611593Y-80253722D01*
X149611595Y-80253726D01*
X149723052Y-80446774D01*
X149723057Y-80446780D01*
X149723058Y-80446782D01*
X149858751Y-80623622D01*
X149858757Y-80623629D01*
X150016370Y-80781242D01*
X150016377Y-80781248D01*
X150084594Y-80833592D01*
X150193226Y-80916948D01*
X150386274Y-81028405D01*
X150423199Y-81043699D01*
X150523965Y-81085439D01*
X150578368Y-81129280D01*
X150600433Y-81195574D01*
X150583154Y-81263274D01*
X150532016Y-81310884D01*
X150523965Y-81314561D01*
X150386277Y-81371593D01*
X150386273Y-81371595D01*
X150193226Y-81483052D01*
X150193217Y-81483058D01*
X150016377Y-81618751D01*
X150016370Y-81618757D01*
X149858757Y-81776370D01*
X149858751Y-81776377D01*
X149723058Y-81953217D01*
X149723052Y-81953226D01*
X149611595Y-82146273D01*
X149611593Y-82146277D01*
X149526293Y-82352209D01*
X149526290Y-82352219D01*
X149468597Y-82567534D01*
X149468594Y-82567547D01*
X149439501Y-82788533D01*
X149439500Y-82788549D01*
X149439500Y-83011450D01*
X149439501Y-83011466D01*
X149468594Y-83232452D01*
X149468595Y-83232457D01*
X149468596Y-83232463D01*
X149488807Y-83307892D01*
X149526290Y-83447780D01*
X149526293Y-83447790D01*
X149611593Y-83653722D01*
X149611595Y-83653726D01*
X149723052Y-83846774D01*
X149723057Y-83846780D01*
X149723058Y-83846782D01*
X149858751Y-84023622D01*
X149858757Y-84023629D01*
X150016370Y-84181242D01*
X150016377Y-84181248D01*
X150030542Y-84192117D01*
X150193226Y-84316948D01*
X150386274Y-84428405D01*
X150592219Y-84513710D01*
X150807537Y-84571404D01*
X151028543Y-84600500D01*
X151028550Y-84600500D01*
X151251450Y-84600500D01*
X151251457Y-84600500D01*
X151472463Y-84571404D01*
X151687781Y-84513710D01*
X151893726Y-84428405D01*
X152086774Y-84316948D01*
X152263624Y-84181247D01*
X152421247Y-84023624D01*
X152556948Y-83846774D01*
X152668405Y-83653726D01*
X152753710Y-83447781D01*
X152811404Y-83232463D01*
X152840500Y-83011457D01*
X152840500Y-82788543D01*
X152811404Y-82567537D01*
X152753710Y-82352219D01*
X152668405Y-82146274D01*
X152556948Y-81953226D01*
X152421247Y-81776376D01*
X152421242Y-81776370D01*
X152263629Y-81618757D01*
X152263622Y-81618751D01*
X152086782Y-81483058D01*
X152086780Y-81483057D01*
X152086774Y-81483052D01*
X151893726Y-81371595D01*
X151893722Y-81371593D01*
X151756034Y-81314561D01*
X151701631Y-81270720D01*
X151679566Y-81204426D01*
X151696845Y-81136727D01*
X151747982Y-81089116D01*
X151756034Y-81085439D01*
X151793768Y-81069808D01*
X151893726Y-81028405D01*
X152086774Y-80916948D01*
X152263624Y-80781247D01*
X152421247Y-80623624D01*
X152556948Y-80446774D01*
X152668405Y-80253726D01*
X152753710Y-80047781D01*
X152811404Y-79832463D01*
X152840500Y-79611457D01*
X152840500Y-79388549D01*
X157019500Y-79388549D01*
X157019500Y-79611450D01*
X157019501Y-79611466D01*
X157048594Y-79832452D01*
X157048595Y-79832457D01*
X157048596Y-79832463D01*
X157091223Y-79991549D01*
X157106290Y-80047780D01*
X157106293Y-80047790D01*
X157191593Y-80253722D01*
X157191595Y-80253726D01*
X157303052Y-80446774D01*
X157303057Y-80446780D01*
X157303058Y-80446782D01*
X157438751Y-80623622D01*
X157438757Y-80623629D01*
X157596370Y-80781242D01*
X157596377Y-80781248D01*
X157664594Y-80833592D01*
X157773226Y-80916948D01*
X157966274Y-81028405D01*
X158003199Y-81043699D01*
X158103965Y-81085439D01*
X158158368Y-81129280D01*
X158180433Y-81195574D01*
X158163154Y-81263274D01*
X158112016Y-81310884D01*
X158103965Y-81314561D01*
X157966277Y-81371593D01*
X157966273Y-81371595D01*
X157773226Y-81483052D01*
X157773217Y-81483058D01*
X157596377Y-81618751D01*
X157596370Y-81618757D01*
X157438757Y-81776370D01*
X157438751Y-81776377D01*
X157303058Y-81953217D01*
X157303052Y-81953226D01*
X157191595Y-82146273D01*
X157191593Y-82146277D01*
X157106293Y-82352209D01*
X157106290Y-82352219D01*
X157048597Y-82567534D01*
X157048594Y-82567547D01*
X157019501Y-82788533D01*
X157019500Y-82788549D01*
X157019500Y-83011450D01*
X157019501Y-83011466D01*
X157048594Y-83232452D01*
X157048595Y-83232457D01*
X157048596Y-83232463D01*
X157068807Y-83307892D01*
X157106290Y-83447780D01*
X157106293Y-83447790D01*
X157191593Y-83653722D01*
X157191595Y-83653726D01*
X157303052Y-83846774D01*
X157303057Y-83846780D01*
X157303058Y-83846782D01*
X157438751Y-84023622D01*
X157438757Y-84023629D01*
X157596370Y-84181242D01*
X157596377Y-84181248D01*
X157610542Y-84192117D01*
X157773226Y-84316948D01*
X157966274Y-84428405D01*
X158172219Y-84513710D01*
X158387537Y-84571404D01*
X158608543Y-84600500D01*
X158608550Y-84600500D01*
X158831450Y-84600500D01*
X158831457Y-84600500D01*
X159052463Y-84571404D01*
X159267781Y-84513710D01*
X159473726Y-84428405D01*
X159666774Y-84316948D01*
X159843624Y-84181247D01*
X160001247Y-84023624D01*
X160136948Y-83846774D01*
X160248405Y-83653726D01*
X160333710Y-83447781D01*
X160391404Y-83232463D01*
X160420500Y-83011457D01*
X160420500Y-82788543D01*
X160391404Y-82567537D01*
X160333710Y-82352219D01*
X160248405Y-82146274D01*
X160136948Y-81953226D01*
X160001247Y-81776376D01*
X160001242Y-81776370D01*
X159843629Y-81618757D01*
X159843622Y-81618751D01*
X159666782Y-81483058D01*
X159666780Y-81483057D01*
X159666774Y-81483052D01*
X159473726Y-81371595D01*
X159473722Y-81371593D01*
X159336034Y-81314561D01*
X159281631Y-81270720D01*
X159259566Y-81204426D01*
X159276845Y-81136727D01*
X159327982Y-81089116D01*
X159336034Y-81085439D01*
X159373768Y-81069808D01*
X159473726Y-81028405D01*
X159666774Y-80916948D01*
X159843624Y-80781247D01*
X160001247Y-80623624D01*
X160136948Y-80446774D01*
X160248405Y-80253726D01*
X160333710Y-80047781D01*
X160391404Y-79832463D01*
X160420500Y-79611457D01*
X160420500Y-79388549D01*
X166939500Y-79388549D01*
X166939500Y-79611450D01*
X166939501Y-79611466D01*
X166968594Y-79832452D01*
X166968595Y-79832457D01*
X166968596Y-79832463D01*
X167011223Y-79991549D01*
X167026290Y-80047780D01*
X167026293Y-80047790D01*
X167111593Y-80253722D01*
X167111595Y-80253726D01*
X167223052Y-80446774D01*
X167223057Y-80446780D01*
X167223058Y-80446782D01*
X167358751Y-80623622D01*
X167358757Y-80623629D01*
X167516370Y-80781242D01*
X167516377Y-80781248D01*
X167584594Y-80833592D01*
X167693226Y-80916948D01*
X167886274Y-81028405D01*
X167923199Y-81043699D01*
X168023965Y-81085439D01*
X168078368Y-81129280D01*
X168100433Y-81195574D01*
X168083154Y-81263274D01*
X168032016Y-81310884D01*
X168023965Y-81314561D01*
X167886277Y-81371593D01*
X167886273Y-81371595D01*
X167693226Y-81483052D01*
X167693217Y-81483058D01*
X167516377Y-81618751D01*
X167516370Y-81618757D01*
X167358757Y-81776370D01*
X167358751Y-81776377D01*
X167223058Y-81953217D01*
X167223052Y-81953226D01*
X167111595Y-82146273D01*
X167111593Y-82146277D01*
X167026293Y-82352209D01*
X167026290Y-82352219D01*
X166968597Y-82567534D01*
X166968594Y-82567547D01*
X166939501Y-82788533D01*
X166939500Y-82788549D01*
X166939500Y-83011450D01*
X166939501Y-83011466D01*
X166968594Y-83232452D01*
X166968595Y-83232457D01*
X166968596Y-83232463D01*
X166988807Y-83307892D01*
X167026290Y-83447780D01*
X167026293Y-83447790D01*
X167111593Y-83653722D01*
X167111595Y-83653726D01*
X167223052Y-83846774D01*
X167223057Y-83846780D01*
X167223058Y-83846782D01*
X167358751Y-84023622D01*
X167358757Y-84023629D01*
X167516370Y-84181242D01*
X167516377Y-84181248D01*
X167530542Y-84192117D01*
X167693226Y-84316948D01*
X167886274Y-84428405D01*
X168092219Y-84513710D01*
X168307537Y-84571404D01*
X168528543Y-84600500D01*
X168528550Y-84600500D01*
X168751450Y-84600500D01*
X168751457Y-84600500D01*
X168972463Y-84571404D01*
X169187781Y-84513710D01*
X169393726Y-84428405D01*
X169586774Y-84316948D01*
X169763624Y-84181247D01*
X169921247Y-84023624D01*
X170056948Y-83846774D01*
X170168405Y-83653726D01*
X170253710Y-83447781D01*
X170311404Y-83232463D01*
X170340500Y-83011457D01*
X170340500Y-82788543D01*
X170311404Y-82567537D01*
X170253710Y-82352219D01*
X170168405Y-82146274D01*
X170056948Y-81953226D01*
X169921247Y-81776376D01*
X169921242Y-81776370D01*
X169763629Y-81618757D01*
X169763622Y-81618751D01*
X169586782Y-81483058D01*
X169586780Y-81483057D01*
X169586774Y-81483052D01*
X169393726Y-81371595D01*
X169393722Y-81371593D01*
X169256034Y-81314561D01*
X169201631Y-81270720D01*
X169179566Y-81204426D01*
X169196845Y-81136727D01*
X169247982Y-81089116D01*
X169256034Y-81085439D01*
X169293768Y-81069808D01*
X169393726Y-81028405D01*
X169586774Y-80916948D01*
X169763624Y-80781247D01*
X169921247Y-80623624D01*
X170056948Y-80446774D01*
X170168405Y-80253726D01*
X170253710Y-80047781D01*
X170311404Y-79832463D01*
X170340500Y-79611457D01*
X170340500Y-79388549D01*
X174519500Y-79388549D01*
X174519500Y-79611450D01*
X174519501Y-79611466D01*
X174548594Y-79832452D01*
X174548595Y-79832457D01*
X174548596Y-79832463D01*
X174591223Y-79991549D01*
X174606290Y-80047780D01*
X174606293Y-80047790D01*
X174691593Y-80253722D01*
X174691595Y-80253726D01*
X174803052Y-80446774D01*
X174803057Y-80446780D01*
X174803058Y-80446782D01*
X174938751Y-80623622D01*
X174938757Y-80623629D01*
X175096370Y-80781242D01*
X175096377Y-80781248D01*
X175164594Y-80833592D01*
X175273226Y-80916948D01*
X175466274Y-81028405D01*
X175503199Y-81043699D01*
X175603965Y-81085439D01*
X175658368Y-81129280D01*
X175680433Y-81195574D01*
X175663154Y-81263274D01*
X175612016Y-81310884D01*
X175603965Y-81314561D01*
X175466277Y-81371593D01*
X175466273Y-81371595D01*
X175273226Y-81483052D01*
X175273217Y-81483058D01*
X175096377Y-81618751D01*
X175096370Y-81618757D01*
X174938757Y-81776370D01*
X174938751Y-81776377D01*
X174803058Y-81953217D01*
X174803052Y-81953226D01*
X174691595Y-82146273D01*
X174691593Y-82146277D01*
X174606293Y-82352209D01*
X174606290Y-82352219D01*
X174548597Y-82567534D01*
X174548594Y-82567547D01*
X174519501Y-82788533D01*
X174519500Y-82788549D01*
X174519500Y-83011450D01*
X174519501Y-83011466D01*
X174548594Y-83232452D01*
X174548595Y-83232457D01*
X174548596Y-83232463D01*
X174568807Y-83307892D01*
X174606290Y-83447780D01*
X174606293Y-83447790D01*
X174691593Y-83653722D01*
X174691595Y-83653726D01*
X174803052Y-83846774D01*
X174803057Y-83846780D01*
X174803058Y-83846782D01*
X174938751Y-84023622D01*
X174938757Y-84023629D01*
X175096370Y-84181242D01*
X175096377Y-84181248D01*
X175110542Y-84192117D01*
X175273226Y-84316948D01*
X175466274Y-84428405D01*
X175672219Y-84513710D01*
X175887537Y-84571404D01*
X176108543Y-84600500D01*
X176108550Y-84600500D01*
X176331450Y-84600500D01*
X176331457Y-84600500D01*
X176552463Y-84571404D01*
X176767781Y-84513710D01*
X176973726Y-84428405D01*
X177166774Y-84316948D01*
X177343624Y-84181247D01*
X177501247Y-84023624D01*
X177636948Y-83846774D01*
X177748405Y-83653726D01*
X177833710Y-83447781D01*
X177891404Y-83232463D01*
X177920500Y-83011457D01*
X177920500Y-82788543D01*
X177891404Y-82567537D01*
X177833710Y-82352219D01*
X177748405Y-82146274D01*
X177636948Y-81953226D01*
X177501247Y-81776376D01*
X177501242Y-81776370D01*
X177343629Y-81618757D01*
X177343622Y-81618751D01*
X177166782Y-81483058D01*
X177166780Y-81483057D01*
X177166774Y-81483052D01*
X176973726Y-81371595D01*
X176973722Y-81371593D01*
X176836034Y-81314561D01*
X176781631Y-81270720D01*
X176759566Y-81204426D01*
X176776845Y-81136727D01*
X176827982Y-81089116D01*
X176836034Y-81085439D01*
X176873768Y-81069808D01*
X176973726Y-81028405D01*
X177166774Y-80916948D01*
X177343624Y-80781247D01*
X177501247Y-80623624D01*
X177636948Y-80446774D01*
X177748405Y-80253726D01*
X177833710Y-80047781D01*
X177891404Y-79832463D01*
X177920500Y-79611457D01*
X177920500Y-79388549D01*
X184439500Y-79388549D01*
X184439500Y-79611450D01*
X184439501Y-79611466D01*
X184468594Y-79832452D01*
X184468595Y-79832457D01*
X184468596Y-79832463D01*
X184511223Y-79991549D01*
X184526290Y-80047780D01*
X184526293Y-80047790D01*
X184611593Y-80253722D01*
X184611595Y-80253726D01*
X184723052Y-80446774D01*
X184723057Y-80446780D01*
X184723058Y-80446782D01*
X184858751Y-80623622D01*
X184858757Y-80623629D01*
X185016370Y-80781242D01*
X185016377Y-80781248D01*
X185084594Y-80833592D01*
X185193226Y-80916948D01*
X185386274Y-81028405D01*
X185423199Y-81043699D01*
X185523965Y-81085439D01*
X185578368Y-81129280D01*
X185600433Y-81195574D01*
X185583154Y-81263274D01*
X185532016Y-81310884D01*
X185523965Y-81314561D01*
X185386277Y-81371593D01*
X185386273Y-81371595D01*
X185193226Y-81483052D01*
X185193217Y-81483058D01*
X185016377Y-81618751D01*
X185016370Y-81618757D01*
X184858757Y-81776370D01*
X184858751Y-81776377D01*
X184723058Y-81953217D01*
X184723052Y-81953226D01*
X184611595Y-82146273D01*
X184611593Y-82146277D01*
X184526293Y-82352209D01*
X184526290Y-82352219D01*
X184468597Y-82567534D01*
X184468594Y-82567547D01*
X184439501Y-82788533D01*
X184439500Y-82788549D01*
X184439500Y-83011450D01*
X184439501Y-83011466D01*
X184468594Y-83232452D01*
X184468595Y-83232457D01*
X184468596Y-83232463D01*
X184488807Y-83307892D01*
X184526290Y-83447780D01*
X184526293Y-83447790D01*
X184611593Y-83653722D01*
X184611595Y-83653726D01*
X184723052Y-83846774D01*
X184723057Y-83846780D01*
X184723058Y-83846782D01*
X184858751Y-84023622D01*
X184858757Y-84023629D01*
X185016370Y-84181242D01*
X185016377Y-84181248D01*
X185030542Y-84192117D01*
X185193226Y-84316948D01*
X185386274Y-84428405D01*
X185592219Y-84513710D01*
X185807537Y-84571404D01*
X186028543Y-84600500D01*
X186028550Y-84600500D01*
X186251450Y-84600500D01*
X186251457Y-84600500D01*
X186472463Y-84571404D01*
X186687781Y-84513710D01*
X186893726Y-84428405D01*
X187086774Y-84316948D01*
X187263624Y-84181247D01*
X187421247Y-84023624D01*
X187556948Y-83846774D01*
X187668405Y-83653726D01*
X187753710Y-83447781D01*
X187811404Y-83232463D01*
X187840500Y-83011457D01*
X187840500Y-82788543D01*
X187811404Y-82567537D01*
X187753710Y-82352219D01*
X187668405Y-82146274D01*
X187556948Y-81953226D01*
X187421247Y-81776376D01*
X187421242Y-81776370D01*
X187263629Y-81618757D01*
X187263622Y-81618751D01*
X187086782Y-81483058D01*
X187086780Y-81483057D01*
X187086774Y-81483052D01*
X186893726Y-81371595D01*
X186893722Y-81371593D01*
X186756034Y-81314561D01*
X186701631Y-81270720D01*
X186679566Y-81204426D01*
X186696845Y-81136727D01*
X186747982Y-81089116D01*
X186756034Y-81085439D01*
X186793768Y-81069808D01*
X186893726Y-81028405D01*
X187086774Y-80916948D01*
X187263624Y-80781247D01*
X187421247Y-80623624D01*
X187556948Y-80446774D01*
X187668405Y-80253726D01*
X187753710Y-80047781D01*
X187811404Y-79832463D01*
X187840500Y-79611457D01*
X187840500Y-79388549D01*
X192019500Y-79388549D01*
X192019500Y-79611450D01*
X192019501Y-79611466D01*
X192048594Y-79832452D01*
X192048595Y-79832457D01*
X192048596Y-79832463D01*
X192091223Y-79991549D01*
X192106290Y-80047780D01*
X192106293Y-80047790D01*
X192191593Y-80253722D01*
X192191595Y-80253726D01*
X192303052Y-80446774D01*
X192303057Y-80446780D01*
X192303058Y-80446782D01*
X192438751Y-80623622D01*
X192438757Y-80623629D01*
X192596370Y-80781242D01*
X192596377Y-80781248D01*
X192664594Y-80833592D01*
X192773226Y-80916948D01*
X192966274Y-81028405D01*
X193003199Y-81043699D01*
X193103965Y-81085439D01*
X193158368Y-81129280D01*
X193180433Y-81195574D01*
X193163154Y-81263274D01*
X193112016Y-81310884D01*
X193103965Y-81314561D01*
X192966277Y-81371593D01*
X192966273Y-81371595D01*
X192773226Y-81483052D01*
X192773217Y-81483058D01*
X192596377Y-81618751D01*
X192596370Y-81618757D01*
X192438757Y-81776370D01*
X192438751Y-81776377D01*
X192303058Y-81953217D01*
X192303052Y-81953226D01*
X192191595Y-82146273D01*
X192191593Y-82146277D01*
X192106293Y-82352209D01*
X192106290Y-82352219D01*
X192048597Y-82567534D01*
X192048594Y-82567547D01*
X192019501Y-82788533D01*
X192019500Y-82788549D01*
X192019500Y-83011450D01*
X192019501Y-83011466D01*
X192048594Y-83232452D01*
X192048595Y-83232457D01*
X192048596Y-83232463D01*
X192068807Y-83307892D01*
X192106290Y-83447780D01*
X192106293Y-83447790D01*
X192191593Y-83653722D01*
X192191595Y-83653726D01*
X192303052Y-83846774D01*
X192303057Y-83846780D01*
X192303058Y-83846782D01*
X192438751Y-84023622D01*
X192438757Y-84023629D01*
X192596370Y-84181242D01*
X192596377Y-84181248D01*
X192610542Y-84192117D01*
X192773226Y-84316948D01*
X192966274Y-84428405D01*
X193172219Y-84513710D01*
X193387537Y-84571404D01*
X193608543Y-84600500D01*
X193608550Y-84600500D01*
X193831450Y-84600500D01*
X193831457Y-84600500D01*
X194052463Y-84571404D01*
X194267781Y-84513710D01*
X194473726Y-84428405D01*
X194666774Y-84316948D01*
X194843624Y-84181247D01*
X195001247Y-84023624D01*
X195136948Y-83846774D01*
X195248405Y-83653726D01*
X195333710Y-83447781D01*
X195391404Y-83232463D01*
X195420500Y-83011457D01*
X195420500Y-82788543D01*
X195391404Y-82567537D01*
X195333710Y-82352219D01*
X195248405Y-82146274D01*
X195136948Y-81953226D01*
X195001247Y-81776376D01*
X195001242Y-81776370D01*
X194843629Y-81618757D01*
X194843622Y-81618751D01*
X194666782Y-81483058D01*
X194666780Y-81483057D01*
X194666774Y-81483052D01*
X194473726Y-81371595D01*
X194473722Y-81371593D01*
X194336034Y-81314561D01*
X194281631Y-81270720D01*
X194259566Y-81204426D01*
X194276845Y-81136727D01*
X194327982Y-81089116D01*
X194336034Y-81085439D01*
X194373768Y-81069808D01*
X194473726Y-81028405D01*
X194666774Y-80916948D01*
X194843624Y-80781247D01*
X195001247Y-80623624D01*
X195136948Y-80446774D01*
X195248405Y-80253726D01*
X195333710Y-80047781D01*
X195391404Y-79832463D01*
X195420500Y-79611457D01*
X195420500Y-79388549D01*
X201939500Y-79388549D01*
X201939500Y-79611450D01*
X201939501Y-79611466D01*
X201968594Y-79832452D01*
X201968595Y-79832457D01*
X201968596Y-79832463D01*
X202011223Y-79991549D01*
X202026290Y-80047780D01*
X202026293Y-80047790D01*
X202111593Y-80253722D01*
X202111595Y-80253726D01*
X202223052Y-80446774D01*
X202223057Y-80446780D01*
X202223058Y-80446782D01*
X202358751Y-80623622D01*
X202358757Y-80623629D01*
X202516370Y-80781242D01*
X202516377Y-80781248D01*
X202584594Y-80833592D01*
X202693226Y-80916948D01*
X202886274Y-81028405D01*
X202923199Y-81043699D01*
X203023965Y-81085439D01*
X203078368Y-81129280D01*
X203100433Y-81195574D01*
X203083154Y-81263274D01*
X203032016Y-81310884D01*
X203023965Y-81314561D01*
X202886277Y-81371593D01*
X202886273Y-81371595D01*
X202693226Y-81483052D01*
X202693217Y-81483058D01*
X202516377Y-81618751D01*
X202516370Y-81618757D01*
X202358757Y-81776370D01*
X202358751Y-81776377D01*
X202223058Y-81953217D01*
X202223052Y-81953226D01*
X202111595Y-82146273D01*
X202111593Y-82146277D01*
X202026293Y-82352209D01*
X202026290Y-82352219D01*
X201968597Y-82567534D01*
X201968594Y-82567547D01*
X201939501Y-82788533D01*
X201939500Y-82788549D01*
X201939500Y-83011450D01*
X201939501Y-83011466D01*
X201968594Y-83232452D01*
X201968595Y-83232457D01*
X201968596Y-83232463D01*
X201988807Y-83307892D01*
X202026290Y-83447780D01*
X202026293Y-83447790D01*
X202111593Y-83653722D01*
X202111595Y-83653726D01*
X202223052Y-83846774D01*
X202223057Y-83846780D01*
X202223058Y-83846782D01*
X202358751Y-84023622D01*
X202358757Y-84023629D01*
X202516370Y-84181242D01*
X202516377Y-84181248D01*
X202530542Y-84192117D01*
X202693226Y-84316948D01*
X202886274Y-84428405D01*
X203092219Y-84513710D01*
X203307537Y-84571404D01*
X203528543Y-84600500D01*
X203528550Y-84600500D01*
X203751450Y-84600500D01*
X203751457Y-84600500D01*
X203972463Y-84571404D01*
X204187781Y-84513710D01*
X204393726Y-84428405D01*
X204586774Y-84316948D01*
X204763624Y-84181247D01*
X204921247Y-84023624D01*
X205056948Y-83846774D01*
X205168405Y-83653726D01*
X205253710Y-83447781D01*
X205311404Y-83232463D01*
X205340500Y-83011457D01*
X205340500Y-82788543D01*
X205311404Y-82567537D01*
X205253710Y-82352219D01*
X205168405Y-82146274D01*
X205056948Y-81953226D01*
X204921247Y-81776376D01*
X204921242Y-81776370D01*
X204763629Y-81618757D01*
X204763622Y-81618751D01*
X204586782Y-81483058D01*
X204586780Y-81483057D01*
X204586774Y-81483052D01*
X204393726Y-81371595D01*
X204393722Y-81371593D01*
X204256034Y-81314561D01*
X204201631Y-81270720D01*
X204179566Y-81204426D01*
X204196845Y-81136727D01*
X204247982Y-81089116D01*
X204256034Y-81085439D01*
X204293768Y-81069808D01*
X204393726Y-81028405D01*
X204586774Y-80916948D01*
X204763624Y-80781247D01*
X204921247Y-80623624D01*
X205056948Y-80446774D01*
X205168405Y-80253726D01*
X205253710Y-80047781D01*
X205311404Y-79832463D01*
X205340500Y-79611457D01*
X205340500Y-79388549D01*
X209524976Y-79388549D01*
X209524976Y-79611450D01*
X209524977Y-79611466D01*
X209554070Y-79832452D01*
X209554071Y-79832457D01*
X209554072Y-79832463D01*
X209596699Y-79991549D01*
X209611766Y-80047780D01*
X209611769Y-80047790D01*
X209697069Y-80253722D01*
X209697071Y-80253726D01*
X209808528Y-80446774D01*
X209808533Y-80446780D01*
X209808534Y-80446782D01*
X209944227Y-80623622D01*
X209944233Y-80623629D01*
X210101846Y-80781242D01*
X210101853Y-80781248D01*
X210170070Y-80833592D01*
X210278702Y-80916948D01*
X210471750Y-81028405D01*
X210508675Y-81043699D01*
X210609441Y-81085439D01*
X210663844Y-81129280D01*
X210685909Y-81195574D01*
X210668630Y-81263274D01*
X210617492Y-81310884D01*
X210609441Y-81314561D01*
X210471753Y-81371593D01*
X210471749Y-81371595D01*
X210278702Y-81483052D01*
X210278693Y-81483058D01*
X210101853Y-81618751D01*
X210101846Y-81618757D01*
X209944233Y-81776370D01*
X209944227Y-81776377D01*
X209808534Y-81953217D01*
X209808528Y-81953226D01*
X209697071Y-82146273D01*
X209697069Y-82146277D01*
X209611769Y-82352209D01*
X209611766Y-82352219D01*
X209554073Y-82567534D01*
X209554070Y-82567547D01*
X209524977Y-82788533D01*
X209524976Y-82788549D01*
X209524976Y-83011450D01*
X209524977Y-83011466D01*
X209554070Y-83232452D01*
X209554071Y-83232457D01*
X209554072Y-83232463D01*
X209574283Y-83307892D01*
X209611766Y-83447780D01*
X209611769Y-83447790D01*
X209697069Y-83653722D01*
X209697071Y-83653726D01*
X209808528Y-83846774D01*
X209808533Y-83846780D01*
X209808534Y-83846782D01*
X209944227Y-84023622D01*
X209944233Y-84023629D01*
X210101846Y-84181242D01*
X210101853Y-84181248D01*
X210116018Y-84192117D01*
X210278702Y-84316948D01*
X210471750Y-84428405D01*
X210677695Y-84513710D01*
X210893013Y-84571404D01*
X211114019Y-84600500D01*
X211114026Y-84600500D01*
X211336926Y-84600500D01*
X211336933Y-84600500D01*
X211557939Y-84571404D01*
X211773257Y-84513710D01*
X211979202Y-84428405D01*
X212172250Y-84316948D01*
X212349100Y-84181247D01*
X212506723Y-84023624D01*
X212642424Y-83846774D01*
X212753881Y-83653726D01*
X212839186Y-83447781D01*
X212896880Y-83232463D01*
X212925976Y-83011457D01*
X212925976Y-82788543D01*
X212896880Y-82567537D01*
X212839186Y-82352219D01*
X212753881Y-82146274D01*
X212642424Y-81953226D01*
X212506723Y-81776376D01*
X212506718Y-81776370D01*
X212349105Y-81618757D01*
X212349098Y-81618751D01*
X212172258Y-81483058D01*
X212172256Y-81483057D01*
X212172250Y-81483052D01*
X211979202Y-81371595D01*
X211979198Y-81371593D01*
X211841510Y-81314561D01*
X211787107Y-81270720D01*
X211765042Y-81204426D01*
X211782321Y-81136727D01*
X211833458Y-81089116D01*
X211841510Y-81085439D01*
X211879244Y-81069808D01*
X211979202Y-81028405D01*
X212172250Y-80916948D01*
X212349100Y-80781247D01*
X212506723Y-80623624D01*
X212642424Y-80446774D01*
X212753881Y-80253726D01*
X212839186Y-80047781D01*
X212896880Y-79832463D01*
X212925976Y-79611457D01*
X212925976Y-79388549D01*
X219444976Y-79388549D01*
X219444976Y-79611450D01*
X219444977Y-79611466D01*
X219474070Y-79832452D01*
X219474071Y-79832457D01*
X219474072Y-79832463D01*
X219516699Y-79991549D01*
X219531766Y-80047780D01*
X219531769Y-80047790D01*
X219617069Y-80253722D01*
X219617071Y-80253726D01*
X219728528Y-80446774D01*
X219728533Y-80446780D01*
X219728534Y-80446782D01*
X219864227Y-80623622D01*
X219864233Y-80623629D01*
X220021846Y-80781242D01*
X220021853Y-80781248D01*
X220090070Y-80833592D01*
X220198702Y-80916948D01*
X220391750Y-81028405D01*
X220428675Y-81043699D01*
X220529441Y-81085439D01*
X220583844Y-81129280D01*
X220605909Y-81195574D01*
X220588630Y-81263274D01*
X220537492Y-81310884D01*
X220529441Y-81314561D01*
X220391753Y-81371593D01*
X220391749Y-81371595D01*
X220198702Y-81483052D01*
X220198693Y-81483058D01*
X220021853Y-81618751D01*
X220021846Y-81618757D01*
X219864233Y-81776370D01*
X219864227Y-81776377D01*
X219728534Y-81953217D01*
X219728528Y-81953226D01*
X219617071Y-82146273D01*
X219617069Y-82146277D01*
X219531769Y-82352209D01*
X219531766Y-82352219D01*
X219474073Y-82567534D01*
X219474070Y-82567547D01*
X219444977Y-82788533D01*
X219444976Y-82788549D01*
X219444976Y-83011450D01*
X219444977Y-83011466D01*
X219474070Y-83232452D01*
X219474071Y-83232457D01*
X219474072Y-83232463D01*
X219494283Y-83307892D01*
X219531766Y-83447780D01*
X219531769Y-83447790D01*
X219617069Y-83653722D01*
X219617071Y-83653726D01*
X219728528Y-83846774D01*
X219728533Y-83846780D01*
X219728534Y-83846782D01*
X219864227Y-84023622D01*
X219864233Y-84023629D01*
X220021846Y-84181242D01*
X220021853Y-84181248D01*
X220036018Y-84192117D01*
X220198702Y-84316948D01*
X220391750Y-84428405D01*
X220597695Y-84513710D01*
X220813013Y-84571404D01*
X221034019Y-84600500D01*
X221034026Y-84600500D01*
X221256926Y-84600500D01*
X221256933Y-84600500D01*
X221477939Y-84571404D01*
X221693257Y-84513710D01*
X221899202Y-84428405D01*
X222092250Y-84316948D01*
X222269100Y-84181247D01*
X222426723Y-84023624D01*
X222562424Y-83846774D01*
X222673881Y-83653726D01*
X222759186Y-83447781D01*
X222816880Y-83232463D01*
X222845976Y-83011457D01*
X222845976Y-82788543D01*
X222816880Y-82567537D01*
X222759186Y-82352219D01*
X222673881Y-82146274D01*
X222562424Y-81953226D01*
X222426723Y-81776376D01*
X222426718Y-81776370D01*
X222269105Y-81618757D01*
X222269098Y-81618751D01*
X222092258Y-81483058D01*
X222092256Y-81483057D01*
X222092250Y-81483052D01*
X221899202Y-81371595D01*
X221899198Y-81371593D01*
X221761510Y-81314561D01*
X221707107Y-81270720D01*
X221685042Y-81204426D01*
X221702321Y-81136727D01*
X221753458Y-81089116D01*
X221761510Y-81085439D01*
X221799244Y-81069808D01*
X221899202Y-81028405D01*
X222092250Y-80916948D01*
X222269100Y-80781247D01*
X222426723Y-80623624D01*
X222562424Y-80446774D01*
X222673881Y-80253726D01*
X222759186Y-80047781D01*
X222816880Y-79832463D01*
X222845976Y-79611457D01*
X222845976Y-79388543D01*
X222816880Y-79167537D01*
X222759186Y-78952219D01*
X222673881Y-78746274D01*
X222562424Y-78553226D01*
X222426723Y-78376376D01*
X222426718Y-78376370D01*
X222269105Y-78218757D01*
X222269098Y-78218751D01*
X222092258Y-78083058D01*
X222092256Y-78083057D01*
X222092250Y-78083052D01*
X221899202Y-77971595D01*
X221899198Y-77971593D01*
X221693266Y-77886293D01*
X221693259Y-77886291D01*
X221693257Y-77886290D01*
X221477939Y-77828596D01*
X221477933Y-77828595D01*
X221477928Y-77828594D01*
X221256942Y-77799501D01*
X221256939Y-77799500D01*
X221256933Y-77799500D01*
X221034019Y-77799500D01*
X221034013Y-77799500D01*
X221034009Y-77799501D01*
X220813023Y-77828594D01*
X220813016Y-77828595D01*
X220813013Y-77828596D01*
X220597695Y-77886290D01*
X220597685Y-77886293D01*
X220391753Y-77971593D01*
X220391749Y-77971595D01*
X220198702Y-78083052D01*
X220198693Y-78083058D01*
X220021853Y-78218751D01*
X220021846Y-78218757D01*
X219864233Y-78376370D01*
X219864227Y-78376377D01*
X219728534Y-78553217D01*
X219728528Y-78553226D01*
X219617071Y-78746273D01*
X219617069Y-78746277D01*
X219531769Y-78952209D01*
X219531766Y-78952219D01*
X219474073Y-79167534D01*
X219474070Y-79167547D01*
X219444977Y-79388533D01*
X219444976Y-79388549D01*
X212925976Y-79388549D01*
X212925976Y-79388543D01*
X212896880Y-79167537D01*
X212839186Y-78952219D01*
X212753881Y-78746274D01*
X212642424Y-78553226D01*
X212506723Y-78376376D01*
X212506718Y-78376370D01*
X212349105Y-78218757D01*
X212349098Y-78218751D01*
X212172258Y-78083058D01*
X212172256Y-78083057D01*
X212172250Y-78083052D01*
X211979202Y-77971595D01*
X211979198Y-77971593D01*
X211773266Y-77886293D01*
X211773259Y-77886291D01*
X211773257Y-77886290D01*
X211557939Y-77828596D01*
X211557933Y-77828595D01*
X211557928Y-77828594D01*
X211336942Y-77799501D01*
X211336939Y-77799500D01*
X211336933Y-77799500D01*
X211114019Y-77799500D01*
X211114013Y-77799500D01*
X211114009Y-77799501D01*
X210893023Y-77828594D01*
X210893016Y-77828595D01*
X210893013Y-77828596D01*
X210677695Y-77886290D01*
X210677685Y-77886293D01*
X210471753Y-77971593D01*
X210471749Y-77971595D01*
X210278702Y-78083052D01*
X210278693Y-78083058D01*
X210101853Y-78218751D01*
X210101846Y-78218757D01*
X209944233Y-78376370D01*
X209944227Y-78376377D01*
X209808534Y-78553217D01*
X209808528Y-78553226D01*
X209697071Y-78746273D01*
X209697069Y-78746277D01*
X209611769Y-78952209D01*
X209611766Y-78952219D01*
X209554073Y-79167534D01*
X209554070Y-79167547D01*
X209524977Y-79388533D01*
X209524976Y-79388549D01*
X205340500Y-79388549D01*
X205340500Y-79388543D01*
X205311404Y-79167537D01*
X205253710Y-78952219D01*
X205168405Y-78746274D01*
X205056948Y-78553226D01*
X204921247Y-78376376D01*
X204921242Y-78376370D01*
X204763629Y-78218757D01*
X204763622Y-78218751D01*
X204586782Y-78083058D01*
X204586780Y-78083057D01*
X204586774Y-78083052D01*
X204393726Y-77971595D01*
X204393722Y-77971593D01*
X204187790Y-77886293D01*
X204187783Y-77886291D01*
X204187781Y-77886290D01*
X203972463Y-77828596D01*
X203972457Y-77828595D01*
X203972452Y-77828594D01*
X203751466Y-77799501D01*
X203751463Y-77799500D01*
X203751457Y-77799500D01*
X203528543Y-77799500D01*
X203528537Y-77799500D01*
X203528533Y-77799501D01*
X203307547Y-77828594D01*
X203307540Y-77828595D01*
X203307537Y-77828596D01*
X203092219Y-77886290D01*
X203092209Y-77886293D01*
X202886277Y-77971593D01*
X202886273Y-77971595D01*
X202693226Y-78083052D01*
X202693217Y-78083058D01*
X202516377Y-78218751D01*
X202516370Y-78218757D01*
X202358757Y-78376370D01*
X202358751Y-78376377D01*
X202223058Y-78553217D01*
X202223052Y-78553226D01*
X202111595Y-78746273D01*
X202111593Y-78746277D01*
X202026293Y-78952209D01*
X202026290Y-78952219D01*
X201968597Y-79167534D01*
X201968594Y-79167547D01*
X201939501Y-79388533D01*
X201939500Y-79388549D01*
X195420500Y-79388549D01*
X195420500Y-79388543D01*
X195391404Y-79167537D01*
X195333710Y-78952219D01*
X195248405Y-78746274D01*
X195136948Y-78553226D01*
X195001247Y-78376376D01*
X195001242Y-78376370D01*
X194843629Y-78218757D01*
X194843622Y-78218751D01*
X194666782Y-78083058D01*
X194666780Y-78083057D01*
X194666774Y-78083052D01*
X194473726Y-77971595D01*
X194473722Y-77971593D01*
X194267790Y-77886293D01*
X194267783Y-77886291D01*
X194267781Y-77886290D01*
X194052463Y-77828596D01*
X194052457Y-77828595D01*
X194052452Y-77828594D01*
X193831466Y-77799501D01*
X193831463Y-77799500D01*
X193831457Y-77799500D01*
X193608543Y-77799500D01*
X193608537Y-77799500D01*
X193608533Y-77799501D01*
X193387547Y-77828594D01*
X193387540Y-77828595D01*
X193387537Y-77828596D01*
X193172219Y-77886290D01*
X193172209Y-77886293D01*
X192966277Y-77971593D01*
X192966273Y-77971595D01*
X192773226Y-78083052D01*
X192773217Y-78083058D01*
X192596377Y-78218751D01*
X192596370Y-78218757D01*
X192438757Y-78376370D01*
X192438751Y-78376377D01*
X192303058Y-78553217D01*
X192303052Y-78553226D01*
X192191595Y-78746273D01*
X192191593Y-78746277D01*
X192106293Y-78952209D01*
X192106290Y-78952219D01*
X192048597Y-79167534D01*
X192048594Y-79167547D01*
X192019501Y-79388533D01*
X192019500Y-79388549D01*
X187840500Y-79388549D01*
X187840500Y-79388543D01*
X187811404Y-79167537D01*
X187753710Y-78952219D01*
X187668405Y-78746274D01*
X187556948Y-78553226D01*
X187421247Y-78376376D01*
X187421242Y-78376370D01*
X187263629Y-78218757D01*
X187263622Y-78218751D01*
X187086782Y-78083058D01*
X187086780Y-78083057D01*
X187086774Y-78083052D01*
X186893726Y-77971595D01*
X186893722Y-77971593D01*
X186687790Y-77886293D01*
X186687783Y-77886291D01*
X186687781Y-77886290D01*
X186472463Y-77828596D01*
X186472457Y-77828595D01*
X186472452Y-77828594D01*
X186251466Y-77799501D01*
X186251463Y-77799500D01*
X186251457Y-77799500D01*
X186028543Y-77799500D01*
X186028537Y-77799500D01*
X186028533Y-77799501D01*
X185807547Y-77828594D01*
X185807540Y-77828595D01*
X185807537Y-77828596D01*
X185592219Y-77886290D01*
X185592209Y-77886293D01*
X185386277Y-77971593D01*
X185386273Y-77971595D01*
X185193226Y-78083052D01*
X185193217Y-78083058D01*
X185016377Y-78218751D01*
X185016370Y-78218757D01*
X184858757Y-78376370D01*
X184858751Y-78376377D01*
X184723058Y-78553217D01*
X184723052Y-78553226D01*
X184611595Y-78746273D01*
X184611593Y-78746277D01*
X184526293Y-78952209D01*
X184526290Y-78952219D01*
X184468597Y-79167534D01*
X184468594Y-79167547D01*
X184439501Y-79388533D01*
X184439500Y-79388549D01*
X177920500Y-79388549D01*
X177920500Y-79388543D01*
X177891404Y-79167537D01*
X177833710Y-78952219D01*
X177748405Y-78746274D01*
X177636948Y-78553226D01*
X177501247Y-78376376D01*
X177501242Y-78376370D01*
X177343629Y-78218757D01*
X177343622Y-78218751D01*
X177166782Y-78083058D01*
X177166780Y-78083057D01*
X177166774Y-78083052D01*
X176973726Y-77971595D01*
X176973722Y-77971593D01*
X176767790Y-77886293D01*
X176767783Y-77886291D01*
X176767781Y-77886290D01*
X176552463Y-77828596D01*
X176552457Y-77828595D01*
X176552452Y-77828594D01*
X176331466Y-77799501D01*
X176331463Y-77799500D01*
X176331457Y-77799500D01*
X176108543Y-77799500D01*
X176108537Y-77799500D01*
X176108533Y-77799501D01*
X175887547Y-77828594D01*
X175887540Y-77828595D01*
X175887537Y-77828596D01*
X175672219Y-77886290D01*
X175672209Y-77886293D01*
X175466277Y-77971593D01*
X175466273Y-77971595D01*
X175273226Y-78083052D01*
X175273217Y-78083058D01*
X175096377Y-78218751D01*
X175096370Y-78218757D01*
X174938757Y-78376370D01*
X174938751Y-78376377D01*
X174803058Y-78553217D01*
X174803052Y-78553226D01*
X174691595Y-78746273D01*
X174691593Y-78746277D01*
X174606293Y-78952209D01*
X174606290Y-78952219D01*
X174548597Y-79167534D01*
X174548594Y-79167547D01*
X174519501Y-79388533D01*
X174519500Y-79388549D01*
X170340500Y-79388549D01*
X170340500Y-79388543D01*
X170311404Y-79167537D01*
X170253710Y-78952219D01*
X170168405Y-78746274D01*
X170056948Y-78553226D01*
X169921247Y-78376376D01*
X169921242Y-78376370D01*
X169763629Y-78218757D01*
X169763622Y-78218751D01*
X169586782Y-78083058D01*
X169586780Y-78083057D01*
X169586774Y-78083052D01*
X169393726Y-77971595D01*
X169393722Y-77971593D01*
X169187790Y-77886293D01*
X169187783Y-77886291D01*
X169187781Y-77886290D01*
X168972463Y-77828596D01*
X168972457Y-77828595D01*
X168972452Y-77828594D01*
X168751466Y-77799501D01*
X168751463Y-77799500D01*
X168751457Y-77799500D01*
X168528543Y-77799500D01*
X168528537Y-77799500D01*
X168528533Y-77799501D01*
X168307547Y-77828594D01*
X168307540Y-77828595D01*
X168307537Y-77828596D01*
X168092219Y-77886290D01*
X168092209Y-77886293D01*
X167886277Y-77971593D01*
X167886273Y-77971595D01*
X167693226Y-78083052D01*
X167693217Y-78083058D01*
X167516377Y-78218751D01*
X167516370Y-78218757D01*
X167358757Y-78376370D01*
X167358751Y-78376377D01*
X167223058Y-78553217D01*
X167223052Y-78553226D01*
X167111595Y-78746273D01*
X167111593Y-78746277D01*
X167026293Y-78952209D01*
X167026290Y-78952219D01*
X166968597Y-79167534D01*
X166968594Y-79167547D01*
X166939501Y-79388533D01*
X166939500Y-79388549D01*
X160420500Y-79388549D01*
X160420500Y-79388543D01*
X160391404Y-79167537D01*
X160333710Y-78952219D01*
X160248405Y-78746274D01*
X160136948Y-78553226D01*
X160001247Y-78376376D01*
X160001242Y-78376370D01*
X159843629Y-78218757D01*
X159843622Y-78218751D01*
X159666782Y-78083058D01*
X159666780Y-78083057D01*
X159666774Y-78083052D01*
X159473726Y-77971595D01*
X159473722Y-77971593D01*
X159267790Y-77886293D01*
X159267783Y-77886291D01*
X159267781Y-77886290D01*
X159052463Y-77828596D01*
X159052457Y-77828595D01*
X159052452Y-77828594D01*
X158831466Y-77799501D01*
X158831463Y-77799500D01*
X158831457Y-77799500D01*
X158608543Y-77799500D01*
X158608537Y-77799500D01*
X158608533Y-77799501D01*
X158387547Y-77828594D01*
X158387540Y-77828595D01*
X158387537Y-77828596D01*
X158172219Y-77886290D01*
X158172209Y-77886293D01*
X157966277Y-77971593D01*
X157966273Y-77971595D01*
X157773226Y-78083052D01*
X157773217Y-78083058D01*
X157596377Y-78218751D01*
X157596370Y-78218757D01*
X157438757Y-78376370D01*
X157438751Y-78376377D01*
X157303058Y-78553217D01*
X157303052Y-78553226D01*
X157191595Y-78746273D01*
X157191593Y-78746277D01*
X157106293Y-78952209D01*
X157106290Y-78952219D01*
X157048597Y-79167534D01*
X157048594Y-79167547D01*
X157019501Y-79388533D01*
X157019500Y-79388549D01*
X152840500Y-79388549D01*
X152840500Y-79388543D01*
X152811404Y-79167537D01*
X152753710Y-78952219D01*
X152668405Y-78746274D01*
X152556948Y-78553226D01*
X152421247Y-78376376D01*
X152421242Y-78376370D01*
X152263629Y-78218757D01*
X152263622Y-78218751D01*
X152086782Y-78083058D01*
X152086780Y-78083057D01*
X152086774Y-78083052D01*
X151893726Y-77971595D01*
X151893722Y-77971593D01*
X151687790Y-77886293D01*
X151687783Y-77886291D01*
X151687781Y-77886290D01*
X151472463Y-77828596D01*
X151472457Y-77828595D01*
X151472452Y-77828594D01*
X151251466Y-77799501D01*
X151251463Y-77799500D01*
X151251457Y-77799500D01*
X151028543Y-77799500D01*
X151028537Y-77799500D01*
X151028533Y-77799501D01*
X150807547Y-77828594D01*
X150807540Y-77828595D01*
X150807537Y-77828596D01*
X150592219Y-77886290D01*
X150592209Y-77886293D01*
X150386277Y-77971593D01*
X150386273Y-77971595D01*
X150193226Y-78083052D01*
X150193217Y-78083058D01*
X150016377Y-78218751D01*
X150016370Y-78218757D01*
X149858757Y-78376370D01*
X149858751Y-78376377D01*
X149723058Y-78553217D01*
X149723052Y-78553226D01*
X149611595Y-78746273D01*
X149611593Y-78746277D01*
X149526293Y-78952209D01*
X149526290Y-78952219D01*
X149468597Y-79167534D01*
X149468594Y-79167547D01*
X149439501Y-79388533D01*
X149439500Y-79388549D01*
X142920500Y-79388549D01*
X142920500Y-79388543D01*
X142891404Y-79167537D01*
X142833710Y-78952219D01*
X142748405Y-78746274D01*
X142636948Y-78553226D01*
X142501247Y-78376376D01*
X142501242Y-78376370D01*
X142343629Y-78218757D01*
X142343622Y-78218751D01*
X142166782Y-78083058D01*
X142166780Y-78083057D01*
X142166774Y-78083052D01*
X141973726Y-77971595D01*
X141973722Y-77971593D01*
X141767790Y-77886293D01*
X141767783Y-77886291D01*
X141767781Y-77886290D01*
X141552463Y-77828596D01*
X141552457Y-77828595D01*
X141552452Y-77828594D01*
X141331466Y-77799501D01*
X141331463Y-77799500D01*
X141331457Y-77799500D01*
X141108543Y-77799500D01*
X141108537Y-77799500D01*
X141108533Y-77799501D01*
X140887547Y-77828594D01*
X140887540Y-77828595D01*
X140887537Y-77828596D01*
X140672219Y-77886290D01*
X140672209Y-77886293D01*
X140466277Y-77971593D01*
X140466273Y-77971595D01*
X140273226Y-78083052D01*
X140273217Y-78083058D01*
X140096377Y-78218751D01*
X140096370Y-78218757D01*
X139938757Y-78376370D01*
X139938751Y-78376377D01*
X139803058Y-78553217D01*
X139803052Y-78553226D01*
X139691595Y-78746273D01*
X139691593Y-78746277D01*
X139606293Y-78952209D01*
X139606290Y-78952219D01*
X139548597Y-79167534D01*
X139548594Y-79167547D01*
X139519501Y-79388533D01*
X139519500Y-79388549D01*
X135340500Y-79388549D01*
X135340500Y-79388543D01*
X135311404Y-79167537D01*
X135253710Y-78952219D01*
X135168405Y-78746274D01*
X135056948Y-78553226D01*
X134921247Y-78376376D01*
X134921242Y-78376370D01*
X134763629Y-78218757D01*
X134763622Y-78218751D01*
X134586782Y-78083058D01*
X134586780Y-78083057D01*
X134586774Y-78083052D01*
X134393726Y-77971595D01*
X134393722Y-77971593D01*
X134187790Y-77886293D01*
X134187783Y-77886291D01*
X134187781Y-77886290D01*
X133972463Y-77828596D01*
X133972457Y-77828595D01*
X133972452Y-77828594D01*
X133751466Y-77799501D01*
X133751463Y-77799500D01*
X133751457Y-77799500D01*
X133528543Y-77799500D01*
X133528537Y-77799500D01*
X133528533Y-77799501D01*
X133307547Y-77828594D01*
X133307540Y-77828595D01*
X133307537Y-77828596D01*
X133092219Y-77886290D01*
X133092209Y-77886293D01*
X132886277Y-77971593D01*
X132886273Y-77971595D01*
X132693226Y-78083052D01*
X132693217Y-78083058D01*
X132516377Y-78218751D01*
X132516370Y-78218757D01*
X132358757Y-78376370D01*
X132358751Y-78376377D01*
X132223058Y-78553217D01*
X132223052Y-78553226D01*
X132111595Y-78746273D01*
X132111593Y-78746277D01*
X132026293Y-78952209D01*
X132026290Y-78952219D01*
X131968597Y-79167534D01*
X131968594Y-79167547D01*
X131939501Y-79388533D01*
X131939500Y-79388549D01*
X125420500Y-79388549D01*
X125420500Y-79388543D01*
X125391404Y-79167537D01*
X125333710Y-78952219D01*
X125248405Y-78746274D01*
X125136948Y-78553226D01*
X125001247Y-78376376D01*
X125001242Y-78376370D01*
X124843629Y-78218757D01*
X124843622Y-78218751D01*
X124666782Y-78083058D01*
X124666780Y-78083057D01*
X124666774Y-78083052D01*
X124473726Y-77971595D01*
X124473722Y-77971593D01*
X124267790Y-77886293D01*
X124267783Y-77886291D01*
X124267781Y-77886290D01*
X124052463Y-77828596D01*
X124052457Y-77828595D01*
X124052452Y-77828594D01*
X123831466Y-77799501D01*
X123831463Y-77799500D01*
X123831457Y-77799500D01*
X123608543Y-77799500D01*
X123608537Y-77799500D01*
X123608533Y-77799501D01*
X123387547Y-77828594D01*
X123387540Y-77828595D01*
X123387537Y-77828596D01*
X123172219Y-77886290D01*
X123172209Y-77886293D01*
X122966277Y-77971593D01*
X122966273Y-77971595D01*
X122773226Y-78083052D01*
X122773217Y-78083058D01*
X122596377Y-78218751D01*
X122596370Y-78218757D01*
X122438757Y-78376370D01*
X122438751Y-78376377D01*
X122303058Y-78553217D01*
X122303052Y-78553226D01*
X122191595Y-78746273D01*
X122191593Y-78746277D01*
X122106293Y-78952209D01*
X122106290Y-78952219D01*
X122048597Y-79167534D01*
X122048594Y-79167547D01*
X122019501Y-79388533D01*
X122019500Y-79388549D01*
X117840500Y-79388549D01*
X117840500Y-79388543D01*
X117811404Y-79167537D01*
X117753710Y-78952219D01*
X117668405Y-78746274D01*
X117556948Y-78553226D01*
X117421247Y-78376376D01*
X117421242Y-78376370D01*
X117263629Y-78218757D01*
X117263622Y-78218751D01*
X117086782Y-78083058D01*
X117086780Y-78083057D01*
X117086774Y-78083052D01*
X116893726Y-77971595D01*
X116893722Y-77971593D01*
X116687790Y-77886293D01*
X116687783Y-77886291D01*
X116687781Y-77886290D01*
X116472463Y-77828596D01*
X116472457Y-77828595D01*
X116472452Y-77828594D01*
X116251466Y-77799501D01*
X116251463Y-77799500D01*
X116251457Y-77799500D01*
X116028543Y-77799500D01*
X116028537Y-77799500D01*
X116028533Y-77799501D01*
X115807547Y-77828594D01*
X115807540Y-77828595D01*
X115807537Y-77828596D01*
X115592219Y-77886290D01*
X115592209Y-77886293D01*
X115386277Y-77971593D01*
X115386273Y-77971595D01*
X115193226Y-78083052D01*
X115193217Y-78083058D01*
X115016377Y-78218751D01*
X115016370Y-78218757D01*
X114858757Y-78376370D01*
X114858751Y-78376377D01*
X114723058Y-78553217D01*
X114723052Y-78553226D01*
X114611595Y-78746273D01*
X114611593Y-78746277D01*
X114526293Y-78952209D01*
X114526290Y-78952219D01*
X114468597Y-79167534D01*
X114468594Y-79167547D01*
X114439501Y-79388533D01*
X114439500Y-79388549D01*
X107920500Y-79388549D01*
X107920500Y-79388543D01*
X107891404Y-79167537D01*
X107833710Y-78952219D01*
X107748405Y-78746274D01*
X107636948Y-78553226D01*
X107501247Y-78376376D01*
X107501242Y-78376370D01*
X107343629Y-78218757D01*
X107343622Y-78218751D01*
X107166782Y-78083058D01*
X107166780Y-78083057D01*
X107166774Y-78083052D01*
X106973726Y-77971595D01*
X106973722Y-77971593D01*
X106767790Y-77886293D01*
X106767783Y-77886291D01*
X106767781Y-77886290D01*
X106552463Y-77828596D01*
X106552457Y-77828595D01*
X106552452Y-77828594D01*
X106331466Y-77799501D01*
X106331463Y-77799500D01*
X106331457Y-77799500D01*
X106108543Y-77799500D01*
X106108537Y-77799500D01*
X106108533Y-77799501D01*
X105887547Y-77828594D01*
X105887540Y-77828595D01*
X105887537Y-77828596D01*
X105672219Y-77886290D01*
X105672209Y-77886293D01*
X105466277Y-77971593D01*
X105466273Y-77971595D01*
X105273226Y-78083052D01*
X105273217Y-78083058D01*
X105096377Y-78218751D01*
X105096370Y-78218757D01*
X104938757Y-78376370D01*
X104938751Y-78376377D01*
X104803058Y-78553217D01*
X104803052Y-78553226D01*
X104691595Y-78746273D01*
X104691593Y-78746277D01*
X104606293Y-78952209D01*
X104606290Y-78952219D01*
X104548597Y-79167534D01*
X104548594Y-79167547D01*
X104519501Y-79388533D01*
X104519500Y-79388549D01*
X96304630Y-79388549D01*
X96360538Y-79311599D01*
X96360538Y-79311598D01*
X96367890Y-79301479D01*
X96477167Y-79087012D01*
X96551547Y-78858092D01*
X96589201Y-78620354D01*
X96589201Y-78379652D01*
X96551547Y-78141914D01*
X96514357Y-78027454D01*
X96477168Y-77912996D01*
X96477167Y-77912993D01*
X96419339Y-77799501D01*
X96367890Y-77698527D01*
X96349815Y-77673649D01*
X96226415Y-77503802D01*
X96226411Y-77503797D01*
X96056206Y-77333592D01*
X96056201Y-77333588D01*
X95861480Y-77192116D01*
X95861479Y-77192115D01*
X95861477Y-77192114D01*
X95792767Y-77157104D01*
X95647010Y-77082836D01*
X95647007Y-77082835D01*
X95418091Y-77008457D01*
X95299221Y-76989630D01*
X95180352Y-76970803D01*
X94939650Y-76970803D01*
X94860404Y-76983354D01*
X94701910Y-77008457D01*
X94472994Y-77082835D01*
X94472991Y-77082836D01*
X94258521Y-77192116D01*
X94063800Y-77333588D01*
X94063795Y-77333592D01*
X93893590Y-77503797D01*
X93893586Y-77503802D01*
X93752114Y-77698523D01*
X93642834Y-77912993D01*
X93642833Y-77912996D01*
X93568455Y-78141912D01*
X93530801Y-78379652D01*
X86400500Y-78379652D01*
X86400500Y-74879651D01*
X90030799Y-74879651D01*
X90030799Y-75120352D01*
X90068453Y-75358092D01*
X90142831Y-75587008D01*
X90142832Y-75587011D01*
X90252112Y-75801481D01*
X90393584Y-75996202D01*
X90393588Y-75996207D01*
X90563793Y-76166412D01*
X90563798Y-76166416D01*
X90733645Y-76289816D01*
X90758523Y-76307891D01*
X90898721Y-76379326D01*
X90972989Y-76417168D01*
X90972992Y-76417169D01*
X91087450Y-76454358D01*
X91201910Y-76491548D01*
X91439648Y-76529202D01*
X91439649Y-76529202D01*
X91680349Y-76529202D01*
X91680350Y-76529202D01*
X91918088Y-76491548D01*
X92147008Y-76417168D01*
X92361475Y-76307891D01*
X92556206Y-76166411D01*
X92726408Y-75996209D01*
X92867888Y-75801478D01*
X92977165Y-75587011D01*
X93051545Y-75358091D01*
X93089199Y-75120353D01*
X93089199Y-74879651D01*
X93530801Y-74879651D01*
X93530801Y-75120352D01*
X93568455Y-75358092D01*
X93642833Y-75587008D01*
X93642834Y-75587011D01*
X93752114Y-75801481D01*
X93893586Y-75996202D01*
X93893590Y-75996207D01*
X94063795Y-76166412D01*
X94063800Y-76166416D01*
X94233647Y-76289816D01*
X94258525Y-76307891D01*
X94398723Y-76379326D01*
X94472991Y-76417168D01*
X94472994Y-76417169D01*
X94587452Y-76454358D01*
X94701912Y-76491548D01*
X94939650Y-76529202D01*
X94939651Y-76529202D01*
X95180351Y-76529202D01*
X95180352Y-76529202D01*
X95418090Y-76491548D01*
X95647010Y-76417168D01*
X95861477Y-76307891D01*
X96056208Y-76166411D01*
X96226410Y-75996209D01*
X96367890Y-75801478D01*
X96477167Y-75587011D01*
X96551547Y-75358091D01*
X96589201Y-75120353D01*
X96589201Y-74879651D01*
X96551547Y-74641913D01*
X96477167Y-74412993D01*
X96477167Y-74412992D01*
X96439325Y-74338724D01*
X96367890Y-74198526D01*
X96349815Y-74173648D01*
X96226415Y-74003801D01*
X96226411Y-74003796D01*
X96056206Y-73833591D01*
X96056201Y-73833587D01*
X95861480Y-73692115D01*
X95861479Y-73692114D01*
X95861477Y-73692113D01*
X95792767Y-73657103D01*
X95647010Y-73582835D01*
X95647007Y-73582834D01*
X95418091Y-73508456D01*
X95299221Y-73489629D01*
X95180352Y-73470802D01*
X94939650Y-73470802D01*
X94860404Y-73483353D01*
X94701910Y-73508456D01*
X94472994Y-73582834D01*
X94472991Y-73582835D01*
X94258521Y-73692115D01*
X94063800Y-73833587D01*
X94063795Y-73833591D01*
X93893590Y-74003796D01*
X93893586Y-74003801D01*
X93752114Y-74198522D01*
X93642834Y-74412992D01*
X93642833Y-74412995D01*
X93568455Y-74641911D01*
X93530801Y-74879651D01*
X93089199Y-74879651D01*
X93051545Y-74641913D01*
X92977165Y-74412993D01*
X92977165Y-74412992D01*
X92939323Y-74338724D01*
X92867888Y-74198526D01*
X92849813Y-74173648D01*
X92726413Y-74003801D01*
X92726409Y-74003796D01*
X92556204Y-73833591D01*
X92556199Y-73833587D01*
X92361478Y-73692115D01*
X92361477Y-73692114D01*
X92361475Y-73692113D01*
X92292765Y-73657103D01*
X92147008Y-73582835D01*
X92147005Y-73582834D01*
X91918089Y-73508456D01*
X91799219Y-73489629D01*
X91680350Y-73470802D01*
X91439648Y-73470802D01*
X91360402Y-73483353D01*
X91201908Y-73508456D01*
X90972992Y-73582834D01*
X90972989Y-73582835D01*
X90758519Y-73692115D01*
X90563798Y-73833587D01*
X90563793Y-73833591D01*
X90393588Y-74003796D01*
X90393584Y-74003801D01*
X90252112Y-74198522D01*
X90142832Y-74412992D01*
X90142831Y-74412995D01*
X90068453Y-74641911D01*
X90030799Y-74879651D01*
X86400500Y-74879651D01*
X86400500Y-71379650D01*
X90030799Y-71379650D01*
X90030799Y-71620351D01*
X90068453Y-71858091D01*
X90142831Y-72087007D01*
X90142832Y-72087010D01*
X90252112Y-72301480D01*
X90393584Y-72496201D01*
X90393588Y-72496206D01*
X90563793Y-72666411D01*
X90563798Y-72666415D01*
X90733645Y-72789815D01*
X90758523Y-72807890D01*
X90898721Y-72879325D01*
X90972989Y-72917167D01*
X90972992Y-72917168D01*
X91087450Y-72954357D01*
X91201910Y-72991547D01*
X91439648Y-73029201D01*
X91439649Y-73029201D01*
X91680349Y-73029201D01*
X91680350Y-73029201D01*
X91918088Y-72991547D01*
X92147008Y-72917167D01*
X92361475Y-72807890D01*
X92556206Y-72666410D01*
X92726408Y-72496208D01*
X92867888Y-72301477D01*
X92977165Y-72087010D01*
X93051545Y-71858090D01*
X93089199Y-71620352D01*
X93089199Y-71379650D01*
X93530801Y-71379650D01*
X93530801Y-71620351D01*
X93568455Y-71858091D01*
X93642833Y-72087007D01*
X93642834Y-72087010D01*
X93752114Y-72301480D01*
X93893586Y-72496201D01*
X93893590Y-72496206D01*
X94063795Y-72666411D01*
X94063800Y-72666415D01*
X94233647Y-72789815D01*
X94258525Y-72807890D01*
X94398723Y-72879325D01*
X94472991Y-72917167D01*
X94472994Y-72917168D01*
X94587452Y-72954357D01*
X94701912Y-72991547D01*
X94939650Y-73029201D01*
X94939651Y-73029201D01*
X95180351Y-73029201D01*
X95180352Y-73029201D01*
X95418090Y-72991547D01*
X95647010Y-72917167D01*
X95861477Y-72807890D01*
X96056208Y-72666410D01*
X96226410Y-72496208D01*
X96367890Y-72301477D01*
X96477167Y-72087010D01*
X96551547Y-71858090D01*
X96584167Y-71652135D01*
X106719500Y-71652135D01*
X106719500Y-74747870D01*
X106719501Y-74747876D01*
X106725908Y-74807483D01*
X106776202Y-74942328D01*
X106776206Y-74942335D01*
X106862452Y-75057544D01*
X106862455Y-75057547D01*
X106977664Y-75143793D01*
X106977671Y-75143797D01*
X107112517Y-75194091D01*
X107112516Y-75194091D01*
X107119444Y-75194835D01*
X107172127Y-75200500D01*
X110267872Y-75200499D01*
X110327483Y-75194091D01*
X110462331Y-75143796D01*
X110577546Y-75057546D01*
X110663796Y-74942331D01*
X110714091Y-74807483D01*
X110720500Y-74747873D01*
X110720499Y-71652135D01*
X124219500Y-71652135D01*
X124219500Y-74747870D01*
X124219501Y-74747876D01*
X124225908Y-74807483D01*
X124276202Y-74942328D01*
X124276206Y-74942335D01*
X124362452Y-75057544D01*
X124362455Y-75057547D01*
X124477664Y-75143793D01*
X124477671Y-75143797D01*
X124612517Y-75194091D01*
X124612516Y-75194091D01*
X124619444Y-75194835D01*
X124672127Y-75200500D01*
X127767872Y-75200499D01*
X127827483Y-75194091D01*
X127962331Y-75143796D01*
X128077546Y-75057546D01*
X128163796Y-74942331D01*
X128214091Y-74807483D01*
X128220500Y-74747873D01*
X128220499Y-71652135D01*
X141719500Y-71652135D01*
X141719500Y-74747870D01*
X141719501Y-74747876D01*
X141725908Y-74807483D01*
X141776202Y-74942328D01*
X141776206Y-74942335D01*
X141862452Y-75057544D01*
X141862455Y-75057547D01*
X141977664Y-75143793D01*
X141977671Y-75143797D01*
X142112517Y-75194091D01*
X142112516Y-75194091D01*
X142119444Y-75194835D01*
X142172127Y-75200500D01*
X145267872Y-75200499D01*
X145327483Y-75194091D01*
X145462331Y-75143796D01*
X145577546Y-75057546D01*
X145663796Y-74942331D01*
X145714091Y-74807483D01*
X145720500Y-74747873D01*
X145720499Y-71652135D01*
X159219500Y-71652135D01*
X159219500Y-74747870D01*
X159219501Y-74747876D01*
X159225908Y-74807483D01*
X159276202Y-74942328D01*
X159276206Y-74942335D01*
X159362452Y-75057544D01*
X159362455Y-75057547D01*
X159477664Y-75143793D01*
X159477671Y-75143797D01*
X159612517Y-75194091D01*
X159612516Y-75194091D01*
X159619444Y-75194835D01*
X159672127Y-75200500D01*
X162767872Y-75200499D01*
X162827483Y-75194091D01*
X162962331Y-75143796D01*
X163077546Y-75057546D01*
X163163796Y-74942331D01*
X163214091Y-74807483D01*
X163220500Y-74747873D01*
X163220499Y-71652135D01*
X176719500Y-71652135D01*
X176719500Y-74747870D01*
X176719501Y-74747876D01*
X176725908Y-74807483D01*
X176776202Y-74942328D01*
X176776206Y-74942335D01*
X176862452Y-75057544D01*
X176862455Y-75057547D01*
X176977664Y-75143793D01*
X176977671Y-75143797D01*
X177112517Y-75194091D01*
X177112516Y-75194091D01*
X177119444Y-75194835D01*
X177172127Y-75200500D01*
X180267872Y-75200499D01*
X180327483Y-75194091D01*
X180462331Y-75143796D01*
X180577546Y-75057546D01*
X180663796Y-74942331D01*
X180714091Y-74807483D01*
X180720500Y-74747873D01*
X180720499Y-71652135D01*
X194219500Y-71652135D01*
X194219500Y-74747870D01*
X194219501Y-74747876D01*
X194225908Y-74807483D01*
X194276202Y-74942328D01*
X194276206Y-74942335D01*
X194362452Y-75057544D01*
X194362455Y-75057547D01*
X194477664Y-75143793D01*
X194477671Y-75143797D01*
X194612517Y-75194091D01*
X194612516Y-75194091D01*
X194619444Y-75194835D01*
X194672127Y-75200500D01*
X197767872Y-75200499D01*
X197827483Y-75194091D01*
X197962331Y-75143796D01*
X198077546Y-75057546D01*
X198163796Y-74942331D01*
X198214091Y-74807483D01*
X198220500Y-74747873D01*
X198220499Y-71652135D01*
X211684976Y-71652135D01*
X211684976Y-74747870D01*
X211684977Y-74747876D01*
X211691384Y-74807483D01*
X211741678Y-74942328D01*
X211741682Y-74942335D01*
X211827928Y-75057544D01*
X211827931Y-75057547D01*
X211943140Y-75143793D01*
X211943147Y-75143797D01*
X212077993Y-75194091D01*
X212077992Y-75194091D01*
X212084920Y-75194835D01*
X212137603Y-75200500D01*
X215233348Y-75200499D01*
X215292959Y-75194091D01*
X215427807Y-75143796D01*
X215543022Y-75057546D01*
X215629272Y-74942331D01*
X215679567Y-74807483D01*
X215685976Y-74747873D01*
X215685975Y-71652128D01*
X215679567Y-71592517D01*
X215629272Y-71457669D01*
X215629271Y-71457668D01*
X215629269Y-71457664D01*
X215543023Y-71342455D01*
X215543020Y-71342452D01*
X215427811Y-71256206D01*
X215427804Y-71256202D01*
X215292958Y-71205908D01*
X215292959Y-71205908D01*
X215233359Y-71199501D01*
X215233357Y-71199500D01*
X215233349Y-71199500D01*
X215233340Y-71199500D01*
X212137605Y-71199500D01*
X212137599Y-71199501D01*
X212077992Y-71205908D01*
X211943147Y-71256202D01*
X211943140Y-71256206D01*
X211827931Y-71342452D01*
X211827928Y-71342455D01*
X211741682Y-71457664D01*
X211741678Y-71457671D01*
X211691384Y-71592517D01*
X211684977Y-71652116D01*
X211684977Y-71652123D01*
X211684976Y-71652135D01*
X198220499Y-71652135D01*
X198220499Y-71652128D01*
X198214091Y-71592517D01*
X198163796Y-71457669D01*
X198163795Y-71457668D01*
X198163793Y-71457664D01*
X198077547Y-71342455D01*
X198077544Y-71342452D01*
X197962335Y-71256206D01*
X197962328Y-71256202D01*
X197827482Y-71205908D01*
X197827483Y-71205908D01*
X197767883Y-71199501D01*
X197767881Y-71199500D01*
X197767873Y-71199500D01*
X197767864Y-71199500D01*
X194672129Y-71199500D01*
X194672123Y-71199501D01*
X194612516Y-71205908D01*
X194477671Y-71256202D01*
X194477664Y-71256206D01*
X194362455Y-71342452D01*
X194362452Y-71342455D01*
X194276206Y-71457664D01*
X194276202Y-71457671D01*
X194225908Y-71592517D01*
X194219501Y-71652116D01*
X194219501Y-71652123D01*
X194219500Y-71652135D01*
X180720499Y-71652135D01*
X180720499Y-71652128D01*
X180714091Y-71592517D01*
X180663796Y-71457669D01*
X180663795Y-71457668D01*
X180663793Y-71457664D01*
X180577547Y-71342455D01*
X180577544Y-71342452D01*
X180462335Y-71256206D01*
X180462328Y-71256202D01*
X180327482Y-71205908D01*
X180327483Y-71205908D01*
X180267883Y-71199501D01*
X180267881Y-71199500D01*
X180267873Y-71199500D01*
X180267864Y-71199500D01*
X177172129Y-71199500D01*
X177172123Y-71199501D01*
X177112516Y-71205908D01*
X176977671Y-71256202D01*
X176977664Y-71256206D01*
X176862455Y-71342452D01*
X176862452Y-71342455D01*
X176776206Y-71457664D01*
X176776202Y-71457671D01*
X176725908Y-71592517D01*
X176719501Y-71652116D01*
X176719501Y-71652123D01*
X176719500Y-71652135D01*
X163220499Y-71652135D01*
X163220499Y-71652128D01*
X163214091Y-71592517D01*
X163163796Y-71457669D01*
X163163795Y-71457668D01*
X163163793Y-71457664D01*
X163077547Y-71342455D01*
X163077544Y-71342452D01*
X162962335Y-71256206D01*
X162962328Y-71256202D01*
X162827482Y-71205908D01*
X162827483Y-71205908D01*
X162767883Y-71199501D01*
X162767881Y-71199500D01*
X162767873Y-71199500D01*
X162767864Y-71199500D01*
X159672129Y-71199500D01*
X159672123Y-71199501D01*
X159612516Y-71205908D01*
X159477671Y-71256202D01*
X159477664Y-71256206D01*
X159362455Y-71342452D01*
X159362452Y-71342455D01*
X159276206Y-71457664D01*
X159276202Y-71457671D01*
X159225908Y-71592517D01*
X159219501Y-71652116D01*
X159219501Y-71652123D01*
X159219500Y-71652135D01*
X145720499Y-71652135D01*
X145720499Y-71652128D01*
X145714091Y-71592517D01*
X145663796Y-71457669D01*
X145663795Y-71457668D01*
X145663793Y-71457664D01*
X145577547Y-71342455D01*
X145577544Y-71342452D01*
X145462335Y-71256206D01*
X145462328Y-71256202D01*
X145327482Y-71205908D01*
X145327483Y-71205908D01*
X145267883Y-71199501D01*
X145267881Y-71199500D01*
X145267873Y-71199500D01*
X145267864Y-71199500D01*
X142172129Y-71199500D01*
X142172123Y-71199501D01*
X142112516Y-71205908D01*
X141977671Y-71256202D01*
X141977664Y-71256206D01*
X141862455Y-71342452D01*
X141862452Y-71342455D01*
X141776206Y-71457664D01*
X141776202Y-71457671D01*
X141725908Y-71592517D01*
X141719501Y-71652116D01*
X141719501Y-71652123D01*
X141719500Y-71652135D01*
X128220499Y-71652135D01*
X128220499Y-71652128D01*
X128214091Y-71592517D01*
X128163796Y-71457669D01*
X128163795Y-71457668D01*
X128163793Y-71457664D01*
X128077547Y-71342455D01*
X128077544Y-71342452D01*
X127962335Y-71256206D01*
X127962328Y-71256202D01*
X127827482Y-71205908D01*
X127827483Y-71205908D01*
X127767883Y-71199501D01*
X127767881Y-71199500D01*
X127767873Y-71199500D01*
X127767864Y-71199500D01*
X124672129Y-71199500D01*
X124672123Y-71199501D01*
X124612516Y-71205908D01*
X124477671Y-71256202D01*
X124477664Y-71256206D01*
X124362455Y-71342452D01*
X124362452Y-71342455D01*
X124276206Y-71457664D01*
X124276202Y-71457671D01*
X124225908Y-71592517D01*
X124219501Y-71652116D01*
X124219501Y-71652123D01*
X124219500Y-71652135D01*
X110720499Y-71652135D01*
X110720499Y-71652128D01*
X110714091Y-71592517D01*
X110663796Y-71457669D01*
X110663795Y-71457668D01*
X110663793Y-71457664D01*
X110577547Y-71342455D01*
X110577544Y-71342452D01*
X110462335Y-71256206D01*
X110462328Y-71256202D01*
X110327482Y-71205908D01*
X110327483Y-71205908D01*
X110267883Y-71199501D01*
X110267881Y-71199500D01*
X110267873Y-71199500D01*
X110267864Y-71199500D01*
X107172129Y-71199500D01*
X107172123Y-71199501D01*
X107112516Y-71205908D01*
X106977671Y-71256202D01*
X106977664Y-71256206D01*
X106862455Y-71342452D01*
X106862452Y-71342455D01*
X106776206Y-71457664D01*
X106776202Y-71457671D01*
X106725908Y-71592517D01*
X106719501Y-71652116D01*
X106719501Y-71652123D01*
X106719500Y-71652135D01*
X96584167Y-71652135D01*
X96584168Y-71652128D01*
X96587767Y-71629408D01*
X96589201Y-71620349D01*
X96589201Y-71379650D01*
X96569649Y-71256204D01*
X96551547Y-71141912D01*
X96477167Y-70912992D01*
X96477167Y-70912991D01*
X96439325Y-70838723D01*
X96367890Y-70698525D01*
X96349815Y-70673647D01*
X96226415Y-70503800D01*
X96226411Y-70503795D01*
X96056206Y-70333590D01*
X96056201Y-70333586D01*
X95861480Y-70192114D01*
X95861479Y-70192113D01*
X95861477Y-70192112D01*
X95792767Y-70157102D01*
X95647010Y-70082834D01*
X95647007Y-70082833D01*
X95418091Y-70008455D01*
X95299221Y-69989628D01*
X95180352Y-69970801D01*
X94939650Y-69970801D01*
X94860404Y-69983352D01*
X94701910Y-70008455D01*
X94472994Y-70082833D01*
X94472991Y-70082834D01*
X94258521Y-70192114D01*
X94063800Y-70333586D01*
X94063795Y-70333590D01*
X93893590Y-70503795D01*
X93893586Y-70503800D01*
X93752114Y-70698521D01*
X93642834Y-70912991D01*
X93642833Y-70912994D01*
X93568455Y-71141910D01*
X93530801Y-71379650D01*
X93089199Y-71379650D01*
X93051545Y-71141912D01*
X92977165Y-70912992D01*
X92977165Y-70912991D01*
X92939323Y-70838723D01*
X92867888Y-70698525D01*
X92849813Y-70673647D01*
X92726413Y-70503800D01*
X92726409Y-70503795D01*
X92556204Y-70333590D01*
X92556199Y-70333586D01*
X92361478Y-70192114D01*
X92361477Y-70192113D01*
X92361475Y-70192112D01*
X92292765Y-70157102D01*
X92147008Y-70082834D01*
X92147005Y-70082833D01*
X91918089Y-70008455D01*
X91799219Y-69989628D01*
X91680350Y-69970801D01*
X91439648Y-69970801D01*
X91360402Y-69983352D01*
X91201908Y-70008455D01*
X90972992Y-70082833D01*
X90972989Y-70082834D01*
X90758519Y-70192114D01*
X90563798Y-70333586D01*
X90563793Y-70333590D01*
X90393588Y-70503795D01*
X90393584Y-70503800D01*
X90252112Y-70698521D01*
X90142832Y-70912991D01*
X90142831Y-70912994D01*
X90068453Y-71141910D01*
X90030799Y-71379650D01*
X86400500Y-71379650D01*
X86400500Y-64351235D01*
X90330200Y-64351235D01*
X90330200Y-64648764D01*
X90330201Y-64648780D01*
X90369035Y-64943755D01*
X90369036Y-64943760D01*
X90369037Y-64943766D01*
X90369038Y-64943768D01*
X90446046Y-65231168D01*
X90446049Y-65231178D01*
X90559908Y-65506057D01*
X90559913Y-65506068D01*
X90708676Y-65763731D01*
X90708687Y-65763747D01*
X90889811Y-65999792D01*
X90889817Y-65999799D01*
X91100200Y-66210182D01*
X91100206Y-66210187D01*
X91336261Y-66391319D01*
X91336268Y-66391323D01*
X91593931Y-66540086D01*
X91593936Y-66540088D01*
X91593939Y-66540090D01*
X91868831Y-66653954D01*
X92156234Y-66730963D01*
X92451229Y-66769800D01*
X92451236Y-66769800D01*
X92748764Y-66769800D01*
X92748771Y-66769800D01*
X93043766Y-66730963D01*
X93331169Y-66653954D01*
X93606061Y-66540090D01*
X93863739Y-66391319D01*
X94099794Y-66210187D01*
X94310187Y-65999794D01*
X94491319Y-65763739D01*
X94640090Y-65506061D01*
X94753954Y-65231169D01*
X94830963Y-64943766D01*
X94869800Y-64648771D01*
X94869800Y-64351229D01*
X94830963Y-64056234D01*
X94753954Y-63768831D01*
X94640090Y-63493939D01*
X94640088Y-63493936D01*
X94640086Y-63493931D01*
X94491323Y-63236268D01*
X94491319Y-63236261D01*
X94310187Y-63000206D01*
X94310182Y-63000200D01*
X94099799Y-62789817D01*
X94099792Y-62789811D01*
X93863747Y-62608687D01*
X93863745Y-62608685D01*
X93863739Y-62608681D01*
X93863734Y-62608678D01*
X93863731Y-62608676D01*
X93606068Y-62459913D01*
X93606057Y-62459908D01*
X93331178Y-62346049D01*
X93331171Y-62346047D01*
X93331169Y-62346046D01*
X93043766Y-62269037D01*
X93043760Y-62269036D01*
X93043755Y-62269035D01*
X92748780Y-62230201D01*
X92748777Y-62230200D01*
X92748771Y-62230200D01*
X92451229Y-62230200D01*
X92451223Y-62230200D01*
X92451219Y-62230201D01*
X92156244Y-62269035D01*
X92156237Y-62269036D01*
X92156234Y-62269037D01*
X91868831Y-62346046D01*
X91868821Y-62346049D01*
X91593942Y-62459908D01*
X91593931Y-62459913D01*
X91336268Y-62608676D01*
X91336252Y-62608687D01*
X91100207Y-62789811D01*
X91100200Y-62789817D01*
X90889817Y-63000200D01*
X90889811Y-63000207D01*
X90708687Y-63236252D01*
X90708676Y-63236268D01*
X90559913Y-63493931D01*
X90559908Y-63493942D01*
X90446049Y-63768821D01*
X90446046Y-63768831D01*
X90369038Y-64056231D01*
X90369035Y-64056244D01*
X90330201Y-64351219D01*
X90330200Y-64351235D01*
X86400500Y-64351235D01*
X86400500Y-60478711D01*
X102949500Y-60478711D01*
X102949500Y-60721288D01*
X102981161Y-60961785D01*
X103043947Y-61196104D01*
X103136773Y-61420205D01*
X103136776Y-61420212D01*
X103258064Y-61630289D01*
X103258066Y-61630292D01*
X103258067Y-61630293D01*
X103405733Y-61822736D01*
X103405739Y-61822743D01*
X103577256Y-61994260D01*
X103577262Y-61994265D01*
X103769711Y-62141936D01*
X103979788Y-62263224D01*
X104203900Y-62356054D01*
X104438211Y-62418838D01*
X104618586Y-62442584D01*
X104678711Y-62450500D01*
X104678712Y-62450500D01*
X104921289Y-62450500D01*
X104969388Y-62444167D01*
X105161789Y-62418838D01*
X105396100Y-62356054D01*
X105620212Y-62263224D01*
X105830289Y-62141936D01*
X106022738Y-61994265D01*
X106194265Y-61822738D01*
X106341936Y-61630289D01*
X106463224Y-61420212D01*
X106556054Y-61196100D01*
X106618838Y-60961789D01*
X106650500Y-60721288D01*
X106650500Y-60478712D01*
X106650500Y-60478711D01*
X229549500Y-60478711D01*
X229549500Y-60721288D01*
X229581161Y-60961785D01*
X229643947Y-61196104D01*
X229736773Y-61420205D01*
X229736776Y-61420212D01*
X229858064Y-61630289D01*
X229858066Y-61630292D01*
X229858067Y-61630293D01*
X230005733Y-61822736D01*
X230005739Y-61822743D01*
X230177256Y-61994260D01*
X230177262Y-61994265D01*
X230369711Y-62141936D01*
X230579788Y-62263224D01*
X230803900Y-62356054D01*
X231038211Y-62418838D01*
X231218586Y-62442584D01*
X231278711Y-62450500D01*
X231278712Y-62450500D01*
X231521289Y-62450500D01*
X231569388Y-62444167D01*
X231761789Y-62418838D01*
X231996100Y-62356054D01*
X232220212Y-62263224D01*
X232430289Y-62141936D01*
X232622738Y-61994265D01*
X232794265Y-61822738D01*
X232941936Y-61630289D01*
X233063224Y-61420212D01*
X233156054Y-61196100D01*
X233218838Y-60961789D01*
X233250500Y-60721288D01*
X233250500Y-60478712D01*
X233218838Y-60238211D01*
X233156054Y-60003900D01*
X233063224Y-59779788D01*
X232941936Y-59569711D01*
X232794265Y-59377262D01*
X232794260Y-59377256D01*
X232622743Y-59205739D01*
X232622736Y-59205733D01*
X232430293Y-59058067D01*
X232430292Y-59058066D01*
X232430289Y-59058064D01*
X232234912Y-58945263D01*
X232220214Y-58936777D01*
X232220205Y-58936773D01*
X231996104Y-58843947D01*
X231761785Y-58781161D01*
X231521289Y-58749500D01*
X231521288Y-58749500D01*
X231278712Y-58749500D01*
X231278711Y-58749500D01*
X231038214Y-58781161D01*
X230803895Y-58843947D01*
X230579794Y-58936773D01*
X230579785Y-58936777D01*
X230369706Y-59058067D01*
X230177263Y-59205733D01*
X230177256Y-59205739D01*
X230005739Y-59377256D01*
X230005733Y-59377263D01*
X229858067Y-59569706D01*
X229736777Y-59779785D01*
X229736773Y-59779794D01*
X229643947Y-60003895D01*
X229581161Y-60238214D01*
X229549500Y-60478711D01*
X106650500Y-60478711D01*
X106618838Y-60238211D01*
X106556054Y-60003900D01*
X106463224Y-59779788D01*
X106341936Y-59569711D01*
X106194265Y-59377262D01*
X106194260Y-59377256D01*
X106022743Y-59205739D01*
X106022736Y-59205733D01*
X105830293Y-59058067D01*
X105830292Y-59058066D01*
X105830289Y-59058064D01*
X105634912Y-58945263D01*
X105620214Y-58936777D01*
X105620205Y-58936773D01*
X105396104Y-58843947D01*
X105161785Y-58781161D01*
X104921289Y-58749500D01*
X104921288Y-58749500D01*
X104678712Y-58749500D01*
X104678711Y-58749500D01*
X104438214Y-58781161D01*
X104203895Y-58843947D01*
X103979794Y-58936773D01*
X103979785Y-58936777D01*
X103769706Y-59058067D01*
X103577263Y-59205733D01*
X103577256Y-59205739D01*
X103405739Y-59377256D01*
X103405733Y-59377263D01*
X103258067Y-59569706D01*
X103136777Y-59779785D01*
X103136773Y-59779794D01*
X103043947Y-60003895D01*
X102981161Y-60238214D01*
X102949500Y-60478711D01*
X86400500Y-60478711D01*
X86400500Y-60103750D01*
X86400726Y-60096263D01*
X86418271Y-59806205D01*
X86420076Y-59791340D01*
X86471780Y-59509201D01*
X86475364Y-59494663D01*
X86560696Y-59220822D01*
X86565998Y-59206841D01*
X86683731Y-58945249D01*
X86690676Y-58932016D01*
X86839080Y-58686526D01*
X86847567Y-58674230D01*
X87024480Y-58448417D01*
X87034395Y-58437226D01*
X87237226Y-58234395D01*
X87248417Y-58224480D01*
X87474230Y-58047567D01*
X87486526Y-58039080D01*
X87732016Y-57890676D01*
X87745249Y-57883731D01*
X88006841Y-57765998D01*
X88020822Y-57760696D01*
X88294668Y-57675362D01*
X88309197Y-57671780D01*
X88591344Y-57620075D01*
X88606201Y-57618271D01*
X88896264Y-57600726D01*
X88903751Y-57600500D01*
X88965892Y-57600500D01*
X231834108Y-57600500D01*
X231896249Y-57600500D01*
X231903736Y-57600726D01*
G37*
%TD.AperFunction*%
%TD*%
M02*
