%TF.GenerationSoftware,KiCad,Pcbnew,9.0.0*%
%TF.CreationDate,2025-10-24T23:00:02-05:00*%
%TF.ProjectId,PS-LVDistributionPCB,50532d4c-5644-4697-9374-726962757469,rev?*%
%TF.SameCoordinates,Original*%
%TF.FileFunction,Soldermask,Top*%
%TF.FilePolarity,Negative*%
%FSLAX46Y46*%
G04 Gerber Fmt 4.6, Leading zero omitted, Abs format (unit mm)*
G04 Created by KiCad (PCBNEW 9.0.0) date 2025-10-24 23:00:02*
%MOMM*%
%LPD*%
G01*
G04 APERTURE LIST*
G04 Aperture macros list*
%AMRoundRect*
0 Rectangle with rounded corners*
0 $1 Rounding radius*
0 $2 $3 $4 $5 $6 $7 $8 $9 X,Y pos of 4 corners*
0 Add a 4 corners polygon primitive as box body*
4,1,4,$2,$3,$4,$5,$6,$7,$8,$9,$2,$3,0*
0 Add four circle primitives for the rounded corners*
1,1,$1+$1,$2,$3*
1,1,$1+$1,$4,$5*
1,1,$1+$1,$6,$7*
1,1,$1+$1,$8,$9*
0 Add four rect primitives between the rounded corners*
20,1,$1+$1,$2,$3,$4,$5,0*
20,1,$1+$1,$4,$5,$6,$7,0*
20,1,$1+$1,$6,$7,$8,$9,0*
20,1,$1+$1,$8,$9,$2,$3,0*%
G04 Aperture macros list end*
%ADD10C,0.000000*%
%ADD11R,3.000000X3.000000*%
%ADD12C,3.000000*%
%ADD13RoundRect,0.218750X0.218750X0.256250X-0.218750X0.256250X-0.218750X-0.256250X0.218750X-0.256250X0*%
%ADD14C,2.604000*%
%ADD15C,2.057400*%
G04 APERTURE END LIST*
D10*
%TO.C,LOGO1*%
G36*
X213350794Y-61496905D02*
G01*
X213375993Y-62630833D01*
X214396528Y-62644476D01*
X215417064Y-62658119D01*
X215417064Y-62909059D01*
X215417064Y-63160000D01*
X214080751Y-63160000D01*
X212744438Y-63160000D01*
X212757834Y-61761488D01*
X212771231Y-60362976D01*
X213048413Y-60362976D01*
X213325596Y-60362976D01*
X213350794Y-61496905D01*
G37*
G36*
X226215873Y-61010198D02*
G01*
X226215873Y-61236984D01*
X225434722Y-61236984D01*
X224653571Y-61236984D01*
X224653571Y-61488968D01*
X224653571Y-61740952D01*
X225434722Y-61740952D01*
X226215873Y-61740952D01*
X226215873Y-62446508D01*
X226215873Y-63152063D01*
X225207936Y-63152063D01*
X224200000Y-63152063D01*
X224200000Y-62925278D01*
X224200000Y-62698492D01*
X224981151Y-62698492D01*
X225762301Y-62698492D01*
X225762301Y-62446508D01*
X225762301Y-62194524D01*
X224981151Y-62194524D01*
X224200000Y-62194524D01*
X224200000Y-61488968D01*
X224200000Y-60783413D01*
X225207936Y-60783413D01*
X226215873Y-60783413D01*
X226215873Y-61010198D01*
G37*
G36*
X219226828Y-60346870D02*
G01*
X219423612Y-60362976D01*
X219437008Y-61761488D01*
X219450404Y-63160000D01*
X219123678Y-63160000D01*
X218796952Y-63160000D01*
X218782703Y-62593036D01*
X218768453Y-62026071D01*
X217673982Y-62012494D01*
X216579510Y-61998916D01*
X216565251Y-62566859D01*
X216550993Y-63134801D01*
X216235211Y-63149826D01*
X215919429Y-63164851D01*
X215932830Y-61763914D01*
X215946231Y-60362976D01*
X216202691Y-60348025D01*
X216401790Y-60352861D01*
X216510363Y-60395420D01*
X216515728Y-60401244D01*
X216541275Y-60478573D01*
X216564051Y-60631243D01*
X216580876Y-60833801D01*
X216586847Y-60970561D01*
X216601389Y-61471706D01*
X217684921Y-61471706D01*
X218768453Y-61471706D01*
X218782752Y-60930474D01*
X218792061Y-60672555D01*
X218811771Y-60499779D01*
X218853781Y-60396509D01*
X218929990Y-60347105D01*
X219052298Y-60335930D01*
X219226828Y-60346870D01*
G37*
G36*
X221456389Y-60342880D02*
G01*
X221779517Y-60346724D01*
X222247725Y-60355193D01*
X222625655Y-60367869D01*
X222923823Y-60388856D01*
X223152744Y-60422257D01*
X223322934Y-60472178D01*
X223444908Y-60542721D01*
X223529182Y-60637992D01*
X223586272Y-60762094D01*
X223626693Y-60919132D01*
X223655352Y-61078856D01*
X223665781Y-61281314D01*
X223642188Y-61503805D01*
X223591695Y-61712348D01*
X223521422Y-61872966D01*
X223477371Y-61928160D01*
X223413130Y-61994076D01*
X223413297Y-62046382D01*
X223480288Y-62126572D01*
X223489499Y-62136385D01*
X223545563Y-62211351D01*
X223582230Y-62308775D01*
X223605316Y-62453634D01*
X223620634Y-62670905D01*
X223622438Y-62707429D01*
X223644076Y-63160000D01*
X223310332Y-63160000D01*
X222976588Y-63160000D01*
X222976588Y-62864415D01*
X222964342Y-62657713D01*
X222921898Y-62514351D01*
X222872136Y-62436042D01*
X222767685Y-62303254D01*
X221813803Y-62303254D01*
X220859921Y-62303254D01*
X220859921Y-62731627D01*
X220859921Y-63160000D01*
X220532342Y-63160000D01*
X220204762Y-63160000D01*
X220204762Y-61775047D01*
X220204762Y-61312116D01*
X220204762Y-60892143D01*
X220859921Y-60892143D01*
X220859921Y-61312116D01*
X220864188Y-61509653D01*
X220875542Y-61667374D01*
X220891816Y-61759012D01*
X220897719Y-61770099D01*
X220957819Y-61781199D01*
X221102244Y-61789204D01*
X221314564Y-61793761D01*
X221578345Y-61794519D01*
X221877158Y-61791126D01*
X221878719Y-61791098D01*
X222215482Y-61784007D01*
X222465965Y-61775610D01*
X222644681Y-61764404D01*
X222766141Y-61748885D01*
X222844859Y-61727551D01*
X222895349Y-61698897D01*
X222911853Y-61684093D01*
X222977195Y-61565962D01*
X223001407Y-61374497D01*
X223001786Y-61339462D01*
X222991791Y-61170129D01*
X222953410Y-61063196D01*
X222882810Y-60988484D01*
X222832720Y-60954546D01*
X222768423Y-60929601D01*
X222674814Y-60912287D01*
X222536788Y-60901247D01*
X222339240Y-60895123D01*
X222067064Y-60892554D01*
X221811878Y-60892143D01*
X220859921Y-60892143D01*
X220204762Y-60892143D01*
X220204762Y-60390095D01*
X220330608Y-60358509D01*
X220413764Y-60350726D01*
X220582805Y-60345150D01*
X220822847Y-60341903D01*
X221119004Y-60341106D01*
X221456389Y-60342880D01*
G37*
%TD*%
D11*
%TO.C,J4*%
X161220000Y-73400000D03*
D12*
X166220000Y-73400000D03*
%TD*%
D13*
%TO.C,D8*%
X105187500Y-96400000D03*
X103612500Y-96400000D03*
%TD*%
D11*
%TO.C,J12*%
X178680000Y-92900000D03*
D12*
X183680000Y-92900000D03*
%TD*%
D13*
%TO.C,D3*%
X140175000Y-76900000D03*
X138600000Y-76900000D03*
%TD*%
D11*
%TO.C,J7*%
X213685476Y-73400000D03*
D12*
X218685476Y-73400000D03*
%TD*%
D13*
%TO.C,D10*%
X140187500Y-96400000D03*
X138612500Y-96400000D03*
%TD*%
D14*
%TO.C,F9*%
X123680000Y-99200000D03*
X133600000Y-99200000D03*
X123680000Y-102600000D03*
X133600000Y-102600000D03*
%TD*%
D13*
%TO.C,D12*%
X175187500Y-96400000D03*
X173612500Y-96400000D03*
%TD*%
D14*
%TO.C,F8*%
X106180000Y-99200000D03*
X116100000Y-99200000D03*
X106180000Y-102600000D03*
X116100000Y-102600000D03*
%TD*%
%TO.C,F12*%
X176180000Y-99200000D03*
X186100000Y-99200000D03*
X176180000Y-102600000D03*
X186100000Y-102600000D03*
%TD*%
D13*
%TO.C,D7*%
X210200000Y-76900000D03*
X208625000Y-76900000D03*
%TD*%
D11*
%TO.C,J1*%
X108720000Y-73400000D03*
D12*
X113720000Y-73400000D03*
%TD*%
D13*
%TO.C,D5*%
X175187500Y-76900000D03*
X173612500Y-76900000D03*
%TD*%
%TO.C,D11*%
X157687500Y-96400000D03*
X156112500Y-96400000D03*
%TD*%
D14*
%TO.C,F13*%
X193680000Y-99200000D03*
X203600000Y-99200000D03*
X193680000Y-102600000D03*
X203600000Y-102600000D03*
%TD*%
D11*
%TO.C,J10*%
X143680000Y-92900000D03*
D12*
X148680000Y-92900000D03*
%TD*%
D13*
%TO.C,D2*%
X122687500Y-76900000D03*
X121112500Y-76900000D03*
%TD*%
D11*
%TO.C,J9*%
X126180000Y-92900000D03*
D12*
X131180000Y-92900000D03*
%TD*%
D11*
%TO.C,J5*%
X178720000Y-73400000D03*
D12*
X183720000Y-73400000D03*
%TD*%
D14*
%TO.C,F4*%
X158720000Y-79700000D03*
X168640000Y-79700000D03*
X158720000Y-83100000D03*
X168640000Y-83100000D03*
%TD*%
D13*
%TO.C,D6*%
X192687500Y-76900000D03*
X191112500Y-76900000D03*
%TD*%
D11*
%TO.C,J14*%
X213685476Y-92900000D03*
D12*
X218685476Y-92900000D03*
%TD*%
D14*
%TO.C,F6*%
X193720000Y-79700000D03*
X203640000Y-79700000D03*
X193720000Y-83100000D03*
X203640000Y-83100000D03*
%TD*%
%TO.C,F7*%
X211225476Y-79700000D03*
X221145476Y-79700000D03*
X211225476Y-83100000D03*
X221145476Y-83100000D03*
%TD*%
D11*
%TO.C,J11*%
X161180000Y-92900000D03*
D12*
X166180000Y-92900000D03*
%TD*%
D11*
%TO.C,J3*%
X143720000Y-73400000D03*
D12*
X148720000Y-73400000D03*
%TD*%
D14*
%TO.C,F1*%
X106220000Y-79700000D03*
X116140000Y-79700000D03*
X106220000Y-83100000D03*
X116140000Y-83100000D03*
%TD*%
D13*
%TO.C,D14*%
X210200000Y-96400000D03*
X208625000Y-96400000D03*
%TD*%
D14*
%TO.C,F5*%
X176220000Y-79700000D03*
X186140000Y-79700000D03*
X176220000Y-83100000D03*
X186140000Y-83100000D03*
%TD*%
%TO.C,F2*%
X123720000Y-79700000D03*
X133640000Y-79700000D03*
X123720000Y-83100000D03*
X133640000Y-83100000D03*
%TD*%
D11*
%TO.C,J13*%
X196180000Y-92900000D03*
D12*
X201180000Y-92900000D03*
%TD*%
D13*
%TO.C,D13*%
X192687500Y-96400000D03*
X191112500Y-96400000D03*
%TD*%
%TO.C,D4*%
X157687500Y-76900000D03*
X156112500Y-76900000D03*
%TD*%
D11*
%TO.C,J6*%
X196220000Y-73400000D03*
D12*
X201220000Y-73400000D03*
%TD*%
D14*
%TO.C,F14*%
X211225476Y-99200000D03*
X221145476Y-99200000D03*
X211225476Y-102600000D03*
X221145476Y-102600000D03*
%TD*%
D11*
%TO.C,J8*%
X108680000Y-92900000D03*
D12*
X113680000Y-92900000D03*
%TD*%
D14*
%TO.C,F10*%
X141180000Y-99200000D03*
X151100000Y-99200000D03*
X141180000Y-102600000D03*
X151100000Y-102600000D03*
%TD*%
D11*
%TO.C,J2*%
X126220000Y-73400000D03*
D12*
X131220000Y-73400000D03*
%TD*%
D14*
%TO.C,F11*%
X158680000Y-99200000D03*
X168600000Y-99200000D03*
X158680000Y-102600000D03*
X168600000Y-102600000D03*
%TD*%
D13*
%TO.C,D9*%
X122687500Y-96400000D03*
X121112500Y-96400000D03*
%TD*%
D14*
%TO.C,F3*%
X141220000Y-79700000D03*
X151140000Y-79700000D03*
X141220000Y-83100000D03*
X151140000Y-83100000D03*
%TD*%
D13*
%TO.C,D1*%
X105187500Y-76900000D03*
X103612500Y-76900000D03*
%TD*%
D15*
%TO.C,J17*%
X95060001Y-71500001D03*
X95060001Y-75000002D03*
X95060001Y-78500003D03*
X95060001Y-82000003D03*
X95060001Y-85500004D03*
X95060001Y-89000005D03*
X95060001Y-92500005D03*
X95060001Y-96000008D03*
X95060001Y-99500009D03*
X95060001Y-103000010D03*
X91559999Y-71500001D03*
X91559999Y-75000002D03*
X91559999Y-78500003D03*
X91559999Y-82000003D03*
X91559999Y-85500004D03*
X91559999Y-89000005D03*
X91559999Y-92500005D03*
X91559999Y-96000008D03*
X91559999Y-99500009D03*
X91559999Y-103000010D03*
%TD*%
M02*
