%TF.GenerationSoftware,KiCad,Pcbnew,9.0.0*%
%TF.CreationDate,2025-10-24T23:21:21-05:00*%
%TF.ProjectId,MX150_Test_Board,4d583135-305f-4546-9573-745f426f6172,rev?*%
%TF.SameCoordinates,Original*%
%TF.FileFunction,Legend,Top*%
%TF.FilePolarity,Positive*%
%FSLAX46Y46*%
G04 Gerber Fmt 4.6, Leading zero omitted, Abs format (unit mm)*
G04 Created by KiCad (PCBNEW 9.0.0) date 2025-10-24 23:21:21*
%MOMM*%
%LPD*%
G01*
G04 APERTURE LIST*
%ADD10C,0.150000*%
%ADD11C,0.152400*%
%ADD12C,0.100000*%
%ADD13C,0.508000*%
%ADD14C,0.000000*%
%ADD15C,1.905000*%
G04 APERTURE END LIST*
D10*
X159836779Y-96759875D02*
X159836779Y-95759875D01*
X159836779Y-95759875D02*
X160170112Y-96474160D01*
X160170112Y-96474160D02*
X160503445Y-95759875D01*
X160503445Y-95759875D02*
X160503445Y-96759875D01*
X160884398Y-95759875D02*
X161551064Y-96759875D01*
X161551064Y-95759875D02*
X160884398Y-96759875D01*
X162455826Y-96759875D02*
X161884398Y-96759875D01*
X162170112Y-96759875D02*
X162170112Y-95759875D01*
X162170112Y-95759875D02*
X162074874Y-95902732D01*
X162074874Y-95902732D02*
X161979636Y-95997970D01*
X161979636Y-95997970D02*
X161884398Y-96045589D01*
X163360588Y-95759875D02*
X162884398Y-95759875D01*
X162884398Y-95759875D02*
X162836779Y-96236065D01*
X162836779Y-96236065D02*
X162884398Y-96188446D01*
X162884398Y-96188446D02*
X162979636Y-96140827D01*
X162979636Y-96140827D02*
X163217731Y-96140827D01*
X163217731Y-96140827D02*
X163312969Y-96188446D01*
X163312969Y-96188446D02*
X163360588Y-96236065D01*
X163360588Y-96236065D02*
X163408207Y-96331303D01*
X163408207Y-96331303D02*
X163408207Y-96569398D01*
X163408207Y-96569398D02*
X163360588Y-96664636D01*
X163360588Y-96664636D02*
X163312969Y-96712256D01*
X163312969Y-96712256D02*
X163217731Y-96759875D01*
X163217731Y-96759875D02*
X162979636Y-96759875D01*
X162979636Y-96759875D02*
X162884398Y-96712256D01*
X162884398Y-96712256D02*
X162836779Y-96664636D01*
X164027255Y-95759875D02*
X164122493Y-95759875D01*
X164122493Y-95759875D02*
X164217731Y-95807494D01*
X164217731Y-95807494D02*
X164265350Y-95855113D01*
X164265350Y-95855113D02*
X164312969Y-95950351D01*
X164312969Y-95950351D02*
X164360588Y-96140827D01*
X164360588Y-96140827D02*
X164360588Y-96378922D01*
X164360588Y-96378922D02*
X164312969Y-96569398D01*
X164312969Y-96569398D02*
X164265350Y-96664636D01*
X164265350Y-96664636D02*
X164217731Y-96712256D01*
X164217731Y-96712256D02*
X164122493Y-96759875D01*
X164122493Y-96759875D02*
X164027255Y-96759875D01*
X164027255Y-96759875D02*
X163932017Y-96712256D01*
X163932017Y-96712256D02*
X163884398Y-96664636D01*
X163884398Y-96664636D02*
X163836779Y-96569398D01*
X163836779Y-96569398D02*
X163789160Y-96378922D01*
X163789160Y-96378922D02*
X163789160Y-96140827D01*
X163789160Y-96140827D02*
X163836779Y-95950351D01*
X163836779Y-95950351D02*
X163884398Y-95855113D01*
X163884398Y-95855113D02*
X163932017Y-95807494D01*
X163932017Y-95807494D02*
X164027255Y-95759875D01*
X165408208Y-95759875D02*
X165979636Y-95759875D01*
X165693922Y-96759875D02*
X165693922Y-95759875D01*
X166693922Y-96712256D02*
X166598684Y-96759875D01*
X166598684Y-96759875D02*
X166408208Y-96759875D01*
X166408208Y-96759875D02*
X166312970Y-96712256D01*
X166312970Y-96712256D02*
X166265351Y-96617017D01*
X166265351Y-96617017D02*
X166265351Y-96236065D01*
X166265351Y-96236065D02*
X166312970Y-96140827D01*
X166312970Y-96140827D02*
X166408208Y-96093208D01*
X166408208Y-96093208D02*
X166598684Y-96093208D01*
X166598684Y-96093208D02*
X166693922Y-96140827D01*
X166693922Y-96140827D02*
X166741541Y-96236065D01*
X166741541Y-96236065D02*
X166741541Y-96331303D01*
X166741541Y-96331303D02*
X166265351Y-96426541D01*
X167122494Y-96712256D02*
X167217732Y-96759875D01*
X167217732Y-96759875D02*
X167408208Y-96759875D01*
X167408208Y-96759875D02*
X167503446Y-96712256D01*
X167503446Y-96712256D02*
X167551065Y-96617017D01*
X167551065Y-96617017D02*
X167551065Y-96569398D01*
X167551065Y-96569398D02*
X167503446Y-96474160D01*
X167503446Y-96474160D02*
X167408208Y-96426541D01*
X167408208Y-96426541D02*
X167265351Y-96426541D01*
X167265351Y-96426541D02*
X167170113Y-96378922D01*
X167170113Y-96378922D02*
X167122494Y-96283684D01*
X167122494Y-96283684D02*
X167122494Y-96236065D01*
X167122494Y-96236065D02*
X167170113Y-96140827D01*
X167170113Y-96140827D02*
X167265351Y-96093208D01*
X167265351Y-96093208D02*
X167408208Y-96093208D01*
X167408208Y-96093208D02*
X167503446Y-96140827D01*
X167836780Y-96093208D02*
X168217732Y-96093208D01*
X167979637Y-95759875D02*
X167979637Y-96617017D01*
X167979637Y-96617017D02*
X168027256Y-96712256D01*
X168027256Y-96712256D02*
X168122494Y-96759875D01*
X168122494Y-96759875D02*
X168217732Y-96759875D01*
X169646304Y-96236065D02*
X169789161Y-96283684D01*
X169789161Y-96283684D02*
X169836780Y-96331303D01*
X169836780Y-96331303D02*
X169884399Y-96426541D01*
X169884399Y-96426541D02*
X169884399Y-96569398D01*
X169884399Y-96569398D02*
X169836780Y-96664636D01*
X169836780Y-96664636D02*
X169789161Y-96712256D01*
X169789161Y-96712256D02*
X169693923Y-96759875D01*
X169693923Y-96759875D02*
X169312971Y-96759875D01*
X169312971Y-96759875D02*
X169312971Y-95759875D01*
X169312971Y-95759875D02*
X169646304Y-95759875D01*
X169646304Y-95759875D02*
X169741542Y-95807494D01*
X169741542Y-95807494D02*
X169789161Y-95855113D01*
X169789161Y-95855113D02*
X169836780Y-95950351D01*
X169836780Y-95950351D02*
X169836780Y-96045589D01*
X169836780Y-96045589D02*
X169789161Y-96140827D01*
X169789161Y-96140827D02*
X169741542Y-96188446D01*
X169741542Y-96188446D02*
X169646304Y-96236065D01*
X169646304Y-96236065D02*
X169312971Y-96236065D01*
X170455828Y-96759875D02*
X170360590Y-96712256D01*
X170360590Y-96712256D02*
X170312971Y-96664636D01*
X170312971Y-96664636D02*
X170265352Y-96569398D01*
X170265352Y-96569398D02*
X170265352Y-96283684D01*
X170265352Y-96283684D02*
X170312971Y-96188446D01*
X170312971Y-96188446D02*
X170360590Y-96140827D01*
X170360590Y-96140827D02*
X170455828Y-96093208D01*
X170455828Y-96093208D02*
X170598685Y-96093208D01*
X170598685Y-96093208D02*
X170693923Y-96140827D01*
X170693923Y-96140827D02*
X170741542Y-96188446D01*
X170741542Y-96188446D02*
X170789161Y-96283684D01*
X170789161Y-96283684D02*
X170789161Y-96569398D01*
X170789161Y-96569398D02*
X170741542Y-96664636D01*
X170741542Y-96664636D02*
X170693923Y-96712256D01*
X170693923Y-96712256D02*
X170598685Y-96759875D01*
X170598685Y-96759875D02*
X170455828Y-96759875D01*
X171646304Y-96759875D02*
X171646304Y-96236065D01*
X171646304Y-96236065D02*
X171598685Y-96140827D01*
X171598685Y-96140827D02*
X171503447Y-96093208D01*
X171503447Y-96093208D02*
X171312971Y-96093208D01*
X171312971Y-96093208D02*
X171217733Y-96140827D01*
X171646304Y-96712256D02*
X171551066Y-96759875D01*
X171551066Y-96759875D02*
X171312971Y-96759875D01*
X171312971Y-96759875D02*
X171217733Y-96712256D01*
X171217733Y-96712256D02*
X171170114Y-96617017D01*
X171170114Y-96617017D02*
X171170114Y-96521779D01*
X171170114Y-96521779D02*
X171217733Y-96426541D01*
X171217733Y-96426541D02*
X171312971Y-96378922D01*
X171312971Y-96378922D02*
X171551066Y-96378922D01*
X171551066Y-96378922D02*
X171646304Y-96331303D01*
X172122495Y-96759875D02*
X172122495Y-96093208D01*
X172122495Y-96283684D02*
X172170114Y-96188446D01*
X172170114Y-96188446D02*
X172217733Y-96140827D01*
X172217733Y-96140827D02*
X172312971Y-96093208D01*
X172312971Y-96093208D02*
X172408209Y-96093208D01*
X173170114Y-96759875D02*
X173170114Y-95759875D01*
X173170114Y-96712256D02*
X173074876Y-96759875D01*
X173074876Y-96759875D02*
X172884400Y-96759875D01*
X172884400Y-96759875D02*
X172789162Y-96712256D01*
X172789162Y-96712256D02*
X172741543Y-96664636D01*
X172741543Y-96664636D02*
X172693924Y-96569398D01*
X172693924Y-96569398D02*
X172693924Y-96283684D01*
X172693924Y-96283684D02*
X172741543Y-96188446D01*
X172741543Y-96188446D02*
X172789162Y-96140827D01*
X172789162Y-96140827D02*
X172884400Y-96093208D01*
X172884400Y-96093208D02*
X173074876Y-96093208D01*
X173074876Y-96093208D02*
X173170114Y-96140827D01*
X159789160Y-98322200D02*
X159932017Y-98369819D01*
X159932017Y-98369819D02*
X160170112Y-98369819D01*
X160170112Y-98369819D02*
X160265350Y-98322200D01*
X160265350Y-98322200D02*
X160312969Y-98274580D01*
X160312969Y-98274580D02*
X160360588Y-98179342D01*
X160360588Y-98179342D02*
X160360588Y-98084104D01*
X160360588Y-98084104D02*
X160312969Y-97988866D01*
X160312969Y-97988866D02*
X160265350Y-97941247D01*
X160265350Y-97941247D02*
X160170112Y-97893628D01*
X160170112Y-97893628D02*
X159979636Y-97846009D01*
X159979636Y-97846009D02*
X159884398Y-97798390D01*
X159884398Y-97798390D02*
X159836779Y-97750771D01*
X159836779Y-97750771D02*
X159789160Y-97655533D01*
X159789160Y-97655533D02*
X159789160Y-97560295D01*
X159789160Y-97560295D02*
X159836779Y-97465057D01*
X159836779Y-97465057D02*
X159884398Y-97417438D01*
X159884398Y-97417438D02*
X159979636Y-97369819D01*
X159979636Y-97369819D02*
X160217731Y-97369819D01*
X160217731Y-97369819D02*
X160360588Y-97417438D01*
X161217731Y-97703152D02*
X161217731Y-98369819D01*
X160789160Y-97703152D02*
X160789160Y-98226961D01*
X160789160Y-98226961D02*
X160836779Y-98322200D01*
X160836779Y-98322200D02*
X160932017Y-98369819D01*
X160932017Y-98369819D02*
X161074874Y-98369819D01*
X161074874Y-98369819D02*
X161170112Y-98322200D01*
X161170112Y-98322200D02*
X161217731Y-98274580D01*
X161693922Y-98369819D02*
X161693922Y-97703152D01*
X161693922Y-97893628D02*
X161741541Y-97798390D01*
X161741541Y-97798390D02*
X161789160Y-97750771D01*
X161789160Y-97750771D02*
X161884398Y-97703152D01*
X161884398Y-97703152D02*
X161979636Y-97703152D01*
X162741541Y-98369819D02*
X162741541Y-97846009D01*
X162741541Y-97846009D02*
X162693922Y-97750771D01*
X162693922Y-97750771D02*
X162598684Y-97703152D01*
X162598684Y-97703152D02*
X162408208Y-97703152D01*
X162408208Y-97703152D02*
X162312970Y-97750771D01*
X162741541Y-98322200D02*
X162646303Y-98369819D01*
X162646303Y-98369819D02*
X162408208Y-98369819D01*
X162408208Y-98369819D02*
X162312970Y-98322200D01*
X162312970Y-98322200D02*
X162265351Y-98226961D01*
X162265351Y-98226961D02*
X162265351Y-98131723D01*
X162265351Y-98131723D02*
X162312970Y-98036485D01*
X162312970Y-98036485D02*
X162408208Y-97988866D01*
X162408208Y-97988866D02*
X162646303Y-97988866D01*
X162646303Y-97988866D02*
X162741541Y-97941247D01*
X163217732Y-98369819D02*
X163217732Y-97369819D01*
X163217732Y-97750771D02*
X163312970Y-97703152D01*
X163312970Y-97703152D02*
X163503446Y-97703152D01*
X163503446Y-97703152D02*
X163598684Y-97750771D01*
X163598684Y-97750771D02*
X163646303Y-97798390D01*
X163646303Y-97798390D02*
X163693922Y-97893628D01*
X163693922Y-97893628D02*
X163693922Y-98179342D01*
X163693922Y-98179342D02*
X163646303Y-98274580D01*
X163646303Y-98274580D02*
X163598684Y-98322200D01*
X163598684Y-98322200D02*
X163503446Y-98369819D01*
X163503446Y-98369819D02*
X163312970Y-98369819D01*
X163312970Y-98369819D02*
X163217732Y-98322200D01*
X164122494Y-98369819D02*
X164122494Y-97369819D01*
X164551065Y-98369819D02*
X164551065Y-97846009D01*
X164551065Y-97846009D02*
X164503446Y-97750771D01*
X164503446Y-97750771D02*
X164408208Y-97703152D01*
X164408208Y-97703152D02*
X164265351Y-97703152D01*
X164265351Y-97703152D02*
X164170113Y-97750771D01*
X164170113Y-97750771D02*
X164122494Y-97798390D01*
X165027256Y-98369819D02*
X165027256Y-97703152D01*
X165027256Y-97369819D02*
X164979637Y-97417438D01*
X164979637Y-97417438D02*
X165027256Y-97465057D01*
X165027256Y-97465057D02*
X165074875Y-97417438D01*
X165074875Y-97417438D02*
X165027256Y-97369819D01*
X165027256Y-97369819D02*
X165027256Y-97465057D01*
X166265351Y-98369819D02*
X166265351Y-97369819D01*
X166836779Y-98369819D02*
X166408208Y-97798390D01*
X166836779Y-97369819D02*
X166265351Y-97941247D01*
X168503446Y-98369819D02*
X168027256Y-98369819D01*
X168027256Y-98369819D02*
X168027256Y-97369819D01*
X168836780Y-98369819D02*
X168836780Y-97369819D01*
X168836780Y-97846009D02*
X169408208Y-97846009D01*
X169408208Y-98369819D02*
X169408208Y-97369819D01*
X170455827Y-98369819D02*
X170122494Y-97893628D01*
X169884399Y-98369819D02*
X169884399Y-97369819D01*
X169884399Y-97369819D02*
X170265351Y-97369819D01*
X170265351Y-97369819D02*
X170360589Y-97417438D01*
X170360589Y-97417438D02*
X170408208Y-97465057D01*
X170408208Y-97465057D02*
X170455827Y-97560295D01*
X170455827Y-97560295D02*
X170455827Y-97703152D01*
X170455827Y-97703152D02*
X170408208Y-97798390D01*
X170408208Y-97798390D02*
X170360589Y-97846009D01*
X170360589Y-97846009D02*
X170265351Y-97893628D01*
X170265351Y-97893628D02*
X169884399Y-97893628D01*
X170836780Y-98322200D02*
X170979637Y-98369819D01*
X170979637Y-98369819D02*
X171217732Y-98369819D01*
X171217732Y-98369819D02*
X171312970Y-98322200D01*
X171312970Y-98322200D02*
X171360589Y-98274580D01*
X171360589Y-98274580D02*
X171408208Y-98179342D01*
X171408208Y-98179342D02*
X171408208Y-98084104D01*
X171408208Y-98084104D02*
X171360589Y-97988866D01*
X171360589Y-97988866D02*
X171312970Y-97941247D01*
X171312970Y-97941247D02*
X171217732Y-97893628D01*
X171217732Y-97893628D02*
X171027256Y-97846009D01*
X171027256Y-97846009D02*
X170932018Y-97798390D01*
X170932018Y-97798390D02*
X170884399Y-97750771D01*
X170884399Y-97750771D02*
X170836780Y-97655533D01*
X170836780Y-97655533D02*
X170836780Y-97560295D01*
X170836780Y-97560295D02*
X170884399Y-97465057D01*
X170884399Y-97465057D02*
X170932018Y-97417438D01*
X170932018Y-97417438D02*
X171027256Y-97369819D01*
X171027256Y-97369819D02*
X171265351Y-97369819D01*
X171265351Y-97369819D02*
X171408208Y-97417438D01*
X172551066Y-97465057D02*
X172598685Y-97417438D01*
X172598685Y-97417438D02*
X172693923Y-97369819D01*
X172693923Y-97369819D02*
X172932018Y-97369819D01*
X172932018Y-97369819D02*
X173027256Y-97417438D01*
X173027256Y-97417438D02*
X173074875Y-97465057D01*
X173074875Y-97465057D02*
X173122494Y-97560295D01*
X173122494Y-97560295D02*
X173122494Y-97655533D01*
X173122494Y-97655533D02*
X173074875Y-97798390D01*
X173074875Y-97798390D02*
X172503447Y-98369819D01*
X172503447Y-98369819D02*
X173122494Y-98369819D01*
X173741542Y-97369819D02*
X173836780Y-97369819D01*
X173836780Y-97369819D02*
X173932018Y-97417438D01*
X173932018Y-97417438D02*
X173979637Y-97465057D01*
X173979637Y-97465057D02*
X174027256Y-97560295D01*
X174027256Y-97560295D02*
X174074875Y-97750771D01*
X174074875Y-97750771D02*
X174074875Y-97988866D01*
X174074875Y-97988866D02*
X174027256Y-98179342D01*
X174027256Y-98179342D02*
X173979637Y-98274580D01*
X173979637Y-98274580D02*
X173932018Y-98322200D01*
X173932018Y-98322200D02*
X173836780Y-98369819D01*
X173836780Y-98369819D02*
X173741542Y-98369819D01*
X173741542Y-98369819D02*
X173646304Y-98322200D01*
X173646304Y-98322200D02*
X173598685Y-98274580D01*
X173598685Y-98274580D02*
X173551066Y-98179342D01*
X173551066Y-98179342D02*
X173503447Y-97988866D01*
X173503447Y-97988866D02*
X173503447Y-97750771D01*
X173503447Y-97750771D02*
X173551066Y-97560295D01*
X173551066Y-97560295D02*
X173598685Y-97465057D01*
X173598685Y-97465057D02*
X173646304Y-97417438D01*
X173646304Y-97417438D02*
X173741542Y-97369819D01*
X174455828Y-97465057D02*
X174503447Y-97417438D01*
X174503447Y-97417438D02*
X174598685Y-97369819D01*
X174598685Y-97369819D02*
X174836780Y-97369819D01*
X174836780Y-97369819D02*
X174932018Y-97417438D01*
X174932018Y-97417438D02*
X174979637Y-97465057D01*
X174979637Y-97465057D02*
X175027256Y-97560295D01*
X175027256Y-97560295D02*
X175027256Y-97655533D01*
X175027256Y-97655533D02*
X174979637Y-97798390D01*
X174979637Y-97798390D02*
X174408209Y-98369819D01*
X174408209Y-98369819D02*
X175027256Y-98369819D01*
X175932018Y-97369819D02*
X175455828Y-97369819D01*
X175455828Y-97369819D02*
X175408209Y-97846009D01*
X175408209Y-97846009D02*
X175455828Y-97798390D01*
X175455828Y-97798390D02*
X175551066Y-97750771D01*
X175551066Y-97750771D02*
X175789161Y-97750771D01*
X175789161Y-97750771D02*
X175884399Y-97798390D01*
X175884399Y-97798390D02*
X175932018Y-97846009D01*
X175932018Y-97846009D02*
X175979637Y-97941247D01*
X175979637Y-97941247D02*
X175979637Y-98179342D01*
X175979637Y-98179342D02*
X175932018Y-98274580D01*
X175932018Y-98274580D02*
X175884399Y-98322200D01*
X175884399Y-98322200D02*
X175789161Y-98369819D01*
X175789161Y-98369819D02*
X175551066Y-98369819D01*
X175551066Y-98369819D02*
X175455828Y-98322200D01*
X175455828Y-98322200D02*
X175408209Y-98274580D01*
X148983335Y-98845181D02*
X148983335Y-98130896D01*
X148983335Y-98130896D02*
X149030954Y-97988039D01*
X149030954Y-97988039D02*
X149126192Y-97892801D01*
X149126192Y-97892801D02*
X149269049Y-97845181D01*
X149269049Y-97845181D02*
X149364287Y-97845181D01*
X148030954Y-98845181D02*
X148507144Y-98845181D01*
X148507144Y-98845181D02*
X148554763Y-98368991D01*
X148554763Y-98368991D02*
X148507144Y-98416610D01*
X148507144Y-98416610D02*
X148411906Y-98464229D01*
X148411906Y-98464229D02*
X148173811Y-98464229D01*
X148173811Y-98464229D02*
X148078573Y-98416610D01*
X148078573Y-98416610D02*
X148030954Y-98368991D01*
X148030954Y-98368991D02*
X147983335Y-98273753D01*
X147983335Y-98273753D02*
X147983335Y-98035658D01*
X147983335Y-98035658D02*
X148030954Y-97940420D01*
X148030954Y-97940420D02*
X148078573Y-97892801D01*
X148078573Y-97892801D02*
X148173811Y-97845181D01*
X148173811Y-97845181D02*
X148411906Y-97845181D01*
X148411906Y-97845181D02*
X148507144Y-97892801D01*
X148507144Y-97892801D02*
X148554763Y-97940420D01*
X156734650Y-103246570D02*
X156734650Y-102579903D01*
X156972745Y-103627523D02*
X157210840Y-102913237D01*
X157210840Y-102913237D02*
X156591793Y-102913237D01*
X157020364Y-95101612D02*
X157115602Y-95149231D01*
X157115602Y-95149231D02*
X157163221Y-95196850D01*
X157163221Y-95196850D02*
X157210840Y-95292088D01*
X157210840Y-95292088D02*
X157210840Y-95339707D01*
X157210840Y-95339707D02*
X157163221Y-95434945D01*
X157163221Y-95434945D02*
X157115602Y-95482564D01*
X157115602Y-95482564D02*
X157020364Y-95530183D01*
X157020364Y-95530183D02*
X156829888Y-95530183D01*
X156829888Y-95530183D02*
X156734650Y-95482564D01*
X156734650Y-95482564D02*
X156687031Y-95434945D01*
X156687031Y-95434945D02*
X156639412Y-95339707D01*
X156639412Y-95339707D02*
X156639412Y-95292088D01*
X156639412Y-95292088D02*
X156687031Y-95196850D01*
X156687031Y-95196850D02*
X156734650Y-95149231D01*
X156734650Y-95149231D02*
X156829888Y-95101612D01*
X156829888Y-95101612D02*
X157020364Y-95101612D01*
X157020364Y-95101612D02*
X157115602Y-95053993D01*
X157115602Y-95053993D02*
X157163221Y-95006374D01*
X157163221Y-95006374D02*
X157210840Y-94911136D01*
X157210840Y-94911136D02*
X157210840Y-94720660D01*
X157210840Y-94720660D02*
X157163221Y-94625422D01*
X157163221Y-94625422D02*
X157115602Y-94577803D01*
X157115602Y-94577803D02*
X157020364Y-94530183D01*
X157020364Y-94530183D02*
X156829888Y-94530183D01*
X156829888Y-94530183D02*
X156734650Y-94577803D01*
X156734650Y-94577803D02*
X156687031Y-94625422D01*
X156687031Y-94625422D02*
X156639412Y-94720660D01*
X156639412Y-94720660D02*
X156639412Y-94911136D01*
X156639412Y-94911136D02*
X156687031Y-95006374D01*
X156687031Y-95006374D02*
X156734650Y-95053993D01*
X156734650Y-95053993D02*
X156829888Y-95101612D01*
X140239412Y-102579903D02*
X140810840Y-102579903D01*
X140525126Y-102579903D02*
X140525126Y-103579903D01*
X140525126Y-103579903D02*
X140620364Y-103437046D01*
X140620364Y-103437046D02*
X140715602Y-103341808D01*
X140715602Y-103341808D02*
X140810840Y-103294189D01*
X140287031Y-95530183D02*
X140763221Y-95530183D01*
X140763221Y-95530183D02*
X140810840Y-95053993D01*
X140810840Y-95053993D02*
X140763221Y-95101612D01*
X140763221Y-95101612D02*
X140667983Y-95149231D01*
X140667983Y-95149231D02*
X140429888Y-95149231D01*
X140429888Y-95149231D02*
X140334650Y-95101612D01*
X140334650Y-95101612D02*
X140287031Y-95053993D01*
X140287031Y-95053993D02*
X140239412Y-94958755D01*
X140239412Y-94958755D02*
X140239412Y-94720660D01*
X140239412Y-94720660D02*
X140287031Y-94625422D01*
X140287031Y-94625422D02*
X140334650Y-94577803D01*
X140334650Y-94577803D02*
X140429888Y-94530183D01*
X140429888Y-94530183D02*
X140667983Y-94530183D01*
X140667983Y-94530183D02*
X140763221Y-94577803D01*
X140763221Y-94577803D02*
X140810840Y-94625422D01*
X107366666Y-144154821D02*
X107366666Y-144869106D01*
X107366666Y-144869106D02*
X107319047Y-145011963D01*
X107319047Y-145011963D02*
X107223809Y-145107202D01*
X107223809Y-145107202D02*
X107080952Y-145154821D01*
X107080952Y-145154821D02*
X106985714Y-145154821D01*
X108366666Y-145154821D02*
X107795238Y-145154821D01*
X108080952Y-145154821D02*
X108080952Y-144154821D01*
X108080952Y-144154821D02*
X107985714Y-144297678D01*
X107985714Y-144297678D02*
X107890476Y-144392916D01*
X107890476Y-144392916D02*
X107795238Y-144440535D01*
X114560588Y-140410155D02*
X113989160Y-140410155D01*
X114274874Y-140410155D02*
X114274874Y-139410155D01*
X114274874Y-139410155D02*
X114179636Y-139553012D01*
X114179636Y-139553012D02*
X114084398Y-139648250D01*
X114084398Y-139648250D02*
X113989160Y-139695869D01*
X114512969Y-149069819D02*
X114036779Y-149069819D01*
X114036779Y-149069819D02*
X113989160Y-149546009D01*
X113989160Y-149546009D02*
X114036779Y-149498390D01*
X114036779Y-149498390D02*
X114132017Y-149450771D01*
X114132017Y-149450771D02*
X114370112Y-149450771D01*
X114370112Y-149450771D02*
X114465350Y-149498390D01*
X114465350Y-149498390D02*
X114512969Y-149546009D01*
X114512969Y-149546009D02*
X114560588Y-149641247D01*
X114560588Y-149641247D02*
X114560588Y-149879342D01*
X114560588Y-149879342D02*
X114512969Y-149974580D01*
X114512969Y-149974580D02*
X114465350Y-150022200D01*
X114465350Y-150022200D02*
X114370112Y-150069819D01*
X114370112Y-150069819D02*
X114132017Y-150069819D01*
X114132017Y-150069819D02*
X114036779Y-150022200D01*
X114036779Y-150022200D02*
X113989160Y-149974580D01*
X100841541Y-139410155D02*
X101460588Y-139410155D01*
X101460588Y-139410155D02*
X101127255Y-139791107D01*
X101127255Y-139791107D02*
X101270112Y-139791107D01*
X101270112Y-139791107D02*
X101365350Y-139838726D01*
X101365350Y-139838726D02*
X101412969Y-139886345D01*
X101412969Y-139886345D02*
X101460588Y-139981583D01*
X101460588Y-139981583D02*
X101460588Y-140219678D01*
X101460588Y-140219678D02*
X101412969Y-140314916D01*
X101412969Y-140314916D02*
X101365350Y-140362536D01*
X101365350Y-140362536D02*
X101270112Y-140410155D01*
X101270112Y-140410155D02*
X100984398Y-140410155D01*
X100984398Y-140410155D02*
X100889160Y-140362536D01*
X100889160Y-140362536D02*
X100841541Y-140314916D01*
X101365350Y-149069819D02*
X101174874Y-149069819D01*
X101174874Y-149069819D02*
X101079636Y-149117438D01*
X101079636Y-149117438D02*
X101032017Y-149165057D01*
X101032017Y-149165057D02*
X100936779Y-149307914D01*
X100936779Y-149307914D02*
X100889160Y-149498390D01*
X100889160Y-149498390D02*
X100889160Y-149879342D01*
X100889160Y-149879342D02*
X100936779Y-149974580D01*
X100936779Y-149974580D02*
X100984398Y-150022200D01*
X100984398Y-150022200D02*
X101079636Y-150069819D01*
X101079636Y-150069819D02*
X101270112Y-150069819D01*
X101270112Y-150069819D02*
X101365350Y-150022200D01*
X101365350Y-150022200D02*
X101412969Y-149974580D01*
X101412969Y-149974580D02*
X101460588Y-149879342D01*
X101460588Y-149879342D02*
X101460588Y-149641247D01*
X101460588Y-149641247D02*
X101412969Y-149546009D01*
X101412969Y-149546009D02*
X101365350Y-149498390D01*
X101365350Y-149498390D02*
X101270112Y-149450771D01*
X101270112Y-149450771D02*
X101079636Y-149450771D01*
X101079636Y-149450771D02*
X100984398Y-149498390D01*
X100984398Y-149498390D02*
X100936779Y-149546009D01*
X100936779Y-149546009D02*
X100889160Y-149641247D01*
X139016665Y-121854818D02*
X139016665Y-122569103D01*
X139016665Y-122569103D02*
X138969046Y-122711960D01*
X138969046Y-122711960D02*
X138873808Y-122807199D01*
X138873808Y-122807199D02*
X138730951Y-122854818D01*
X138730951Y-122854818D02*
X138635713Y-122854818D01*
X139921427Y-122188151D02*
X139921427Y-122854818D01*
X139683332Y-121807199D02*
X139445237Y-122521484D01*
X139445237Y-122521484D02*
X140064284Y-122521484D01*
X119910587Y-118010154D02*
X119339159Y-118010154D01*
X119624873Y-118010154D02*
X119624873Y-117010154D01*
X119624873Y-117010154D02*
X119529635Y-117153011D01*
X119529635Y-117153011D02*
X119434397Y-117248249D01*
X119434397Y-117248249D02*
X119339159Y-117295868D01*
X120529635Y-117010154D02*
X120624873Y-117010154D01*
X120624873Y-117010154D02*
X120720111Y-117057773D01*
X120720111Y-117057773D02*
X120767730Y-117105392D01*
X120767730Y-117105392D02*
X120815349Y-117200630D01*
X120815349Y-117200630D02*
X120862968Y-117391106D01*
X120862968Y-117391106D02*
X120862968Y-117629201D01*
X120862968Y-117629201D02*
X120815349Y-117819677D01*
X120815349Y-117819677D02*
X120767730Y-117914915D01*
X120767730Y-117914915D02*
X120720111Y-117962535D01*
X120720111Y-117962535D02*
X120624873Y-118010154D01*
X120624873Y-118010154D02*
X120529635Y-118010154D01*
X120529635Y-118010154D02*
X120434397Y-117962535D01*
X120434397Y-117962535D02*
X120386778Y-117914915D01*
X120386778Y-117914915D02*
X120339159Y-117819677D01*
X120339159Y-117819677D02*
X120291540Y-117629201D01*
X120291540Y-117629201D02*
X120291540Y-117391106D01*
X120291540Y-117391106D02*
X120339159Y-117200630D01*
X120339159Y-117200630D02*
X120386778Y-117105392D01*
X120386778Y-117105392D02*
X120434397Y-117057773D01*
X120434397Y-117057773D02*
X120529635Y-117010154D01*
X119339159Y-126765056D02*
X119386778Y-126717437D01*
X119386778Y-126717437D02*
X119482016Y-126669818D01*
X119482016Y-126669818D02*
X119720111Y-126669818D01*
X119720111Y-126669818D02*
X119815349Y-126717437D01*
X119815349Y-126717437D02*
X119862968Y-126765056D01*
X119862968Y-126765056D02*
X119910587Y-126860294D01*
X119910587Y-126860294D02*
X119910587Y-126955532D01*
X119910587Y-126955532D02*
X119862968Y-127098389D01*
X119862968Y-127098389D02*
X119291540Y-127669818D01*
X119291540Y-127669818D02*
X119910587Y-127669818D01*
X120529635Y-126669818D02*
X120624873Y-126669818D01*
X120624873Y-126669818D02*
X120720111Y-126717437D01*
X120720111Y-126717437D02*
X120767730Y-126765056D01*
X120767730Y-126765056D02*
X120815349Y-126860294D01*
X120815349Y-126860294D02*
X120862968Y-127050770D01*
X120862968Y-127050770D02*
X120862968Y-127288865D01*
X120862968Y-127288865D02*
X120815349Y-127479341D01*
X120815349Y-127479341D02*
X120767730Y-127574579D01*
X120767730Y-127574579D02*
X120720111Y-127622199D01*
X120720111Y-127622199D02*
X120624873Y-127669818D01*
X120624873Y-127669818D02*
X120529635Y-127669818D01*
X120529635Y-127669818D02*
X120434397Y-127622199D01*
X120434397Y-127622199D02*
X120386778Y-127574579D01*
X120386778Y-127574579D02*
X120339159Y-127479341D01*
X120339159Y-127479341D02*
X120291540Y-127288865D01*
X120291540Y-127288865D02*
X120291540Y-127050770D01*
X120291540Y-127050770D02*
X120339159Y-126860294D01*
X120339159Y-126860294D02*
X120386778Y-126765056D01*
X120386778Y-126765056D02*
X120434397Y-126717437D01*
X120434397Y-126717437D02*
X120529635Y-126669818D01*
X158410587Y-118010154D02*
X157839159Y-118010154D01*
X158124873Y-118010154D02*
X158124873Y-117010154D01*
X158124873Y-117010154D02*
X158029635Y-117153011D01*
X158029635Y-117153011D02*
X157934397Y-117248249D01*
X157934397Y-117248249D02*
X157839159Y-117295868D01*
X158410587Y-127669818D02*
X157839159Y-127669818D01*
X158124873Y-127669818D02*
X158124873Y-126669818D01*
X158124873Y-126669818D02*
X158029635Y-126812675D01*
X158029635Y-126812675D02*
X157934397Y-126907913D01*
X157934397Y-126907913D02*
X157839159Y-126955532D01*
X159362968Y-127669818D02*
X158791540Y-127669818D01*
X159077254Y-127669818D02*
X159077254Y-126669818D01*
X159077254Y-126669818D02*
X158982016Y-126812675D01*
X158982016Y-126812675D02*
X158886778Y-126907913D01*
X158886778Y-126907913D02*
X158791540Y-126955532D01*
X105345181Y-122166666D02*
X104630896Y-122166666D01*
X104630896Y-122166666D02*
X104488039Y-122119047D01*
X104488039Y-122119047D02*
X104392801Y-122023809D01*
X104392801Y-122023809D02*
X104345181Y-121880952D01*
X104345181Y-121880952D02*
X104345181Y-121785714D01*
X105249943Y-122595238D02*
X105297562Y-122642857D01*
X105297562Y-122642857D02*
X105345181Y-122738095D01*
X105345181Y-122738095D02*
X105345181Y-122976190D01*
X105345181Y-122976190D02*
X105297562Y-123071428D01*
X105297562Y-123071428D02*
X105249943Y-123119047D01*
X105249943Y-123119047D02*
X105154705Y-123166666D01*
X105154705Y-123166666D02*
X105059467Y-123166666D01*
X105059467Y-123166666D02*
X104916610Y-123119047D01*
X104916610Y-123119047D02*
X104345181Y-122547619D01*
X104345181Y-122547619D02*
X104345181Y-123166666D01*
X109756512Y-114465350D02*
X109089845Y-114465350D01*
X110137465Y-114227255D02*
X109423179Y-113989160D01*
X109423179Y-113989160D02*
X109423179Y-114608207D01*
X100001610Y-114179636D02*
X100049229Y-114084398D01*
X100049229Y-114084398D02*
X100096848Y-114036779D01*
X100096848Y-114036779D02*
X100192086Y-113989160D01*
X100192086Y-113989160D02*
X100239705Y-113989160D01*
X100239705Y-113989160D02*
X100334943Y-114036779D01*
X100334943Y-114036779D02*
X100382562Y-114084398D01*
X100382562Y-114084398D02*
X100430181Y-114179636D01*
X100430181Y-114179636D02*
X100430181Y-114370112D01*
X100430181Y-114370112D02*
X100382562Y-114465350D01*
X100382562Y-114465350D02*
X100334943Y-114512969D01*
X100334943Y-114512969D02*
X100239705Y-114560588D01*
X100239705Y-114560588D02*
X100192086Y-114560588D01*
X100192086Y-114560588D02*
X100096848Y-114512969D01*
X100096848Y-114512969D02*
X100049229Y-114465350D01*
X100049229Y-114465350D02*
X100001610Y-114370112D01*
X100001610Y-114370112D02*
X100001610Y-114179636D01*
X100001610Y-114179636D02*
X99953991Y-114084398D01*
X99953991Y-114084398D02*
X99906372Y-114036779D01*
X99906372Y-114036779D02*
X99811134Y-113989160D01*
X99811134Y-113989160D02*
X99620658Y-113989160D01*
X99620658Y-113989160D02*
X99525420Y-114036779D01*
X99525420Y-114036779D02*
X99477801Y-114084398D01*
X99477801Y-114084398D02*
X99430181Y-114179636D01*
X99430181Y-114179636D02*
X99430181Y-114370112D01*
X99430181Y-114370112D02*
X99477801Y-114465350D01*
X99477801Y-114465350D02*
X99525420Y-114512969D01*
X99525420Y-114512969D02*
X99620658Y-114560588D01*
X99620658Y-114560588D02*
X99811134Y-114560588D01*
X99811134Y-114560588D02*
X99906372Y-114512969D01*
X99906372Y-114512969D02*
X99953991Y-114465350D01*
X99953991Y-114465350D02*
X100001610Y-114370112D01*
X109089845Y-130960588D02*
X109089845Y-130389160D01*
X109089845Y-130674874D02*
X110089845Y-130674874D01*
X110089845Y-130674874D02*
X109946988Y-130579636D01*
X109946988Y-130579636D02*
X109851750Y-130484398D01*
X109851750Y-130484398D02*
X109804131Y-130389160D01*
X100430181Y-130912969D02*
X100430181Y-130436779D01*
X100430181Y-130436779D02*
X99953991Y-130389160D01*
X99953991Y-130389160D02*
X100001610Y-130436779D01*
X100001610Y-130436779D02*
X100049229Y-130532017D01*
X100049229Y-130532017D02*
X100049229Y-130770112D01*
X100049229Y-130770112D02*
X100001610Y-130865350D01*
X100001610Y-130865350D02*
X99953991Y-130912969D01*
X99953991Y-130912969D02*
X99858753Y-130960588D01*
X99858753Y-130960588D02*
X99620658Y-130960588D01*
X99620658Y-130960588D02*
X99525420Y-130912969D01*
X99525420Y-130912969D02*
X99477801Y-130865350D01*
X99477801Y-130865350D02*
X99430181Y-130770112D01*
X99430181Y-130770112D02*
X99430181Y-130532017D01*
X99430181Y-130532017D02*
X99477801Y-130436779D01*
X99477801Y-130436779D02*
X99525420Y-130389160D01*
X114983333Y-101345779D02*
X114983333Y-100631494D01*
X114983333Y-100631494D02*
X115030952Y-100488637D01*
X115030952Y-100488637D02*
X115126190Y-100393399D01*
X115126190Y-100393399D02*
X115269047Y-100345779D01*
X115269047Y-100345779D02*
X115364285Y-100345779D01*
X114602380Y-101345779D02*
X113983333Y-101345779D01*
X113983333Y-101345779D02*
X114316666Y-100964827D01*
X114316666Y-100964827D02*
X114173809Y-100964827D01*
X114173809Y-100964827D02*
X114078571Y-100917208D01*
X114078571Y-100917208D02*
X114030952Y-100869589D01*
X114030952Y-100869589D02*
X113983333Y-100774351D01*
X113983333Y-100774351D02*
X113983333Y-100536256D01*
X113983333Y-100536256D02*
X114030952Y-100441018D01*
X114030952Y-100441018D02*
X114078571Y-100393399D01*
X114078571Y-100393399D02*
X114173809Y-100345779D01*
X114173809Y-100345779D02*
X114459523Y-100345779D01*
X114459523Y-100345779D02*
X114554761Y-100393399D01*
X114554761Y-100393399D02*
X114602380Y-100441018D01*
X99089411Y-105662244D02*
X99660839Y-105662244D01*
X99375125Y-105662244D02*
X99375125Y-106662244D01*
X99375125Y-106662244D02*
X99470363Y-106519387D01*
X99470363Y-106519387D02*
X99565601Y-106424149D01*
X99565601Y-106424149D02*
X99660839Y-106376530D01*
X99565601Y-96002580D02*
X99375125Y-96002580D01*
X99375125Y-96002580D02*
X99279887Y-96050200D01*
X99279887Y-96050200D02*
X99232268Y-96097819D01*
X99232268Y-96097819D02*
X99137030Y-96240676D01*
X99137030Y-96240676D02*
X99089411Y-96431152D01*
X99089411Y-96431152D02*
X99089411Y-96812104D01*
X99089411Y-96812104D02*
X99137030Y-96907342D01*
X99137030Y-96907342D02*
X99184649Y-96954961D01*
X99184649Y-96954961D02*
X99279887Y-97002580D01*
X99279887Y-97002580D02*
X99470363Y-97002580D01*
X99470363Y-97002580D02*
X99565601Y-96954961D01*
X99565601Y-96954961D02*
X99613220Y-96907342D01*
X99613220Y-96907342D02*
X99660839Y-96812104D01*
X99660839Y-96812104D02*
X99660839Y-96574009D01*
X99660839Y-96574009D02*
X99613220Y-96478771D01*
X99613220Y-96478771D02*
X99565601Y-96431152D01*
X99565601Y-96431152D02*
X99470363Y-96383533D01*
X99470363Y-96383533D02*
X99279887Y-96383533D01*
X99279887Y-96383533D02*
X99184649Y-96431152D01*
X99184649Y-96431152D02*
X99137030Y-96478771D01*
X99137030Y-96478771D02*
X99089411Y-96574009D01*
X130020112Y-106233673D02*
X130115350Y-106281292D01*
X130115350Y-106281292D02*
X130162969Y-106328911D01*
X130162969Y-106328911D02*
X130210588Y-106424149D01*
X130210588Y-106424149D02*
X130210588Y-106471768D01*
X130210588Y-106471768D02*
X130162969Y-106567006D01*
X130162969Y-106567006D02*
X130115350Y-106614625D01*
X130115350Y-106614625D02*
X130020112Y-106662244D01*
X130020112Y-106662244D02*
X129829636Y-106662244D01*
X129829636Y-106662244D02*
X129734398Y-106614625D01*
X129734398Y-106614625D02*
X129686779Y-106567006D01*
X129686779Y-106567006D02*
X129639160Y-106471768D01*
X129639160Y-106471768D02*
X129639160Y-106424149D01*
X129639160Y-106424149D02*
X129686779Y-106328911D01*
X129686779Y-106328911D02*
X129734398Y-106281292D01*
X129734398Y-106281292D02*
X129829636Y-106233673D01*
X129829636Y-106233673D02*
X130020112Y-106233673D01*
X130020112Y-106233673D02*
X130115350Y-106186054D01*
X130115350Y-106186054D02*
X130162969Y-106138435D01*
X130162969Y-106138435D02*
X130210588Y-106043197D01*
X130210588Y-106043197D02*
X130210588Y-105852721D01*
X130210588Y-105852721D02*
X130162969Y-105757483D01*
X130162969Y-105757483D02*
X130115350Y-105709864D01*
X130115350Y-105709864D02*
X130020112Y-105662244D01*
X130020112Y-105662244D02*
X129829636Y-105662244D01*
X129829636Y-105662244D02*
X129734398Y-105709864D01*
X129734398Y-105709864D02*
X129686779Y-105757483D01*
X129686779Y-105757483D02*
X129639160Y-105852721D01*
X129639160Y-105852721D02*
X129639160Y-106043197D01*
X129639160Y-106043197D02*
X129686779Y-106138435D01*
X129686779Y-106138435D02*
X129734398Y-106186054D01*
X129734398Y-106186054D02*
X129829636Y-106233673D01*
X130591541Y-96002580D02*
X131162969Y-96002580D01*
X130877255Y-96002580D02*
X130877255Y-97002580D01*
X130877255Y-97002580D02*
X130972493Y-96859723D01*
X130972493Y-96859723D02*
X131067731Y-96764485D01*
X131067731Y-96764485D02*
X131162969Y-96716866D01*
X129734398Y-97002580D02*
X129924874Y-97002580D01*
X129924874Y-97002580D02*
X130020112Y-96954961D01*
X130020112Y-96954961D02*
X130067731Y-96907342D01*
X130067731Y-96907342D02*
X130162969Y-96764485D01*
X130162969Y-96764485D02*
X130210588Y-96574009D01*
X130210588Y-96574009D02*
X130210588Y-96193057D01*
X130210588Y-96193057D02*
X130162969Y-96097819D01*
X130162969Y-96097819D02*
X130115350Y-96050200D01*
X130115350Y-96050200D02*
X130020112Y-96002580D01*
X130020112Y-96002580D02*
X129829636Y-96002580D01*
X129829636Y-96002580D02*
X129734398Y-96050200D01*
X129734398Y-96050200D02*
X129686779Y-96097819D01*
X129686779Y-96097819D02*
X129639160Y-96193057D01*
X129639160Y-96193057D02*
X129639160Y-96431152D01*
X129639160Y-96431152D02*
X129686779Y-96526390D01*
X129686779Y-96526390D02*
X129734398Y-96574009D01*
X129734398Y-96574009D02*
X129829636Y-96621628D01*
X129829636Y-96621628D02*
X130020112Y-96621628D01*
X130020112Y-96621628D02*
X130115350Y-96574009D01*
X130115350Y-96574009D02*
X130162969Y-96526390D01*
X130162969Y-96526390D02*
X130210588Y-96431152D01*
X145189569Y-147283620D02*
X145189569Y-147997905D01*
X145189569Y-147997905D02*
X145141950Y-148140762D01*
X145141950Y-148140762D02*
X145046712Y-148236001D01*
X145046712Y-148236001D02*
X144903855Y-148283620D01*
X144903855Y-148283620D02*
X144808617Y-148283620D01*
X145570522Y-147283620D02*
X146237188Y-147283620D01*
X146237188Y-147283620D02*
X145808617Y-148283620D01*
X164333491Y-143348898D02*
X163762063Y-143348898D01*
X164047777Y-143348898D02*
X164047777Y-142348898D01*
X164047777Y-142348898D02*
X163952539Y-142491755D01*
X163952539Y-142491755D02*
X163857301Y-142586993D01*
X163857301Y-142586993D02*
X163762063Y-142634612D01*
X164333491Y-151398618D02*
X163762063Y-151398618D01*
X164047777Y-151398618D02*
X164047777Y-150398618D01*
X164047777Y-150398618D02*
X163952539Y-150541475D01*
X163952539Y-150541475D02*
X163857301Y-150636713D01*
X163857301Y-150636713D02*
X163762063Y-150684332D01*
X165285872Y-151398618D02*
X164714444Y-151398618D01*
X165000158Y-151398618D02*
X165000158Y-150398618D01*
X165000158Y-150398618D02*
X164904920Y-150541475D01*
X164904920Y-150541475D02*
X164809682Y-150636713D01*
X164809682Y-150636713D02*
X164714444Y-150684332D01*
X126233491Y-143348898D02*
X125662063Y-143348898D01*
X125947777Y-143348898D02*
X125947777Y-142348898D01*
X125947777Y-142348898D02*
X125852539Y-142491755D01*
X125852539Y-142491755D02*
X125757301Y-142586993D01*
X125757301Y-142586993D02*
X125662063Y-142634612D01*
X126852539Y-142348898D02*
X126947777Y-142348898D01*
X126947777Y-142348898D02*
X127043015Y-142396517D01*
X127043015Y-142396517D02*
X127090634Y-142444136D01*
X127090634Y-142444136D02*
X127138253Y-142539374D01*
X127138253Y-142539374D02*
X127185872Y-142729850D01*
X127185872Y-142729850D02*
X127185872Y-142967945D01*
X127185872Y-142967945D02*
X127138253Y-143158421D01*
X127138253Y-143158421D02*
X127090634Y-143253659D01*
X127090634Y-143253659D02*
X127043015Y-143301279D01*
X127043015Y-143301279D02*
X126947777Y-143348898D01*
X126947777Y-143348898D02*
X126852539Y-143348898D01*
X126852539Y-143348898D02*
X126757301Y-143301279D01*
X126757301Y-143301279D02*
X126709682Y-143253659D01*
X126709682Y-143253659D02*
X126662063Y-143158421D01*
X126662063Y-143158421D02*
X126614444Y-142967945D01*
X126614444Y-142967945D02*
X126614444Y-142729850D01*
X126614444Y-142729850D02*
X126662063Y-142539374D01*
X126662063Y-142539374D02*
X126709682Y-142444136D01*
X126709682Y-142444136D02*
X126757301Y-142396517D01*
X126757301Y-142396517D02*
X126852539Y-142348898D01*
X125662063Y-150493856D02*
X125709682Y-150446237D01*
X125709682Y-150446237D02*
X125804920Y-150398618D01*
X125804920Y-150398618D02*
X126043015Y-150398618D01*
X126043015Y-150398618D02*
X126138253Y-150446237D01*
X126138253Y-150446237D02*
X126185872Y-150493856D01*
X126185872Y-150493856D02*
X126233491Y-150589094D01*
X126233491Y-150589094D02*
X126233491Y-150684332D01*
X126233491Y-150684332D02*
X126185872Y-150827189D01*
X126185872Y-150827189D02*
X125614444Y-151398618D01*
X125614444Y-151398618D02*
X126233491Y-151398618D01*
X126852539Y-150398618D02*
X126947777Y-150398618D01*
X126947777Y-150398618D02*
X127043015Y-150446237D01*
X127043015Y-150446237D02*
X127090634Y-150493856D01*
X127090634Y-150493856D02*
X127138253Y-150589094D01*
X127138253Y-150589094D02*
X127185872Y-150779570D01*
X127185872Y-150779570D02*
X127185872Y-151017665D01*
X127185872Y-151017665D02*
X127138253Y-151208141D01*
X127138253Y-151208141D02*
X127090634Y-151303379D01*
X127090634Y-151303379D02*
X127043015Y-151350999D01*
X127043015Y-151350999D02*
X126947777Y-151398618D01*
X126947777Y-151398618D02*
X126852539Y-151398618D01*
X126852539Y-151398618D02*
X126757301Y-151350999D01*
X126757301Y-151350999D02*
X126709682Y-151303379D01*
X126709682Y-151303379D02*
X126662063Y-151208141D01*
X126662063Y-151208141D02*
X126614444Y-151017665D01*
X126614444Y-151017665D02*
X126614444Y-150779570D01*
X126614444Y-150779570D02*
X126662063Y-150589094D01*
X126662063Y-150589094D02*
X126709682Y-150493856D01*
X126709682Y-150493856D02*
X126757301Y-150446237D01*
X126757301Y-150446237D02*
X126852539Y-150398618D01*
X172854818Y-120383333D02*
X173569103Y-120383333D01*
X173569103Y-120383333D02*
X173711960Y-120430952D01*
X173711960Y-120430952D02*
X173807199Y-120526190D01*
X173807199Y-120526190D02*
X173854818Y-120669047D01*
X173854818Y-120669047D02*
X173854818Y-120764285D01*
X172854818Y-119478571D02*
X172854818Y-119669047D01*
X172854818Y-119669047D02*
X172902437Y-119764285D01*
X172902437Y-119764285D02*
X172950056Y-119811904D01*
X172950056Y-119811904D02*
X173092913Y-119907142D01*
X173092913Y-119907142D02*
X173283389Y-119954761D01*
X173283389Y-119954761D02*
X173664341Y-119954761D01*
X173664341Y-119954761D02*
X173759579Y-119907142D01*
X173759579Y-119907142D02*
X173807199Y-119859523D01*
X173807199Y-119859523D02*
X173854818Y-119764285D01*
X173854818Y-119764285D02*
X173854818Y-119573809D01*
X173854818Y-119573809D02*
X173807199Y-119478571D01*
X173807199Y-119478571D02*
X173759579Y-119430952D01*
X173759579Y-119430952D02*
X173664341Y-119383333D01*
X173664341Y-119383333D02*
X173426246Y-119383333D01*
X173426246Y-119383333D02*
X173331008Y-119430952D01*
X173331008Y-119430952D02*
X173283389Y-119478571D01*
X173283389Y-119478571D02*
X173235770Y-119573809D01*
X173235770Y-119573809D02*
X173235770Y-119764285D01*
X173235770Y-119764285D02*
X173283389Y-119859523D01*
X173283389Y-119859523D02*
X173331008Y-119907142D01*
X173331008Y-119907142D02*
X173426246Y-119954761D01*
X169020099Y-104639411D02*
X169020099Y-105210839D01*
X169020099Y-104925125D02*
X168020099Y-104925125D01*
X168020099Y-104925125D02*
X168162956Y-105020363D01*
X168162956Y-105020363D02*
X168258194Y-105115601D01*
X168258194Y-105115601D02*
X168305813Y-105210839D01*
X177069819Y-105115601D02*
X177069819Y-104925125D01*
X177069819Y-104925125D02*
X177022200Y-104829887D01*
X177022200Y-104829887D02*
X176974580Y-104782268D01*
X176974580Y-104782268D02*
X176831723Y-104687030D01*
X176831723Y-104687030D02*
X176641247Y-104639411D01*
X176641247Y-104639411D02*
X176260295Y-104639411D01*
X176260295Y-104639411D02*
X176165057Y-104687030D01*
X176165057Y-104687030D02*
X176117438Y-104734649D01*
X176117438Y-104734649D02*
X176069819Y-104829887D01*
X176069819Y-104829887D02*
X176069819Y-105020363D01*
X176069819Y-105020363D02*
X176117438Y-105115601D01*
X176117438Y-105115601D02*
X176165057Y-105163220D01*
X176165057Y-105163220D02*
X176260295Y-105210839D01*
X176260295Y-105210839D02*
X176498390Y-105210839D01*
X176498390Y-105210839D02*
X176593628Y-105163220D01*
X176593628Y-105163220D02*
X176641247Y-105115601D01*
X176641247Y-105115601D02*
X176688866Y-105020363D01*
X176688866Y-105020363D02*
X176688866Y-104829887D01*
X176688866Y-104829887D02*
X176641247Y-104734649D01*
X176641247Y-104734649D02*
X176593628Y-104687030D01*
X176593628Y-104687030D02*
X176498390Y-104639411D01*
X168448670Y-135370112D02*
X168401051Y-135465350D01*
X168401051Y-135465350D02*
X168353432Y-135512969D01*
X168353432Y-135512969D02*
X168258194Y-135560588D01*
X168258194Y-135560588D02*
X168210575Y-135560588D01*
X168210575Y-135560588D02*
X168115337Y-135512969D01*
X168115337Y-135512969D02*
X168067718Y-135465350D01*
X168067718Y-135465350D02*
X168020099Y-135370112D01*
X168020099Y-135370112D02*
X168020099Y-135179636D01*
X168020099Y-135179636D02*
X168067718Y-135084398D01*
X168067718Y-135084398D02*
X168115337Y-135036779D01*
X168115337Y-135036779D02*
X168210575Y-134989160D01*
X168210575Y-134989160D02*
X168258194Y-134989160D01*
X168258194Y-134989160D02*
X168353432Y-135036779D01*
X168353432Y-135036779D02*
X168401051Y-135084398D01*
X168401051Y-135084398D02*
X168448670Y-135179636D01*
X168448670Y-135179636D02*
X168448670Y-135370112D01*
X168448670Y-135370112D02*
X168496289Y-135465350D01*
X168496289Y-135465350D02*
X168543908Y-135512969D01*
X168543908Y-135512969D02*
X168639146Y-135560588D01*
X168639146Y-135560588D02*
X168829622Y-135560588D01*
X168829622Y-135560588D02*
X168924860Y-135512969D01*
X168924860Y-135512969D02*
X168972480Y-135465350D01*
X168972480Y-135465350D02*
X169020099Y-135370112D01*
X169020099Y-135370112D02*
X169020099Y-135179636D01*
X169020099Y-135179636D02*
X168972480Y-135084398D01*
X168972480Y-135084398D02*
X168924860Y-135036779D01*
X168924860Y-135036779D02*
X168829622Y-134989160D01*
X168829622Y-134989160D02*
X168639146Y-134989160D01*
X168639146Y-134989160D02*
X168543908Y-135036779D01*
X168543908Y-135036779D02*
X168496289Y-135084398D01*
X168496289Y-135084398D02*
X168448670Y-135179636D01*
X177069819Y-135941541D02*
X177069819Y-136512969D01*
X177069819Y-136227255D02*
X176069819Y-136227255D01*
X176069819Y-136227255D02*
X176212676Y-136322493D01*
X176212676Y-136322493D02*
X176307914Y-136417731D01*
X176307914Y-136417731D02*
X176355533Y-136512969D01*
X176069819Y-135084398D02*
X176069819Y-135274874D01*
X176069819Y-135274874D02*
X176117438Y-135370112D01*
X176117438Y-135370112D02*
X176165057Y-135417731D01*
X176165057Y-135417731D02*
X176307914Y-135512969D01*
X176307914Y-135512969D02*
X176498390Y-135560588D01*
X176498390Y-135560588D02*
X176879342Y-135560588D01*
X176879342Y-135560588D02*
X176974580Y-135512969D01*
X176974580Y-135512969D02*
X177022200Y-135465350D01*
X177022200Y-135465350D02*
X177069819Y-135370112D01*
X177069819Y-135370112D02*
X177069819Y-135179636D01*
X177069819Y-135179636D02*
X177022200Y-135084398D01*
X177022200Y-135084398D02*
X176974580Y-135036779D01*
X176974580Y-135036779D02*
X176879342Y-134989160D01*
X176879342Y-134989160D02*
X176641247Y-134989160D01*
X176641247Y-134989160D02*
X176546009Y-135036779D01*
X176546009Y-135036779D02*
X176498390Y-135084398D01*
X176498390Y-135084398D02*
X176450771Y-135179636D01*
X176450771Y-135179636D02*
X176450771Y-135370112D01*
X176450771Y-135370112D02*
X176498390Y-135465350D01*
X176498390Y-135465350D02*
X176546009Y-135512969D01*
X176546009Y-135512969D02*
X176641247Y-135560588D01*
D11*
%TO.C,J5*%
X141525302Y-81230601D02*
X141525302Y-103227002D01*
X141525302Y-103227002D02*
X155774702Y-103227002D01*
X155774702Y-81230601D02*
X141525302Y-81230601D01*
X155774702Y-103227002D02*
X155774702Y-81230601D01*
D12*
X155774700Y-103227002D02*
X141525302Y-103227002D01*
X141525302Y-93200003D01*
X155774700Y-93200003D01*
X155774700Y-103227002D01*
D13*
X140781002Y-101300003D02*
G75*
G02*
X140019002Y-101300003I-381000J0D01*
G01*
X140019002Y-101300003D02*
G75*
G02*
X140781002Y-101300003I381000J0D01*
G01*
D11*
%TO.C,J1*%
X102327900Y-139773001D02*
X102327900Y-149628201D01*
X102327900Y-149628201D02*
X113072100Y-149628201D01*
X113072100Y-139773001D02*
X102327900Y-139773001D01*
X113072100Y-149628201D02*
X113072100Y-139773001D01*
D13*
X114580999Y-141700000D02*
G75*
G02*
X113818999Y-141700000I-381000J0D01*
G01*
X113818999Y-141700000D02*
G75*
G02*
X114580999Y-141700000I381000J0D01*
G01*
D11*
%TO.C,J4*%
X121722399Y-117472399D02*
X121722399Y-127327599D01*
X121722399Y-127327599D02*
X156977599Y-127327599D01*
X156977599Y-117472399D02*
X121722399Y-117472399D01*
X156977599Y-127327599D02*
X156977599Y-117472399D01*
D13*
X158480994Y-119399997D02*
G75*
G02*
X157718994Y-119399997I-381000J0D01*
G01*
X157718994Y-119399997D02*
G75*
G02*
X158480994Y-119399997I381000J0D01*
G01*
D11*
%TO.C,J2*%
X99872401Y-115375300D02*
X99872401Y-129624700D01*
X99872401Y-129624700D02*
X109727601Y-129624700D01*
X109727601Y-115375300D02*
X99872401Y-115375300D01*
X109727601Y-129624700D02*
X109727601Y-115375300D01*
D13*
X108181003Y-130750000D02*
G75*
G02*
X107419003Y-130750000I-381000J0D01*
G01*
X107419003Y-130750000D02*
G75*
G02*
X108181003Y-130750000I381000J0D01*
G01*
D11*
%TO.C,J3*%
X100527600Y-95872400D02*
X100527600Y-105727600D01*
X100527600Y-105727600D02*
X128772400Y-105727600D01*
X128772400Y-95872400D02*
X100527600Y-95872400D01*
X128772400Y-105727600D02*
X128772400Y-95872400D01*
D13*
X99781001Y-103800601D02*
G75*
G02*
X99019001Y-103800601I-381000J0D01*
G01*
X99019001Y-103800601D02*
G75*
G02*
X99781001Y-103800601I381000J0D01*
G01*
D11*
%TO.C,J7*%
X127895303Y-142901800D02*
X127895303Y-164898201D01*
X127895303Y-164898201D02*
X163150503Y-164898201D01*
X163150503Y-142901800D02*
X127895303Y-142901800D01*
X163150503Y-164898201D02*
X163150503Y-142901800D01*
D12*
X127895303Y-142901800D02*
X163150503Y-142901800D01*
X163150503Y-152928799D01*
X127895303Y-152928799D01*
X127895303Y-142901800D01*
D13*
X164653898Y-144828799D02*
G75*
G02*
X163891898Y-144828799I-381000J0D01*
G01*
X163891898Y-144828799D02*
G75*
G02*
X164653898Y-144828799I381000J0D01*
G01*
D11*
%TO.C,J6*%
X168472998Y-105927600D02*
X168472998Y-134172400D01*
X168472998Y-134172400D02*
X190469399Y-134172400D01*
X190469399Y-105927600D02*
X168472998Y-105927600D01*
X190469399Y-134172400D02*
X190469399Y-105927600D01*
D12*
X168472998Y-134182800D02*
X178499997Y-134182800D01*
X178499997Y-105927600D01*
X168472998Y-105927600D01*
X168472998Y-134182800D01*
D13*
X170780997Y-104800001D02*
G75*
G02*
X170018997Y-104800001I-381000J0D01*
G01*
X170018997Y-104800001D02*
G75*
G02*
X170780997Y-104800001I381000J0D01*
G01*
%TD*%
%LPC*%
D14*
%TO.C,LOGO1*%
G36*
X160450794Y-100496905D02*
G01*
X160475993Y-101630833D01*
X161496528Y-101644476D01*
X162517064Y-101658119D01*
X162517064Y-101909059D01*
X162517064Y-102160000D01*
X161180751Y-102160000D01*
X159844438Y-102160000D01*
X159857834Y-100761488D01*
X159871231Y-99362976D01*
X160148413Y-99362976D01*
X160425596Y-99362976D01*
X160450794Y-100496905D01*
G37*
G36*
X173315873Y-100010198D02*
G01*
X173315873Y-100236984D01*
X172534722Y-100236984D01*
X171753571Y-100236984D01*
X171753571Y-100488968D01*
X171753571Y-100740952D01*
X172534722Y-100740952D01*
X173315873Y-100740952D01*
X173315873Y-101446508D01*
X173315873Y-102152063D01*
X172307936Y-102152063D01*
X171300000Y-102152063D01*
X171300000Y-101925278D01*
X171300000Y-101698492D01*
X172081151Y-101698492D01*
X172862301Y-101698492D01*
X172862301Y-101446508D01*
X172862301Y-101194524D01*
X172081151Y-101194524D01*
X171300000Y-101194524D01*
X171300000Y-100488968D01*
X171300000Y-99783413D01*
X172307936Y-99783413D01*
X173315873Y-99783413D01*
X173315873Y-100010198D01*
G37*
G36*
X166326828Y-99346870D02*
G01*
X166523612Y-99362976D01*
X166537008Y-100761488D01*
X166550404Y-102160000D01*
X166223678Y-102160000D01*
X165896952Y-102160000D01*
X165882703Y-101593036D01*
X165868453Y-101026071D01*
X164773982Y-101012494D01*
X163679510Y-100998916D01*
X163665251Y-101566859D01*
X163650993Y-102134801D01*
X163335211Y-102149826D01*
X163019429Y-102164851D01*
X163032830Y-100763914D01*
X163046231Y-99362976D01*
X163302691Y-99348025D01*
X163501790Y-99352861D01*
X163610363Y-99395420D01*
X163615728Y-99401244D01*
X163641275Y-99478573D01*
X163664051Y-99631243D01*
X163680876Y-99833801D01*
X163686847Y-99970561D01*
X163701389Y-100471706D01*
X164784921Y-100471706D01*
X165868453Y-100471706D01*
X165882752Y-99930474D01*
X165892061Y-99672555D01*
X165911771Y-99499779D01*
X165953781Y-99396509D01*
X166029990Y-99347105D01*
X166152298Y-99335930D01*
X166326828Y-99346870D01*
G37*
G36*
X168556389Y-99342880D02*
G01*
X168879517Y-99346724D01*
X169347725Y-99355193D01*
X169725655Y-99367869D01*
X170023823Y-99388856D01*
X170252744Y-99422257D01*
X170422934Y-99472178D01*
X170544908Y-99542721D01*
X170629182Y-99637992D01*
X170686272Y-99762094D01*
X170726693Y-99919132D01*
X170755352Y-100078856D01*
X170765781Y-100281314D01*
X170742188Y-100503805D01*
X170691695Y-100712348D01*
X170621422Y-100872966D01*
X170577371Y-100928160D01*
X170513130Y-100994076D01*
X170513297Y-101046382D01*
X170580288Y-101126572D01*
X170589499Y-101136385D01*
X170645563Y-101211351D01*
X170682230Y-101308775D01*
X170705316Y-101453634D01*
X170720634Y-101670905D01*
X170722438Y-101707429D01*
X170744076Y-102160000D01*
X170410332Y-102160000D01*
X170076588Y-102160000D01*
X170076588Y-101864415D01*
X170064342Y-101657713D01*
X170021898Y-101514351D01*
X169972136Y-101436042D01*
X169867685Y-101303254D01*
X168913803Y-101303254D01*
X167959921Y-101303254D01*
X167959921Y-101731627D01*
X167959921Y-102160000D01*
X167632342Y-102160000D01*
X167304762Y-102160000D01*
X167304762Y-100775047D01*
X167304762Y-100312116D01*
X167304762Y-99892143D01*
X167959921Y-99892143D01*
X167959921Y-100312116D01*
X167964188Y-100509653D01*
X167975542Y-100667374D01*
X167991816Y-100759012D01*
X167997719Y-100770099D01*
X168057819Y-100781199D01*
X168202244Y-100789204D01*
X168414564Y-100793761D01*
X168678345Y-100794519D01*
X168977158Y-100791126D01*
X168978719Y-100791098D01*
X169315482Y-100784007D01*
X169565965Y-100775610D01*
X169744681Y-100764404D01*
X169866141Y-100748885D01*
X169944859Y-100727551D01*
X169995349Y-100698897D01*
X170011853Y-100684093D01*
X170077195Y-100565962D01*
X170101407Y-100374497D01*
X170101786Y-100339462D01*
X170091791Y-100170129D01*
X170053410Y-100063196D01*
X169982810Y-99988484D01*
X169932720Y-99954546D01*
X169868423Y-99929601D01*
X169774814Y-99912287D01*
X169636788Y-99901247D01*
X169439240Y-99895123D01*
X169167064Y-99892554D01*
X168911878Y-99892143D01*
X167959921Y-99892143D01*
X167304762Y-99892143D01*
X167304762Y-99390095D01*
X167430608Y-99358509D01*
X167513764Y-99350726D01*
X167682805Y-99345150D01*
X167922847Y-99341903D01*
X168219004Y-99341106D01*
X168556389Y-99342880D01*
G37*
%TD*%
D15*
%TO.C,J5*%
X143400000Y-101300003D03*
X146900001Y-101300003D03*
X150400001Y-101300003D03*
X153900002Y-101300003D03*
X143400000Y-95300000D03*
X146900001Y-95300000D03*
X150400001Y-95300000D03*
X153900002Y-95300000D03*
%TD*%
%TO.C,J1*%
X111200000Y-141700000D03*
X107700000Y-141700000D03*
X104199999Y-141700000D03*
X111200000Y-147700003D03*
X107700000Y-147700003D03*
X104199999Y-147700003D03*
%TD*%
%TO.C,J4*%
X155100003Y-119399997D03*
X151600002Y-119399997D03*
X148100001Y-119399997D03*
X144600001Y-119399997D03*
X141100000Y-119399997D03*
X137599999Y-119399997D03*
X134099999Y-119399997D03*
X130599996Y-119399997D03*
X127099995Y-119399997D03*
X123599994Y-119399997D03*
X155100003Y-125400000D03*
X151600002Y-125400000D03*
X148100001Y-125400000D03*
X144600001Y-125400000D03*
X141100000Y-125400000D03*
X137599999Y-125400000D03*
X134099999Y-125400000D03*
X130599996Y-125400000D03*
X127099995Y-125400000D03*
X123599994Y-125400000D03*
%TD*%
%TO.C,J2*%
X107800003Y-127750002D03*
X107800003Y-124250001D03*
X107800003Y-120750001D03*
X107800003Y-117250000D03*
X101800000Y-127750002D03*
X101800000Y-124250001D03*
X101800000Y-120750001D03*
X101800000Y-117250000D03*
%TD*%
%TO.C,J3*%
X102399996Y-103800601D03*
X105899997Y-103800601D03*
X109399998Y-103800601D03*
X112899998Y-103800601D03*
X116399999Y-103800601D03*
X119900000Y-103800601D03*
X123400000Y-103800601D03*
X126900001Y-103800601D03*
X102399996Y-97800598D03*
X105899997Y-97800598D03*
X109399998Y-97800598D03*
X112899998Y-97800598D03*
X116399999Y-97800598D03*
X119900000Y-97800598D03*
X123400000Y-97800598D03*
X126900001Y-97800598D03*
%TD*%
%TO.C,J7*%
X161272907Y-144828799D03*
X157772906Y-144828799D03*
X154272905Y-144828799D03*
X150772905Y-144828799D03*
X147272904Y-144828799D03*
X143772903Y-144828799D03*
X140272903Y-144828799D03*
X136772900Y-144828799D03*
X133272899Y-144828799D03*
X129772898Y-144828799D03*
X161272907Y-150828802D03*
X157772906Y-150828802D03*
X154272905Y-150828802D03*
X150772905Y-150828802D03*
X147272904Y-150828802D03*
X143772903Y-150828802D03*
X140272903Y-150828802D03*
X136772900Y-150828802D03*
X133272899Y-150828802D03*
X129772898Y-150828802D03*
%TD*%
%TO.C,J6*%
X170399997Y-107799996D03*
X170399997Y-111299997D03*
X170399997Y-114799998D03*
X170399997Y-118299998D03*
X170399997Y-121799999D03*
X170399997Y-125300000D03*
X170399997Y-128800000D03*
X170399997Y-132300001D03*
X176400000Y-107799996D03*
X176400000Y-111299997D03*
X176400000Y-114799998D03*
X176400000Y-118299998D03*
X176400000Y-121799999D03*
X176400000Y-125300000D03*
X176400000Y-128800000D03*
X176400000Y-132300001D03*
%TD*%
%LPD*%
M02*
