%TF.GenerationSoftware,KiCad,Pcbnew,9.0.0*%
%TF.CreationDate,2025-10-24T23:21:21-05:00*%
%TF.ProjectId,MX150_Test_Board,4d583135-305f-4546-9573-745f426f6172,rev?*%
%TF.SameCoordinates,Original*%
%TF.FileFunction,Soldermask,Top*%
%TF.FilePolarity,Negative*%
%FSLAX46Y46*%
G04 Gerber Fmt 4.6, Leading zero omitted, Abs format (unit mm)*
G04 Created by KiCad (PCBNEW 9.0.0) date 2025-10-24 23:21:21*
%MOMM*%
%LPD*%
G01*
G04 APERTURE LIST*
%ADD10C,0.000000*%
%ADD11C,1.905000*%
G04 APERTURE END LIST*
D10*
%TO.C,LOGO1*%
G36*
X160450794Y-100496905D02*
G01*
X160475993Y-101630833D01*
X161496528Y-101644476D01*
X162517064Y-101658119D01*
X162517064Y-101909059D01*
X162517064Y-102160000D01*
X161180751Y-102160000D01*
X159844438Y-102160000D01*
X159857834Y-100761488D01*
X159871231Y-99362976D01*
X160148413Y-99362976D01*
X160425596Y-99362976D01*
X160450794Y-100496905D01*
G37*
G36*
X173315873Y-100010198D02*
G01*
X173315873Y-100236984D01*
X172534722Y-100236984D01*
X171753571Y-100236984D01*
X171753571Y-100488968D01*
X171753571Y-100740952D01*
X172534722Y-100740952D01*
X173315873Y-100740952D01*
X173315873Y-101446508D01*
X173315873Y-102152063D01*
X172307936Y-102152063D01*
X171300000Y-102152063D01*
X171300000Y-101925278D01*
X171300000Y-101698492D01*
X172081151Y-101698492D01*
X172862301Y-101698492D01*
X172862301Y-101446508D01*
X172862301Y-101194524D01*
X172081151Y-101194524D01*
X171300000Y-101194524D01*
X171300000Y-100488968D01*
X171300000Y-99783413D01*
X172307936Y-99783413D01*
X173315873Y-99783413D01*
X173315873Y-100010198D01*
G37*
G36*
X166326828Y-99346870D02*
G01*
X166523612Y-99362976D01*
X166537008Y-100761488D01*
X166550404Y-102160000D01*
X166223678Y-102160000D01*
X165896952Y-102160000D01*
X165882703Y-101593036D01*
X165868453Y-101026071D01*
X164773982Y-101012494D01*
X163679510Y-100998916D01*
X163665251Y-101566859D01*
X163650993Y-102134801D01*
X163335211Y-102149826D01*
X163019429Y-102164851D01*
X163032830Y-100763914D01*
X163046231Y-99362976D01*
X163302691Y-99348025D01*
X163501790Y-99352861D01*
X163610363Y-99395420D01*
X163615728Y-99401244D01*
X163641275Y-99478573D01*
X163664051Y-99631243D01*
X163680876Y-99833801D01*
X163686847Y-99970561D01*
X163701389Y-100471706D01*
X164784921Y-100471706D01*
X165868453Y-100471706D01*
X165882752Y-99930474D01*
X165892061Y-99672555D01*
X165911771Y-99499779D01*
X165953781Y-99396509D01*
X166029990Y-99347105D01*
X166152298Y-99335930D01*
X166326828Y-99346870D01*
G37*
G36*
X168556389Y-99342880D02*
G01*
X168879517Y-99346724D01*
X169347725Y-99355193D01*
X169725655Y-99367869D01*
X170023823Y-99388856D01*
X170252744Y-99422257D01*
X170422934Y-99472178D01*
X170544908Y-99542721D01*
X170629182Y-99637992D01*
X170686272Y-99762094D01*
X170726693Y-99919132D01*
X170755352Y-100078856D01*
X170765781Y-100281314D01*
X170742188Y-100503805D01*
X170691695Y-100712348D01*
X170621422Y-100872966D01*
X170577371Y-100928160D01*
X170513130Y-100994076D01*
X170513297Y-101046382D01*
X170580288Y-101126572D01*
X170589499Y-101136385D01*
X170645563Y-101211351D01*
X170682230Y-101308775D01*
X170705316Y-101453634D01*
X170720634Y-101670905D01*
X170722438Y-101707429D01*
X170744076Y-102160000D01*
X170410332Y-102160000D01*
X170076588Y-102160000D01*
X170076588Y-101864415D01*
X170064342Y-101657713D01*
X170021898Y-101514351D01*
X169972136Y-101436042D01*
X169867685Y-101303254D01*
X168913803Y-101303254D01*
X167959921Y-101303254D01*
X167959921Y-101731627D01*
X167959921Y-102160000D01*
X167632342Y-102160000D01*
X167304762Y-102160000D01*
X167304762Y-100775047D01*
X167304762Y-100312116D01*
X167304762Y-99892143D01*
X167959921Y-99892143D01*
X167959921Y-100312116D01*
X167964188Y-100509653D01*
X167975542Y-100667374D01*
X167991816Y-100759012D01*
X167997719Y-100770099D01*
X168057819Y-100781199D01*
X168202244Y-100789204D01*
X168414564Y-100793761D01*
X168678345Y-100794519D01*
X168977158Y-100791126D01*
X168978719Y-100791098D01*
X169315482Y-100784007D01*
X169565965Y-100775610D01*
X169744681Y-100764404D01*
X169866141Y-100748885D01*
X169944859Y-100727551D01*
X169995349Y-100698897D01*
X170011853Y-100684093D01*
X170077195Y-100565962D01*
X170101407Y-100374497D01*
X170101786Y-100339462D01*
X170091791Y-100170129D01*
X170053410Y-100063196D01*
X169982810Y-99988484D01*
X169932720Y-99954546D01*
X169868423Y-99929601D01*
X169774814Y-99912287D01*
X169636788Y-99901247D01*
X169439240Y-99895123D01*
X169167064Y-99892554D01*
X168911878Y-99892143D01*
X167959921Y-99892143D01*
X167304762Y-99892143D01*
X167304762Y-99390095D01*
X167430608Y-99358509D01*
X167513764Y-99350726D01*
X167682805Y-99345150D01*
X167922847Y-99341903D01*
X168219004Y-99341106D01*
X168556389Y-99342880D01*
G37*
%TD*%
D11*
%TO.C,J5*%
X143400000Y-101300003D03*
X146900001Y-101300003D03*
X150400001Y-101300003D03*
X153900002Y-101300003D03*
X143400000Y-95300000D03*
X146900001Y-95300000D03*
X150400001Y-95300000D03*
X153900002Y-95300000D03*
%TD*%
%TO.C,J1*%
X111200000Y-141700000D03*
X107700000Y-141700000D03*
X104199999Y-141700000D03*
X111200000Y-147700003D03*
X107700000Y-147700003D03*
X104199999Y-147700003D03*
%TD*%
%TO.C,J4*%
X155100003Y-119399997D03*
X151600002Y-119399997D03*
X148100001Y-119399997D03*
X144600001Y-119399997D03*
X141100000Y-119399997D03*
X137599999Y-119399997D03*
X134099999Y-119399997D03*
X130599996Y-119399997D03*
X127099995Y-119399997D03*
X123599994Y-119399997D03*
X155100003Y-125400000D03*
X151600002Y-125400000D03*
X148100001Y-125400000D03*
X144600001Y-125400000D03*
X141100000Y-125400000D03*
X137599999Y-125400000D03*
X134099999Y-125400000D03*
X130599996Y-125400000D03*
X127099995Y-125400000D03*
X123599994Y-125400000D03*
%TD*%
%TO.C,J2*%
X107800003Y-127750002D03*
X107800003Y-124250001D03*
X107800003Y-120750001D03*
X107800003Y-117250000D03*
X101800000Y-127750002D03*
X101800000Y-124250001D03*
X101800000Y-120750001D03*
X101800000Y-117250000D03*
%TD*%
%TO.C,J3*%
X102399996Y-103800601D03*
X105899997Y-103800601D03*
X109399998Y-103800601D03*
X112899998Y-103800601D03*
X116399999Y-103800601D03*
X119900000Y-103800601D03*
X123400000Y-103800601D03*
X126900001Y-103800601D03*
X102399996Y-97800598D03*
X105899997Y-97800598D03*
X109399998Y-97800598D03*
X112899998Y-97800598D03*
X116399999Y-97800598D03*
X119900000Y-97800598D03*
X123400000Y-97800598D03*
X126900001Y-97800598D03*
%TD*%
%TO.C,J7*%
X161272907Y-144828799D03*
X157772906Y-144828799D03*
X154272905Y-144828799D03*
X150772905Y-144828799D03*
X147272904Y-144828799D03*
X143772903Y-144828799D03*
X140272903Y-144828799D03*
X136772900Y-144828799D03*
X133272899Y-144828799D03*
X129772898Y-144828799D03*
X161272907Y-150828802D03*
X157772906Y-150828802D03*
X154272905Y-150828802D03*
X150772905Y-150828802D03*
X147272904Y-150828802D03*
X143772903Y-150828802D03*
X140272903Y-150828802D03*
X136772900Y-150828802D03*
X133272899Y-150828802D03*
X129772898Y-150828802D03*
%TD*%
%TO.C,J6*%
X170399997Y-107799996D03*
X170399997Y-111299997D03*
X170399997Y-114799998D03*
X170399997Y-118299998D03*
X170399997Y-121799999D03*
X170399997Y-125300000D03*
X170399997Y-128800000D03*
X170399997Y-132300001D03*
X176400000Y-107799996D03*
X176400000Y-111299997D03*
X176400000Y-114799998D03*
X176400000Y-118299998D03*
X176400000Y-121799999D03*
X176400000Y-125300000D03*
X176400000Y-128800000D03*
X176400000Y-132300001D03*
%TD*%
M02*
