M48
; DRILL file {KiCad 9.0.3} date 2025-10-11T11:31:02-0500
; FORMAT={-:-/ absolute / inch / decimal}
; #@! TF.CreationDate,2025-10-11T11:31:02-05:00
; #@! TF.GenerationSoftware,Kicad,Pcbnew,9.0.3
; #@! TF.FileFunction,Plated,1,2,PTH
FMAT,2
INCH
; #@! TA.AperFunction,Plated,PTH,ComponentDrill
T1C0.0550
%
G90
G05
T1
X4.0079Y-4.6161
X4.0079Y-4.7539
X4.0079Y-4.8917
X4.0079Y-5.0295
X4.0315Y-3.8504
X4.0315Y-4.0866
X4.1024Y-5.5787
X4.1024Y-5.815
X4.1693Y-3.8504
X4.1693Y-4.0866
X4.2402Y-5.5787
X4.2402Y-5.815
X4.2441Y-4.6161
X4.2441Y-4.7539
X4.2441Y-4.8917
X4.2441Y-5.0295
X4.3071Y-3.8504
X4.3071Y-4.0866
X4.378Y-5.5787
X4.378Y-5.815
X4.4449Y-3.8504
X4.4449Y-4.0866
X4.5827Y-3.8504
X4.5827Y-4.0866
X4.7205Y-3.8504
X4.7205Y-4.0866
X4.8583Y-3.8504
X4.8583Y-4.0866
X4.8661Y-4.7008
X4.8661Y-4.937
X4.9961Y-3.8504
X4.9961Y-4.0866
X5.0039Y-4.7008
X5.0039Y-4.937
X5.1092Y-5.7019
X5.1092Y-5.9381
X5.1417Y-4.7008
X5.1417Y-4.937
X5.247Y-5.7019
X5.247Y-5.9381
X5.2795Y-4.7008
X5.2795Y-4.937
X5.3848Y-5.7019
X5.3848Y-5.9381
X5.4173Y-4.7008
X5.4173Y-4.937
X5.5226Y-5.7019
X5.5226Y-5.9381
X5.5551Y-4.7008
X5.5551Y-4.937
X5.6457Y-3.752
X5.6457Y-3.9882
X5.6604Y-5.7019
X5.6604Y-5.9381
X5.6929Y-4.7008
X5.6929Y-4.937
X5.7835Y-3.752
X5.7835Y-3.9882
X5.7981Y-5.7019
X5.7981Y-5.9381
X5.8307Y-4.7008
X5.8307Y-4.937
X5.9213Y-3.752
X5.9213Y-3.9882
X5.9359Y-5.7019
X5.9359Y-5.9381
X5.9685Y-4.7008
X5.9685Y-4.937
X6.0591Y-3.752
X6.0591Y-3.9882
X6.0737Y-5.7019
X6.0737Y-5.9381
X6.1063Y-4.7008
X6.1063Y-4.937
X6.2115Y-5.7019
X6.2115Y-5.9381
X6.3493Y-5.7019
X6.3493Y-5.9381
X6.7087Y-4.2441
X6.7087Y-4.3819
X6.7087Y-4.5197
X6.7087Y-4.6575
X6.7087Y-4.7953
X6.7087Y-4.9331
X6.7087Y-5.0709
X6.7087Y-5.2087
X6.9449Y-4.2441
X6.9449Y-4.3819
X6.9449Y-4.5197
X6.9449Y-4.6575
X6.9449Y-4.7953
X6.9449Y-4.9331
X6.9449Y-5.0709
X6.9449Y-5.2087
M30
