%TF.GenerationSoftware,KiCad,Pcbnew,9.0.3*%
%TF.CreationDate,2025-10-11T11:31:02-05:00*%
%TF.ProjectId,MX150_Test_Board,4d583135-305f-4546-9573-745f426f6172,rev?*%
%TF.SameCoordinates,Original*%
%TF.FileFunction,Soldermask,Bot*%
%TF.FilePolarity,Negative*%
%FSLAX46Y46*%
G04 Gerber Fmt 4.6, Leading zero omitted, Abs format (unit mm)*
G04 Created by KiCad (PCBNEW 9.0.3) date 2025-10-11 11:31:02*
%MOMM*%
%LPD*%
G01*
G04 APERTURE LIST*
%ADD10C,1.905000*%
G04 APERTURE END LIST*
D10*
%TO.C,J5*%
X143400000Y-101300003D03*
X146900001Y-101300003D03*
X150400001Y-101300003D03*
X153900002Y-101300003D03*
X143400000Y-95300000D03*
X146900001Y-95300000D03*
X150400001Y-95300000D03*
X153900002Y-95300000D03*
%TD*%
%TO.C,J1*%
X111200000Y-141700000D03*
X107700000Y-141700000D03*
X104199999Y-141700000D03*
X111200000Y-147700003D03*
X107700000Y-147700003D03*
X104199999Y-147700003D03*
%TD*%
%TO.C,J4*%
X155100003Y-119399997D03*
X151600002Y-119399997D03*
X148100001Y-119399997D03*
X144600001Y-119399997D03*
X141100000Y-119399997D03*
X137599999Y-119399997D03*
X134099999Y-119399997D03*
X130599996Y-119399997D03*
X127099995Y-119399997D03*
X123599994Y-119399997D03*
X155100003Y-125400000D03*
X151600002Y-125400000D03*
X148100001Y-125400000D03*
X144600001Y-125400000D03*
X141100000Y-125400000D03*
X137599999Y-125400000D03*
X134099999Y-125400000D03*
X130599996Y-125400000D03*
X127099995Y-125400000D03*
X123599994Y-125400000D03*
%TD*%
%TO.C,J2*%
X107800003Y-127750002D03*
X107800003Y-124250001D03*
X107800003Y-120750001D03*
X107800003Y-117250000D03*
X101800000Y-127750002D03*
X101800000Y-124250001D03*
X101800000Y-120750001D03*
X101800000Y-117250000D03*
%TD*%
%TO.C,J3*%
X102399996Y-103800601D03*
X105899997Y-103800601D03*
X109399998Y-103800601D03*
X112899998Y-103800601D03*
X116399999Y-103800601D03*
X119900000Y-103800601D03*
X123400000Y-103800601D03*
X126900001Y-103800601D03*
X102399996Y-97800598D03*
X105899997Y-97800598D03*
X109399998Y-97800598D03*
X112899998Y-97800598D03*
X116399999Y-97800598D03*
X119900000Y-97800598D03*
X123400000Y-97800598D03*
X126900001Y-97800598D03*
%TD*%
%TO.C,J7*%
X161272907Y-144828799D03*
X157772906Y-144828799D03*
X154272905Y-144828799D03*
X150772905Y-144828799D03*
X147272904Y-144828799D03*
X143772903Y-144828799D03*
X140272903Y-144828799D03*
X136772900Y-144828799D03*
X133272899Y-144828799D03*
X129772898Y-144828799D03*
X161272907Y-150828802D03*
X157772906Y-150828802D03*
X154272905Y-150828802D03*
X150772905Y-150828802D03*
X147272904Y-150828802D03*
X143772903Y-150828802D03*
X140272903Y-150828802D03*
X136772900Y-150828802D03*
X133272899Y-150828802D03*
X129772898Y-150828802D03*
%TD*%
%TO.C,J6*%
X170399997Y-107799996D03*
X170399997Y-111299997D03*
X170399997Y-114799998D03*
X170399997Y-118299998D03*
X170399997Y-121799999D03*
X170399997Y-125300000D03*
X170399997Y-128800000D03*
X170399997Y-132300001D03*
X176400000Y-107799996D03*
X176400000Y-111299997D03*
X176400000Y-114799998D03*
X176400000Y-118299998D03*
X176400000Y-121799999D03*
X176400000Y-125300000D03*
X176400000Y-128800000D03*
X176400000Y-132300001D03*
%TD*%
M02*
